<svg width="15" height="15" viewBox="0 0 15 15" fill="none" xmlns="http://www.w3.org/2000/svg">
  <g clip-path="url(#clip0_2325_10545)">
    <path d="M7.10443 0.732742C8.18443 0.668842 9.27973 0.868042 10.2667 1.31189C10.4053 1.37504 10.5121 1.50284 10.5511 1.64999C10.5921 1.80179 10.5615 1.97129 10.4682 2.09819C10.3578 2.25194 10.1592 2.33579 9.97213 2.30774C9.87403 2.29664 9.78778 2.24549 9.69733 2.21039C9.05893 1.94429 8.37178 1.79609 7.68058 1.77404C6.78463 1.74509 5.88253 1.93154 5.07118 2.31284C4.09858 2.76674 3.26008 3.50174 2.68168 4.40579C2.12218 5.27609 1.80478 6.30044 1.77778 7.33499C1.73833 8.59034 2.13193 9.85349 2.87338 10.8669C3.58408 11.8465 4.61428 12.589 5.76883 12.9526C6.77173 13.2729 7.86329 13.3078 8.88434 13.0509C9.63449 12.8644 10.3456 12.5235 10.9611 12.0558C11.5287 11.6251 12.015 11.0875 12.3858 10.479C12.8313 9.75119 13.1103 8.92244 13.1958 8.07329C13.2328 7.72844 13.2262 7.38149 13.2265 7.03529C13.228 6.94964 13.2184 6.86189 13.2451 6.77894C13.2966 6.59294 13.4593 6.44354 13.6494 6.40904C13.7401 6.39374 13.8357 6.39734 13.923 6.42869C14.0881 6.48374 14.2194 6.62774 14.2597 6.79694C14.2888 6.92414 14.2719 7.05569 14.2765 7.18499C14.2813 7.64219 14.2668 8.10104 14.1924 8.55314C13.9887 9.85964 13.3905 11.1012 12.4951 12.0744C11.6797 12.9667 10.6203 13.6329 9.46274 13.9812C8.61658 14.2375 7.71988 14.326 6.83998 14.239C5.77318 14.1361 4.73278 13.7742 3.83218 13.1932C2.87488 12.579 2.07793 11.718 1.53868 10.7166C0.914834 9.56594 0.636734 8.23154 0.748934 6.92744C0.845534 5.76104 1.25203 4.62224 1.91623 3.65849C2.46523 2.85824 3.18868 2.17859 4.02223 1.68149C4.95328 1.12304 6.02068 0.794992 7.10443 0.732742Z" fill="#9294A5" />
    <path d="M13.5179 2.02802C13.7386 1.91672 14.0326 1.98557 14.1746 2.18957C14.3219 2.38412 14.3053 2.68037 14.1362 2.85662C13.7093 3.28457 13.2814 3.71162 12.854 4.13927C12.0457 4.95557 11.2304 5.76497 10.4189 6.57827C9.96126 7.03592 9.50346 7.49372 9.04581 7.95137C8.65416 8.34932 8.25771 8.74292 7.86261 9.13742C7.67796 9.31982 7.35681 9.32957 7.16166 9.15857C7.05021 9.05507 6.94582 8.94407 6.83707 8.83757C6.30997 8.31047 5.78287 7.78337 5.25577 7.25627C5.14387 7.14452 5.08417 6.98207 5.10307 6.82427C5.12017 6.64547 5.23746 6.48032 5.40096 6.40577C5.55726 6.33092 5.75077 6.34097 5.89852 6.43187C5.96662 6.47162 6.01896 6.53162 6.07461 6.58652C6.54981 7.06157 7.02487 7.53692 7.50022 8.01182C7.92321 7.58927 8.34576 7.16627 8.76861 6.74357C9.13776 6.37277 9.51066 6.00557 9.87666 5.63162C11.0143 4.49402 12.1519 3.35657 13.2895 2.21882C13.3604 2.14952 13.4252 2.06972 13.5179 2.02802Z" fill="#9294A5" />
  </g>
  <defs>
    <clipPath id="clip0_2325_10545">
      <rect width="15" height="15" fill="white" />
    </clipPath>
  </defs>
</svg>