<svg width="15" height="15" viewBox="0 0 15 15" fill="none" xmlns="http://www.w3.org/2000/svg">
  <g clip-path="url(#clip0_2325_10967)">
    <path d="M7.41532 0.725254C8.56912 0.709204 9.72652 0.993004 10.7392 1.5474C11.7665 2.1063 12.6442 2.93595 13.2599 3.93015C13.7662 4.74285 14.0948 5.6652 14.2178 6.61485C14.3416 7.5648 14.2651 8.54115 13.9879 9.45855C13.6534 10.5749 13.021 11.5992 12.1771 12.4023C11.3174 13.2254 10.237 13.8159 9.07852 14.0904C8.16097 14.3093 7.19812 14.3337 6.27037 14.1638C5.21587 13.9722 4.21042 13.5221 3.36292 12.8664C2.50987 12.2093 1.81657 11.346 1.36087 10.3703C0.785322 9.1485 0.595872 7.7523 0.810372 6.42C0.976272 5.3751 1.39462 4.37205 2.01787 3.5172C2.65567 2.6391 3.50722 1.91745 4.47892 1.4337C5.38732 0.979054 6.39982 0.736504 7.41532 0.725254ZM7.43017 1.7751C6.38242 1.78635 5.33947 2.09175 4.45402 2.6526C3.67087 3.14505 3.01027 3.82995 2.54587 4.63005C2.01592 5.5392 1.74682 6.59775 1.77757 7.64955C1.80172 8.7324 2.14537 9.80535 2.75407 10.7012C3.36862 11.6129 4.25047 12.342 5.26297 12.771C6.25672 13.1954 7.37212 13.3251 8.43757 13.1483C9.29137 13.0088 10.1114 12.6695 10.8154 12.1668C11.4283 11.7312 11.9539 11.1738 12.3532 10.5368C12.8122 9.80791 13.1012 8.97315 13.192 8.11665C13.301 7.1118 13.1405 6.078 12.7244 5.15625C12.2816 4.16865 11.5516 3.31275 10.6474 2.718C9.70177 2.08995 8.56462 1.75935 7.43017 1.7751Z" fill="#A12232" />
    <path d="M7.41899 10.5182C7.56704 10.5426 7.72484 10.5012 7.84064 10.4057C8.00009 10.2773 8.07029 10.0515 8.01254 9.8552C7.96694 9.6914 7.83689 9.5537 7.67474 9.50135C7.52744 9.4529 7.35779 9.4688 7.22534 9.55115C7.04384 9.65945 6.94349 9.884 6.98324 10.0916C7.01834 10.3071 7.20224 10.4885 7.41899 10.5182Z" fill="#A12232" />
    <path d="M7.38712 8.01279C7.59397 8.06034 7.82452 7.96824 7.93852 7.78869C7.99507 7.70349 8.02552 7.60179 8.02492 7.49949C8.02462 6.66444 8.02477 5.82939 8.02492 4.99434C8.02462 4.84989 7.96102 4.70694 7.85317 4.61049C7.69762 4.46349 7.44892 4.43289 7.25992 4.53114C7.08907 4.61754 6.97357 4.80249 6.97462 4.99449C6.97507 5.83494 6.97432 6.67554 6.97507 7.51614C6.97717 7.75059 7.15762 7.96659 7.38712 8.01279Z" fill="#A12232" />
  </g>
  <defs>
    <clipPath id="clip0_2325_10967">
      <rect width="15" height="15" fill="white" />
    </clipPath>
  </defs>
</svg>