<svg width="16" height="16" viewBox="0 0 16 16" fill="none" xmlns="http://www.w3.org/2000/svg">
  <path d="M7.60248 1.23238C8.68248 1.16848 9.77778 1.36768 10.7648 1.81153C10.9034 1.87468 11.0102 2.00248 11.0492 2.14963C11.0901 2.30143 11.0595 2.47093 10.9662 2.59783C10.8558 2.75158 10.6572 2.83543 10.4702 2.80738C10.3721 2.79628 10.2858 2.74513 10.1954 2.71003C9.55698 2.44393 8.86983 2.29573 8.17863 2.27368C7.28268 2.24473 6.38058 2.43118 5.56923 2.81248C4.59663 3.26638 3.75813 4.00138 3.17973 4.90543C2.62023 5.77573 2.30283 6.80008 2.27583 7.83463C2.23638 9.08998 2.62998 10.3531 3.37143 11.3665C4.08213 12.3462 5.11233 13.0887 6.26688 13.4523C7.26978 13.7725 8.36133 13.8075 9.38238 13.5505C10.1325 13.3641 10.8437 13.0231 11.4591 12.5554C12.0267 12.1248 12.513 11.5872 12.8838 10.9786C13.3293 10.2508 13.6083 9.42208 13.6938 8.57293C13.7309 8.22808 13.7243 7.88113 13.7246 7.53493C13.7261 7.44928 13.7165 7.36153 13.7432 7.27858C13.7946 7.09258 13.9574 6.94318 14.1474 6.90868C14.2382 6.89338 14.3337 6.89698 14.421 6.92833C14.5862 6.98338 14.7174 7.12738 14.7578 7.29658C14.7869 7.42378 14.7699 7.55533 14.7746 7.68463C14.7794 8.14183 14.7648 8.60068 14.6904 9.05278C14.4867 10.3593 13.8885 11.6008 12.9932 12.574C12.1778 13.4664 11.1183 14.1325 9.96078 14.4808C9.11463 14.7372 8.21793 14.8257 7.33803 14.7387C6.27123 14.6358 5.23083 14.2738 4.33023 13.6929C3.37293 13.0786 2.57598 12.2176 2.03673 11.2162C1.41288 10.0656 1.13478 8.73118 1.24698 7.42708C1.34358 6.26068 1.75008 5.12188 2.41428 4.15813C2.96328 3.35788 3.68673 2.67823 4.52028 2.18113C5.45133 1.62268 6.51873 1.29463 7.60248 1.23238Z" fill="#9294A5" />
  <path d="M14.016 2.52759C14.2366 2.41629 14.5306 2.48514 14.6727 2.68914C14.82 2.88369 14.8033 3.17994 14.6343 3.35619C14.2074 3.78414 13.7794 4.21119 13.3521 4.63884C12.5437 5.45514 11.7285 6.26454 10.917 7.07784C10.4593 7.53549 10.0015 7.99329 9.54386 8.45094C9.15221 8.84889 8.75576 9.24249 8.36066 9.63699C8.17601 9.81939 7.85486 9.82914 7.65971 9.65814C7.54826 9.55464 7.44386 9.44364 7.33511 9.33714C6.80801 8.81004 6.28091 8.28294 5.75381 7.75584C5.64191 7.64409 5.58221 7.48164 5.60111 7.32384C5.61821 7.14504 5.73551 6.97989 5.89901 6.90534C6.05531 6.83049 6.24881 6.84054 6.39656 6.93144C6.46466 6.97119 6.51701 7.03119 6.57266 7.08609C7.04786 7.56114 7.52291 8.03649 7.99826 8.51139C8.42126 8.08884 8.84381 7.66584 9.26666 7.24314C9.63581 6.87234 10.0087 6.50514 10.3747 6.13119C11.5123 4.99359 12.6499 3.85614 13.7875 2.71839C13.8585 2.64909 13.9233 2.56929 14.016 2.52759Z" fill="#9294A5" />
</svg>