<svg width="14" height="15" viewBox="0 0 14 15" fill="none" xmlns="http://www.w3.org/2000/svg">
  <path d="M6.91532 0.725254C8.06912 0.709204 9.22652 0.993004 10.2392 1.5474C11.2665 2.1063 12.1442 2.93595 12.7599 3.93015C13.2662 4.74285 13.5948 5.6652 13.7178 6.61485C13.8416 7.5648 13.7651 8.54115 13.4879 9.45855C13.1534 10.5749 12.521 11.5992 11.6771 12.4023C10.8174 13.2254 9.73697 13.8159 8.57852 14.0904C7.66097 14.3093 6.69812 14.3337 5.77037 14.1638C4.71587 13.9722 3.71042 13.5221 2.86292 12.8664C2.00987 12.2093 1.31657 11.346 0.860872 10.3703C0.285322 9.1485 0.0958721 7.7523 0.310372 6.42C0.476272 5.3751 0.894622 4.37205 1.51787 3.5172C2.15567 2.6391 3.00722 1.91745 3.97892 1.4337C4.88732 0.979054 5.89982 0.736504 6.91532 0.725254ZM6.93017 1.7751C5.88242 1.78635 4.83947 2.09175 3.95402 2.6526C3.17087 3.14505 2.51027 3.82995 2.04587 4.63005C1.51592 5.5392 1.24682 6.59775 1.27757 7.64955C1.30172 8.7324 1.64537 9.80535 2.25407 10.7012C2.86862 11.6129 3.75047 12.342 4.76297 12.771C5.75672 13.1954 6.87212 13.3251 7.93757 13.1483C8.79137 13.0088 9.61142 12.6695 10.3154 12.1668C10.9283 11.7312 11.4539 11.1738 11.8532 10.5368C12.3122 9.80791 12.6012 8.97315 12.692 8.11665C12.801 7.1118 12.6405 6.078 12.2244 5.15625C11.7816 4.16865 11.0516 3.31275 10.1474 2.718C9.20177 2.08995 8.06462 1.75935 6.93017 1.7751Z" fill="#E64348" />
  <path d="M6.91899 10.5182C7.06704 10.5426 7.22484 10.5012 7.34064 10.4057C7.50009 10.2773 7.57029 10.0515 7.51254 9.8552C7.46694 9.6914 7.33689 9.5537 7.17474 9.50135C7.02744 9.4529 6.85779 9.4688 6.72534 9.55115C6.54384 9.65945 6.44349 9.884 6.48324 10.0916C6.51834 10.3071 6.70224 10.4885 6.91899 10.5182Z" fill="#E64348" />
  <path d="M6.88712 8.01279C7.09397 8.06034 7.32452 7.96824 7.43852 7.78869C7.49507 7.70349 7.52552 7.60179 7.52492 7.49949C7.52462 6.66444 7.52477 5.82939 7.52492 4.99434C7.52462 4.84989 7.46102 4.70694 7.35317 4.61049C7.19762 4.46349 6.94892 4.43289 6.75992 4.53114C6.58907 4.61754 6.47357 4.80249 6.47462 4.99449C6.47507 5.83494 6.47432 6.67554 6.47507 7.51614C6.47717 7.75059 6.65762 7.96659 6.88712 8.01279Z" fill="#E64348" />
</svg>