<svg width="14" height="14" viewBox="0 0 14 14" fill="none" xmlns="http://www.w3.org/2000/svg">
  <path d="M0.682858 0.276645C0.992048 0.129684 1.38641 0.198631 1.62618 0.443168C3.41738 2.23366 5.20763 4.0251 6.99907 5.81535C8.71107 4.10431 10.4221 2.39255 12.1339 0.681025C12.251 0.570089 12.3548 0.443646 12.4862 0.348455C12.7336 0.173343 13.0786 0.151155 13.347 0.29239C13.5436 0.391875 13.6953 0.573668 13.7609 0.783612C13.854 1.07467 13.7733 1.41249 13.5551 1.62721C11.7648 3.41841 9.97336 5.20842 8.18335 6.99963C9.97336 8.79083 11.7646 10.5806 13.5548 12.3718C13.728 12.5443 13.8192 12.7946 13.7955 13.0384C13.7753 13.3011 13.6197 13.5485 13.3926 13.6818C13.0758 13.8772 12.633 13.823 12.3729 13.557C10.5812 11.7663 8.79076 9.97463 6.99931 8.1839C5.20787 9.97368 3.4181 11.7651 1.62689 13.5554C1.489 13.6923 1.30291 13.7808 1.10847 13.7961C0.831011 13.8233 0.544486 13.6997 0.375099 13.4781C0.121258 13.1646 0.147023 12.6695 0.431879 12.384C2.22523 10.5882 4.02097 8.79489 5.8148 6.99963C4.0725 5.25638 2.32925 3.51384 0.586475 1.77083C0.511563 1.69377 0.430209 1.62243 0.365079 1.53655C0.218595 1.34283 0.165393 1.08374 0.220504 0.84755C0.27466 0.598957 0.451442 0.382094 0.682858 0.276645Z" fill="#A12232" />
</svg>