<svg width="14" height="14" viewBox="0 0 14 14" fill="none" xmlns="http://www.w3.org/2000/svg">
  <path d="M1.05675 0.671792C1.34775 0.533475 1.71892 0.598367 1.94458 0.828522C3.63042 2.51371 5.31536 4.19979 7.00143 5.88475C8.61272 4.27434 10.2231 2.66325 11.8342 1.05239C11.9444 0.947978 12.0421 0.828971 12.1658 0.739379C12.3987 0.574566 12.7234 0.553683 12.976 0.686612C13.161 0.780246 13.3038 0.951346 13.3655 1.14894C13.4531 1.42288 13.3772 1.74083 13.1718 1.94292C11.4868 3.62878 9.80076 5.31351 8.11604 6.99937C9.80076 8.68523 11.4866 10.3697 13.1715 12.0556C13.3346 12.2179 13.4203 12.4535 13.3981 12.683C13.379 12.9302 13.2326 13.163 13.0188 13.2886C12.7207 13.4725 12.3039 13.4215 12.0592 13.1711C10.3729 11.4857 8.68772 9.7994 7.00165 8.11399C5.31559 9.7985 3.63109 11.4846 1.94525 13.1695C1.81547 13.2984 1.64033 13.3817 1.45733 13.3961C1.19619 13.4217 0.92652 13.3054 0.767097 13.0968C0.528187 12.8017 0.552437 12.3358 0.820537 12.067C2.5084 10.3769 4.1985 8.68905 5.88681 6.99937C4.247 5.35865 2.6063 3.7186 0.966039 2.0781C0.895533 2.00557 0.818965 1.93843 0.757666 1.8576C0.619799 1.67527 0.569727 1.43142 0.621595 1.20912C0.672566 0.975148 0.838949 0.77104 1.05675 0.671792Z" fill="#B4B8BB" />
</svg>