<svg width="16" height="17" viewBox="0 0 16 17" fill="none" xmlns="http://www.w3.org/2000/svg">
  <path d="M0.735872 0.767885C1.09144 0.59888 1.54496 0.67817 1.82069 0.959387C3.88057 3.01845 5.93936 5.07861 7.99952 7.1374C9.96832 5.1697 11.936 3.20117 13.9045 1.23292C14.0393 1.10535 14.1586 0.959936 14.3098 0.850467C14.5943 0.649088 14.991 0.623572 15.2997 0.785993C15.5257 0.9004 15.7002 1.10946 15.7757 1.3509C15.8827 1.68562 15.7899 2.07411 15.5389 2.32103C13.4801 4.38092 11.42 6.43943 9.36144 8.49932C11.42 10.5592 13.4798 12.6174 15.5386 14.6773C15.7378 14.8757 15.8426 15.1635 15.8155 15.4439C15.7921 15.746 15.6132 16.0305 15.3521 16.1838C14.9877 16.4085 14.4785 16.3462 14.1795 16.0403C12.119 13.981 10.06 11.9206 7.9998 9.86123C5.93964 11.9195 3.8814 13.9796 1.82151 16.0384C1.66293 16.1959 1.44893 16.2977 1.22533 16.3152C0.906249 16.3465 0.576745 16.2044 0.38195 15.9495C0.0900321 15.589 0.119663 15.0197 0.447247 14.6913C2.5096 12.6262 4.5747 10.5639 6.6376 8.49932C4.63396 6.49458 2.62922 4.49066 0.625032 2.48619C0.538883 2.39758 0.445326 2.31554 0.370426 2.21677C0.20197 1.99399 0.140788 1.69604 0.204165 1.42443C0.266444 1.13854 0.469744 0.889152 0.735872 0.767885Z" fill="#76788E" />
</svg>