<svg width="26" height="26" viewBox="0 0 26 26" fill="none" xmlns="http://www.w3.org/2000/svg">
  <path d="M9.55589 0.634384C11.0031 0.615634 12.4509 0.628884 13.8984 0.624884C14.7461 0.626134 15.5941 0.619884 16.4419 0.634634C17.4856 0.650134 18.5314 0.678384 19.5706 0.786134C20.5536 0.893384 21.5504 1.06738 22.4449 1.50913C23.2401 1.89738 23.9151 2.52763 24.3529 3.29713C24.7576 4.00138 24.9691 4.79788 25.1019 5.59413C25.2466 6.48064 25.3004 7.37888 25.3346 8.27563C25.3609 9.05888 25.3724 9.84214 25.3739 10.6259C25.3794 12.0671 25.3866 13.5086 25.3739 14.9499C25.3724 16.3461 25.3641 17.7441 25.2541 19.1369C25.1601 20.2084 25.0101 21.2979 24.5654 22.2874C24.1799 23.1546 23.5154 23.8961 22.6874 24.3621C21.8506 24.8366 20.8954 25.0444 19.9504 25.1691C18.5911 25.3404 17.2186 25.3549 15.8511 25.3731C15.0586 25.3774 14.2661 25.3736 13.4739 25.3749C11.8656 25.3701 10.2569 25.3906 8.64939 25.3471C7.70614 25.3189 6.76139 25.2731 5.82639 25.1391C5.07564 25.0276 4.32489 24.8574 3.63564 24.5316C2.78889 24.1381 2.06989 23.4746 1.61739 22.6571C1.12465 21.7716 0.924145 20.7604 0.804645 19.7641C0.681395 18.6971 0.651895 17.6224 0.632395 16.5496C0.608895 14.7251 0.620395 12.8999 0.617645 11.0749C0.627395 10.4091 0.622895 9.74313 0.639645 9.07738C0.663895 8.00713 0.703145 6.93438 0.851395 5.87313C0.958145 5.13413 1.12114 4.39538 1.43089 3.71238C1.79764 2.88963 2.41364 2.17788 3.18539 1.71113C3.71064 1.38788 4.29864 1.17988 4.89589 1.03663C5.51264 0.889634 6.14289 0.808384 6.77339 0.752634C7.69864 0.672884 8.62764 0.648384 9.55589 0.634384ZM4.79889 8.14988C4.81289 8.88613 4.87039 9.62163 4.97764 10.3504C5.15664 11.5456 5.47439 12.7276 5.99914 13.8196C6.40664 14.6649 6.93615 15.4581 7.60465 16.1196C8.30315 16.8339 9.15515 17.3936 10.0781 17.7736C11.0354 18.1696 12.0649 18.3766 13.0974 18.4354C13.4364 18.4636 13.7769 18.4466 14.1166 18.4511C14.1176 17.2251 14.1149 15.9991 14.1181 14.7734C14.3721 14.8039 14.6254 14.8454 14.8721 14.9139C15.7259 15.1424 16.5031 15.6264 17.1069 16.2689C17.6901 16.8869 18.1194 17.6434 18.3796 18.4506C19.3564 18.4519 20.3334 18.4509 21.3101 18.4511C20.9526 17.1244 20.2519 15.8909 19.2929 14.9066C18.6554 14.2464 17.9081 13.6889 17.0811 13.2884C18.0771 12.6906 18.9184 11.8516 19.5674 10.8916C20.1234 10.0669 20.5199 9.13138 20.6969 8.15113C19.8081 8.14838 18.9194 8.15063 18.0306 8.14988C17.8804 8.69038 17.6491 9.20638 17.3661 9.68988C16.8999 10.4701 16.2911 11.1796 15.5266 11.6799C15.1034 11.9601 14.6234 12.1659 14.1169 12.2269C14.1166 10.8681 14.1166 9.50914 14.1169 8.15013C13.2276 8.14938 12.3381 8.15013 11.4489 8.14988C11.4486 10.5284 11.4491 12.9071 11.4486 15.2856C10.8676 15.1409 10.3369 14.8281 9.89065 14.4331C9.5964 14.1844 9.34789 13.8866 9.12064 13.5769C8.55889 12.7939 8.19489 11.8844 7.96764 10.9521C7.74089 10.0359 7.64839 9.09163 7.62464 8.14988C6.68264 8.14988 5.74064 8.14988 4.79889 8.14988Z" fill="#9294A5" />
</svg>