<svg width="18" height="18" viewBox="0 0 18 18" fill="none" xmlns="http://www.w3.org/2000/svg">
  <path d="M4.77278 1.93671C5.96678 1.23835 7.34738 0.843308 8.74138 0.803358C10.3708 0.749056 12.0126 1.18444 13.3888 2.03212C14.5458 2.74114 15.5142 3.73661 16.1754 4.89866C16.7386 5.88345 17.0814 6.98577 17.1742 8.10807C17.1978 8.37996 17.2034 8.65283 17.2008 8.9255C17.2008 10.7093 17.2008 12.4931 17.2008 14.2769C17.2068 14.5042 17.1904 14.733 17.1328 14.9541C16.9786 15.5815 16.5348 16.1334 15.9464 16.4336C15.7014 16.5601 15.4328 16.6437 15.1578 16.6803C14.9134 16.7147 14.666 16.6976 14.42 16.7017C14.18 16.6976 13.9386 16.7137 13.6998 16.6834C13.3936 16.6468 13.0964 16.5485 12.8278 16.4016C11.7526 16.6627 10.6774 16.9233 9.60138 17.1813C9.27998 17.2573 8.91998 17.0798 8.80038 16.7796C8.67178 16.4963 8.77518 16.1375 9.03798 15.9614C9.14338 15.8829 9.27498 15.8532 9.40198 15.8251C10.2004 15.6321 10.9988 15.4397 11.7976 15.2493C11.6726 14.9411 11.6214 14.6083 11.6358 14.2781C11.6358 13.6053 11.6358 12.9328 11.6358 12.2602C11.6378 12.0463 11.6246 11.831 11.6636 11.6192C11.7746 10.9158 12.2468 10.2778 12.899 9.95121C13.2364 9.77687 13.6182 9.6894 14 9.6863C14.6002 9.68572 15.2004 9.6863 15.8006 9.68611C15.7984 9.30309 15.8058 8.92007 15.7968 8.53744C15.7526 7.08313 15.1902 5.65054 14.2278 4.53464C13.2976 3.44474 11.995 2.66105 10.5752 2.33621C9.46918 2.07944 8.29698 2.09864 7.20098 2.39245C6.09238 2.68645 5.06338 3.25895 4.24418 4.0405C3.33438 4.90001 2.68418 6.01339 2.38898 7.21112C2.25778 7.73979 2.19518 8.28435 2.20078 8.82814C2.20078 9.114 2.20058 9.40005 2.20098 9.68611C2.80158 9.6863 3.40218 9.68572 4.00298 9.68649C4.36898 9.68979 4.73558 9.76969 5.06238 9.93124C5.64018 10.2082 6.08778 10.7262 6.26898 11.3258C6.33458 11.5409 6.37018 11.7653 6.36598 11.9897C6.36558 12.8174 6.36578 13.6451 6.36598 14.473C6.35158 15.1453 6.00938 15.8026 5.46098 16.2141C5.11658 16.4757 4.69638 16.6433 4.26118 16.6879C4.06158 16.7106 3.86058 16.6988 3.66038 16.7017C3.31878 16.697 2.97178 16.7245 2.63658 16.6437C1.99938 16.5054 1.43218 16.0964 1.11138 15.545C0.915581 15.2136 0.808781 14.8337 0.800781 14.452C0.800781 12.5449 0.800781 10.6379 0.800781 8.73079C0.801981 7.30596 1.20938 5.88442 1.96598 4.66322C2.65218 3.54946 3.62538 2.60403 4.77278 1.93671ZM2.20098 11.0436C2.20058 12.1671 2.20098 13.2906 2.20078 14.414C2.20258 14.6337 2.28678 14.8519 2.43558 15.0179C2.61418 15.2214 2.88598 15.343 3.16138 15.3441C3.36098 15.3441 3.56078 15.3439 3.76038 15.3441C3.92798 15.3418 4.09978 15.3575 4.26238 15.3084C4.65278 15.2066 4.95258 14.8457 4.96558 14.4528C4.96618 13.6189 4.96538 12.7848 4.96598 11.9509C4.95898 11.6033 4.72978 11.2736 4.40358 11.1315C4.26578 11.0689 4.11298 11.0431 3.96138 11.0436C3.37458 11.0438 2.78778 11.0436 2.20098 11.0436ZM13.4814 11.1936C13.2168 11.3545 13.0428 11.6474 13.0356 11.9507C13.0358 12.7776 13.036 13.6047 13.0356 14.4319C13.0364 14.5376 13.06 14.6423 13.0982 14.7412C13.2296 15.0835 13.5828 15.3311 13.9596 15.3433C14.2528 15.3453 14.5462 15.3435 14.8394 15.3441C15.1196 15.3433 15.3962 15.2173 15.5748 15.0078C15.7184 14.843 15.7992 14.6285 15.8008 14.4127C15.8006 13.2896 15.801 12.1667 15.8006 11.0436C15.2072 11.0438 14.6136 11.0434 14.02 11.0438C13.8308 11.0442 13.6406 11.0931 13.4814 11.1936Z" fill="#556290" />
</svg>