<svg width="17" height="18" viewBox="0 0 17 18" fill="none" xmlns="http://www.w3.org/2000/svg">
  <path d="M4.02278 1.97328C5.21678 1.25308 6.59738 0.845676 7.99138 0.804476C9.62078 0.748476 11.2626 1.19748 12.6388 2.07168C13.7958 2.80288 14.7642 3.82948 15.4254 5.02788C15.9886 6.04348 16.3314 7.18028 16.4242 8.33768C16.4478 8.61808 16.4534 8.89948 16.4508 9.18068C16.4508 11.0203 16.4508 12.8599 16.4508 14.6995C16.4568 14.9339 16.4404 15.1699 16.3828 15.3979C16.2286 16.0449 15.7848 16.6141 15.1964 16.9237C14.9514 17.0541 14.6828 17.1403 14.4078 17.1781C14.1634 17.2135 13.916 17.1959 13.67 17.2001C13.43 17.1959 13.1886 17.2125 12.9498 17.1813C12.6436 17.1435 12.3464 17.0421 12.0778 16.8907C11.0026 17.1599 9.92738 17.4287 8.85138 17.6947C8.52998 17.7731 8.16998 17.5901 8.05038 17.2805C7.92178 16.9883 8.02518 16.6183 8.28798 16.4367C8.39338 16.3557 8.52498 16.3251 8.65198 16.2961C9.45038 16.0971 10.2488 15.8987 11.0476 15.7023C10.9226 15.3845 10.8714 15.0413 10.8858 14.7007C10.8858 14.0069 10.8858 13.3133 10.8858 12.6197C10.8878 12.3991 10.8746 12.1771 10.9136 11.9587C11.0246 11.2333 11.4968 10.5753 12.149 10.2385C12.4864 10.0587 12.8682 9.96848 13.25 9.96528C13.8502 9.96468 14.4504 9.96528 15.0506 9.96508C15.0484 9.57008 15.0558 9.17508 15.0468 8.78048C15.0026 7.28068 14.4402 5.80328 13.4778 4.65248C12.5476 3.52848 11.245 2.72028 9.82518 2.38528C8.71918 2.12048 7.54698 2.14028 6.45098 2.44328C5.34238 2.74648 4.31338 3.33688 3.49418 4.14288C2.58438 5.02928 1.93418 6.17748 1.63898 7.41268C1.50778 7.95788 1.44518 8.51948 1.45078 9.08028C1.45078 9.37508 1.45058 9.67008 1.45098 9.96508C2.05158 9.96528 2.65218 9.96468 3.25298 9.96548C3.61898 9.96888 3.98558 10.0513 4.31238 10.2179C4.89018 10.5035 5.33778 11.0377 5.51898 11.6561C5.58458 11.8779 5.62018 12.1093 5.61598 12.3407C5.61558 13.1943 5.61578 14.0479 5.61598 14.9017C5.60158 15.5951 5.25938 16.2729 4.71098 16.6973C4.36658 16.9671 3.94638 17.1399 3.51118 17.1859C3.31158 17.2093 3.11058 17.1971 2.91038 17.2001C2.56878 17.1953 2.22178 17.2237 1.88658 17.1403C1.24938 16.9977 0.682181 16.5759 0.361381 16.0073C0.165581 15.6655 0.0587813 15.2737 0.0507812 14.8801C0.0507812 12.9133 0.0507812 10.9467 0.0507812 8.97988C0.0519812 7.51048 0.459381 6.04448 1.21598 4.78508C1.90218 3.63648 2.87538 2.66148 4.02278 1.97328ZM1.45098 11.3651C1.45058 12.5237 1.45098 13.6823 1.45078 14.8409C1.45258 15.0675 1.53678 15.2925 1.68558 15.4637C1.86418 15.6735 2.13598 15.7989 2.41138 15.8001C2.61098 15.8001 2.81078 15.7999 3.01038 15.8001C3.17798 15.7977 3.34978 15.8139 3.51238 15.7633C3.90278 15.6583 4.20258 15.2861 4.21558 14.8809C4.21618 14.0209 4.21538 13.1607 4.21598 12.3007C4.20898 11.9423 3.97978 11.6023 3.65358 11.4557C3.51578 11.3911 3.36298 11.3645 3.21138 11.3651C2.62458 11.3653 2.03778 11.3651 1.45098 11.3651ZM12.7314 11.5197C12.4668 11.6857 12.2928 11.9877 12.2856 12.3005C12.2858 13.1533 12.286 14.0063 12.2856 14.8593C12.2864 14.9683 12.31 15.0763 12.3482 15.1783C12.4796 15.5313 12.8328 15.7867 13.2096 15.7993C13.5028 15.8013 13.7962 15.7995 14.0894 15.8001C14.3696 15.7993 14.6462 15.6693 14.8248 15.4533C14.9684 15.2833 15.0492 15.0621 15.0508 14.8395C15.0506 13.6813 15.051 12.5233 15.0506 11.3651C14.4572 11.3653 13.8636 11.3649 13.27 11.3653C13.0808 11.3657 12.8906 11.4161 12.7314 11.5197Z" fill="#9294A5" />
</svg>