<svg width="16" height="18" viewBox="0 0 16 18" fill="none" xmlns="http://www.w3.org/2000/svg">
  <path d="M4.07954 1.93768C5.1861 1.23933 6.46559 0.844284 7.7575 0.804334C9.26757 0.750033 10.7891 1.18541 12.0645 2.0331C13.1368 2.74212 14.0343 3.73758 14.6471 4.89963C15.169 5.88443 15.4867 6.98675 15.5727 8.10904C15.5946 8.38094 15.5998 8.6538 15.5974 8.92647C15.5974 10.7103 15.5974 12.4941 15.5974 14.2779C15.6029 14.5052 15.5877 14.734 15.5343 14.9551C15.3914 15.5825 14.9801 16.1344 14.4348 16.4346C14.2078 16.5611 13.9588 16.6447 13.704 16.6813C13.4775 16.7156 13.2482 16.6986 13.0202 16.7026C12.7978 16.6986 12.5741 16.7147 12.3528 16.6844C12.069 16.6478 11.7936 16.5494 11.5446 16.4026C10.5482 16.6637 9.55171 16.9243 8.55451 17.1822C8.25665 17.2583 7.92302 17.0808 7.81218 16.7806C7.69299 16.4973 7.78882 16.1385 8.03237 15.9624C8.13006 15.8838 8.25202 15.8542 8.36972 15.8261C9.10964 15.6331 9.84957 15.4407 10.5899 15.2503C10.474 14.9421 10.4266 14.6093 10.4399 14.279C10.4399 13.6063 10.4399 12.9337 10.4399 12.2612C10.4418 12.0473 10.4295 11.832 10.4657 11.6202C10.5686 10.9168 11.0062 10.2788 11.6106 9.95219C11.9233 9.77784 12.2771 9.69038 12.631 9.68728C13.1872 9.68669 13.7435 9.68728 14.2997 9.68708C14.2977 9.30406 14.3045 8.92104 14.2962 8.53841C14.2552 7.0841 13.734 5.65151 12.8421 4.53562C11.98 3.44571 10.7728 2.66203 9.45699 2.33719C8.43199 2.08042 7.34564 2.09962 6.32991 2.39343C5.3025 2.68743 4.34886 3.25992 3.58966 4.04148C2.74649 4.90099 2.1439 6.01436 1.87032 7.2121C1.74873 7.74076 1.69072 8.28533 1.69591 8.82912C1.69591 9.11498 1.69572 9.40103 1.69609 9.68708C2.25271 9.68728 2.80932 9.68669 3.36612 9.68747C3.70532 9.69077 4.04507 9.77067 4.34793 9.93222C4.88342 10.2092 5.29824 10.7271 5.46617 11.3268C5.52696 11.5419 5.55995 11.7662 5.55606 11.9906C5.55569 12.8183 5.55588 13.646 5.55606 14.474C5.54272 15.1463 5.22558 15.8036 4.71734 16.2151C4.39816 16.4767 4.00874 16.6443 3.60541 16.6889C3.42043 16.7116 3.23415 16.6997 3.04861 16.7026C2.73203 16.698 2.41044 16.7255 2.09979 16.6446C1.50926 16.5064 0.983596 16.0974 0.68629 15.546C0.50483 15.2146 0.405852 14.8347 0.398438 14.453C0.398438 12.5459 0.398438 10.6389 0.398438 8.73176C0.39955 7.30693 0.777113 5.8854 1.4783 4.6642C2.11425 3.55044 3.01617 2.60501 4.07954 1.93768ZM1.69609 11.0446C1.69572 12.1681 1.69609 13.2915 1.69591 14.415C1.69757 14.6347 1.77561 14.8529 1.91351 15.0189C2.07903 15.2223 2.33092 15.3439 2.58616 15.3451C2.77114 15.3451 2.9563 15.3449 3.14129 15.3451C3.29661 15.3428 3.45583 15.3585 3.60652 15.3094C3.96833 15.2076 4.24617 14.8467 4.25822 14.4538C4.25878 13.6199 4.25804 12.7858 4.25859 11.9518C4.25211 11.6043 4.03969 11.2746 3.73738 11.1325C3.60967 11.0698 3.46806 11.044 3.32757 11.0446C2.78374 11.0448 2.23992 11.0446 1.69609 11.0446ZM12.1504 11.1945C11.9051 11.3555 11.7439 11.6483 11.7372 11.9516C11.7374 12.7786 11.7376 13.6057 11.7372 14.4328C11.7379 14.5385 11.7598 14.6433 11.7952 14.7422C11.917 15.0845 12.2443 15.3321 12.5935 15.3443C12.8653 15.3463 13.1372 15.3445 13.4089 15.3451C13.6686 15.3443 13.9249 15.2183 14.0904 15.0088C14.2235 14.844 14.2984 14.6295 14.2999 14.4136C14.2997 13.2906 14.3001 12.1677 14.2997 11.0446C13.7498 11.0448 13.1996 11.0444 12.6495 11.0448C12.4742 11.0452 12.2979 11.0941 12.1504 11.1945Z" fill="white" />
</svg>