<svg width="295" height="528" viewBox="0 0 295 528" fill="none" xmlns="http://www.w3.org/2000/svg">
  <path d="M0 0.39582C9.44885 0.35452 18.8564 1.31032 28.2049 2.61422C57.6784 6.94777 86.2845 17.0043 112.079 31.9018C118.976 35.8548 125.673 40.1795 132.001 44.9998C140.326 51.3187 148.111 58.5197 154.099 67.1366C159.669 75.081 163.589 84.5711 163.406 94.3946C163.271 103.793 159.524 112.859 154.037 120.384C150.627 124.901 147.134 129.385 143.09 133.355C139.092 137.432 134.249 140.512 129.599 143.775C125.399 146.551 121.233 149.386 116.938 152.02C116.401 152.356 115.867 152.74 115.608 153.344C117.262 152.754 118.743 151.787 120.295 150.979C129.195 146.382 137.966 141.536 146.819 136.851C157.318 131.5 167.528 125.609 177.976 120.163C188.841 114.475 200.178 109.628 211.952 106.15C222.58 103.003 233.726 101.295 244.818 102.068C256.452 102.908 268.055 107.643 276.126 116.225C283.194 123.588 287.743 133.046 290.398 142.825C292.345 149.896 293.49 157.174 294.015 164.481C294.504 166.782 293.938 169.269 295 171.449V183.113C294.466 184.346 294.248 185.691 294.254 187.031C292.87 210.914 286.722 234.496 276.592 256.17C266.659 277.419 252.992 296.862 236.749 313.757C221.126 330.088 203.146 344.124 183.708 355.638C168.489 364.529 152.515 372.55 135.316 376.78C128.104 378.527 120.711 379.736 113.274 379.539C104.701 379.359 95.8927 377.285 88.8215 372.246C86.2167 370.491 84.2608 367.839 81.2695 366.662C81.1456 399.906 81.2341 433.152 81.2164 466.396C81.1692 472.201 81.3108 478.027 81.1486 483.821C76.6587 486.461 72.0065 488.839 67.4488 491.376C46.3356 502.837 25.1605 514.186 4.0238 525.605C2.6491 526.322 1.2803 527.059 0 527.941V121.428C13.5965 117.641 26.845 112.216 38.6332 104.38C42.8517 101.522 46.9817 98.4597 50.4656 94.7132C55.3273 89.7395 59.174 83.4088 59.8938 76.379C60.4366 71.5351 59.0472 66.6233 56.7934 62.3547C55.0529 59.2247 52.9112 56.2983 50.3063 53.8292C48.1174 51.478 45.6158 49.4573 43.0995 47.469C35.1109 41.4244 26.0868 36.905 16.8209 33.1733C11.3457 30.9932 5.664 29.3855 0 27.7984V0.39582ZM175.112 178.004C174.168 178.11 173.233 178.266 172.295 178.405C161.297 180.529 151.028 185.37 141.464 191.078C124.77 201.152 110.374 215.029 99.8103 231.422C89.9425 246.685 83.3965 264.241 81.7061 282.369C81.1574 286.652 81.2578 290.98 81.2932 295.296C81.3167 296.449 81.24 297.62 81.5085 298.756C81.7681 302.019 82.184 305.267 82.9215 308.458C84.4054 315.114 87.2669 321.621 92.0253 326.595C96.8691 331.819 103.875 334.737 110.911 335.271C113.363 335.25 115.844 335.478 118.277 335.097C123.337 334.737 128.29 333.418 133.072 331.766C138.473 329.816 143.7 327.395 148.704 324.574C159.666 318.48 169.719 310.759 178.469 301.777C196.022 283.841 208.146 260.356 211.397 235.39C211.757 233.788 211.547 232.13 211.931 230.534C211.963 228.711 212.297 226.909 212.235 225.083C212.217 222.035 212.353 218.976 212.108 215.941C211.657 208.049 210.258 200.016 206.591 192.925C204.308 188.553 201.016 184.653 196.856 181.968C192.977 179.414 188.372 178.195 183.794 177.762C180.903 177.741 177.976 177.532 175.112 178.004Z" fill="#F5F5F5" />
</svg>