<svg width="167" height="532" viewBox="0 0 167 532" fill="none" xmlns="http://www.w3.org/2000/svg">
  <g clip-path="url(#clip0_6210_10167)">
    <path d="M-128 0.39582C-118.551 0.35452 -109.144 1.31032 -99.7951 2.61422C-70.3216 6.94777 -41.7155 17.0043 -15.9207 31.9018C-9.02356 35.8548 -2.32706 40.1795 4.00069 44.9998C12.3256 51.3187 20.1106 58.5197 26.0991 67.1366C31.6687 75.081 35.5893 84.5711 35.4064 94.3946C35.2707 103.793 31.5242 112.859 26.0372 120.384C22.627 124.901 19.1342 129.385 15.0897 133.355C11.0925 137.432 6.2486 140.512 1.5994 143.775C-2.6014 146.551 -6.76681 149.386 -11.062 152.02C-11.5989 152.356 -12.1329 152.74 -12.3924 153.344C-10.7375 152.754 -9.25661 151.787 -7.7049 150.979C1.19525 146.382 9.96559 141.536 18.8185 136.851C29.3176 131.5 39.5275 125.609 49.9764 120.163C60.8413 114.475 72.1781 109.628 83.9516 106.15C94.5804 103.003 105.726 101.295 116.818 102.068C128.452 102.908 140.055 107.643 148.126 116.225C155.194 123.588 159.743 133.046 162.398 142.825C164.345 149.896 165.49 157.174 166.015 164.481C166.504 166.782 165.938 169.269 167 171.449V183.113C166.466 184.346 166.248 185.691 166.254 187.031C164.87 210.914 158.722 234.496 148.592 256.17C138.659 277.419 124.992 296.862 108.749 313.757C93.1261 330.088 75.1458 344.124 55.7083 355.638C40.4892 364.529 24.515 372.55 7.3165 376.78C0.103745 378.527 -7.28896 379.736 -14.7259 379.539C-23.2986 379.359 -32.1073 377.285 -39.1785 372.246C-41.7833 370.491 -43.7392 367.839 -46.7305 366.662C-46.8544 399.906 -46.7659 433.152 -46.7836 466.396C-46.8308 472.201 -46.6892 478.027 -46.8514 483.821C-51.3413 486.461 -55.9935 488.839 -60.5512 491.376C-81.6644 502.837 -102.839 514.186 -123.976 525.605C-125.351 526.322 -126.72 527.059 -128 527.941V121.428C-114.403 117.641 -101.155 112.216 -89.3668 104.38C-85.1483 101.522 -81.0183 98.4597 -77.5344 94.7132C-72.6727 89.7395 -68.826 83.4088 -68.1062 76.379C-67.5634 71.5351 -68.9528 66.6233 -71.2066 62.3547C-72.9471 59.2247 -75.0888 56.2983 -77.6937 53.8292C-79.8826 51.478 -82.3842 49.4573 -84.9005 47.469C-92.8891 41.4244 -101.913 36.905 -111.179 33.1733C-116.654 30.9932 -122.336 29.3855 -128 27.7984V0.39582ZM47.112 178.004C46.168 178.11 45.2328 178.266 44.2947 178.405C33.2971 180.529 23.0282 185.37 13.4643 191.078C-3.22975 201.152 -17.6258 215.029 -28.1897 231.422C-38.0575 246.685 -44.6035 264.241 -46.2939 282.369C-46.8426 286.652 -46.7422 290.98 -46.7068 295.296C-46.6833 296.449 -46.76 297.62 -46.4915 298.756C-46.2319 302.019 -45.816 305.267 -45.0785 308.458C-43.5946 315.114 -40.7331 321.621 -35.9747 326.595C-31.1309 331.819 -24.1246 334.737 -17.0889 335.271C-14.6374 335.25 -12.1565 335.478 -9.7227 335.097C-4.66345 334.737 0.289597 333.418 5.07155 331.766C10.473 329.816 15.7004 327.395 20.7036 324.574C31.6658 318.48 41.7194 310.759 50.4691 301.777C68.0216 283.841 80.1461 260.356 83.397 235.39C83.7569 233.788 83.5474 232.13 83.9309 230.534C83.9634 228.711 84.2967 226.909 84.2348 225.083C84.2171 222.035 84.3528 218.976 84.1079 215.941C83.6566 208.049 82.2583 200.016 78.5914 192.925C76.3081 188.553 73.0159 184.653 68.8564 181.968C64.9772 179.414 60.3723 178.195 55.7939 177.762C52.9028 177.741 49.9764 177.532 47.112 178.004Z" fill="#F5F5F5" />
  </g>
  <defs>
    <clipPath id="clip0_6210_10167">
      <rect width="295" height="590" fill="white" transform="translate(-128)" />
    </clipPath>
  </defs>
</svg>