<svg width="20" height="20" viewBox="0 0 20 20" fill="none" xmlns="http://www.w3.org/2000/svg">
<path fill-rule="evenodd" clip-rule="evenodd" d="M11 0H4C3.20435 0 2.44129 0.316071 1.87868 0.87868C1.31607 1.44129 1 2.20435 1 3V17C1 17.7956 1.31607 18.5587 1.87868 19.1213C2.44129 19.6839 3.20435 20 4 20H16C16.7956 20 17.5587 19.6839 18.1213 19.1213C18.6839 18.5587 19 17.7956 19 17V8H14C13.2044 8 12.4413 7.68393 11.8787 7.12132C11.3161 6.55871 11 5.79565 11 5V0Z" fill="#C75033"/>
<path fill-rule="evenodd" clip-rule="evenodd" d="M19 6V5.828C19 5.5 18.6834 5.27023 18.121 4.708L14.293 0.878C13.7304 0.315719 13.5 -2.15723e-08 13.172 0H13C13 0 13 4.73478 13 5C13 5.26522 13.1054 5.51957 13.2929 5.70711C13.4804 5.89464 13.7348 6 14 6H19Z" fill="#C75033"/>
<path fill-rule="evenodd" clip-rule="evenodd" d="M19 6V5.828C19 5.5 18.6834 5.27023 18.121 4.708L14.293 0.878C13.7304 0.315719 13.5 -2.15723e-08 13.172 0H13C13 0 13 4.73478 13 5C13 5.26522 13.1054 5.51957 13.2929 5.70711C13.4804 5.89464 13.7348 6 14 6H19Z" fill="black" fill-opacity="0.1"/>
<path d="M7.28906 17V9.72729H10.2934C10.8379 9.72729 11.3078 9.83383 11.7032 10.0469C12.1009 10.2576 12.4075 10.5523 12.6229 10.9311C12.8383 11.3075 12.9461 11.7455 12.9461 12.245C12.9461 12.7469 12.836 13.1861 12.6158 13.5625C12.398 13.9366 12.0867 14.2266 11.6819 14.4325C11.277 14.6385 10.7964 14.7415 10.2401 14.7415H8.38636V13.3565H9.91335C10.1785 13.3565 10.3999 13.3104 10.5775 13.218C10.7574 13.1257 10.8935 12.9967 10.9858 12.831C11.0782 12.6629 11.1243 12.4676 11.1243 12.245C11.1243 12.0201 11.0782 11.826 10.9858 11.6626C10.8935 11.4969 10.7574 11.3691 10.5775 11.2791C10.3975 11.1892 10.1762 11.1442 9.91335 11.1442H9.04687V17H7.28906Z" fill="white"/>
</svg>
