<svg width="20" height="20" viewBox="0 0 20 20" fill="none" xmlns="http://www.w3.org/2000/svg">
<path fill-rule="evenodd" clip-rule="evenodd" d="M11 0H4C3.20435 0 2.44129 0.316071 1.87868 0.87868C1.31607 1.44129 1 2.20435 1 3V17C1 17.7956 1.31607 18.5587 1.87868 19.1213C2.44129 19.6839 3.20435 20 4 20H16C16.7956 20 17.5587 19.6839 18.1213 19.1213C18.6839 18.5587 19 17.7956 19 17V8H14C13.2044 8 12.4413 7.68393 11.8787 7.12132C11.3161 6.55871 11 5.79565 11 5V0Z" fill="#E2574C"/>
<path fill-rule="evenodd" clip-rule="evenodd" d="M19 6V5.828C19 5.5 18.6834 5.27023 18.121 4.708L14.293 0.878C13.7304 0.315719 13.5 -2.15723e-08 13.172 0H13C13 0 13 4.73478 13 5C13 5.26522 13.1054 5.51957 13.2929 5.70711C13.4804 5.89464 13.7348 6 14 6H19Z" fill="#E2574C"/>
<path fill-rule="evenodd" clip-rule="evenodd" d="M19 6V5.828C19 5.5 18.6834 5.27023 18.121 4.708L14.293 0.878C13.7304 0.315719 13.5 -2.15723e-08 13.172 0H13C13 0 13 4.73478 13 5C13 5.26522 13.1054 5.51957 13.2929 5.70711C13.4804 5.89464 13.7348 6 14 6H19Z" fill="black" fill-opacity="0.1"/>
<path d="M3.49805 16V10.9091H5.60103C5.98219 10.9091 6.31114 10.9837 6.5879 11.1328C6.8663 11.2803 7.08091 11.4866 7.23172 11.7518C7.38252 12.0153 7.45792 12.3219 7.45792 12.6715C7.45792 13.0228 7.38086 13.3303 7.22674 13.5938C7.07428 13.8556 6.85636 14.0586 6.57298 14.2028C6.2896 14.3469 5.95319 14.419 5.56375 14.419H4.26616V13.4496H5.33505C5.52066 13.4496 5.67561 13.4173 5.7999 13.3526C5.92584 13.288 6.02113 13.1977 6.08576 13.0817C6.1504 12.964 6.18271 12.8273 6.18271 12.6715C6.18271 12.5141 6.1504 12.3782 6.08576 12.2638C6.02113 12.1478 5.92584 12.0584 5.7999 11.9954C5.67395 11.9324 5.519 11.9009 5.33505 11.9009H4.72852V16H3.49805ZM9.9462 16H8.06446V10.9091H9.94372C10.4625 10.9091 10.9091 11.011 11.2836 11.2148C11.6598 11.417 11.9498 11.7087 12.1536 12.0898C12.3575 12.4693 12.4594 12.9234 12.4594 13.4521C12.4594 13.9824 12.3575 14.4381 12.1536 14.8192C11.9515 15.2004 11.6623 15.4929 11.2861 15.6967C10.9099 15.8989 10.4633 16 9.9462 16ZM9.29493 14.951H9.89897C10.1841 14.951 10.4252 14.9029 10.6224 14.8068C10.8212 14.709 10.9712 14.5508 11.0723 14.332C11.1751 14.1116 11.2264 13.8183 11.2264 13.4521C11.2264 13.0858 11.1751 12.7942 11.0723 12.5771C10.9696 12.3583 10.8179 12.2009 10.6174 12.1048C10.4185 12.007 10.1733 11.9581 9.88157 11.9581H9.29493V14.951ZM13.1778 16V10.9091H16.6529V11.9084H14.4082V12.9524H16.4317V13.9542H14.4082V16H13.1778Z" fill="white"/>
</svg>
