<svg width="20" height="20" viewBox="0 0 20 20" fill="none" xmlns="http://www.w3.org/2000/svg">
<path fill-rule="evenodd" clip-rule="evenodd" d="M11 0H4C3.20435 0 2.44129 0.316071 1.87868 0.87868C1.31607 1.44129 1 2.20435 1 3V17C1 17.7956 1.31607 18.5587 1.87868 19.1213C2.44129 19.6839 3.20435 20 4 20H16C16.7956 20 17.5587 19.6839 18.1213 19.1213C18.6839 18.5587 19 17.7956 19 17V8H14C13.2044 8 12.4413 7.68393 11.8787 7.12132C11.3161 6.55871 11 5.79565 11 5V0Z" fill="#424C70"/>
<path fill-rule="evenodd" clip-rule="evenodd" d="M19 6V5.828C19 5.5 18.6834 5.27023 18.121 4.708L14.293 0.878C13.7304 0.315719 13.5 -2.15723e-08 13.172 0H13C13 0 13 4.73478 13 5C13 5.26522 13.1054 5.51957 13.2929 5.70711C13.4804 5.89464 13.7348 6 14 6H19Z" fill="#424C70"/>
<path fill-rule="evenodd" clip-rule="evenodd" d="M19 6V5.828C19 5.5 18.6834 5.27023 18.121 4.708L14.293 0.878C13.7304 0.315719 13.5 -2.15723e-08 13.172 0H13C13 0 13 4.73478 13 5C13 5.26522 13.1054 5.51957 13.2929 5.70711C13.4804 5.89464 13.7348 6 14 6H19Z" fill="black" fill-opacity="0.1"/>
<path d="M7 14.5996L10 17.5996L13 14.5996" stroke="white" stroke-width="2" stroke-linecap="round" stroke-linejoin="round"/>
<path d="M10 17.5996V10.5996" stroke="white" stroke-width="2" stroke-linecap="round" stroke-linejoin="round"/>
</svg>
