<svg width="20" height="20" viewBox="0 0 20 20" fill="none" xmlns="http://www.w3.org/2000/svg">
<path fill-rule="evenodd" clip-rule="evenodd" d="M11 0H4C3.20435 0 2.44129 0.316071 1.87868 0.87868C1.31607 1.44129 1 2.20435 1 3V17C1 17.7956 1.31607 18.5587 1.87868 19.1213C2.44129 19.6839 3.20435 20 4 20H16C16.7956 20 17.5587 19.6839 18.1213 19.1213C18.6839 18.5587 19 17.7956 19 17V8H14C13.2044 8 12.4413 7.68393 11.8787 7.12132C11.3161 6.55871 11 5.79565 11 5V0Z" fill="#B4B8BB"/>
<path fill-rule="evenodd" clip-rule="evenodd" d="M19 6V5.828C19 5.5 18.6834 5.27023 18.121 4.708L14.293 0.878C13.7304 0.315719 13.5 -2.15723e-08 13.172 0H13C13 0 13 4.73478 13 5C13 5.26522 13.1054 5.51957 13.2929 5.70711C13.4804 5.89464 13.7348 6 14 6H19Z" fill="#B4B8BB"/>
<path fill-rule="evenodd" clip-rule="evenodd" d="M19 6V5.828C19 5.5 18.6834 5.27023 18.121 4.708L14.293 0.878C13.7304 0.315719 13.5 -2.15723e-08 13.172 0H13C13 0 13 4.73478 13 5C13 5.26522 13.1054 5.51957 13.2929 5.70711C13.4804 5.89464 13.7348 6 14 6H19Z" fill="black" fill-opacity="0.1"/>
<path d="M9.01189 14.7735V14.6279C9.01189 14.2255 9.04503 13.9047 9.11132 13.6656C9.17998 13.4265 9.27941 13.2347 9.40962 13.0903C9.53983 12.9435 9.69844 12.8098 9.88547 12.689C10.0347 12.5943 10.1672 12.4984 10.2832 12.4014C10.4016 12.3019 10.4951 12.1954 10.5638 12.0818C10.6324 11.9681 10.6668 11.8391 10.6668 11.6947C10.6668 11.555 10.6336 11.4319 10.5673 11.3254C10.5011 11.2188 10.4099 11.1372 10.2939 11.0804C10.1803 11.0212 10.0536 10.9916 9.91388 10.9916C9.7742 10.9916 9.64281 11.0235 9.5197 11.0875C9.39896 11.1514 9.29953 11.2425 9.22141 11.3609C9.14565 11.4769 9.10659 11.6178 9.10422 11.7835H7.4707C7.4778 11.2863 7.59262 10.8791 7.81516 10.5619C8.04006 10.2447 8.33717 10.0103 8.70649 9.85875C9.07581 9.70487 9.48301 9.62793 9.92808 9.62793C10.4158 9.62793 10.8491 9.70369 11.2278 9.8552C11.609 10.0067 11.9085 10.2305 12.1263 10.5264C12.3441 10.8223 12.453 11.1845 12.453 11.613C12.453 11.8947 12.4056 12.1433 12.3109 12.3588C12.2162 12.5742 12.0837 12.7648 11.9132 12.9305C11.7451 13.0938 11.5475 13.243 11.3202 13.3779C11.1426 13.4821 10.9947 13.591 10.8763 13.7046C10.7603 13.8183 10.6727 13.9485 10.6135 14.0953C10.5543 14.2397 10.5247 14.4172 10.5247 14.6279V14.7735H9.01189ZM9.79669 17.1031C9.54101 17.1031 9.32202 17.0131 9.13973 16.8332C8.95981 16.6533 8.87103 16.4355 8.8734 16.1798C8.87103 15.9288 8.95981 15.7146 9.13973 15.537C9.32202 15.3571 9.54101 15.2671 9.79669 15.2671C10.0406 15.2671 10.2548 15.3571 10.4395 15.537C10.6242 15.7146 10.7177 15.9288 10.72 16.1798C10.7177 16.3502 10.6727 16.5053 10.5851 16.645C10.4999 16.7847 10.3874 16.8959 10.2477 16.9788C10.1104 17.0617 9.96004 17.1031 9.79669 17.1031Z" fill="white"/>
</svg>
