<svg width="20" height="21" viewBox="0 0 20 21" fill="none" xmlns="http://www.w3.org/2000/svg">
<g clip-path="url(#clip0_4486_67514)">
<path fill-rule="evenodd" clip-rule="evenodd" d="M11 0.5H4C3.20435 0.5 2.44129 0.816071 1.87868 1.37868C1.31607 1.94129 1 2.70435 1 3.5V17.5C1 18.2956 1.31607 19.0587 1.87868 19.6213C2.44129 20.1839 3.20435 20.5 4 20.5H16C16.7956 20.5 17.5587 20.1839 18.1213 19.6213C18.6839 19.0587 19 18.2956 19 17.5V8.5H14C13.2044 8.5 12.4413 8.18393 11.8787 7.62132C11.3161 7.05871 11 6.29565 11 5.5V0.5Z" fill="#9294A5"/>
<path fill-rule="evenodd" clip-rule="evenodd" d="M19 6.5V6.328C19 6 18.6834 5.77023 18.121 5.208L14.293 1.378C13.7304 0.815719 13.5 0.5 13.172 0.5H13C13 0.5 13 5.23478 13 5.5C13 5.76522 13.1054 6.01957 13.2929 6.20711C13.4804 6.39464 13.7348 6.5 14 6.5H19Z" fill="#9294A5"/>
<path fill-rule="evenodd" clip-rule="evenodd" d="M19 6.5V6.328C19 6 18.6834 5.77023 18.121 5.208L14.293 1.378C13.7304 0.815719 13.5 0.5 13.172 0.5H13C13 0.5 13 5.23478 13 5.5C13 5.76522 13.1054 6.01957 13.2929 6.20711C13.4804 6.39464 13.7348 6.5 14 6.5H19Z" fill="black" fill-opacity="0.1"/>
<path d="M13.5 13H6.5" stroke="white" stroke-width="2" stroke-linecap="round" stroke-linejoin="round"/>
<path d="M10 9.5V16.5" stroke="white" stroke-width="2" stroke-linecap="round" stroke-linejoin="round"/>
</g>
<defs>
<clipPath id="clip0_4486_67514">
<rect width="20" height="20" fill="white" transform="translate(0 0.5)"/>
</clipPath>
</defs>
</svg>
