<svg width="20" height="15" viewBox="0 0 20 15" fill="none" xmlns="http://www.w3.org/2000/svg">
  <path d="M1.26704 0.951388C1.34892 0.941038 1.43172 0.944949 1.51406 0.944719C7.14906 0.944719 12.7838 0.944719 18.4188 0.944719C18.6079 0.942419 18.808 0.933218 18.98 1.02614C19.3034 1.17656 19.4911 1.55951 19.4156 1.9075C19.3517 2.26699 19.015 2.55219 18.6497 2.55426C12.8915 2.55541 7.13319 2.55426 1.37491 2.55495C1.14192 2.55702 0.911226 2.44984 0.761266 2.27182C0.552426 2.03078 0.509416 1.66232 0.659376 1.38057C0.775066 1.14896 1.01082 0.984048 1.26704 0.951388Z" fill="#9294A5" />
  <path d="M1.26429 6.70167C1.63091 6.68534 1.99868 6.69891 2.36576 6.69454C7.78548 6.69431 13.2052 6.69477 18.6249 6.69431C18.8853 6.69132 19.1431 6.82541 19.2887 7.04138C19.4669 7.29369 19.4784 7.64996 19.3174 7.91354C19.1771 8.15389 18.9039 8.30845 18.6254 8.30477C12.8754 8.30431 7.12538 8.30454 1.37538 8.30477C1.12123 8.3073 0.869609 8.17942 0.722409 7.97196C0.545999 7.7323 0.520239 7.39259 0.659849 7.1297C0.775079 6.89924 1.00945 6.73502 1.26429 6.70167Z" fill="#9294A5" />
  <path d="M1.26724 12.4514C1.61799 12.4355 1.96989 12.4489 2.32133 12.4445C7.756 12.4443 13.1909 12.4447 18.6258 12.4443C18.8595 12.4417 19.0913 12.5487 19.2415 12.7276C19.4425 12.9601 19.4899 13.3104 19.3586 13.5883C19.2572 13.8109 19.0485 13.9813 18.8096 14.0342C18.7123 14.0584 18.6115 14.0549 18.5126 14.0545C12.7928 14.0543 7.07313 14.0549 1.35326 14.054C0.948463 14.0536 0.586903 13.7019 0.572873 13.2978C0.538143 12.8905 0.861293 12.4967 1.26724 12.4514Z" fill="#9294A5" />
</svg>