<svg width="40" height="47" viewBox="0 0 40 47" fill="none" xmlns="http://www.w3.org/2000/svg">
  <path d="M11.7555 1.40947C12.4745 1.03547 13.303 0.948967 14.102 0.999467C18.067 1.00147 22.032 1.00047 25.997 0.999967C26.701 0.953467 27.4235 1.03647 28.071 1.32847C29.0255 1.74197 29.7995 2.55247 30.1655 3.52647C30.38 4.06947 30.4345 4.65897 30.4125 5.23797C31.4095 5.24197 32.407 5.22547 33.404 5.25547C35.1175 5.38197 36.7625 6.27347 37.7955 7.64847C38.5915 8.70197 39.0415 10.026 39 11.35C38.999 17.229 39.0025 23.1085 38.9985 28.9875C37.92 28.1775 36.675 27.591 35.3645 27.2725C35.361 22.1145 35.362 16.9565 35.364 11.799C35.4115 11.1825 35.35 10.5295 35.0055 9.99847C34.5605 9.28897 33.7425 8.81947 32.9015 8.82497C32.072 8.82647 31.2425 8.82497 30.4125 8.82597C30.472 9.74147 30.2295 10.6885 29.6815 11.431C28.9905 12.4 27.836 13.0115 26.6495 13.0655C22.418 13.0595 18.1855 13.065 13.9535 13.063C13.568 13.0635 13.179 13.077 12.799 12.9995C11.7525 12.81 10.7975 12.1735 10.2155 11.2835C9.72746 10.5665 9.54996 9.68097 9.57546 8.82447C8.73346 8.82797 7.89196 8.82247 7.04996 8.82747C6.04796 8.83447 5.09146 9.51747 4.76396 10.4655C4.54096 11.0855 4.63546 11.755 4.63746 12.399C4.63646 21.916 4.63896 31.433 4.63646 40.95C4.60396 41.5785 4.88246 42.192 5.30546 42.646C5.80346 43.166 6.53246 43.4475 7.25046 43.4135C13.274 43.415 19.2975 43.408 25.321 43.417C26.626 44.992 28.432 46.145 30.409 46.6695C30.9525 46.8175 31.51 46.906 32.069 46.9695C31.918 47.0235 31.7555 46.9945 31.599 47.0005C23.6165 47.0005 15.634 47.0005 7.65146 47.0005C7.24946 46.995 6.84646 47.0185 6.44646 46.9715C4.84846 46.8065 3.32096 45.995 2.31546 44.738C1.53596 43.766 1.04846 42.5485 0.999961 41.2995C0.999961 31.5995 0.999961 21.899 0.999961 12.1985C0.998461 11.915 1.00646 11.6315 0.989961 11.3485C0.957961 10.0485 1.38446 8.74847 2.15796 7.70547C3.26746 6.18647 5.11896 5.24447 6.99996 5.23747C7.85646 5.23997 8.71346 5.23397 9.57046 5.24097C9.57396 4.77247 9.60146 4.29897 9.72996 3.84597C10.012 2.79197 10.785 1.89547 11.7555 1.40947ZM13.412 4.61697C13.249 4.69247 13.205 4.88697 13.212 5.05047C13.214 6.31697 13.21 7.58297 13.214 8.84897C13.2285 9.01847 13.19 9.21097 13.302 9.35497C13.367 9.44997 13.491 9.47447 13.5995 9.47547C17.8655 9.47597 22.132 9.47497 26.398 9.47597C26.6025 9.49497 26.7995 9.30997 26.7755 9.10147C26.773 7.70097 26.777 6.30047 26.7735 4.89997C26.773 4.69047 26.546 4.55197 26.352 4.58447C25.3185 4.57047 24.2845 4.57697 23.251 4.57547C20.1335 4.57497 17.0165 4.57647 13.899 4.57497C13.737 4.57897 13.5665 4.55697 13.412 4.61697Z" fill="#FFFFFF" />
  <path d="M11.063 18.2663C11.191 18.2463 11.321 18.2383 11.4505 18.2373C14.285 18.2378 17.1195 18.2378 19.954 18.2373C20.2645 18.2368 20.5785 18.2998 20.852 18.4498C21.4335 18.7493 21.808 19.3983 21.7865 20.0508C21.7695 20.7453 21.301 21.4063 20.6455 21.6408C20.3935 21.7398 20.12 21.7598 19.852 21.7508C17.003 21.7498 14.1535 21.7498 11.3045 21.7508C10.444 21.7488 9.65448 21.0133 9.60048 20.1523C9.49498 19.2693 10.1885 18.3933 11.063 18.2663Z" fill="#FFFFFF" />
  <path d="M11.0489 26.6026C11.2479 26.5646 11.4509 26.5761 11.6519 26.5751C17.3194 26.5761 22.9864 26.5746 28.6539 26.5761C29.2499 26.5761 29.8264 26.9031 30.1429 27.4061C28.5219 27.8861 27.0309 28.7896 25.8489 29.9976C25.7994 30.0546 25.7354 30.1031 25.6549 30.0886C21.0039 30.0871 16.3529 30.0886 11.7019 30.0881C11.4859 30.0846 11.2679 30.1031 11.0544 30.0621C10.6129 29.9856 10.1994 29.7376 9.9349 29.3741C9.6554 28.9976 9.5329 28.5061 9.6149 28.0431C9.7249 27.3251 10.3334 26.7186 11.0489 26.6026Z" fill="#FFFFFF" />
  <path d="M9.84585 35.7504C10.1133 35.3084 10.5853 35.0019 11.0958 34.9254C11.3118 34.8919 11.5308 34.9004 11.7488 34.9004C15.5693 34.9004 19.3903 34.9004 23.2113 34.9004C22.9648 36.0519 22.9333 37.2464 23.0883 38.4124C19.1578 38.4139 15.2268 38.4124 11.2958 38.4134C10.5883 38.4069 9.91935 37.9154 9.69085 37.2474C9.52035 36.7589 9.57585 36.1929 9.84585 35.7504Z" fill="#FFFFFF" />
  <path d="M31.9415 31.2384C32.1114 30.7511 32.647 30.4302 33.1569 30.513C33.6848 30.5736 34.1196 31.056 34.1279 31.587C34.1292 33.0155 34.1283 34.444 34.1286 35.8728C35.4825 35.8728 36.8365 35.8728 38.1904 35.8728C38.3251 35.8735 38.4614 35.8654 38.5942 35.8941C38.891 35.9508 39.1579 36.1355 39.3213 36.3887C39.5044 36.6688 39.5485 37.0319 39.4457 37.3493C39.331 37.7151 39.0151 38.0093 38.6419 38.0966C38.4834 38.1392 38.318 38.1272 38.1559 38.1285C36.8136 38.1285 35.4709 38.1285 34.1286 38.1285C34.1283 39.5567 34.1292 40.9852 34.1279 42.4134C34.1189 42.8819 33.7821 43.3192 33.3328 43.451C33.0479 43.538 32.7292 43.5087 32.4669 43.3672C32.1881 43.2177 31.9757 42.9476 31.9038 42.6386C31.8619 42.4814 31.8735 42.3173 31.8725 42.1565C31.8725 40.8138 31.8725 39.4713 31.8725 38.1285C30.5299 38.1285 29.1872 38.1285 27.8446 38.1285C27.6905 38.1272 27.5339 38.1382 27.3824 38.1024C27.0891 38.0389 26.8268 37.8511 26.6689 37.5965C26.5119 37.3452 26.4613 37.0303 26.53 36.7419C26.6173 36.344 26.9418 36.0114 27.3363 35.9109C27.5107 35.8593 27.6941 35.8744 27.8736 35.8728C29.2066 35.8728 30.5396 35.8728 31.8725 35.8728C31.8725 34.5629 31.8725 33.253 31.8725 31.9428C31.8748 31.7069 31.8516 31.4623 31.9415 31.2384Z" fill="#FFFFFF" />
</svg>