<svg width="200" height="200" viewBox="0 0 200 200" fill="none" xmlns="http://www.w3.org/2000/svg">
<path d="M69.4641 8.72056C71.7093 8.01477 74.0985 7.92279 76.4337 8.05275C92.3623 8.04676 108.291 8.05475 124.22 8.04876C127.51 7.80683 130.895 8.44264 133.768 10.1002C137.611 12.2735 140.468 16.1344 141.346 20.4691C141.676 21.9547 141.68 23.4803 141.66 24.9938C145.644 25.0118 149.633 24.9498 153.618 25.0638C160.385 25.5676 166.887 29.0466 171.026 34.4311C174.023 38.3099 175.824 43.1285 175.998 48.0331C175.99 72.0101 176.006 95.9871 175.99 119.964C171.673 116.725 166.697 114.384 161.455 113.102C161.445 92.4761 161.453 71.8501 161.453 51.2242C161.635 48.8988 161.435 46.4516 160.241 44.3962C158.584 41.473 155.379 39.4796 152.014 39.3436C148.559 39.3436 145.102 39.3356 141.646 39.3476C141.912 43.0006 140.92 46.7835 138.743 49.7506C135.67 54.0693 130.292 56.6126 125.005 56.2867C107.881 56.2847 90.7569 56.2887 73.6307 56.2847C66.9589 56.1867 60.653 51.3461 58.9516 44.876C58.4558 43.0765 58.2938 41.1991 58.3418 39.3376C55.3768 39.3476 52.4098 39.3396 49.4448 39.3416C48.3552 39.3276 47.2516 39.3436 46.1859 39.6035C42.8771 40.3633 40.024 42.9246 39.0044 46.1756C38.2746 48.453 38.5505 50.8803 38.5905 53.2296C38.5945 91.2205 38.5905 129.209 38.5925 167.2C38.2626 170.815 40.2639 174.46 43.3929 176.258C44.7984 177.083 46.4099 177.563 48.0373 177.649C72.4571 177.665 96.8768 177.629 121.295 177.665C126.547 183.997 133.816 188.626 141.774 190.709C144.175 191.371 146.652 191.675 149.115 191.989C115.293 192.007 81.468 191.991 47.6454 191.999C40.5159 191.819 33.5182 188.356 29.1277 182.722C25.8368 178.513 23.8815 173.181 24.0474 167.812C24.0474 129.355 24.0474 90.9006 24.0474 52.4438C24.0414 51.3741 24.0734 50.3044 23.9994 49.2347C23.9575 45.4119 24.8612 41.579 26.6226 38.184C30.4653 30.5042 38.6845 25.3057 47.2536 25.0138C50.9483 24.9678 54.6451 25.0158 58.3398 24.9898C58.2499 21.6548 58.8936 18.2018 60.749 15.3786C62.7483 12.2255 65.8893 9.80624 69.4641 8.72056ZM73.6866 22.5105C73.1148 22.7725 72.8749 23.4303 72.8849 24.0241C72.8789 29.1686 72.8769 34.3111 72.8849 39.4556C72.9689 40.0794 72.7829 40.7772 73.1548 41.331C73.3887 41.7989 73.9566 41.9569 74.4444 41.9409C91.5626 41.9389 108.681 41.9449 125.799 41.9389C126.465 41.9189 127.111 41.321 127.113 40.6392C127.113 34.9769 127.113 29.3126 127.113 23.6502C127.101 22.7165 126.051 22.2086 125.221 22.3886C121.886 22.3246 118.547 22.3526 115.211 22.3466C101.947 22.3466 88.6836 22.3486 75.4201 22.3466C74.8423 22.3586 74.2325 22.2846 73.6866 22.5105Z" fill="#B4B8BB"/>
<path d="M64.2562 77.06C64.7682 76.9803 65.2862 76.9485 65.8062 76.9465C76.7362 76.9505 87.6662 76.9465 98.5982 76.9485C99.9902 76.9246 101.434 76.9186 102.736 77.48C105.546 78.559 107.428 81.5989 107.114 84.5831C106.89 87.3223 104.882 89.8267 102.232 90.6171C100.93 91.063 99.5422 90.9097 98.1942 90.9336C87.1282 90.9336 76.0622 90.9336 64.9962 90.9336C61.6382 90.7982 58.6102 87.9255 58.4002 84.5691C57.9762 81.0534 60.7582 77.5636 64.2562 77.06Z" fill="#B4B8BB"/>
<path d="M59.1956 113.983C60.3776 111.84 62.7076 110.346 65.1836 110.303C88.3236 110.297 111.466 110.303 134.606 110.301C136.988 110.305 139.298 111.603 140.564 113.609C133.924 115.557 127.86 119.303 123.052 124.248C120.776 124.352 118.476 124.262 116.19 124.292C99.1816 124.292 82.1756 124.294 65.1696 124.29C63.0016 124.216 60.8816 123.103 59.6416 121.325C58.1156 119.219 57.9276 116.256 59.1956 113.983Z" fill="#B4B8BB"/>
<path d="M149.634 130.828C153.1 130.436 156.762 130.84 159.844 132.566C162.446 134.002 164.508 136.3 165.846 138.938C167.558 142.222 168.246 145.94 168.424 149.612C168.592 154.28 168.236 159.096 166.36 163.43C165.516 165.366 164.396 167.204 162.886 168.694C160.606 171.052 157.444 172.46 154.2 172.798C150.942 173.132 147.524 172.778 144.588 171.248C142.034 169.974 139.984 167.838 138.572 165.378C135.92 160.744 135.368 155.244 135.554 150.002C135.704 146.112 136.408 142.154 138.258 138.69C139.596 136.142 141.618 133.92 144.166 132.548C145.85 131.614 147.726 131.056 149.634 130.828ZM150.692 137.938C148.072 138.478 146.358 140.89 145.518 143.276C144.268 146.974 144.216 150.958 144.46 154.816C144.75 158.076 145.428 161.598 147.796 164.026C149.962 166.25 153.904 166.312 156.092 164.088C158.646 161.578 159.294 157.832 159.542 154.406C159.684 151.058 159.684 147.642 158.79 144.386C158.226 142.444 157.374 140.464 155.774 139.152C154.39 137.984 152.454 137.538 150.692 137.938Z" fill="#B4B8BB"/>
<path d="M59.8024 146.395C61.1524 144.619 63.3704 143.591 65.5964 143.601C81.3524 143.601 97.1064 143.599 112.862 143.603C111.868 148.19 111.748 152.95 112.366 157.597C96.6444 157.603 80.9224 157.595 65.2004 157.601C62.2604 157.577 59.5064 155.467 58.6784 152.665C58.0544 150.555 58.4424 148.146 59.8024 146.395Z" fill="#B4B8BB"/>
</svg>
