<svg width="28" height="28" viewBox="0 0 28 28" fill="none" xmlns="http://www.w3.org/2000/svg">
<g clipPath="url(#clip0_725_5164)">
<path d="M4.75 7.25C4.75 6.65326 4.98705 6.08097 5.40901 5.65901C5.83097 5.23705 6.40326 5 7 5H20.5C21.0967 5 21.669 5.23705 22.091 5.65901C22.5129 6.08097 22.75 6.65326 22.75 7.25V9.5C22.75 10.0967 22.5129 10.669 22.091 11.091C21.669 11.5129 21.0967 11.75 20.5 11.75H7C6.40326 11.75 5.83097 11.5129 5.40901 11.091C4.98705 10.669 4.75 10.0967 4.75 9.5V7.25Z" stroke="#28252E" strokeWidth="1.5" strokeLinecap="round" strokeLinejoin="round"/>
<path d="M4.75 18.5C4.75 17.9033 4.98705 17.331 5.40901 16.909C5.83097 16.4871 6.40326 16.25 7 16.25H20.5C21.0967 16.25 21.669 16.4871 22.091 16.909C22.5129 17.331 22.75 17.9033 22.75 18.5V20.75C22.75 21.3467 22.5129 21.919 22.091 22.341C21.669 22.7629 21.0967 23 20.5 23H7C6.40326 23 5.83097 22.7629 5.40901 22.341C4.98705 21.919 4.75 21.3467 4.75 20.75V18.5Z" stroke="#28252E" strokeWidth="1.5" strokeLinecap="round" strokeLinejoin="round"/>
</g>
<defs>
<clipPath id="clip0_725_5164">
<rect width="27" height="27" fill="#28252E" transform="translate(0.25 0.5)"/>
</clipPath>
</defs>
</svg>
