<svg width="20" height="10" viewBox="0 0 20 10" fill="none" xmlns="http://www.w3.org/2000/svg">
  <path d="M3.377 0.552607C4.164 0.341207 5.0088 0.347007 5.7926 0.571407C6.4264 0.751007 7.019 1.07341 7.5156 1.50641C7.7514 1.70921 7.9572 1.94281 8.1804 2.15861C9.8344 3.83121 11.4878 5.50421 13.1428 7.17601C13.32 7.36121 13.5134 7.53241 13.729 7.67181C14.3326 8.07441 15.0806 8.25181 15.801 8.16821C16.3876 8.10241 16.9542 7.86601 17.412 7.49321C17.8442 7.14441 18.1842 6.68161 18.384 6.16321C18.6756 5.41961 18.6732 4.56621 18.3786 3.82381C18.157 3.25821 17.7688 2.76021 17.2766 2.40461C16.6558 1.95221 15.8634 1.74501 15.1004 1.83281C14.3992 1.90901 13.7286 2.23361 13.233 2.73521C12.9986 2.96681 12.7714 3.20541 12.5366 3.43661C12.4268 3.54061 12.3346 3.66681 12.1996 3.74041C11.9552 3.87861 11.6276 3.85041 11.4136 3.66721C11.1838 3.48041 11.0974 3.14321 11.205 2.86761C11.2448 2.75761 11.3158 2.66201 11.4008 2.58221C11.533 2.45381 11.6568 2.31721 11.7894 2.18881C12.0428 1.94261 12.2766 1.67541 12.5498 1.45001C13.0622 1.02061 13.6708 0.706807 14.3186 0.541007C15.191 0.315607 16.1312 0.358007 16.979 0.664407C18.1252 1.07341 19.0858 1.96601 19.586 3.07441C19.8358 3.61921 19.9722 4.21341 20 4.81161V5.19081C19.9626 6.05321 19.6868 6.90561 19.1968 7.61741C18.671 8.38481 17.909 8.99061 17.0364 9.31601C16.3578 9.57241 15.617 9.65681 14.8974 9.57001C14.2476 9.49121 13.6158 9.26861 13.0608 8.92201C12.6968 8.69701 12.3708 8.41521 12.0786 8.10361C10.472 6.48301 8.8696 4.85841 7.2638 3.23701C7.0664 3.04121 6.8762 2.83801 6.675 2.64581C6.2042 2.20961 5.5972 1.92221 4.9602 1.84021C4.348 1.75861 3.7122 1.86361 3.16 2.14061C2.5712 2.43181 2.082 2.91461 1.7732 3.49321C1.4562 4.08541 1.3358 4.77861 1.4284 5.44341C1.5172 6.09501 1.8132 6.71661 2.266 7.19421C2.7314 7.69561 3.3664 8.03701 4.0422 8.14621C4.81 8.27601 5.624 8.10341 6.272 7.67121C6.6916 7.40041 7.006 7.00621 7.3638 6.66441C7.5168 6.52481 7.638 6.34421 7.8258 6.24781C8.0196 6.14921 8.2602 6.15001 8.4542 6.24761C8.6094 6.32601 8.7334 6.46401 8.7942 6.62701C8.8758 6.84021 8.8478 7.09201 8.7188 7.28061C8.637 7.39661 8.5256 7.48701 8.4284 7.58941C8.2698 7.75721 8.1044 7.91821 7.9414 8.08181C7.7626 8.27081 7.5758 8.45261 7.3724 8.61501C6.8184 9.05921 6.158 9.36941 5.4622 9.51101C4.583 9.69161 3.6496 9.60561 2.8208 9.26001C2.1882 8.99921 1.6202 8.58901 1.1648 8.07921C0.663 7.51801 0.3032 6.83101 0.128 6.09881C0.0554 5.80721 0.0178 5.50821 0 5.20861V4.79281C0.0258 4.30841 0.1188 3.82681 0.29 3.37261C0.5436 2.69061 0.9628 2.07161 1.5014 1.58261C2.0322 1.09581 2.681 0.738407 3.377 0.552607Z" fill="#1D1D1F" />
</svg>