<svg width="20" height="21" viewBox="0 0 20 21" fill="none" xmlns="http://www.w3.org/2000/svg">
<path d="M17.6564 5.07355C17.9094 4.83475 18.3482 4.84055 18.5928 5.08875C18.8612 5.33455 18.874 5.79935 18.6214 6.06075C15.6388 9.06515 12.6556 12.0685 9.67256 15.0725C9.59336 15.1577 9.49676 15.2285 9.38556 15.2655C9.14816 15.3455 8.86556 15.2933 8.68476 15.1161C7.53596 13.9585 6.38616 12.8019 5.23756 11.6443C5.07796 11.4833 4.91496 11.3255 4.75916 11.1607C4.66536 11.0617 4.55456 10.9755 4.48716 10.8549C4.33376 10.5881 4.38236 10.2197 4.60916 10.0087C4.80756 9.81195 5.12916 9.76335 5.37976 9.88455C5.52076 9.94595 5.61796 10.0685 5.72596 10.1727C6.86996 11.3251 8.01496 12.4767 9.15816 13.6299C11.498 11.2789 13.8318 8.92235 16.171 6.57095C16.4322 6.29835 16.7072 6.03915 16.9674 5.76575C17.1972 5.53515 17.4292 5.30655 17.6564 5.07355Z" fill="#9294A5"/>
</svg>
