<svg width="20" height="21" viewBox="0 0 20 21" fill="none" xmlns="http://www.w3.org/2000/svg">
<path d="M14.4641 5.06542C14.7177 4.83502 15.1479 4.84402 15.3899 5.08742C15.6589 5.33282 15.6729 5.79782 15.4205 6.05962C15.0509 6.43082 14.6847 6.80502 14.3127 7.17382C14.0577 7.44122 13.7897 7.69582 13.5331 7.96142C11.8631 9.64322 10.1919 11.324 8.52334 13.0072C8.73794 13.2128 8.94834 13.4228 9.15914 13.6324C9.40154 13.3766 9.65914 13.1354 9.90234 12.8806C11.5509 11.2234 13.1957 9.56282 14.8445 7.90582C15.1055 7.63382 15.3797 7.37482 15.6397 7.10202C16.3139 6.42942 16.9807 5.74962 17.6545 5.07662C17.9081 4.82982 18.3583 4.84162 18.6011 5.09822C18.8575 5.34282 18.8705 5.78982 18.6305 6.04982C18.2985 6.38482 17.9679 6.72142 17.6329 7.05362C17.3689 7.33042 17.0909 7.59342 16.8259 7.86922C14.9317 9.77382 13.0409 11.6818 11.1465 13.5864C10.8883 13.8554 10.6167 14.1114 10.3601 14.3818C10.1507 14.5918 9.93994 14.8002 9.73174 15.0112C9.63834 15.1146 9.53254 15.2142 9.39834 15.2606C9.16714 15.3442 8.88874 15.3012 8.70434 15.1348C8.31214 14.7594 7.92394 14.3796 7.53074 14.0054C7.19254 14.3428 6.85974 14.6854 6.52034 15.0216C6.42614 15.1248 6.31914 15.223 6.18314 15.266C5.94574 15.3454 5.66354 15.293 5.48274 15.1158C4.11774 13.7402 2.75134 12.3662 1.38674 10.9902C1.13314 10.7364 1.13494 10.2832 1.38714 10.0292C1.59034 9.80922 1.94094 9.75602 2.20334 9.89702C2.33274 9.96082 2.42334 10.0762 2.52554 10.1738C3.10374 10.756 3.68094 11.339 4.26094 11.9194C4.52014 12.1922 4.79494 12.45 5.05434 12.7228C5.35654 13.0238 5.65754 13.3258 5.95654 13.63C7.32014 12.2632 8.67594 10.8886 10.0397 9.52222C10.2815 9.26982 10.5323 9.02622 10.7785 8.77822C11.0381 8.50522 11.3125 8.24662 11.5731 7.97462C12.5383 7.00642 13.4995 6.03402 14.4641 5.06542Z" fill="#9292A5"/>
</svg>
