<svg width="25" height="26" viewBox="0 0 25 26" fill="none" xmlns="http://www.w3.org/2000/svg">
  <path d="M1.82812 18.6227C3.22013 17.5392 4.61488 16.4589 6.00963 15.3789C6.19088 15.9239 6.43488 16.4482 6.73438 16.9382C7.64313 18.4344 9.08088 19.6104 10.7464 20.1609C11.6779 20.4747 12.6734 20.5794 13.6519 20.5027C14.9166 20.4159 16.1744 20.0399 17.2321 19.3312C18.5804 20.3787 19.9294 21.4254 21.2779 22.4727C20.0804 23.5812 18.6281 24.4052 17.0736 24.8969C15.8984 25.2734 14.6674 25.4589 13.4356 25.5002H12.5949C11.6164 25.4634 10.6409 25.3237 9.69613 25.0639C8.08488 24.6249 6.56463 23.8559 5.25538 22.8194C3.82588 21.6919 2.64563 20.2494 1.82812 18.6227Z" fill="#34A853" />
  <path d="M1.8235 7.3877C3.21825 8.46845 4.61275 9.54995 6.007 10.6319C5.85475 11.0922 5.743 11.5662 5.68 12.0472C5.529 13.1639 5.65375 14.3112 6.00975 15.3787C4.615 16.4587 3.22025 17.5389 1.82825 18.6224C1.324 17.6127 0.95125 16.5364 0.73375 15.4287C0.59825 14.7544 0.52675 14.0687 0.5 13.3819V12.6162C0.5585 10.8049 1.0095 9.0072 1.8235 7.3877Z" fill="#FBBC04" />
  <path d="M13 10.7256C16.9255 10.7256 20.8508 10.7256 24.776 10.7256C24.9923 11.9113 25.0468 13.1238 24.9685 14.3258C24.8848 15.5753 24.6423 16.8173 24.217 17.9963C23.6095 19.6923 22.6078 21.2533 21.278 22.4731C19.9295 21.4258 18.5805 20.3791 17.2323 19.3316C17.8073 18.9451 18.3193 18.4623 18.7255 17.9003C19.2288 17.2096 19.5678 16.4028 19.7238 15.5633C17.4825 15.5628 15.2415 15.5631 13.0005 15.5633C12.9995 13.9508 13.0003 12.3381 13 10.7256Z" fill="#4285F4" />
  <path d="M12.6155 0.5H13.3895C14.519 0.53725 15.6467 0.70925 16.7267 1.046C18.4542 1.57725 20.051 2.51825 21.3667 3.75575C20.17 4.9525 18.9732 6.14925 17.7762 7.346C17.109 6.70425 16.3077 6.20075 15.4357 5.88775C13.6692 5.25575 11.6535 5.34975 9.95772 6.1555C8.10147 7.02275 6.64572 8.6875 6.00772 10.632C4.61347 9.55 3.21897 8.4685 1.82422 7.38775C2.50947 6.021 3.45072 4.78375 4.58047 3.7545C6.11047 2.35675 7.99322 1.34775 10.007 0.85625C10.8607 0.64475 11.7372 0.532 12.6155 0.5Z" fill="#E94235" />
</svg>