<svg width="21" height="20" viewBox="0 0 21 20" fill="none" xmlns="http://www.w3.org/2000/svg">
  <g clip-path="url(#clip0_7676_83576)">
    <path d="M1.5625 14.4983C2.6761 13.6315 3.7919 12.7673 4.9077 11.9033C5.0527 12.3393 5.2479 12.7587 5.4875 13.1507C6.2145 14.3477 7.3647 15.2885 8.6971 15.7289C9.4423 15.9799 10.2387 16.0637 11.0215 16.0023C12.0333 15.9329 13.0395 15.6321 13.8857 15.0651C14.9643 15.9031 16.0435 16.7405 17.1223 17.5783C16.1643 18.4651 15.0025 19.1243 13.7589 19.5177C12.8187 19.8189 11.8339 19.9673 10.8485 20.0003H10.1759C9.3931 19.9709 8.6127 19.8591 7.8569 19.6513C6.5679 19.3001 5.3517 18.6849 4.3043 17.8557C3.1607 16.9537 2.2165 15.7997 1.5625 14.4983Z" fill="#556290" />
    <path d="M1.5588 5.51074C2.6746 6.37534 3.7902 7.24054 4.9056 8.10614C4.7838 8.47434 4.6944 8.85354 4.644 9.23834C4.5232 10.1317 4.623 11.0495 4.9078 11.9035C3.792 12.7675 2.6762 13.6317 1.5626 14.4985C1.1592 13.6907 0.861 12.8297 0.687 11.9435C0.5786 11.4041 0.5214 10.8555 0.5 10.3061V9.69354C0.5468 8.24454 0.9076 6.80634 1.5588 5.51074Z" fill="#556290" />
    <path d="M10.5 8.18066C13.6404 8.18066 16.7806 8.18066 19.9208 8.18066C20.0938 9.12926 20.1374 10.0993 20.0748 11.0609C20.0078 12.0605 19.8138 13.0541 19.4736 13.9973C18.9876 15.3541 18.1862 16.6029 17.1224 17.5787C16.0436 16.7409 14.9644 15.9035 13.8858 15.0655C14.3458 14.7563 14.7554 14.3701 15.0804 13.9205C15.483 13.3679 15.7542 12.7225 15.879 12.0509C14.086 12.0505 12.2932 12.0507 10.5004 12.0509C10.4996 10.7609 10.5002 9.47066 10.5 8.18066Z" fill="#556290" />
    <path d="M10.1916 0H10.8108C11.7144 0.0298 12.6166 0.1674 13.4806 0.4368C14.8626 0.8618 16.14 1.6146 17.1926 2.6046C16.2352 3.562 15.2778 4.5194 14.3202 5.4768C13.7864 4.9634 13.1454 4.5606 12.4478 4.3102C11.0346 3.8046 9.42199 3.8798 8.06539 4.5244C6.58039 5.2182 5.41579 6.55 4.90539 8.1056C3.78999 7.24 2.67439 6.3748 1.55859 5.5102C2.10679 4.4168 2.85979 3.427 3.76359 2.6036C4.98759 1.4854 6.49379 0.6782 8.10479 0.285C8.78779 0.1158 9.48899 0.0256 10.1916 0Z" fill="#556290" />
  </g>
  <defs>
    <clipPath id="clip0_7676_83576">
      <rect width="20" height="20" fill="white" transform="translate(0.5)" />
    </clipPath>
  </defs>
</svg>