<svg width="20" height="20" viewBox="0 0 20 20" fill="none" xmlns="http://www.w3.org/2000/svg">
  <path d="M2.83862 1.04024C3.04162 0.987244 3.25162 0.965644 3.46102 0.964844C4.29442 0.965644 5.12782 0.964444 5.96142 0.965444C6.51462 0.970244 7.06422 1.17384 7.48282 1.53624C7.92182 1.90984 8.21422 2.45024 8.28782 3.02184C8.38762 3.77244 8.57382 4.51144 8.84022 5.22024C8.99802 5.65364 9.02382 6.13344 8.91622 6.58164C8.81802 6.99624 8.60342 7.38144 8.30602 7.68604C8.07962 7.91464 7.85122 8.14104 7.62422 8.36884C8.63282 9.98564 10.0154 11.3656 11.6306 12.3764C11.8804 12.1312 12.1236 11.879 12.3754 11.636C12.9412 11.1122 13.772 10.899 14.5204 11.0824C14.696 11.1214 14.8616 11.1928 15.0314 11.2504C15.58 11.4404 16.1452 11.582 16.7186 11.6738C16.8928 11.7034 17.07 11.7176 17.2418 11.762C17.8308 11.9068 18.3572 12.2888 18.6756 12.8052C18.8526 13.0872 18.9672 13.4074 19.0122 13.737C19.043 13.9568 19.0342 14.179 19.0354 14.4002C19.0354 15.007 19.0354 15.6136 19.0354 16.2202C19.0334 16.47 19.0452 16.7218 19.0056 16.9696C18.9126 17.59 18.5592 18.1656 18.0484 18.5294C17.6798 18.795 17.233 18.95 16.7792 18.9706C16.551 18.9854 16.3242 18.949 16.0984 18.922C14.0896 18.664 12.1274 18.0464 10.3328 17.1074C9.76322 16.811 9.21282 16.4788 8.67822 16.1234C6.74082 14.843 5.07362 13.1576 3.81282 11.2078C3.38942 10.5612 3.00542 9.88884 2.67162 9.19184C1.82142 7.42504 1.27702 5.51144 1.07102 3.56144C1.01702 3.02324 1.15542 2.46764 1.45742 2.01884C1.77622 1.53724 2.27842 1.18104 2.83862 1.04024ZM3.38482 2.36724C3.09542 2.37984 2.81442 2.52884 2.64602 2.76504C2.51202 2.94644 2.44582 3.17664 2.46242 3.40164C2.65982 5.28124 3.20042 7.12364 4.04702 8.81324C4.39942 9.51864 4.80922 10.1944 5.25582 10.8438C6.14502 12.1284 7.22882 13.2778 8.45982 14.2396C9.03822 14.694 9.65242 15.1012 10.2838 15.4774C12.2088 16.6126 14.3774 17.3326 16.5998 17.5706C16.9184 17.596 17.2426 17.4468 17.4348 17.192C17.569 17.019 17.6354 16.7996 17.635 16.5818C17.636 15.788 17.635 14.994 17.6354 14.2002C17.6378 14.0552 17.6348 13.907 17.5884 13.7682C17.4824 13.4196 17.163 13.149 16.8018 13.1018C15.9496 12.9886 15.1098 12.7796 14.3048 12.478C14.0222 12.372 13.6914 12.4108 13.4404 12.578C13.3434 12.6394 13.2676 12.7268 13.1864 12.8064C12.8696 13.1226 12.554 13.44 12.2366 13.7554C12.0784 13.9136 11.8426 13.9876 11.6224 13.9486C11.4672 13.9254 11.3374 13.8322 11.204 13.757C9.14122 12.5438 7.39922 10.7916 6.19922 8.72084C6.14382 8.62584 6.08282 8.53104 6.06062 8.42164C6.00982 8.21864 6.05882 7.99464 6.18702 7.82964C6.26522 7.73384 6.35942 7.65244 6.44482 7.56324C6.73122 7.27684 7.01742 6.99044 7.30402 6.70424C7.51142 6.49504 7.61482 6.18804 7.57222 5.89604C7.55742 5.77644 7.50962 5.66484 7.46942 5.55224C7.20362 4.81124 7.01402 4.04304 6.90702 3.26304C6.87962 2.89284 6.62542 2.55144 6.27502 2.42644C6.14942 2.37924 6.01422 2.36284 5.88062 2.36484C5.04862 2.36684 4.21662 2.36204 3.38482 2.36724Z" fill="#B4B8BB" />
</svg>