<svg width="20" height="20" viewBox="0 0 20 20" fill="none" xmlns="http://www.w3.org/2000/svg">
  <path d="M16.4329 0.87586C17.1545 0.80386 17.9031 1.07006 18.4115 1.58846C18.9597 2.12586 19.2239 2.93186 19.1085 3.69006C19.0449 4.13046 18.8591 4.55266 18.5767 4.89666C18.4075 5.09986 18.2097 5.27626 18.0261 5.46586C15.5395 7.95266 13.0527 10.4393 10.5661 12.9261C10.4935 13.0011 10.4167 13.0749 10.3221 13.1217C10.2341 13.1687 10.1353 13.1881 10.0393 13.2123C8.97687 13.4779 7.91447 13.7435 6.85207 14.0093C6.69327 14.0515 6.52007 14.0387 6.37127 13.9681C6.06767 13.8361 5.89927 13.4699 5.98887 13.1525C6.26547 12.0487 6.54087 10.9445 6.81707 9.84066C6.84667 9.71386 6.91267 9.59626 7.00367 9.50346C9.60687 6.90006 12.2103 4.29686 14.8135 1.69366C14.9877 1.51206 15.1781 1.34366 15.3961 1.21626C15.7107 1.02746 16.0677 0.91006 16.4329 0.87586ZM15.8861 2.60586C13.3093 5.18266 10.7329 7.75946 8.15567 10.3359C8.13707 10.3527 8.12447 10.3743 8.12067 10.3993C7.95747 11.0565 7.79267 11.7133 7.62827 12.3703C8.29647 12.2017 8.96627 12.0379 9.63387 11.8671C9.69287 11.8231 9.73907 11.7637 9.79327 11.7137C12.3267 9.18066 14.8597 6.64706 17.3931 4.11426C17.5659 3.95266 17.6845 3.73326 17.7207 3.49926C17.7699 3.20526 17.6837 2.89306 17.4959 2.66246C17.2755 2.38506 16.9091 2.23146 16.5569 2.27086C16.3029 2.29746 16.0595 2.41806 15.8861 2.60586Z" fill="white" />
  <path d="M3.0118 2.65424C3.1206 2.63904 3.2306 2.63184 3.3406 2.63424C5.294 2.63464 7.2474 2.63424 9.2008 2.63444C9.565 2.64004 9.8816 2.97624 9.866 3.34024C9.8748 3.70784 9.5468 4.03524 9.1804 4.03364C7.2406 4.03524 5.3008 4.03424 3.361 4.03404C3.0428 4.02124 2.7254 4.18184 2.5442 4.44284C2.425 4.60944 2.3646 4.81424 2.3652 5.01824C2.3652 8.83204 2.3652 12.6458 2.3652 16.4594C2.3664 16.5868 2.3586 16.7154 2.383 16.8412C2.4384 17.1534 2.6596 17.4292 2.951 17.553C3.0792 17.6096 3.2196 17.6336 3.359 17.6344C7.1992 17.6344 11.0394 17.6342 14.8796 17.6344C15.0288 17.6376 15.181 17.629 15.3222 17.5766C15.6186 17.4742 15.854 17.2178 15.9338 16.9148C15.9808 16.7536 15.9612 16.5844 15.9652 16.419C15.9652 14.559 15.965 12.6988 15.9654 10.8388C15.9642 10.6278 16.0608 10.4174 16.227 10.2866C16.4478 10.1036 16.7834 10.0826 17.0274 10.2318C17.2246 10.3496 17.3596 10.5692 17.3652 10.8002C17.3652 12.7196 17.3652 14.6392 17.3652 16.5588C17.3712 16.7728 17.3564 16.988 17.3068 17.1966C17.1576 17.8656 16.699 18.4568 16.0884 18.768C15.8376 18.8992 15.5626 18.9826 15.2818 19.0162C15.082 19.0408 14.8806 19.0332 14.6798 19.0344C10.9398 19.0344 7.2 19.0344 3.46 19.0344C3.2578 19.0366 3.0544 19.0266 2.8562 18.9846C2.2654 18.866 1.7272 18.5102 1.3862 18.0134C1.1294 17.6432 0.982404 17.1984 0.967804 16.7482C0.962004 16.5722 0.966804 16.396 0.965204 16.22C0.965204 12.4796 0.965204 8.73924 0.965204 4.99884C0.967004 4.51964 1.1136 4.04124 1.3894 3.64844C1.759 3.10904 2.3636 2.73964 3.0118 2.65424Z" fill="white" />
</svg>