<svg width="20" height="20" viewBox="0 0 20 20" fill="none" xmlns="http://www.w3.org/2000/svg">
  <path d="M16.0344 1.27527C16.756 1.20327 17.5046 1.46947 18.013 1.98787C18.5612 2.52527 18.8254 3.33127 18.71 4.08947C18.6464 4.52987 18.4606 4.95207 18.1782 5.29607C18.009 5.49927 17.8112 5.67567 17.6276 5.86527C15.141 8.35207 12.6542 10.8387 10.1676 13.3255C10.095 13.4005 10.0182 13.4743 9.92363 13.5211C9.83563 13.5681 9.73683 13.5875 9.64083 13.6117C8.57843 13.8773 7.51603 14.1429 6.45363 14.4087C6.29483 14.4509 6.12163 14.4381 5.97283 14.3675C5.66923 14.2355 5.50083 13.8693 5.59043 13.5519C5.86703 12.4481 6.14243 11.3439 6.41863 10.2401C6.44823 10.1133 6.51423 9.99567 6.60523 9.90287C9.20843 7.29947 11.8118 4.69627 14.415 2.09307C14.5892 1.91147 14.7796 1.74307 14.9976 1.61567C15.3122 1.42687 15.6692 1.30947 16.0344 1.27527ZM15.4876 3.00527C12.9108 5.58207 10.3344 8.15887 7.75723 10.7353C7.73863 10.7521 7.72603 10.7737 7.72223 10.7987C7.55903 11.4559 7.39423 12.1127 7.22983 12.7697C7.89803 12.6011 8.56783 12.4373 9.23543 12.2665C9.29443 12.2225 9.34063 12.1631 9.39483 12.1131C11.9282 9.58007 14.4612 7.04647 16.9946 4.51367C17.1674 4.35207 17.286 4.13267 17.3222 3.89867C17.3714 3.60467 17.2852 3.29247 17.0974 3.06187C16.877 2.78447 16.5106 2.63087 16.1584 2.67027C15.9044 2.69687 15.661 2.81747 15.4876 3.00527Z" fill="white" />
  <path d="M3.0118 2.65424C3.1206 2.63904 3.2306 2.63184 3.3406 2.63424C5.294 2.63464 7.2474 2.63424 9.2008 2.63444C9.565 2.64004 9.8816 2.97624 9.866 3.34024C9.8748 3.70784 9.5468 4.03524 9.1804 4.03364C7.2406 4.03524 5.3008 4.03424 3.361 4.03404C3.0428 4.02124 2.7254 4.18184 2.5442 4.44284C2.425 4.60944 2.3646 4.81424 2.3652 5.01824C2.3652 8.83204 2.3652 12.6458 2.3652 16.4594C2.3664 16.5868 2.3586 16.7154 2.383 16.8412C2.4384 17.1534 2.6596 17.4292 2.951 17.553C3.0792 17.6096 3.2196 17.6336 3.359 17.6344C7.1992 17.6344 11.0394 17.6342 14.8796 17.6344C15.0288 17.6376 15.181 17.629 15.3222 17.5766C15.6186 17.4742 15.854 17.2178 15.9338 16.9148C15.9808 16.7536 15.9612 16.5844 15.9652 16.419C15.9652 14.559 15.965 12.6988 15.9654 10.8388C15.9642 10.6278 16.0608 10.4174 16.227 10.2866C16.4478 10.1036 16.7834 10.0826 17.0274 10.2318C17.2246 10.3496 17.3596 10.5692 17.3652 10.8002C17.3652 12.7196 17.3652 14.6392 17.3652 16.5588C17.3712 16.7728 17.3564 16.988 17.3068 17.1966C17.1576 17.8656 16.699 18.4568 16.0884 18.768C15.8376 18.8992 15.5626 18.9826 15.2818 19.0162C15.082 19.0408 14.8806 19.0332 14.6798 19.0344C10.9398 19.0344 7.2 19.0344 3.46 19.0344C3.2578 19.0366 3.0544 19.0266 2.8562 18.9846C2.2654 18.866 1.7272 18.5102 1.3862 18.0134C1.1294 17.6432 0.982404 17.1984 0.967804 16.7482C0.962004 16.5722 0.966804 16.396 0.965204 16.22C0.965204 12.4796 0.965204 8.73924 0.965204 4.99884C0.967004 4.51964 1.1136 4.04124 1.3894 3.64844C1.759 3.10904 2.3636 2.73964 3.0118 2.65424Z" fill="white" />
</svg>