<svg width="22" height="24" viewBox="0 0 22 24" fill="none" xmlns="http://www.w3.org/2000/svg">
  <path d="M10.5844 0.73922C11.1207 0.66547 11.6774 0.73572 12.1744 0.95272C12.3579 1.02847 12.5269 1.13347 12.6997 1.23072C15.0317 2.56347 17.3632 3.89722 19.6954 5.22922C20.0727 5.43372 20.4064 5.71872 20.6619 6.06347C20.7227 6.14322 20.7972 6.21272 20.8462 6.30122C20.8934 6.37597 20.9184 6.46122 20.9534 6.54197C21.1599 6.96197 21.2594 7.43222 21.2507 7.89972C21.2504 10.4582 21.2507 13.0165 21.2507 15.575C21.2442 15.95 21.2749 16.329 21.2024 16.6995C21.0537 17.5402 20.5177 18.301 19.7769 18.725C17.3699 20.1017 14.9617 21.4765 12.5544 22.8527C12.2749 23.0195 11.9712 23.1472 11.6529 23.2177C11.5637 23.241 11.4669 23.24 11.3849 23.2865C11.1809 23.39 10.9352 23.402 10.7189 23.3302C10.6434 23.3067 10.5782 23.2552 10.4982 23.2465C10.1382 23.1872 9.79142 23.0555 9.47767 22.8702C7.05517 21.4855 4.63192 20.1022 2.21017 18.7165C1.46867 18.287 0.93617 17.5182 0.79417 16.673C0.73542 16.3602 0.75317 16.041 0.75067 15.7245C0.75042 13.108 0.75092 10.4915 0.75042 7.87497C0.74442 7.41022 0.84867 6.94447 1.05417 6.52747C1.10592 6.36922 1.19092 6.22347 1.30717 6.10397C1.54917 5.77422 1.85517 5.49047 2.20942 5.28472C3.34417 4.63522 4.48067 3.98797 5.61492 3.33747C5.70992 3.25847 5.79192 3.16022 5.90767 3.10897C6.01967 3.04097 6.15942 3.04347 6.26692 2.96647C7.34817 2.34747 8.43017 1.73022 9.51167 1.11172C9.84042 0.91897 10.2074 0.79372 10.5844 0.73922ZM10.4149 2.61322C9.65317 3.04922 8.89067 3.48397 8.12892 3.91997C10.6497 5.37622 13.1724 6.82897 15.6942 8.28372C16.6557 7.72497 17.6214 7.17272 18.5809 6.61047C16.2492 5.27772 13.9169 3.94547 11.5852 2.61272C11.2292 2.41147 10.7707 2.41172 10.4149 2.61322ZM3.57567 6.52172C3.52292 6.55072 3.46967 6.57997 3.42092 6.61597C5.94917 8.07347 8.47342 9.53822 11.0004 10.9982C11.9817 10.4315 12.9624 9.86397 13.9429 9.29622C11.4169 7.84072 8.89167 6.38347 6.36592 4.92722C5.43592 5.45847 4.50592 5.99022 3.57567 6.52172ZM2.50067 8.10597C2.50067 10.7955 2.50092 13.4847 2.50042 16.174C2.50242 16.5242 2.66617 16.869 2.93592 17.092C3.04167 17.1822 3.16692 17.2437 3.28617 17.3132C5.56592 18.616 7.84542 19.919 10.1254 21.2212C10.1269 18.3207 10.1237 15.42 10.1269 12.5195C7.58667 11.0455 5.04267 9.57747 2.50067 8.10597ZM11.8742 12.5197C11.8779 15.4202 11.8744 18.3207 11.8759 21.2212C14.2144 19.8855 16.5527 18.549 18.8912 17.2127C19.2589 17.0075 19.4992 16.5972 19.5009 16.1762C19.5004 13.4862 19.5007 10.796 19.5007 8.10597C16.9589 9.57772 14.4144 11.0452 11.8742 12.5197Z" fill="#B4B8BB" />
</svg>