<svg width="20" height="20" viewBox="0 0 20 20" fill="none" xmlns="http://www.w3.org/2000/svg">
<g clip-path="url(#clip0_6780_129806)">
<mask id="path-1-inside-1_6780_129806" fill="white">
<path d="M3.83533 0H11.0005C11.0005 1.5534 11.0005 3.107 11.0005 4.6604C10.9987 4.995 10.9981 5.3336 11.0773 5.661C11.2273 6.3312 11.6169 6.9444 12.1601 7.3644C12.6961 7.7862 13.3791 8.0084 14.0599 7.9994C15.7067 8.001 17.3537 7.9996 19.0005 8C19.0005 10.9866 19.0003 13.9732 19.0007 16.9596C19.0183 17.703 18.7375 18.4462 18.2419 18.9992C17.7191 19.5916 16.9539 19.956 16.1659 20H3.83673C3.17613 19.9618 2.52933 19.704 2.03093 19.2674C1.47253 18.786 1.10433 18.0914 1.01933 17.359C0.992126 17.1602 1.00213 16.9594 1.00053 16.7594C1.00053 12.1394 1.00073 7.5194 1.00053 2.8994C1.02213 2.046 1.43473 1.2136 2.09753 0.6764C2.58553 0.2734 3.20433 0.0372 3.83533 0ZM9.56693 8.0728L9.56753 8.096C9.55773 8.0928 9.53833 8.0866 9.52873 8.0836L9.52793 8.1048C9.49013 8.1156 9.45693 8.1366 9.42413 8.1576C9.41773 8.1638 9.40493 8.1764 9.39853 8.1826C9.36353 8.1974 9.33513 8.2226 9.31013 8.2506C9.26693 8.298 9.21253 8.3368 9.18233 8.395C9.15313 8.4368 9.11633 8.4758 9.10553 8.5274L9.08413 8.5284C9.08713 8.538 9.09353 8.5572 9.09653 8.567L9.07253 8.5662C9.06493 8.6002 9.05713 8.6344 9.04833 8.6682L9.03273 8.6658C9.02053 8.7638 8.98713 8.8594 8.99073 8.9592C8.99353 9.8038 8.98773 10.6486 8.99373 11.4932C8.14273 11.4872 7.29153 11.493 6.44053 11.4902C6.31033 11.4884 6.19013 11.54 6.06693 11.5726L6.06753 11.596C6.05773 11.5928 6.03853 11.5868 6.02873 11.5836L6.02833 11.6056C5.99953 11.6086 5.97533 11.6228 5.95453 11.642C5.84713 11.705 5.75333 11.7934 5.68233 11.8948C5.65313 11.9368 5.61753 11.9764 5.60533 12.0274L5.58413 12.0282C5.58713 12.0378 5.59353 12.0572 5.59653 12.067L5.57253 12.0662C5.56493 12.1002 5.55713 12.1342 5.54833 12.168L5.53293 12.166C5.48853 12.3654 5.46673 12.5758 5.52473 12.7754C5.54153 12.8278 5.56273 12.8792 5.57333 12.9338L5.59673 12.933C5.59353 12.9426 5.58713 12.962 5.58413 12.9716L5.60533 12.9726C5.61573 13.0104 5.63733 13.0434 5.65813 13.0764C5.66433 13.0828 5.67693 13.0956 5.68313 13.1022C5.70093 13.146 5.73753 13.1772 5.77073 13.2094C5.81133 13.2476 5.84533 13.2954 5.89833 13.3174C5.90473 13.3238 5.91773 13.3362 5.92413 13.3426C5.95693 13.3632 5.99013 13.3846 6.02813 13.395L6.02853 13.4162C6.03833 13.4132 6.05773 13.4072 6.06753 13.4042L6.06713 13.4272C6.19013 13.46 6.31053 13.5112 6.44053 13.5096C7.29153 13.5072 8.14273 13.5126 8.99373 13.5068C8.98813 14.2848 8.99293 15.063 8.99133 15.841C8.99413 15.9614 8.98053 16.0834 9.00793 16.202C9.01853 16.2822 9.05873 16.3542 9.07313 16.4336L9.09653 16.433C9.09333 16.4428 9.08733 16.4622 9.08413 16.4718L9.10533 16.4726C9.11593 16.5104 9.13733 16.5436 9.15813 16.5766C9.16433 16.583 9.17693 16.5956 9.18313 16.602C9.20233 16.6502 9.24433 16.6824 9.27973 16.7186C9.34953 16.7924 9.43293 16.8582 9.52813 16.895L9.52873 16.9164C9.53853 16.9134 9.55773 16.907 9.56753 16.904L9.56693 16.927C9.65253 16.9438 9.73113 16.987 9.81873 16.9962C9.99073 17.0298 10.1655 17.0026 10.3347 16.9678L10.3323 16.9522C10.3659 16.9432 10.3999 16.9348 10.4341 16.928L10.4335 16.904C10.4433 16.9072 10.4625 16.9132 10.4723 16.9164L10.4731 16.8952C10.5109 16.8846 10.5439 16.8632 10.5769 16.8424C10.5833 16.8362 10.5961 16.8236 10.6025 16.8174C10.6467 16.8 10.6771 16.7628 10.7097 16.7304C10.7865 16.6574 10.8577 16.572 10.8955 16.4726L10.9169 16.4718C10.9139 16.4622 10.9077 16.4428 10.9045 16.4332L10.9279 16.4334C10.9603 16.3102 11.0119 16.19 11.0101 16.0598C11.0077 15.2088 11.0131 14.3578 11.0073 13.5068C11.8519 13.5128 12.6965 13.507 13.5409 13.5098C13.6409 13.5132 13.7367 13.4806 13.8347 13.4676L13.8323 13.4522C13.8659 13.4432 13.8999 13.4352 13.9341 13.428L13.9337 13.404C13.9433 13.4072 13.9627 13.4132 13.9723 13.4164L13.9727 13.3944C14.0013 13.3908 14.0257 13.3768 14.0467 13.3578C14.1453 13.3044 14.2225 13.2214 14.2965 13.139C14.3303 13.0842 14.3787 13.0362 14.3955 12.9726L14.4169 12.9718C14.4137 12.9622 14.4077 12.9428 14.4045 12.9332L14.4277 12.9334C14.4441 12.8478 14.4875 12.7698 14.4965 12.6826C14.5303 12.5102 14.5035 12.3354 14.4681 12.166L14.4527 12.168C14.4437 12.1342 14.4359 12.1 14.4285 12.0662L14.4045 12.067C14.4075 12.0574 14.4139 12.038 14.4169 12.0284L14.3955 12.0274C14.3733 11.957 14.3225 11.9 14.2803 11.841C14.2213 11.7882 14.1755 11.7172 14.1025 11.6826C14.0961 11.6764 14.0833 11.6638 14.0769 11.6574C14.0439 11.6366 14.0109 11.615 13.9731 11.6048L13.9721 11.5836C13.9625 11.5866 13.9431 11.593 13.9335 11.596L13.9343 11.572C13.9001 11.5644 13.8661 11.5566 13.8323 11.5478L13.8347 11.5324C13.7367 11.5194 13.6411 11.487 13.5413 11.4902C12.6967 11.493 11.8519 11.4872 11.0073 11.4932C11.0133 10.6486 11.0075 9.804 11.0103 8.9594C11.0137 8.8596 10.9809 8.764 10.9681 8.6658L10.9527 8.668C10.9437 8.6342 10.9361 8.6002 10.9285 8.5662L10.9045 8.567C10.9077 8.5572 10.9137 8.5378 10.9169 8.528L10.8957 8.5276C10.8847 8.4898 10.8635 8.4566 10.8429 8.4238C10.8367 8.4174 10.8241 8.4044 10.8179 8.398C10.7979 8.3492 10.7557 8.3166 10.7199 8.2802C10.6835 8.2448 10.6515 8.2018 10.6027 8.1826C10.5963 8.1762 10.5833 8.1638 10.5767 8.1574C10.5439 8.1366 10.5107 8.1156 10.4731 8.1048L10.4721 8.0836C10.4625 8.0866 10.4433 8.093 10.4335 8.096L10.4341 8.072C10.3999 8.0646 10.3659 8.0566 10.3323 8.0478L10.3347 8.0324C10.1649 7.9972 9.98993 7.9702 9.81753 8.004C9.73033 8.0132 9.65213 8.0558 9.56693 8.0728Z"/>
</mask>
<path d="M3.83533 0H11.0005C11.0005 1.5534 11.0005 3.107 11.0005 4.6604C10.9987 4.995 10.9981 5.3336 11.0773 5.661C11.2273 6.3312 11.6169 6.9444 12.1601 7.3644C12.6961 7.7862 13.3791 8.0084 14.0599 7.9994C15.7067 8.001 17.3537 7.9996 19.0005 8C19.0005 10.9866 19.0003 13.9732 19.0007 16.9596C19.0183 17.703 18.7375 18.4462 18.2419 18.9992C17.7191 19.5916 16.9539 19.956 16.1659 20H3.83673C3.17613 19.9618 2.52933 19.704 2.03093 19.2674C1.47253 18.786 1.10433 18.0914 1.01933 17.359C0.992126 17.1602 1.00213 16.9594 1.00053 16.7594C1.00053 12.1394 1.00073 7.5194 1.00053 2.8994C1.02213 2.046 1.43473 1.2136 2.09753 0.6764C2.58553 0.2734 3.20433 0.0372 3.83533 0ZM9.56693 8.0728L9.56753 8.096C9.55773 8.0928 9.53833 8.0866 9.52873 8.0836L9.52793 8.1048C9.49013 8.1156 9.45693 8.1366 9.42413 8.1576C9.41773 8.1638 9.40493 8.1764 9.39853 8.1826C9.36353 8.1974 9.33513 8.2226 9.31013 8.2506C9.26693 8.298 9.21253 8.3368 9.18233 8.395C9.15313 8.4368 9.11633 8.4758 9.10553 8.5274L9.08413 8.5284C9.08713 8.538 9.09353 8.5572 9.09653 8.567L9.07253 8.5662C9.06493 8.6002 9.05713 8.6344 9.04833 8.6682L9.03273 8.6658C9.02053 8.7638 8.98713 8.8594 8.99073 8.9592C8.99353 9.8038 8.98773 10.6486 8.99373 11.4932C8.14273 11.4872 7.29153 11.493 6.44053 11.4902C6.31033 11.4884 6.19013 11.54 6.06693 11.5726L6.06753 11.596C6.05773 11.5928 6.03853 11.5868 6.02873 11.5836L6.02833 11.6056C5.99953 11.6086 5.97533 11.6228 5.95453 11.642C5.84713 11.705 5.75333 11.7934 5.68233 11.8948C5.65313 11.9368 5.61753 11.9764 5.60533 12.0274L5.58413 12.0282C5.58713 12.0378 5.59353 12.0572 5.59653 12.067L5.57253 12.0662C5.56493 12.1002 5.55713 12.1342 5.54833 12.168L5.53293 12.166C5.48853 12.3654 5.46673 12.5758 5.52473 12.7754C5.54153 12.8278 5.56273 12.8792 5.57333 12.9338L5.59673 12.933C5.59353 12.9426 5.58713 12.962 5.58413 12.9716L5.60533 12.9726C5.61573 13.0104 5.63733 13.0434 5.65813 13.0764C5.66433 13.0828 5.67693 13.0956 5.68313 13.1022C5.70093 13.146 5.73753 13.1772 5.77073 13.2094C5.81133 13.2476 5.84533 13.2954 5.89833 13.3174C5.90473 13.3238 5.91773 13.3362 5.92413 13.3426C5.95693 13.3632 5.99013 13.3846 6.02813 13.395L6.02853 13.4162C6.03833 13.4132 6.05773 13.4072 6.06753 13.4042L6.06713 13.4272C6.19013 13.46 6.31053 13.5112 6.44053 13.5096C7.29153 13.5072 8.14273 13.5126 8.99373 13.5068C8.98813 14.2848 8.99293 15.063 8.99133 15.841C8.99413 15.9614 8.98053 16.0834 9.00793 16.202C9.01853 16.2822 9.05873 16.3542 9.07313 16.4336L9.09653 16.433C9.09333 16.4428 9.08733 16.4622 9.08413 16.4718L9.10533 16.4726C9.11593 16.5104 9.13733 16.5436 9.15813 16.5766C9.16433 16.583 9.17693 16.5956 9.18313 16.602C9.20233 16.6502 9.24433 16.6824 9.27973 16.7186C9.34953 16.7924 9.43293 16.8582 9.52813 16.895L9.52873 16.9164C9.53853 16.9134 9.55773 16.907 9.56753 16.904L9.56693 16.927C9.65253 16.9438 9.73113 16.987 9.81873 16.9962C9.99073 17.0298 10.1655 17.0026 10.3347 16.9678L10.3323 16.9522C10.3659 16.9432 10.3999 16.9348 10.4341 16.928L10.4335 16.904C10.4433 16.9072 10.4625 16.9132 10.4723 16.9164L10.4731 16.8952C10.5109 16.8846 10.5439 16.8632 10.5769 16.8424C10.5833 16.8362 10.5961 16.8236 10.6025 16.8174C10.6467 16.8 10.6771 16.7628 10.7097 16.7304C10.7865 16.6574 10.8577 16.572 10.8955 16.4726L10.9169 16.4718C10.9139 16.4622 10.9077 16.4428 10.9045 16.4332L10.9279 16.4334C10.9603 16.3102 11.0119 16.19 11.0101 16.0598C11.0077 15.2088 11.0131 14.3578 11.0073 13.5068C11.8519 13.5128 12.6965 13.507 13.5409 13.5098C13.6409 13.5132 13.7367 13.4806 13.8347 13.4676L13.8323 13.4522C13.8659 13.4432 13.8999 13.4352 13.9341 13.428L13.9337 13.404C13.9433 13.4072 13.9627 13.4132 13.9723 13.4164L13.9727 13.3944C14.0013 13.3908 14.0257 13.3768 14.0467 13.3578C14.1453 13.3044 14.2225 13.2214 14.2965 13.139C14.3303 13.0842 14.3787 13.0362 14.3955 12.9726L14.4169 12.9718C14.4137 12.9622 14.4077 12.9428 14.4045 12.9332L14.4277 12.9334C14.4441 12.8478 14.4875 12.7698 14.4965 12.6826C14.5303 12.5102 14.5035 12.3354 14.4681 12.166L14.4527 12.168C14.4437 12.1342 14.4359 12.1 14.4285 12.0662L14.4045 12.067C14.4075 12.0574 14.4139 12.038 14.4169 12.0284L14.3955 12.0274C14.3733 11.957 14.3225 11.9 14.2803 11.841C14.2213 11.7882 14.1755 11.7172 14.1025 11.6826C14.0961 11.6764 14.0833 11.6638 14.0769 11.6574C14.0439 11.6366 14.0109 11.615 13.9731 11.6048L13.9721 11.5836C13.9625 11.5866 13.9431 11.593 13.9335 11.596L13.9343 11.572C13.9001 11.5644 13.8661 11.5566 13.8323 11.5478L13.8347 11.5324C13.7367 11.5194 13.6411 11.487 13.5413 11.4902C12.6967 11.493 11.8519 11.4872 11.0073 11.4932C11.0133 10.6486 11.0075 9.804 11.0103 8.9594C11.0137 8.8596 10.9809 8.764 10.9681 8.6658L10.9527 8.668C10.9437 8.6342 10.9361 8.6002 10.9285 8.5662L10.9045 8.567C10.9077 8.5572 10.9137 8.5378 10.9169 8.528L10.8957 8.5276C10.8847 8.4898 10.8635 8.4566 10.8429 8.4238C10.8367 8.4174 10.8241 8.4044 10.8179 8.398C10.7979 8.3492 10.7557 8.3166 10.7199 8.2802C10.6835 8.2448 10.6515 8.2018 10.6027 8.1826C10.5963 8.1762 10.5833 8.1638 10.5767 8.1574C10.5439 8.1366 10.5107 8.1156 10.4731 8.1048L10.4721 8.0836C10.4625 8.0866 10.4433 8.093 10.4335 8.096L10.4341 8.072C10.3999 8.0646 10.3659 8.0566 10.3323 8.0478L10.3347 8.0324C10.1649 7.9972 9.98993 7.9702 9.81753 8.004C9.73033 8.0132 9.65213 8.0558 9.56693 8.0728Z" fill="#9294A5" stroke="#9294A5" stroke-width="2.66667" mask="url(#path-1-inside-1_6780_129806)"/>
<path d="M13.001 0H13.234C13.4256 0.027 13.5782 0.1582 13.7142 0.2862C13.9392 0.508 14.1588 0.7354 14.3796 0.9614C15.2066 1.788 16.0332 2.615 16.8602 3.4418C17.4218 3.9996 17.975 4.5662 18.5446 5.116C18.6972 5.2712 18.8664 5.4212 18.9596 5.6222C19.0178 5.7396 18.9984 5.8738 19.0008 6C17.361 6.0002 15.7212 5.9996 14.0816 6.0002C13.9606 6.0028 13.8378 6.0002 13.7216 5.9632C13.3968 5.8728 13.129 5.605 13.038 5.2804C13.001 5.1642 12.998 5.0414 13.0008 4.9206C13.0014 3.2804 13.0008 1.6402 13.001 0Z" fill="#9294A5"/>
</g>
<defs>
<clipPath id="clip0_6780_129806">
<rect width="20" height="20" fill="white"/>
</clipPath>
</defs>
</svg>
