<svg viewBox="0 0 1000 1000" xmlns="http://www.w3.org/2000/svg">
	<g id="bean-with-letters">
		<path id="bean" fill="#e54348" d=" M 553.69 0.00 L 594.48 0.00 C 670.74 3.84 746.05 27.97 809.63 70.41 C 865.96 107.83 913.29 158.74 946.30 217.78 C 978.64 275.35 996.79 340.61 1000.00 406.52 L 1000.00 445.27 C 997.21 499.34 984.71 553.00 962.17 602.28 C 944.82 640.60 921.60 676.22 893.76 707.74 C 882.11 721.07 869.23 733.24 856.80 745.83 C 814.75 787.77 772.92 829.93 730.70 871.68 C 702.22 901.27 669.22 926.45 633.38 946.47 C 575.96 978.73 510.89 996.68 445.19 1000.00 L 403.65 1000.00 C 388.75 998.66 373.82 997.55 359.05 995.12 C 294.75 985.07 232.81 960.04 179.74 922.33 C 120.59 880.43 72.19 823.35 41.01 757.88 C 21.52 717.00 8.66 672.98 3.00 628.06 C 1.56 617.78 1.12 607.40 0.00 597.09 L 0.00 552.00 C 1.78 527.79 4.57 503.59 10.10 479.91 C 25.64 410.33 59.27 344.96 106.63 291.69 C 116.56 280.30 127.59 269.94 138.20 259.18 C 180.86 216.51 223.53 173.85 266.20 131.18 C 301.17 94.62 342.61 64.24 388.16 42.20 C 439.74 17.11 496.45 2.99 553.69 0.00 Z"/>
		<path id="letters" fill="#ffffff" d="M499.882 158.821C506.472 155.021 512.992 151.111 519.662 147.461C547.792 163.811 576.092 179.891 604.172 196.341C569.012 216.771 533.812 237.101 498.632 257.491C494.902 259.841 490.682 261.501 487.512 264.641C494.372 264.621 501.172 263.431 508.042 263.321C546.892 262.201 585.712 272.091 620.122 289.941C636.442 298.591 652.192 308.611 665.672 321.341C677.122 332.321 687.212 345.891 689.922 361.871C692.312 375.331 687.912 389.161 680.232 400.191C675.432 406.941 670.462 413.691 664.092 419.061C655.562 425.951 646.402 431.991 637.542 438.441C650.892 431.381 663.812 423.491 677.012 416.121C692.732 407.421 707.762 397.411 724.282 390.201C739.612 383.471 756.092 378.141 773.032 378.711C786.892 378.761 800.822 384.551 809.942 395.121C821.512 408.281 826.092 425.981 828.082 443.001C829.062 453.681 830.112 464.451 828.902 475.161C827.032 511.791 815.842 547.781 797.242 579.351C775.932 615.711 745.172 646.241 709.422 668.421C693.972 677.911 677.692 686.471 660.052 691.021C649.632 693.651 638.632 695.051 628.002 692.861C620.692 691.361 613.592 688.041 608.332 682.661C607.002 681.251 605.432 680.081 603.642 679.341C603.322 723.721 603.592 768.111 603.512 812.491C575.062 829.211 546.442 845.621 517.922 862.191C487.282 844.451 456.612 826.761 425.952 809.061C391.222 789.131 356.852 768.611 322.112 748.681C302.572 737.131 282.672 726.201 263.092 714.721C243.972 703.601 224.802 692.561 205.702 681.401C205.762 623.921 205.712 566.441 205.732 508.961C205.542 486.311 206.152 463.681 205.992 441.031C205.992 403.571 205.992 366.111 205.992 328.651C207.482 327.961 208.972 327.301 210.412 326.521C306.902 270.621 403.392 214.711 499.882 158.821ZM463.572 290.781C442.752 293.131 422.382 300.201 404.912 311.821C396.242 317.681 388.002 324.891 383.452 334.501C379.552 342.331 379.432 351.911 383.072 359.861C387.092 368.901 394.562 375.861 402.392 381.651C438.032 406.741 485.972 412.631 526.872 397.841C540.712 392.801 554.032 385.841 565.292 376.271C573.102 369.531 579.972 360.591 581.072 350.031C582.132 340.331 577.502 330.921 571.012 323.981C561.262 313.411 548.512 306.141 535.432 300.481C512.852 291.111 487.812 287.911 463.572 290.781ZM291.522 378.091C291.702 422.211 290.952 466.331 291.362 510.451C295.002 509.441 296.932 505.901 299.932 503.861C309.932 496.471 323.022 495.001 335.072 496.401C352.752 498.531 369.362 505.711 384.862 514.181C417.822 532.321 447.102 557.291 469.692 587.411C493.272 618.811 509.352 656.001 514.792 694.961C516.082 703.371 516.412 711.881 517.622 720.301C518.032 649.761 517.212 579.221 517.492 508.681C442.182 465.121 366.872 421.561 291.522 378.091ZM699.502 465.611C693.332 466.871 687.402 469.101 681.722 471.801C634.362 494.601 601.752 546.211 603.752 599.051C604.272 610.861 606.532 623.391 614.162 632.821C619.372 639.421 627.552 643.391 635.922 643.731C647.302 644.361 658.352 640.411 668.352 635.311C685.662 626.271 700.912 613.391 712.962 598.041C734.452 570.761 745.622 535.021 741.412 500.371C739.942 489.441 736.362 477.771 727.432 470.631C719.702 464.311 708.932 463.691 699.502 465.611ZM318.552 546.751C311.742 548.051 305.612 552.001 301.342 557.431C294.012 566.901 291.762 579.211 291.282 590.911C289.572 635.521 312.692 679.341 348.422 705.511C359.772 713.721 372.332 720.761 386.052 724.001C396.002 726.421 407.532 725.571 415.582 718.681C424.252 711.371 427.592 699.811 428.992 688.961C431.632 666.051 427.632 642.551 418.322 621.501C405.122 591.581 381.112 566.371 351.472 552.411C341.272 547.761 329.782 544.531 318.552 546.751Z"/>
	</g>
</svg>
