<?xml version="1.0" standalone="no"?>
<!DOCTYPE svg PUBLIC "-//W3C//DTD SVG 20010904//EN"
 "http://www.w3.org/TR/2001/REC-SVG-20010904/DTD/svg10.dtd">
<svg version="1.0" xmlns="http://www.w3.org/2000/svg"
 width="700.000000pt" height="700.000000pt" viewBox="0 0 700.000000 700.000000"
 preserveAspectRatio="xMidYMid meet">
<metadata>
Created by potrace 1.14, written by Peter Selinger 2001-2017
</metadata>
<g transform="translate(0.000000,700.000000) scale(0.100000,-0.100000)"
fill="#000000" stroke="none">
<path d="M3788 6995 c-2 -1 -34 -6 -73 -9 -336 -30 -722 -144 -1052 -312 -169
-86 -426 -252 -509 -329 -6 -5 -29 -23 -50 -39 -60 -46 -1295 -1279 -1383
-1381 -325 -378 -544 -813 -650 -1293 -21 -92 -24 -107 -41 -216 -33 -209 -35
-642 -5 -846 122 -810 533 -1501 1182 -1986 251 -188 551 -342 865 -444 108
-34 311 -85 382 -94 27 -4 52 -9 55 -11 6 -3 33 -6 216 -25 82 -9 516 -6 570
4 17 3 82 13 145 21 355 51 763 199 1087 396 267 163 358 243 1041 923 733
731 819 826 990 1101 105 169 268 516 286 610 2 11 10 34 16 50 13 32 69 243
76 285 3 14 7 39 11 55 3 17 7 37 9 45 1 8 7 47 13 85 21 128 26 228 25 465 0
212 -13 365 -39 490 -3 14 -8 41 -11 60 -47 274 -186 644 -342 910 -49 85
-157 250 -189 290 -7 8 -34 42 -60 75 -166 209 -403 431 -623 587 -379 267
-892 467 -1320 514 -30 3 -84 9 -120 14 -60 7 -495 12 -502 5z m209 -1234
l232 -135 -27 -16 c-15 -9 -193 -112 -397 -230 -203 -117 -374 -217 -379 -221
-4 -4 52 -6 127 -5 219 4 374 -21 584 -95 254 -90 520 -271 621 -424 143 -216
73 -444 -197 -633 -41 -29 -72 -52 -69 -52 4 0 35 16 70 36 34 20 83 48 108
62 25 13 83 47 130 75 220 129 345 185 476 212 294 61 474 -88 518 -425 47
-367 -66 -770 -311 -1113 -69 -96 -241 -273 -338 -349 -196 -154 -397 -258
-562 -292 -123 -26 -249 -4 -310 53 -48 46 -47 56 -48 -434 l0 -460 -95 -58
c-52 -32 -101 -60 -108 -64 -7 -3 -97 -54 -200 -115 -103 -60 -195 -107 -204
-105 -12 4 -854 488 -1325 763 -155 91 -204 120 -243 142 -25 13 -85 48 -135
77 -86 50 -118 69 -202 116 -21 11 -58 33 -83 48 -25 15 -78 47 -118 70 l-73
42 2 1233 2 1234 61 35 c34 19 144 83 246 142 102 59 201 116 220 127 38 22
404 234 800 464 135 78 261 151 280 162 29 16 449 259 555 322 35 20 12 31
392 -189z"/>
<path d="M3158 4950 c-154 -33 -322 -116 -406 -201 -86 -86 -109 -189 -63
-281 64 -125 274 -249 497 -292 110 -21 303 -15 410 12 281 74 478 236 470
387 -9 164 -196 302 -518 382 -13 3 -86 7 -163 8 -108 3 -160 -1 -227 -15z"/>
<path d="M2039 3998 c0 -441 1 -561 7 -567 2 -3 17 7 32 22 47 45 118 71 202
71 95 1 137 -6 230 -39 116 -42 365 -184 431 -247 8 -7 30 -25 49 -40 58 -44
182 -168 252 -253 170 -208 293 -461 342 -706 14 -71 29 -168 29 -196 0 -7 3
-13 6 -13 3 0 5 315 5 700 -1 701 -3 730 -34 730 -4 0 -37 17 -71 39 -61 36
-405 235 -499 289 -25 14 -139 80 -255 147 -115 67 -230 133 -255 147 -25 14
-112 65 -195 113 -82 48 -170 99 -195 113 -25 13 -49 28 -54 33 -6 5 -14 9
-18 9 -4 0 -8 -159 -9 -352z"/>
<path d="M4870 3734 c-152 -40 -341 -181 -455 -339 -81 -112 -156 -278 -170
-374 -2 -14 -7 -46 -11 -71 -18 -119 -6 -236 31 -318 54 -118 146 -159 286
-126 237 55 497 312 591 584 66 190 71 400 14 526 -52 113 -150 153 -286 118z"/>
<path d="M2218 3170 c-76 -22 -127 -79 -158 -177 -26 -80 -21 -274 9 -388 43
-163 135 -321 260 -446 177 -177 393 -267 524 -218 109 40 156 149 152 354 -5
227 -89 439 -244 611 -165 185 -408 302 -543 264z"/>
</g>
</svg>
