<svg width="20" height="20" viewBox="0 0 20 20" fill="none" xmlns="http://www.w3.org/2000/svg">
  <path d="M9.66999 0.155878C10.1662 0.0868777 10.6838 0.176678 11.1244 0.416478C11.6556 0.701078 12.0688 1.19668 12.2518 1.77088C12.3316 2.01888 12.3714 2.27968 12.3644 2.54028C12.36 2.74728 12.4486 2.95628 12.6102 3.08768C12.8104 3.25628 13.109 3.30188 13.3454 3.18368C13.4828 3.12348 13.5724 2.99888 13.685 2.90528C14.2002 2.44868 14.9216 2.23868 15.6016 2.34628C16.298 2.44708 16.9354 2.87968 17.288 3.48828C17.6438 4.08688 17.712 4.84448 17.4712 5.49748C17.3472 5.83888 17.1432 6.15028 16.8808 6.40128C16.6892 6.58928 16.627 6.89548 16.737 7.14148C16.7736 7.21548 16.7736 7.30568 16.829 7.37008C16.934 7.50508 17.091 7.59968 17.2606 7.62468C17.3526 7.63948 17.4458 7.63408 17.5386 7.63468C18.227 7.63828 18.902 7.96888 19.3342 8.50328C19.7552 9.01388 19.9414 9.70568 19.8392 10.3591C19.7444 10.9999 19.371 11.5933 18.8336 11.9555C18.4328 12.2309 17.9444 12.3773 17.458 12.3649C17.3132 12.3639 17.1668 12.4023 17.0478 12.4863C16.895 12.5895 16.7922 12.7587 16.7594 12.9391C16.7198 13.1515 16.7938 13.3807 16.9482 13.5317C17.0358 13.6175 17.1184 13.7087 17.1928 13.8063C17.5822 14.3095 17.7512 14.9743 17.6532 15.6025C17.5558 16.2701 17.1546 16.8841 16.5844 17.2439C16.2428 17.4615 15.8448 17.5895 15.4402 17.6105C14.7686 17.6507 14.0862 17.3855 13.6186 16.9017C13.4864 16.7599 13.2932 16.6741 13.0986 16.6843C12.7594 16.6891 12.449 16.9777 12.4352 17.3197C12.4352 17.5341 12.4326 17.7505 12.3876 17.9615C12.2686 18.5793 11.8888 19.1407 11.3606 19.4825C10.864 19.8091 10.242 19.9349 9.65719 19.8313C9.02459 19.7235 8.44359 19.3445 8.09219 18.8071C7.86179 18.4619 7.72799 18.0541 7.70319 17.6401C7.69359 17.5263 7.71019 17.4099 7.68059 17.2983C7.63459 17.1079 7.50219 16.9403 7.32599 16.8539C7.21599 16.8031 7.10079 16.7557 6.97799 16.7503C6.78519 16.7403 6.59019 16.8183 6.45759 16.9587C6.22379 17.1985 5.94019 17.3905 5.62839 17.5135C5.16379 17.6995 4.63959 17.7305 4.15559 17.6041C3.51019 17.4397 2.94699 16.9871 2.64579 16.3933C2.32279 15.7705 2.29939 15.0037 2.58379 14.3623C2.70719 14.0803 2.88619 13.8229 3.10759 13.6091C3.23859 13.4831 3.31879 13.3033 3.31499 13.1207C3.31799 12.8397 3.13099 12.5663 2.86419 12.4741C2.72219 12.4157 2.56659 12.4419 2.41759 12.4319C2.06279 12.4199 1.71079 12.3277 1.39699 12.1615C0.787392 11.8453 0.332392 11.2495 0.187992 10.5781C0.0707915 10.0469 0.141192 9.47528 0.390592 8.99128C0.642192 8.49188 1.07859 8.09008 1.59579 7.87828C1.89319 7.75528 2.21599 7.69468 2.53779 7.69988C2.71699 7.70248 2.89359 7.62708 3.02019 7.50148C3.12499 7.39948 3.18079 7.26068 3.22479 7.12408C3.29339 6.89108 3.21839 6.62448 3.04119 6.45888C2.65879 6.08908 2.40479 5.58848 2.33859 5.06028C2.26539 4.51128 2.39359 3.93888 2.69379 3.47368C3.01199 2.97488 3.52439 2.60468 4.09819 2.45988C4.55159 2.34308 5.03899 2.36488 5.47999 2.52228C5.82759 2.64508 6.14479 2.85108 6.39959 3.11728C6.58719 3.31048 6.89499 3.37208 7.14139 3.26228C7.21499 3.22548 7.30479 3.22508 7.36939 3.17048C7.49299 3.07468 7.58239 2.93548 7.61599 2.78248C7.64959 2.63768 7.62519 2.48828 7.63779 2.34148C7.67319 1.78488 7.91399 1.24468 8.30459 0.846678C8.66679 0.473878 9.15499 0.226278 9.66999 0.155878ZM9.84279 1.54628C9.68719 1.57308 9.53719 1.63588 9.41279 1.73348C9.16519 1.91928 9.01919 2.23068 9.03399 2.53988C9.04199 2.85528 8.98939 3.17388 8.86159 3.46348C8.65239 3.95068 8.24779 4.35028 7.75699 4.55148C7.67299 4.58448 7.58199 4.59288 7.49679 4.62248C6.86339 4.82528 6.13579 4.69628 5.61139 4.28688C5.47539 4.19088 5.37519 4.05428 5.23839 3.95968C4.98279 3.78008 4.63879 3.73468 4.34699 3.84868C4.04139 3.96208 3.80299 4.23948 3.73919 4.55948C3.67259 4.86668 3.77199 5.20328 3.99319 5.42608C4.06039 5.49268 4.12619 5.56088 4.18519 5.63468C4.54879 6.07728 4.71299 6.67468 4.62879 7.24088C4.59719 7.48188 4.51219 7.71208 4.41019 7.93148C4.27499 8.21188 4.07439 8.45968 3.83059 8.65288C3.45699 8.95108 2.97719 9.11108 2.49959 9.09988C2.14019 9.09708 1.79059 9.31368 1.63479 9.63768C1.48659 9.92608 1.50199 10.2899 1.67279 10.5655C1.81819 10.8105 2.07799 10.9825 2.35979 11.0225C2.51199 11.0463 2.66659 11.0257 2.81939 11.0411C3.22759 11.0765 3.62419 11.2367 3.94219 11.4951C4.21279 11.7137 4.42639 12.0015 4.55759 12.3235C4.70479 12.6725 4.74779 13.0619 4.69299 13.4359C4.63479 13.8239 4.46279 14.1939 4.20379 14.4887C4.10939 14.5991 3.99279 14.6919 3.92139 14.8207C3.74199 15.1149 3.74119 15.5053 3.91899 15.8007C4.06899 16.0571 4.34099 16.2391 4.63699 16.2731C4.93699 16.3127 5.25019 16.1965 5.45599 15.9759C5.84559 15.5757 6.40019 15.3419 6.95919 15.3495C7.32279 15.3481 7.67819 15.4587 7.99919 15.6239C8.27679 15.7701 8.51819 15.9827 8.70359 16.2357C8.96899 16.5991 9.11059 17.0513 9.09919 17.5013C9.09679 17.8753 9.33299 18.2371 9.67719 18.3839C9.94559 18.5049 10.2698 18.4913 10.5272 18.3485C10.792 18.2069 10.9808 17.9351 11.0226 17.6381C11.0458 17.4859 11.0246 17.3317 11.0408 17.1789C11.0854 16.6531 11.341 16.1491 11.7392 15.8027C12.0378 15.5411 12.4122 15.3669 12.8044 15.3067C13.1836 15.2501 13.5788 15.2955 13.9318 15.4469C14.1908 15.5545 14.423 15.7197 14.6198 15.9187C14.8362 16.1471 15.1712 16.2573 15.4808 16.1981C15.7292 16.1549 15.9582 16.0091 16.1022 15.8021C16.2582 15.5849 16.3162 15.3005 16.2572 15.0397C16.2156 14.8459 16.1104 14.6681 15.9656 14.5335C15.6292 14.2011 15.4104 13.7517 15.3614 13.2809C15.3106 12.8375 15.412 12.3809 15.6364 11.9961C15.9432 11.4627 16.4992 11.0829 17.1078 10.9911C17.2374 10.9715 17.369 10.9641 17.5002 10.9651C17.7208 10.9685 17.9394 10.8869 18.11 10.7481C18.3318 10.5685 18.4684 10.2865 18.465 10.0005C18.4688 9.70388 18.3224 9.41168 18.0864 9.23328C17.909 9.09668 17.6836 9.02388 17.4598 9.03468C17.0604 9.04628 16.656 8.95268 16.3114 8.74788C15.994 8.56188 15.7272 8.28968 15.5492 7.96748C15.49 7.85688 15.431 7.74328 15.4096 7.61848C15.3676 7.46008 15.3152 7.30348 15.2986 7.13968C15.2152 6.50388 15.4448 5.83428 15.91 5.39148C16.1856 5.13148 16.292 4.70548 16.1518 4.35068C16.042 4.04948 15.773 3.81348 15.4602 3.74408C15.1478 3.66928 14.8016 3.76728 14.5736 3.99308C14.5102 4.05708 14.4458 4.11988 14.376 4.17648C13.9218 4.55508 13.3008 4.72188 12.718 4.62308C12.346 4.56148 11.9908 4.39948 11.7026 4.15628C11.3922 3.89588 11.1628 3.54148 11.049 3.15288C10.9862 2.94108 10.9626 2.71948 10.9644 2.49908C10.9696 2.18348 10.8014 1.87348 10.5392 1.69948C10.338 1.56168 10.0834 1.50608 9.84279 1.54628Z" fill="#556290" />
  <path d="M9.66871 6.81637C10.3945 6.74037 11.1455 6.91997 11.7539 7.32417C12.3497 7.71317 12.8089 8.30757 13.0329 8.98337C13.2861 9.73537 13.2461 10.5816 12.9205 11.3054C12.6359 11.946 12.1335 12.4864 11.5161 12.8182C10.8391 13.1864 10.0269 13.293 9.27671 13.1188C8.56671 12.9582 7.91911 12.5428 7.47291 11.9682C7.03611 11.4124 6.79471 10.7082 6.79691 10.0014C6.79351 9.24197 7.07311 8.48557 7.57111 7.91217C8.09651 7.29697 8.86311 6.89477 9.66871 6.81637ZM9.76711 8.21477C9.26551 8.27577 8.80011 8.56397 8.51531 8.98017C8.34631 9.22197 8.24111 9.50677 8.20851 9.79977C8.16251 10.2016 8.25711 10.6192 8.47551 10.96C8.66531 11.2602 8.94531 11.5028 9.26991 11.6466C9.63991 11.811 10.0657 11.845 10.4569 11.7402C11.0789 11.5816 11.5919 11.0628 11.7429 10.4388C11.8611 9.97737 11.7849 9.46977 11.5345 9.06437C11.3899 8.82837 11.1909 8.62577 10.9569 8.47797C10.6077 8.25417 10.1781 8.16077 9.76711 8.21477Z" fill="#556290" />
</svg>