<svg width="20" height="20" viewBox="0 0 20 20" fill="none" xmlns="http://www.w3.org/2000/svg">
  <path d="M11.3845 0.24866C11.8851 0.266873 12.3792 0.445189 12.7715 0.757855C13.2452 1.13037 13.5661 1.6902 13.6466 2.28745C13.6821 2.54554 13.676 2.80929 13.6239 3.06471C13.5836 3.2678 13.6346 3.48901 13.7709 3.64648C13.9388 3.84728 14.2249 3.94404 14.4783 3.86869C14.624 3.83326 14.7339 3.72611 14.861 3.65349C15.4477 3.29329 16.1946 3.21175 16.8456 3.43579C17.5139 3.65599 18.0665 4.1927 18.3081 4.85329C18.5545 5.50458 18.4901 6.26251 18.1396 6.86377C17.9582 7.17845 17.7032 7.4497 17.4012 7.65132C17.1799 7.80319 17.0655 8.09394 17.1311 8.35531C17.1543 8.43454 17.1386 8.52337 17.182 8.59641C17.2619 8.74759 17.4001 8.86802 17.5628 8.92209C17.6508 8.95264 17.7436 8.9635 17.8348 8.98021C18.5122 9.10329 19.1195 9.54608 19.4523 10.1474C19.7783 10.7234 19.8415 11.437 19.6274 12.0627C19.4228 12.6773 18.952 13.1969 18.3599 13.4602C17.9173 13.6619 17.4109 13.7212 16.9341 13.6246C16.7916 13.5984 16.6408 13.6108 16.509 13.6729C16.3406 13.748 16.21 13.8968 16.1464 14.0687C16.0705 14.271 16.1036 14.5096 16.2294 14.6851C16.3008 14.7848 16.3663 14.889 16.4226 14.998C16.7187 15.5612 16.7697 16.2452 16.5641 16.8469C16.3523 17.4874 15.8505 18.0224 15.2265 18.2777C14.8523 18.4327 14.4381 18.4896 14.036 18.4401C13.3677 18.363 12.7417 17.9834 12.3652 17.4257C12.2596 17.2631 12.0843 17.1451 11.8908 17.1213C11.556 17.0672 11.2002 17.2975 11.1272 17.6319C11.09 17.843 11.0498 18.0557 10.9689 18.2557C10.7444 18.8434 10.2729 19.3303 9.69335 19.5752C9.14758 19.8106 8.51318 19.8265 7.95526 19.6229C7.35099 19.4069 6.84463 18.9328 6.59188 18.3425C6.42493 17.9626 6.36397 17.5377 6.41144 17.1257C6.42175 17.012 6.45831 16.9002 6.44854 16.7852C6.4363 16.5897 6.33501 16.4016 6.17649 16.2859C6.07699 16.2168 5.97177 16.1501 5.85177 16.1235C5.66364 16.0802 5.45805 16.1231 5.30309 16.2384C5.0312 16.4339 4.71857 16.5738 4.39015 16.6407C3.90031 16.7432 3.37869 16.6827 2.92399 16.4742C2.31694 16.2002 1.84089 15.6567 1.64738 15.0196C1.43743 14.3502 1.54754 13.591 1.939 13.0087C2.10949 12.7524 2.33047 12.53 2.58563 12.3579C2.73652 12.2566 2.84673 12.0934 2.87469 11.913C2.92644 11.6368 2.78976 11.335 2.54302 11.1979C2.41332 11.1157 2.25554 11.1145 2.11054 11.0788C1.76321 11.0054 1.43257 10.8534 1.1524 10.6353C0.606965 10.218 0.262337 9.55227 0.236718 8.86599C0.21354 8.32251 0.382128 7.77182 0.711785 7.33848C1.04628 6.89036 1.54582 6.57044 2.09195 6.45167C2.40619 6.38218 2.73461 6.37856 3.05061 6.43956C3.22664 6.47324 3.41365 6.42965 3.56014 6.32794C3.68106 6.24569 3.76011 6.11868 3.82716 5.9918C3.93518 5.77425 3.90762 5.49868 3.76186 5.30483C3.44949 4.87424 3.28627 4.33714 3.3128 3.80547C3.33605 3.2521 3.56169 2.71065 3.93812 2.30465C4.3381 1.86868 4.907 1.59309 5.49722 1.55012C5.96402 1.51383 6.44023 1.61994 6.8472 1.85152C7.16819 2.03282 7.4448 2.29077 7.6495 2.59717C7.80071 2.82001 8.09313 2.93413 8.35486 2.86878C8.43373 2.84532 8.52223 2.86052 8.59533 2.81797C8.73369 2.74508 8.8459 2.62352 8.90556 2.47868C8.9638 2.34192 8.96571 2.19055 9.00361 2.04817C9.13512 1.50617 9.46607 1.01599 9.91985 0.691866C10.3413 0.387625 10.8651 0.228562 11.3845 0.24866ZM11.3132 1.64794C11.1553 1.64732 10.9967 1.68312 10.8572 1.75763C10.5811 1.89761 10.3833 2.17893 10.3441 2.486C10.2973 2.798 10.1901 3.10262 10.014 3.36563C9.72336 3.8091 9.25552 4.13238 8.73724 4.24529C8.64878 4.2632 8.55771 4.25567 8.46866 4.27003C7.80967 4.35976 7.11552 4.10637 6.67018 3.61213C6.55292 3.49397 6.47796 3.34205 6.35966 3.22513C6.13913 3.00388 5.80824 2.89943 5.50108 2.96103C5.18043 3.01964 4.89748 3.25143 4.77909 3.55549C4.66015 3.84646 4.69959 4.1952 4.87874 4.45303C4.93336 4.53029 4.98632 4.60888 5.0316 4.6918C5.31282 5.19081 5.37079 5.80765 5.18955 6.35063C5.11658 6.58248 4.9929 6.79442 4.85435 6.99278C4.67251 7.24544 4.43193 7.45464 4.15829 7.60257C3.73858 7.83137 3.23829 7.90562 2.76989 7.81165C2.41643 7.74649 2.03453 7.89909 1.82484 8.19111C1.62881 8.4494 1.5808 8.81034 1.70115 9.11142C1.8018 9.37794 2.02778 9.59244 2.29835 9.68077C2.44411 9.73064 2.59994 9.7372 2.74774 9.7789C3.14359 9.88464 3.50635 10.1113 3.77465 10.421C4.00318 10.6832 4.16356 11.0038 4.23685 11.3436C4.32121 11.7129 4.29594 12.1039 4.17703 12.4627C4.05233 12.8347 3.8187 13.1692 3.51244 13.4145C3.4003 13.5068 3.26936 13.578 3.17668 13.6924C2.94892 13.951 2.88034 14.3353 3.00414 14.6571C3.10734 14.9357 3.3436 15.1621 3.6292 15.247C3.91777 15.3381 4.24639 15.2781 4.48737 15.0966C4.94054 14.7701 5.52732 14.6362 6.0765 14.7407C6.43482 14.8025 6.76562 14.9731 7.05305 15.1915C7.30105 15.3837 7.50186 15.635 7.64051 15.9164C7.83878 16.3203 7.8997 16.7902 7.81034 17.2314C7.74303 17.5993 7.91281 17.9966 8.22629 18.201C8.4696 18.3668 8.79124 18.4097 9.06953 18.3137C9.35489 18.2203 9.58802 17.9854 9.68076 17.7001C9.73004 17.5543 9.73594 17.3987 9.77842 17.2511C9.91365 16.741 10.2529 16.2891 10.7052 16.0171C11.0447 15.8113 11.4436 15.7048 11.8403 15.7136C12.2236 15.7237 12.6049 15.837 12.9263 16.0474C13.1626 16.1984 13.3626 16.4014 13.5219 16.6315C13.6953 16.894 14.0061 17.0607 14.3213 17.0562C14.5734 17.0568 14.8243 16.9529 15.002 16.7741C15.1934 16.5873 15.2999 16.3173 15.287 16.0502C15.2797 15.8521 15.207 15.6588 15.0878 15.5011C14.8142 15.1153 14.6768 14.6347 14.7103 14.1626C14.7372 13.7171 14.9164 13.285 15.2042 12.945C15.599 12.473 16.2125 12.1955 16.8278 12.2108C16.9588 12.214 17.0897 12.2296 17.2187 12.2533C17.4354 12.295 17.6648 12.2526 17.8569 12.1455C18.1065 12.0072 18.29 11.7532 18.3363 11.4709C18.3916 11.1795 18.2982 10.8663 18.0967 10.6496C17.9457 10.4843 17.7364 10.3735 17.5141 10.3453C17.1188 10.2873 16.7368 10.1249 16.433 9.8634C16.1527 9.62511 15.9372 9.31071 15.8179 8.9625C15.7788 8.8433 15.7404 8.72118 15.741 8.59456C15.7271 8.43127 15.7027 8.26795 15.7148 8.10376C15.7431 7.46313 16.0855 6.84358 16.6205 6.48828C16.9371 6.28009 17.1158 5.87904 17.0394 5.50528C16.9835 5.18959 16.7596 4.91047 16.4636 4.78781C16.1689 4.65989 15.811 4.69629 15.5472 4.87907C15.4737 4.93108 15.3994 4.98175 15.3208 5.02537C14.8078 5.31934 14.1672 5.37577 13.6104 5.17727C13.2548 5.05201 12.9331 4.83079 12.6915 4.54124C12.4311 4.2309 12.2667 3.84205 12.2221 3.43959C12.197 3.2201 12.2123 2.99777 12.2523 2.78103C12.3122 2.47113 12.2004 2.13663 11.9724 1.91974C11.7982 1.7491 11.5571 1.65013 11.3132 1.64794Z" fill="white" />
  <path d="M9.67261 6.81686C10.3984 6.74086 11.1494 6.92046 11.7578 7.32466C12.3536 7.71366 12.8128 8.30806 13.0368 8.98386C13.29 9.73586 13.25 10.5821 12.9244 11.3059C12.6398 11.9465 12.1374 12.4869 11.52 12.8187C10.843 13.1869 10.0308 13.2935 9.28061 13.1193C8.57061 12.9587 7.92301 12.5433 7.47681 11.9687C7.04001 11.4129 6.79861 10.7087 6.80081 10.0019C6.79741 9.24246 7.07701 8.48606 7.57501 7.91266C8.10041 7.29746 8.86701 6.89526 9.67261 6.81686ZM9.77101 8.21526C9.26941 8.27626 8.80401 8.56446 8.51921 8.98066C8.35021 9.22246 8.24501 9.50726 8.21241 9.80026C8.16641 10.2021 8.26101 10.6197 8.47941 10.9605C8.66921 11.2607 8.94921 11.5033 9.27381 11.6471C9.64381 11.8115 10.0696 11.8455 10.4608 11.7407C11.0828 11.5821 11.5958 11.0633 11.7468 10.4393C11.865 9.97786 11.7888 9.47026 11.5384 9.06486C11.3938 8.82886 11.1948 8.62626 10.9608 8.47846C10.6116 8.25466 10.182 8.16126 9.77101 8.21526Z" fill="white" />
</svg>