<svg width="20" height="20" viewBox="0 0 20 20" fill="none" xmlns="http://www.w3.org/2000/svg">
  <path d="M9.66999 0.156366C10.1662 0.087366 10.6838 0.177166 11.1244 0.416966C11.6556 0.701566 12.0688 1.19717 12.2518 1.77137C12.3316 2.01937 12.3714 2.28017 12.3644 2.54077C12.36 2.74777 12.4486 2.95677 12.6102 3.08817C12.8104 3.25677 13.109 3.30237 13.3454 3.18417C13.4828 3.12397 13.5724 2.99937 13.685 2.90577C14.2002 2.44917 14.9216 2.23917 15.6016 2.34677C16.298 2.44757 16.9354 2.88017 17.288 3.48877C17.6438 4.08737 17.712 4.84497 17.4712 5.49797C17.3472 5.83937 17.1432 6.15077 16.8808 6.40177C16.6892 6.58977 16.627 6.89597 16.737 7.14197C16.7736 7.21597 16.7736 7.30617 16.829 7.37057C16.934 7.50557 17.091 7.60017 17.2606 7.62517C17.3526 7.63997 17.4458 7.63457 17.5386 7.63517C18.227 7.63877 18.902 7.96937 19.3342 8.50377C19.7552 9.01437 19.9414 9.70617 19.8392 10.3596C19.7444 11.0004 19.371 11.5938 18.8336 11.956C18.4328 12.2314 17.9444 12.3778 17.458 12.3654C17.3132 12.3644 17.1668 12.4028 17.0478 12.4868C16.895 12.59 16.7922 12.7592 16.7594 12.9396C16.7198 13.152 16.7938 13.3812 16.9482 13.5322C17.0358 13.618 17.1184 13.7092 17.1928 13.8068C17.5822 14.31 17.7512 14.9748 17.6532 15.603C17.5558 16.2706 17.1546 16.8846 16.5844 17.2444C16.2428 17.462 15.8448 17.59 15.4402 17.611C14.7686 17.6512 14.0862 17.386 13.6186 16.9022C13.4864 16.7604 13.2932 16.6746 13.0986 16.6848C12.7594 16.6896 12.449 16.9782 12.4352 17.3202C12.4352 17.5346 12.4326 17.751 12.3876 17.962C12.2686 18.5798 11.8888 19.1412 11.3606 19.483C10.864 19.8096 10.242 19.9354 9.65719 19.8318C9.02459 19.724 8.44359 19.345 8.09219 18.8076C7.86179 18.4624 7.72799 18.0546 7.70319 17.6406C7.69359 17.5268 7.71019 17.4104 7.68059 17.2988C7.63459 17.1084 7.50219 16.9408 7.32599 16.8544C7.21599 16.8036 7.10079 16.7562 6.97799 16.7508C6.78519 16.7408 6.59019 16.8188 6.45759 16.9592C6.22379 17.199 5.94019 17.391 5.62839 17.514C5.16379 17.7 4.63959 17.731 4.15559 17.6046C3.51019 17.4402 2.94699 16.9876 2.64579 16.3938C2.32279 15.771 2.29939 15.0042 2.58379 14.3628C2.70719 14.0808 2.88619 13.8234 3.10759 13.6096C3.23859 13.4836 3.31879 13.3038 3.31499 13.1212C3.31799 12.8402 3.13099 12.5668 2.86419 12.4746C2.72219 12.4162 2.56659 12.4424 2.41759 12.4324C2.06279 12.4204 1.71079 12.3282 1.39699 12.162C0.787392 11.8458 0.332392 11.25 0.187992 10.5786C0.0707915 10.0474 0.141192 9.47577 0.390592 8.99177C0.642192 8.49237 1.07859 8.09057 1.59579 7.87877C1.89319 7.75577 2.21599 7.69517 2.53779 7.70037C2.71699 7.70297 2.89359 7.62757 3.02019 7.50197C3.12499 7.39997 3.18079 7.26117 3.22479 7.12457C3.29339 6.89157 3.21839 6.62497 3.04119 6.45937C2.65879 6.08957 2.40479 5.58897 2.33859 5.06077C2.26539 4.51177 2.39359 3.93937 2.69379 3.47417C3.01199 2.97537 3.52439 2.60517 4.09819 2.46037C4.55159 2.34357 5.03899 2.36537 5.47999 2.52277C5.82759 2.64557 6.14479 2.85157 6.39959 3.11777C6.58719 3.31097 6.89499 3.37257 7.14139 3.26277C7.21499 3.22597 7.30479 3.22557 7.36939 3.17097C7.49299 3.07517 7.58239 2.93597 7.61599 2.78297C7.64959 2.63817 7.62519 2.48877 7.63779 2.34197C7.67319 1.78537 7.91399 1.24517 8.30459 0.847166C8.66679 0.474366 9.15499 0.226766 9.66999 0.156366ZM9.84279 1.54677C9.68719 1.57357 9.53719 1.63637 9.41279 1.73397C9.16519 1.91977 9.01919 2.23117 9.03399 2.54037C9.04199 2.85577 8.98939 3.17437 8.86159 3.46397C8.65239 3.95117 8.24779 4.35077 7.75699 4.55197C7.67299 4.58497 7.58199 4.59337 7.49679 4.62297C6.86339 4.82577 6.13579 4.69677 5.61139 4.28737C5.47539 4.19137 5.37519 4.05477 5.23839 3.96017C4.98279 3.78057 4.63879 3.73517 4.34699 3.84917C4.04139 3.96257 3.80299 4.23997 3.73919 4.55997C3.67259 4.86717 3.77199 5.20377 3.99319 5.42657C4.06039 5.49317 4.12619 5.56137 4.18519 5.63517C4.54879 6.07777 4.71299 6.67517 4.62879 7.24137C4.59719 7.48237 4.51219 7.71257 4.41019 7.93197C4.27499 8.21237 4.07439 8.46017 3.83059 8.65337C3.45699 8.95157 2.97719 9.11157 2.49959 9.10037C2.14019 9.09757 1.79059 9.31417 1.63479 9.63817C1.48659 9.92657 1.50199 10.2904 1.67279 10.566C1.81819 10.811 2.07799 10.983 2.35979 11.023C2.51199 11.0468 2.66659 11.0262 2.81939 11.0416C3.22759 11.077 3.62419 11.2372 3.94219 11.4956C4.21279 11.7142 4.42639 12.002 4.55759 12.324C4.70479 12.673 4.74779 13.0624 4.69299 13.4364C4.63479 13.8244 4.46279 14.1944 4.20379 14.4892C4.10939 14.5996 3.99279 14.6924 3.92139 14.8212C3.74199 15.1154 3.74119 15.5058 3.91899 15.8012C4.06899 16.0576 4.34099 16.2396 4.63699 16.2736C4.93699 16.3132 5.25019 16.197 5.45599 15.9764C5.84559 15.5762 6.40019 15.3424 6.95919 15.35C7.32279 15.3486 7.67819 15.4592 7.99919 15.6244C8.27679 15.7706 8.51819 15.9832 8.70359 16.2362C8.96899 16.5996 9.11059 17.0518 9.09919 17.5018C9.09679 17.8758 9.33299 18.2376 9.67719 18.3844C9.94559 18.5054 10.2698 18.4918 10.5272 18.349C10.792 18.2074 10.9808 17.9356 11.0226 17.6386C11.0458 17.4864 11.0246 17.3322 11.0408 17.1794C11.0854 16.6536 11.341 16.1496 11.7392 15.8032C12.0378 15.5416 12.4122 15.3674 12.8044 15.3072C13.1836 15.2506 13.5788 15.296 13.9318 15.4474C14.1908 15.555 14.423 15.7202 14.6198 15.9192C14.8362 16.1476 15.1712 16.2578 15.4808 16.1986C15.7292 16.1554 15.9582 16.0096 16.1022 15.8026C16.2582 15.5854 16.3162 15.301 16.2572 15.0402C16.2156 14.8464 16.1104 14.6686 15.9656 14.534C15.6292 14.2016 15.4104 13.7522 15.3614 13.2814C15.3106 12.838 15.412 12.3814 15.6364 11.9966C15.9432 11.4632 16.4992 11.0834 17.1078 10.9916C17.2374 10.972 17.369 10.9646 17.5002 10.9656C17.7208 10.969 17.9394 10.8874 18.11 10.7486C18.3318 10.569 18.4684 10.287 18.465 10.001C18.4688 9.70437 18.3224 9.41217 18.0864 9.23377C17.909 9.09717 17.6836 9.02437 17.4598 9.03517C17.0604 9.04677 16.656 8.95317 16.3114 8.74837C15.994 8.56237 15.7272 8.29017 15.5492 7.96797C15.49 7.85737 15.431 7.74377 15.4096 7.61897C15.3676 7.46057 15.3152 7.30397 15.2986 7.14017C15.2152 6.50437 15.4448 5.83477 15.91 5.39197C16.1856 5.13197 16.292 4.70597 16.1518 4.35117C16.042 4.04997 15.773 3.81397 15.4602 3.74457C15.1478 3.66977 14.8016 3.76777 14.5736 3.99357C14.5102 4.05757 14.4458 4.12037 14.376 4.17697C13.9218 4.55557 13.3008 4.72237 12.718 4.62357C12.346 4.56197 11.9908 4.39997 11.7026 4.15677C11.3922 3.89637 11.1628 3.54197 11.049 3.15337C10.9862 2.94157 10.9626 2.71997 10.9644 2.49957C10.9696 2.18397 10.8014 1.87397 10.5392 1.69997C10.338 1.56217 10.0834 1.50657 9.84279 1.54677Z" fill="white" />
  <path d="M9.66871 6.81686C10.3945 6.74086 11.1455 6.92046 11.7539 7.32466C12.3497 7.71366 12.8089 8.30806 13.0329 8.98386C13.2861 9.73586 13.2461 10.5821 12.9205 11.3059C12.6359 11.9465 12.1335 12.4869 11.5161 12.8187C10.8391 13.1869 10.0269 13.2935 9.27671 13.1193C8.56671 12.9587 7.91911 12.5433 7.47291 11.9687C7.03611 11.4129 6.79471 10.7087 6.79691 10.0019C6.79351 9.24246 7.07311 8.48606 7.57111 7.91266C8.09651 7.29746 8.86311 6.89526 9.66871 6.81686ZM9.76711 8.21526C9.26551 8.27626 8.80011 8.56446 8.51531 8.98066C8.34631 9.22246 8.24111 9.50726 8.20851 9.80026C8.16251 10.2021 8.25711 10.6197 8.47551 10.9605C8.66531 11.2607 8.94531 11.5033 9.26991 11.6471C9.63991 11.8115 10.0657 11.8455 10.4569 11.7407C11.0789 11.5821 11.5919 11.0633 11.7429 10.4393C11.8611 9.97786 11.7849 9.47026 11.5345 9.06486C11.3899 8.82886 11.1909 8.62626 10.9569 8.47846C10.6077 8.25466 10.1781 8.16126 9.76711 8.21526Z" fill="white" />
</svg>