<svg width="295" height="532" viewBox="0 0 295 532" fill="none" xmlns="http://www.w3.org/2000/svg">
  <path d="M284.247 -51.9445C287.834 -53.8207 291.321 -55.8887 295 -57.5938V28.4902C290.779 30.98 286.362 33.1246 282.111 35.5613C279.238 36.9832 276.506 38.6618 273.645 40.1043C271.226 41.3699 268.665 42.5322 266.698 44.4733C268.072 44.4379 269.447 44.4408 270.825 44.4261C272.872 44.2638 274.905 43.9216 276.964 43.8685C282.937 43.0779 288.985 43.2815 295 43.311V70.6044C286.74 68.7164 278.353 67.3063 269.887 66.8933C268.146 66.5747 266.373 66.6661 264.618 66.6278C260.287 66.5717 255.954 66.5953 251.626 66.7074C250.449 66.8815 249.269 67.0113 248.08 67.0054C246.29 66.9995 244.558 67.557 242.773 67.563C231.333 68.9376 219.993 71.5543 209.249 75.7669C206.178 77.0885 203.013 78.2006 200.045 79.7523C193.777 82.7938 187.676 86.2423 182.13 90.4815C177.189 94.1395 172.731 98.5645 169.507 103.824C167.448 107.158 165.905 110.893 165.583 114.825C165.123 117.872 165.542 120.984 166.297 123.949C167.548 127.97 169.654 131.693 172.212 135.024C174.127 137.218 176.006 139.478 178.307 141.292C179.859 142.82 181.652 144.053 183.384 145.36C187.177 148.263 191.352 150.602 195.488 152.968C203.526 157.151 211.916 160.686 220.636 163.175C228.528 165.453 236.619 167.078 244.785 167.934C247.806 168.639 250.942 168.152 253.992 168.656C257.83 168.748 261.674 168.73 265.518 168.677C268.294 168.326 271.105 168.456 273.875 168.005C279.943 167.438 285.976 166.426 291.914 165.037C292.95 164.78 294.018 164.621 295 164.181V259.307C265.385 243.318 235.726 227.421 206.114 211.431C200.031 208.207 193.986 204.906 187.936 201.62C184.859 200.127 181.938 198.342 178.897 196.782C175.068 194.841 171.386 192.625 167.554 190.69C140.694 176.241 113.84 161.768 86.9512 147.363C85.0632 146.381 83.2755 145.148 81.2784 144.416C81.4023 169.179 81.2489 193.944 81.2253 218.709C81.1751 221.467 81.3669 224.234 81.0483 226.981C81.0335 231.996 81.0542 237.014 81.0365 242.029C81.4701 248.268 81.0424 254.546 81.3226 260.797C84.8892 259.732 86.9424 256.345 90.0399 254.501C93.4294 252.49 97.0137 250.711 100.86 249.767C105.103 248.646 109.48 248.044 113.867 248.053C121.451 247.879 128.998 249.115 136.337 250.947C148.683 254.283 160.521 259.307 171.835 265.231C182.401 270.759 192.588 277.019 202.287 283.96C211.816 290.822 220.976 298.226 229.41 306.401C232.563 309.354 235.64 312.395 238.546 315.596C250.729 328.52 261.382 342.913 270.049 358.427C273.008 363.551 275.506 368.917 278.029 374.269C283.277 386.243 287.654 398.638 290.36 411.447C291.05 414.347 291.543 417.285 292.115 420.209C292.472 423.457 293.301 426.646 293.404 429.92C293.708 431.413 293.667 432.944 293.897 434.449C293.959 435.696 294.277 436.915 294.265 438.171C294.304 439.823 294.289 441.555 295 443.089V531.999H224.011C220.819 530.695 217.943 528.725 214.851 527.202C212.763 526.191 210.763 525.014 208.73 523.901C197.983 518.249 187.366 512.352 176.649 506.644C174.439 505.269 172.05 504.216 169.805 502.906C167.486 501.706 165.286 500.293 162.937 499.154C159.276 497.225 155.73 495.086 152.028 493.236C147.052 490.41 141.983 487.749 136.963 485.003C134.021 483.536 131.245 481.769 128.284 480.342C126.169 479.135 123.974 478.079 121.885 476.822C118.968 475.194 115.926 473.793 113.056 472.076C110.566 470.742 108.023 469.5 105.601 468.046C95.695 462.674 85.7093 457.453 75.7796 452.125C70.4194 449.367 65.1124 446.496 59.826 443.599C49.088 437.826 38.3706 432.015 27.6444 426.218C22.6294 423.593 17.6911 420.828 12.7056 418.147C9.95625 416.802 7.37205 415.15 4.62855 413.796C3.05915 413.043 1.61955 412.046 0 411.4V230.12C0.34515 228.347 -0.10915 226.518 0.31565 224.757C0.5133 223.736 0.38055 222.689 0.41005 221.659C0.48675 212.514 0.45725 203.369 0.4366 194.224C0.43365 163.246 0.4425 132.265 0.43365 101.287C0.46315 101.16 0.52805 100.91 0.5605 100.786C7.44285 97.6942 13.9151 93.7737 20.6117 90.3074C23.5941 88.561 26.7535 87.1391 29.7065 85.3367C32.9308 83.6404 36.167 81.9648 39.3412 80.1771C50.0438 74.4217 60.7257 68.6308 71.446 62.9137C81.361 57.3972 91.4411 52.1846 101.362 46.6799C104.648 45.081 107.766 43.1664 111.02 41.5085C113.991 39.8801 117 38.3225 119.944 36.644C123.366 34.989 126.611 33.0096 129.992 31.2779C134.252 28.9445 138.585 26.7467 142.804 24.3366C146.414 22.481 149.972 20.5281 153.512 18.5457C163.557 13.283 173.433 7.71334 183.472 2.44464C187.428 0.187893 191.541 -1.7827 195.476 -4.08075C198.712 -5.8596 202.034 -7.48211 205.226 -9.3465C208.462 -11.0074 211.636 -12.7774 214.828 -14.5179C218.132 -16.1197 221.241 -18.0815 224.542 -19.6863C229.982 -22.6982 235.478 -25.604 240.935 -28.5894C243.322 -29.7812 245.644 -31.0968 247.974 -32.3978C250.753 -33.8226 253.502 -35.3006 256.219 -36.8435C265.583 -41.8378 274.91 -46.9 284.247 -51.9445ZM108.74 292.503C103.082 293.182 97.6686 295.666 93.3999 299.436C90.801 301.734 88.7301 304.575 87.0574 307.601C84.2785 312.36 82.8744 317.758 81.9038 323.133C81.8654 324.526 81.5675 325.891 81.3433 327.266C81.2872 328.741 81.3256 330.228 81.0719 331.691C81.0218 334.432 80.9952 337.175 81.0866 339.916C81.3728 341.485 81.2548 343.09 81.3433 344.677C81.6383 346.32 81.8537 347.984 81.9392 349.654C82.4997 352.211 82.6767 354.834 83.3581 357.365C84.5352 362.908 86.1518 368.371 88.1991 373.661C89.8068 377.419 91.1992 381.284 93.1551 384.889C94.3734 386.924 95.2702 389.139 96.583 391.125C101.014 398.922 106.451 406.108 112.41 412.793C115.997 416.489 119.563 420.224 123.481 423.575C130.322 429.407 137.685 434.652 145.597 438.941C155.211 444.343 165.716 448.432 176.696 449.8C179.8 449.85 182.959 450.107 186.012 449.426C188.487 449.057 190.924 448.361 193.237 447.387C197.989 445.455 201.842 441.776 204.712 437.593C208.117 432.584 209.825 426.652 211.013 420.79C211.028 419.991 211.143 419.209 211.388 418.457C211.754 417.312 211.491 416.094 211.713 414.928C212.011 413.557 211.904 412.147 211.978 410.757C212.04 404.748 212.205 398.695 211.365 392.741C210.972 391.331 211.17 389.839 210.704 388.452C210.385 387.464 210.547 386.396 210.167 385.425C209.432 381.941 208.636 378.455 207.589 375.047C205.948 369.265 203.597 363.719 201.119 358.259C199.789 355.757 198.588 353.188 197.148 350.748C191.473 340.886 184.496 331.744 176.292 323.844C170.227 317.634 163.3 312.327 156.09 307.525C151.574 304.728 147.031 301.943 142.181 299.757C133.249 295.504 123.599 291.961 113.575 292.244C111.964 292.309 110.333 292.205 108.74 292.503Z" fill="#F5F5F5" />
</svg>