<svg width="21" height="19" viewBox="0 0 21 19" fill="none" xmlns="http://www.w3.org/2000/svg">
  <path d="M7.12673 0.491604C7.54809 0.223424 8.04466 0.076224 8.54399 0.069554C9.8244 0.069784 11.1048 0.070014 12.3852 0.069554C12.8346 0.063804 13.285 0.171904 13.6829 0.380744C14.3501 0.727124 14.8589 1.36353 15.0477 2.09148C15.1089 2.31734 15.1372 2.55125 15.1402 2.78493C15.1406 3.15845 15.139 3.53174 15.1408 3.90526C16.1775 3.90457 17.2141 3.90526 18.2507 3.9048C18.9947 3.9209 19.7227 4.26567 20.2112 4.82618C20.5433 5.20131 20.7673 5.67074 20.8504 6.16478C20.9097 6.49897 20.8851 6.83914 20.8902 7.17632C20.8902 10.0447 20.8902 12.9128 20.8902 15.7809C20.8879 16.0792 20.9035 16.3802 20.8492 16.6756C20.7273 17.401 20.2926 18.0654 19.6801 18.4719C19.2468 18.7637 18.7275 18.9229 18.2056 18.9298C13.0695 18.9298 7.93334 18.9298 2.79721 18.9298C2.0182 18.9243 1.25184 18.562 0.752969 17.964C0.448219 17.6041 0.239609 17.1636 0.155889 16.6992C0.115179 16.4794 0.108279 16.2549 0.109659 16.0318C0.109659 12.9732 0.109659 9.9147 0.109659 6.85593C0.108049 6.60293 0.111729 6.34786 0.162559 6.099C0.285379 5.4573 0.651769 4.86781 1.1695 4.47014C1.64836 4.09777 2.25579 3.89192 2.86299 3.90503C3.86165 3.90526 4.86054 3.9048 5.85943 3.90503C5.86058 3.53887 5.85874 3.17248 5.86012 2.80609C5.86357 2.53538 5.89761 2.26421 5.97765 2.005C6.16234 1.38423 6.57818 0.835914 7.12673 0.491604ZM7.79304 2.01282C7.58972 2.21476 7.47518 2.49858 7.47127 2.78424C7.46759 3.15776 7.47081 3.53128 7.46966 3.90503C9.48975 3.90503 11.5101 3.90503 13.5302 3.90503C13.5304 3.57751 13.5299 3.24999 13.5302 2.9227C13.535 2.74652 13.5223 2.56666 13.4572 2.40129C13.3075 1.98867 12.8947 1.69128 12.4558 1.68047C11.1674 1.67863 9.87868 1.6807 8.59022 1.67955C8.29444 1.67817 7.99912 1.79984 7.79304 2.01282ZM1.97519 5.92144C1.80154 6.12936 1.71529 6.40145 1.71989 6.67124C1.71943 9.75278 1.71989 12.8346 1.71966 15.9163C1.72104 16.0697 1.71276 16.2245 1.73599 16.377C1.77187 16.6181 1.89216 16.8453 2.06972 17.0123C2.27396 17.2094 2.55663 17.3202 2.83999 17.32C3.84647 17.3193 4.85318 17.32 5.85966 17.3196C5.85966 13.3847 5.85989 9.4501 5.85943 5.51526C4.83846 5.51458 3.81726 5.51526 2.79629 5.5148C2.4805 5.5217 2.17414 5.67741 1.97519 5.92144ZM7.46966 5.51526C7.46966 9.4501 7.46989 13.3847 7.46966 17.3196C9.48975 17.32 11.5101 17.3198 13.5302 17.3196C13.5302 13.3849 13.5302 9.4501 13.5302 5.51526C11.5101 5.5148 9.48998 5.51503 7.46966 5.51526ZM15.1404 5.51526C15.1399 9.4501 15.1402 13.3847 15.1402 17.3196C16.0466 17.32 16.9532 17.3198 17.8597 17.3198C18.0782 17.317 18.3036 17.3382 18.514 17.2639C18.9375 17.1273 19.2551 16.7186 19.2769 16.2731C19.2843 16.0164 19.2781 15.7595 19.2802 15.5026C19.2802 12.5505 19.2802 9.59822 19.2802 6.64617C19.2797 6.4739 19.2445 6.30094 19.1691 6.14546C19.0232 5.83956 18.7318 5.60818 18.3999 5.53826C18.2677 5.5056 18.1308 5.51641 17.9961 5.51503C17.0441 5.51503 16.0921 5.5148 15.1404 5.51526Z" fill="#9294A5" />
</svg>