<svg width="23" height="24" viewBox="0 0 23 24" fill="none" xmlns="http://www.w3.org/2000/svg">
  <path d="M10.8401 0.721603C12.6401 0.615103 14.4656 0.947103 16.1106 1.68685C16.3416 1.7921 16.5196 2.0051 16.5846 2.25035C16.6528 2.50335 16.6018 2.78585 16.4463 2.99735C16.2623 3.2536 15.9313 3.39335 15.6196 3.3466C15.4561 3.3281 15.3123 3.24285 15.1616 3.18435C14.0976 2.74085 12.9523 2.49385 11.8003 2.4571C10.3071 2.40885 8.80357 2.7196 7.45132 3.3551C5.83032 4.1116 4.43282 5.3366 3.46882 6.84335C2.53632 8.29385 2.00732 10.0011 1.96232 11.7254C1.89657 13.8176 2.55257 15.9229 3.78832 17.6119C4.97282 19.2446 6.68982 20.4821 8.61407 21.0881C10.2856 21.6219 12.1048 21.6801 13.8066 21.2519C15.0568 20.9411 16.2421 20.3729 17.2678 19.5934C18.2138 18.8756 19.0243 17.9796 19.6423 16.9654C20.3848 15.7524 20.8498 14.3711 20.9923 12.9559C21.0541 12.3811 21.0431 11.8029 21.0436 11.2259C21.0461 11.0831 21.0301 10.9369 21.0746 10.7986C21.1603 10.4886 21.4316 10.2396 21.7483 10.1821C21.8996 10.1566 22.0588 10.1626 22.2043 10.2149C22.4796 10.3066 22.6983 10.5466 22.7656 10.8286C22.8141 11.0406 22.7858 11.2599 22.7936 11.4754C22.8016 12.2374 22.7773 13.0021 22.6533 13.7556C22.3138 15.9331 21.3168 18.0024 19.8246 19.6244C18.4656 21.1116 16.6998 22.2219 14.7706 22.8024C13.3603 23.2296 11.8658 23.3771 10.3993 23.2321C8.62132 23.0606 6.88732 22.4574 5.38632 21.4891C3.79082 20.4654 2.46257 19.0304 1.56382 17.3614C0.524072 15.4436 0.0605723 13.2196 0.247572 11.0461C0.408572 9.1021 1.08607 7.2041 2.19307 5.59785C3.10807 4.2641 4.31382 3.13135 5.70307 2.30285C7.25482 1.3721 9.03382 0.825353 10.8401 0.721603Z" fill="#276E21" />
  <path d="M21.5286 2.8803C21.8963 2.6948 22.3863 2.80955 22.6231 3.14955C22.8686 3.4738 22.8408 3.96755 22.5591 4.2613C21.8476 4.97455 21.1343 5.6863 20.4221 6.39905C19.0748 7.75955 17.7161 9.10855 16.3636 10.464C15.6008 11.2268 14.8378 11.9898 14.0751 12.7525C13.4223 13.4158 12.7616 14.0718 12.1031 14.7293C11.7953 15.0333 11.2601 15.0495 10.9348 14.7645C10.7491 14.592 10.5751 14.407 10.3938 14.2295C9.51531 13.351 8.63681 12.4725 7.75831 11.594C7.57181 11.4078 7.47231 11.137 7.50381 10.874C7.53231 10.576 7.72781 10.3008 8.00031 10.1765C8.26081 10.0518 8.58331 10.0685 8.82956 10.22C8.94306 10.2863 9.03031 10.3863 9.12306 10.4778C9.91506 11.2695 10.7068 12.0618 11.4991 12.8533C12.2041 12.149 12.9083 11.444 13.6131 10.7395C14.2283 10.1215 14.8498 9.50955 15.4598 8.8863C17.3558 6.9903 19.2518 5.09455 21.1478 3.1983C21.2661 3.0828 21.3741 2.9498 21.5286 2.8803Z" fill="#276E21" />
</svg>