<svg width="23" height="24" viewBox="0 0 23 24" fill="none" xmlns="http://www.w3.org/2000/svg">
  <path d="M11.36 0.709072C13.4335 0.680322 15.5138 1.23482 17.291 2.30507C18.96 3.30082 20.3625 4.73607 21.3218 6.42582C22.1393 7.86057 22.633 9.47807 22.757 11.1246C22.8705 12.6028 22.6963 14.1048 22.2328 15.5141C21.5908 17.4921 20.3818 19.2796 18.7938 20.6208C17.1675 22.0038 15.1405 22.9093 13.0238 23.1903C11.5108 23.3941 9.95653 23.2931 8.48453 22.8858C6.82953 22.4311 5.28453 21.5868 4.00253 20.4466C2.56753 19.1751 1.46303 17.5328 0.834035 15.7213C-0.047715 13.2073 0.00203491 10.3808 0.973785 7.90007C1.63078 6.21107 2.70403 4.68632 4.06953 3.49532C5.59178 2.16057 7.47978 1.24682 9.47303 0.889822C10.0955 0.776822 10.7275 0.717572 11.36 0.709072ZM11.3793 2.45957C10.3933 2.47207 9.40853 2.63507 8.47353 2.94932C6.72753 3.52907 5.16303 4.63307 4.02178 6.07457C2.91203 7.46682 2.20553 9.17607 2.01503 10.9466C1.89103 12.0648 1.96603 13.2043 2.23553 14.2966C2.49003 15.3263 2.91903 16.3123 3.49878 17.2006C4.49553 18.7346 5.94128 19.9726 7.61278 20.7168C9.28928 21.4693 11.186 21.7136 12.9998 21.4243C14.3208 21.2168 15.596 20.7243 16.7138 19.9906C17.6168 19.4003 18.4185 18.6558 19.0748 17.7996C19.8845 16.7448 20.4718 15.5193 20.779 14.2251C21.208 12.4356 21.1078 10.5218 20.4858 8.78932C20.1625 7.88232 19.6983 7.02582 19.1175 6.25807C17.9343 4.68432 16.2533 3.49007 14.374 2.90007C13.4078 2.59457 12.392 2.44682 11.3793 2.45957Z" fill="#556290" />
  <path d="M10.678 7.52987C10.8098 7.15187 11.2253 6.90287 11.6208 6.96712C12.0303 7.01412 12.3675 7.38837 12.374 7.80037C12.375 8.90862 12.3743 10.0169 12.3745 11.1254C13.4248 11.1254 14.475 11.1254 15.5253 11.1254C15.6298 11.1259 15.7355 11.1196 15.8385 11.1419C16.0688 11.1859 16.2758 11.3291 16.4025 11.5256C16.5445 11.7429 16.5788 12.0246 16.499 12.2709C16.41 12.5546 16.165 12.7829 15.8755 12.8506C15.7525 12.8836 15.6243 12.8744 15.4985 12.8754C14.4573 12.8754 13.4158 12.8754 12.3745 12.8754C12.3743 13.9834 12.375 15.0916 12.374 16.1996C12.367 16.5631 12.1058 16.9024 11.7573 17.0046C11.5363 17.0721 11.289 17.0494 11.0855 16.9396C10.8693 16.8236 10.7045 16.6141 10.6488 16.3744C10.6163 16.2524 10.6253 16.1251 10.6245 16.0004C10.6245 14.9586 10.6245 13.9171 10.6245 12.8754C9.58302 12.8754 8.54152 12.8754 7.50002 12.8754C7.38052 12.8744 7.25902 12.8829 7.14152 12.8551C6.91402 12.8059 6.71052 12.6601 6.58802 12.4626C6.46627 12.2676 6.42702 12.0234 6.48027 11.7996C6.54802 11.4909 6.79977 11.2329 7.10577 11.1549C7.24102 11.1149 7.38327 11.1266 7.52252 11.1254C8.55652 11.1254 9.59052 11.1254 10.6245 11.1254C10.6245 10.1091 10.6245 9.09287 10.6245 8.07637C10.6263 7.89337 10.6083 7.70362 10.678 7.52987Z" fill="#556290" />
</svg>