<svg width="23" height="24" viewBox="0 0 23 24" fill="none" xmlns="http://www.w3.org/2000/svg">
  <path d="M11.3551 0.7092C13.4311 0.6787 15.5141 1.23395 17.2933 2.30595C18.9613 3.3017 20.3628 4.7362 21.3218 6.42545C22.1393 7.8602 22.6331 9.4777 22.7571 11.1242C22.8706 12.6019 22.6963 14.1037 22.2333 15.5127C21.6096 17.4349 20.4503 19.1769 18.9283 20.5049C17.3438 21.8947 15.3626 22.8269 13.2798 23.1524C11.7583 23.3927 10.1878 23.3232 8.69508 22.9412C6.90433 22.4872 5.23333 21.5777 3.87283 20.3289C2.41708 18.9989 1.31758 17.2814 0.727328 15.3997C0.379828 14.3022 0.208578 13.1512 0.205078 12.0007C0.206828 10.2612 0.607828 8.52095 1.38833 6.96495C2.18983 5.3547 3.38333 3.94245 4.83583 2.88145C6.40083 1.73295 8.26783 0.99995 10.1971 0.78245C10.5816 0.7382 10.9683 0.71445 11.3551 0.7092ZM11.3826 2.45895C10.4926 2.4702 9.60383 2.6037 8.75133 2.86045C7.06058 3.3652 5.52133 4.35695 4.35333 5.67845C3.13433 7.0502 2.32358 8.78045 2.05983 10.5969C1.89458 11.7167 1.92833 12.8652 2.16183 13.9729C2.37333 14.9827 2.75308 15.9564 3.27783 16.8447C4.21308 18.4309 5.61583 19.7384 7.26783 20.5532C8.92033 21.3787 10.8183 21.6964 12.6506 21.4724C14.0233 21.3092 15.3581 20.8389 16.5308 20.1072C17.5886 19.4492 18.5163 18.5829 19.2438 17.5714C19.9673 16.5702 20.4933 15.4267 20.7791 14.2247C21.2201 12.3859 21.1013 10.4167 20.4338 8.6467C19.7366 6.78095 18.4346 5.1502 16.7746 4.0502C15.1928 2.9907 13.2853 2.4317 11.3826 2.45895Z" fill="#205A1B" />
  <path d="M8.05255 8.06016C8.29605 7.96441 8.5828 7.98316 8.80955 8.11491C8.9138 8.17216 8.9983 8.25741 9.08105 8.34191C9.88705 9.14766 10.6925 9.95391 11.499 10.7597C12.3388 9.92141 13.1765 9.08091 14.0165 8.24341C14.316 7.94491 14.8348 7.91841 15.163 8.18441C15.4708 8.41591 15.5848 8.86041 15.4328 9.21316C15.3868 9.32416 15.3165 9.42391 15.2315 9.50866C14.4008 10.3392 13.57 11.1694 12.7398 12.0004C13.5783 12.8402 14.4185 13.6779 15.2565 14.5184C15.5545 14.8177 15.581 15.3367 15.3148 15.6649C15.0765 15.9819 14.6123 16.0917 14.2555 15.9204C14.1565 15.8752 14.0678 15.8099 13.991 15.7332C13.1605 14.9024 12.33 14.0714 11.499 13.2412C10.6598 14.0789 9.82255 14.9187 8.98305 15.7562C8.68405 16.0554 8.16455 16.0829 7.83555 15.8169C7.5178 15.5789 7.4073 15.1139 7.57905 14.7567C7.6243 14.6579 7.6893 14.5694 7.76605 14.4929C8.5968 13.6622 9.4278 12.8317 10.2583 12.0004C9.4238 11.1649 8.58805 10.3304 7.7533 9.49491C7.5603 9.30266 7.46605 9.01791 7.5078 8.74841C7.54805 8.44266 7.7653 8.17066 8.05255 8.06016Z" fill="#205A1B" />
</svg>