<svg width="23" height="24" viewBox="0 0 23 24" fill="none" xmlns="http://www.w3.org/2000/svg">
  <path d="M11.3547 0.709218C13.4314 0.678468 15.5149 1.23422 17.2947 2.30647C18.8997 3.26547 20.2592 4.62972 21.2127 6.23797C22.1124 7.74597 22.6474 9.46872 22.7642 11.2205C22.8637 12.6735 22.6852 14.1472 22.2277 15.531C21.6082 17.4295 20.4657 19.1512 18.9679 20.4707C17.3764 21.8792 15.3797 22.8247 13.2792 23.1527C11.6462 23.4107 9.95668 23.3105 8.36768 22.8525C6.60868 22.3482 4.97993 21.4032 3.66393 20.1325C2.21468 18.7397 1.14568 16.9535 0.613933 15.0142C0.300683 13.8817 0.167432 12.6997 0.217182 11.526C0.296932 9.48772 0.945433 7.47472 2.07568 5.77647C3.11993 4.19147 4.57243 2.87922 6.25318 1.99747C7.81968 1.17197 9.58443 0.728468 11.3547 0.709218ZM11.1809 6.98972L11.1837 7.00422C11.1097 7.02372 11.0382 7.05447 10.9774 7.10122C10.9404 7.13122 10.9117 7.17297 10.8659 7.18972C10.8604 7.22447 10.8389 7.24247 10.8019 7.24297C10.8047 7.24922 10.8107 7.26197 10.8134 7.26822C10.7617 7.31197 10.7184 7.37047 10.7044 7.43772L10.6757 7.43347C10.6812 7.44747 10.6924 7.47572 10.6979 7.48997L10.6589 7.47722C10.6602 7.49822 10.6632 7.54022 10.6644 7.56122L10.6387 7.55347C10.6384 7.62897 10.6077 7.70047 10.6117 7.77622C10.6149 8.88947 10.6074 10.0027 10.6154 11.116C9.50193 11.108 8.38843 11.1155 7.27493 11.1122C7.19943 11.1082 7.12818 11.139 7.05293 11.1392L7.06068 11.165C7.03968 11.1637 6.99768 11.1607 6.97693 11.1595L6.98918 11.199C6.97518 11.193 6.94718 11.1815 6.93318 11.1757L6.93768 11.2057C6.90093 11.2102 6.86918 11.2272 6.84018 11.2495C6.80043 11.282 6.75893 11.3127 6.71693 11.3422C6.70968 11.3695 6.69318 11.386 6.66743 11.392C6.62393 11.4687 6.53993 11.5265 6.53168 11.6195L6.51193 11.6027C6.51043 11.688 6.45568 11.7612 6.45618 11.8472C6.42093 11.9755 6.44693 12.1055 6.46818 12.2337C6.48543 12.2875 6.51343 12.3395 6.51143 12.3977L6.53168 12.3802C6.54043 12.465 6.60668 12.5275 6.66118 12.5875C6.74418 12.6662 6.82093 12.767 6.93743 12.795L6.93268 12.8237C6.94693 12.8182 6.97518 12.8072 6.98918 12.8015L6.97693 12.8407C6.99793 12.8392 7.03968 12.8362 7.06068 12.8347L7.05293 12.8607C7.12768 12.8607 7.19843 12.8912 7.27343 12.8877C8.38743 12.8845 9.50143 12.892 10.6154 12.884C10.6074 13.9972 10.6149 15.1107 10.6117 16.2242C10.6077 16.2997 10.6384 16.371 10.6387 16.4465L10.6644 16.4387C10.6629 16.4597 10.6604 16.5017 10.6589 16.5227L10.6987 16.5102C10.6927 16.5242 10.6809 16.5522 10.6749 16.566L10.7049 16.5617C10.7097 16.598 10.7267 16.63 10.7487 16.659C10.7812 16.6992 10.8137 16.7397 10.8409 16.784C10.8689 16.788 10.8859 16.804 10.8924 16.8317C10.9682 16.8762 11.0264 16.9595 11.1189 16.968L11.1024 16.988C11.1869 16.9885 11.2597 17.0435 11.3449 17.043C11.4739 17.0782 11.6047 17.0527 11.7337 17.031C11.7872 17.0142 11.8387 16.987 11.8962 16.9877L11.8799 16.9675C11.9809 16.9642 12.0327 16.8567 12.1242 16.8312L12.0972 16.802L12.1537 16.821L12.1199 16.7865C12.1694 16.8077 12.1832 16.7612 12.1979 16.73C12.2139 16.7052 12.2312 16.6815 12.2499 16.659C12.2722 16.63 12.2889 16.598 12.2939 16.5615L12.3227 16.5672C12.3177 16.5535 12.3074 16.526 12.3024 16.5122L12.3354 16.5187C12.3479 16.42 12.3914 16.3262 12.3872 16.2255C12.3839 15.1117 12.3914 13.9977 12.3834 12.884C13.4969 12.892 14.6109 12.8845 15.7244 12.8877C15.7997 12.8912 15.8709 12.8607 15.9459 12.8605L15.9382 12.835C15.9592 12.8365 16.0014 12.839 16.0224 12.8402L16.0094 12.801C16.0234 12.8067 16.0517 12.8185 16.0657 12.8242L16.0612 12.7945C16.0977 12.7897 16.1297 12.7727 16.1587 12.7505C16.1822 12.7327 16.2057 12.7155 16.2294 12.6982C16.2572 12.6862 16.2904 12.677 16.2884 12.639C16.3242 12.6412 16.3347 12.6107 16.3447 12.5835C16.4169 12.5087 16.4712 12.4175 16.4954 12.316L16.5099 12.3177C16.5329 12.2037 16.5612 12.0887 16.5614 11.9722C16.5462 11.875 16.5339 11.7772 16.5094 11.6817L16.4954 11.684C16.4712 11.5825 16.4169 11.4915 16.3449 11.4165C16.3342 11.39 16.3254 11.3585 16.2897 11.3605C16.2899 11.323 16.2559 11.3137 16.2284 11.3022C16.1762 11.2647 16.1272 11.216 16.0614 11.2047L16.0657 11.1755C16.0517 11.1815 16.0237 11.1932 16.0097 11.1992L16.0222 11.1595C16.0012 11.161 15.9592 11.1637 15.9382 11.165L15.9462 11.1395C15.8707 11.139 15.7992 11.1082 15.7239 11.1122C14.6104 11.1155 13.4969 11.1082 12.3834 11.116C12.3914 10.0022 12.3839 8.88847 12.3872 7.77497C12.3909 7.69947 12.3599 7.62847 12.3604 7.55322L12.3344 7.56147C12.3359 7.54022 12.3384 7.49822 12.3397 7.47722L12.2999 7.48972C12.3059 7.47572 12.3182 7.44797 12.3242 7.43397L12.2947 7.43797C12.2822 7.37247 12.2357 7.32247 12.1974 7.27047C12.1829 7.24697 12.1779 7.20247 12.1382 7.21247C12.1402 7.17597 12.1117 7.16372 12.0829 7.15472C12.0079 7.08272 11.9172 7.02772 11.8154 7.00422L11.8177 6.98972C11.7542 6.97347 11.6897 6.96197 11.6247 6.95322C11.4769 6.91597 11.3264 6.96097 11.1809 6.98972Z" fill="#556290" />
</svg>