<svg width="26" height="26" viewBox="0 0 26 26" fill="none" xmlns="http://www.w3.org/2000/svg">
  <path d="M2.20775 0.5H23.7908C24.2405 0.53575 24.6778 0.732 24.9923 1.0575C25.2835 1.35175 25.4655 1.74925 25.5 2.16175V23.8398C25.4638 24.269 25.2675 24.6815 24.9557 24.9792C24.6442 25.2835 24.2227 25.4655 23.79 25.5H2.1885C1.816 25.4638 1.4505 25.3268 1.16125 25.0863C0.78225 24.784 0.5395 24.3215 0.5 23.8388V2.16025C0.53975 1.68275 0.77725 1.22525 1.15 0.923C1.44625 0.6745 1.823 0.5295 2.20775 0.5ZM5.7405 3.96925C5.204 4.04875 4.70225 4.34 4.37025 4.76925C4.05625 5.1655 3.893 5.67675 3.915 6.1815C3.93775 6.7065 4.157 7.22375 4.53025 7.5955C4.8765 7.95575 5.35625 8.18375 5.8535 8.22925C6.3665 8.281 6.89575 8.137 7.3125 7.8335C7.7585 7.514 8.07475 7.01775 8.17075 6.47725C8.24875 6.06475 8.19725 5.63025 8.031 5.245C7.8515 4.826 7.534 4.46775 7.13975 4.23875C6.72225 3.99275 6.2195 3.89575 5.7405 3.96925ZM15.6925 9.89425C14.923 10.2075 14.247 10.7713 13.8453 11.5033C13.8325 11.5043 13.807 11.506 13.7943 11.507C13.7943 10.9633 13.7938 10.4192 13.7945 9.8755C12.611 9.87425 11.4275 9.87525 10.244 9.87525C10.2438 13.85 10.2438 17.825 10.244 21.8C11.4758 21.7988 12.7075 21.8027 13.9393 21.7977C13.9363 20.24 13.9388 18.6822 13.938 17.1245C13.9408 16.592 13.9308 16.0595 13.9455 15.5273C13.9668 15.023 14.02 14.51 14.2087 14.0375C14.351 13.6728 14.5968 13.3403 14.935 13.136C15.3473 12.8813 15.8478 12.8205 16.3238 12.8405C16.714 12.859 17.1145 12.9753 17.4085 13.2425C17.7355 13.5335 17.902 13.9593 17.9885 14.3788C18.0957 14.9118 18.1003 15.458 18.1 15.9995C18.1 17.933 18.1 19.8665 18.1 21.8C19.3318 21.7993 20.5632 21.8015 21.795 21.799C21.793 19.9828 21.7948 18.1665 21.794 16.3503C21.7878 15.475 21.822 14.5973 21.7283 13.7253C21.6433 12.8963 21.469 12.0555 21.0495 11.3258C20.8322 10.951 20.5453 10.6148 20.1973 10.3555C19.7518 10.0175 19.2185 9.81225 18.674 9.70025C18.1655 9.59825 17.6437 9.5625 17.126 9.58225C16.6352 9.60525 16.1473 9.70725 15.6925 9.89425ZM4.20575 9.8755C4.20575 13.85 4.20675 17.8245 4.205 21.799C5.4415 21.7998 6.678 21.8025 7.9145 21.7975C7.912 17.8243 7.91175 13.851 7.9145 9.87775C6.67825 9.87175 5.442 9.87625 4.20575 9.8755Z" fill="#9294A5" />
</svg>