<svg width="16" height="16" viewBox="0 0 16 16" fill="none" xmlns="http://www.w3.org/2000/svg">
  <path d="M7.59429 0.100117C7.90972 -0.0720482 8.33389 -0.0191498 8.59005 0.235547C10.9857 2.63239 13.3825 5.02751 15.7779 7.42435C15.9618 7.62076 16.0375 7.9095 15.9824 8.17203C15.9312 8.44583 15.7323 8.68461 15.4762 8.7909C15.2188 8.90012 14.9077 8.87465 14.6746 8.71963C14.571 8.65522 14.4929 8.5602 14.4059 8.47644C12.5565 6.62671 10.7065 4.77747 8.85748 2.92749C8.8565 7.00239 8.85699 11.0773 8.85724 15.1522C8.85748 15.4172 8.72401 15.675 8.51168 15.8325C8.22956 16.0478 7.81225 16.0568 7.52033 15.8553C7.28939 15.7008 7.14171 15.4299 7.14245 15.1515C7.14269 11.077 7.14294 7.00239 7.14245 2.92798C5.26063 4.80955 3.37882 6.69088 1.49774 8.57294C1.37333 8.70861 1.20753 8.80706 1.02606 8.8411C0.729974 8.90331 0.40597 8.79384 0.20907 8.56387C-0.0737895 8.25236 -0.0698712 7.72754 0.222295 7.42337C2.54909 5.09657 4.87589 2.76978 7.20269 0.442977C7.3293 0.32469 7.43682 0.180444 7.59429 0.100117Z" fill="#556290" />
</svg>