<svg width="18" height="18" viewBox="0 0 18 18" fill="none" xmlns="http://www.w3.org/2000/svg">
  <path d="M5.80078 1.7998H3.40078C2.97643 1.7998 2.56947 1.96838 2.26941 2.26843C1.96935 2.56849 1.80078 2.97546 1.80078 3.3998V5.7998M16.2008 5.7998V3.3998C16.2008 2.97546 16.0322 2.56849 15.7322 2.26843C15.4321 1.96838 15.0251 1.7998 14.6008 1.7998H12.2008M12.2008 16.1998H14.6008C15.0251 16.1998 15.4321 16.0312 15.7322 15.7312C16.0322 15.4311 16.2008 15.0242 16.2008 14.5998V12.1998M1.80078 12.1998V14.5998C1.80078 15.0242 1.96935 15.4311 2.26941 15.7312C2.56947 16.0312 2.97643 16.1998 3.40078 16.1998H5.80078" stroke="#556290" stroke-width="2" stroke-linecap="round" stroke-linejoin="round" />
</svg>