<svg width="19" height="19" viewBox="0 0 19 19" fill="none" xmlns="http://www.w3.org/2000/svg">
<g clipPath="url(#clip0_570_4800)">
<path d="M2.375 7.91667C2.375 8.64441 2.51834 9.36502 2.79683 10.0374C3.07533 10.7097 3.48353 11.3206 3.99812 11.8352C4.51271 12.3498 5.12362 12.758 5.79596 13.0365C6.46831 13.315 7.18892 13.4583 7.91667 13.4583C8.64441 13.4583 9.36502 13.315 10.0374 13.0365C10.7097 12.758 11.3206 12.3498 11.8352 11.8352C12.3498 11.3206 12.758 10.7097 13.0365 10.0374C13.315 9.36502 13.4583 8.64441 13.4583 7.91667C13.4583 7.18892 13.315 6.46831 13.0365 5.79596C12.758 5.12362 12.3498 4.51271 11.8352 3.99812C11.3206 3.48353 10.7097 3.07533 10.0374 2.79683C9.36502 2.51834 8.64441 2.375 7.91667 2.375C7.18892 2.375 6.46831 2.51834 5.79596 2.79683C5.12362 3.07533 4.51271 3.48353 3.99812 3.99812C3.48353 4.51271 3.07533 5.12362 2.79683 5.79596C2.51834 6.46831 2.375 7.18892 2.375 7.91667Z" stroke="#28252E" strokeWidth="1.5" strokeLinecap="round" strokeLinejoin="round"/>
<path d="M16.625 16.625L11.875 11.875" stroke="#28252E" strokeWidth="1.5" strokeLinecap="round" strokeLinejoin="round"/>
</g>
<defs>
<clipPath id="clip0_570_4800">
<rect width="19" height="19" fill="white"/>
</clipPath>
</defs>
</svg>
