<svg width="20" height="19" viewBox="0 0 20 19" fill="none" xmlns="http://www.w3.org/2000/svg">
  <path d="M9.37305 1.3538C9.51825 1.0482 9.90245 0.888597 10.2213 1.0028C10.3963 1.0598 10.5451 1.1898 10.6269 1.3544C11.4315 2.9842 12.2357 4.6144 13.0407 6.2442C14.8399 6.5076 16.6393 6.7696 18.4383 7.0336C18.7603 7.0748 19.0235 7.3682 19.0327 7.6924C19.0391 7.841 18.9981 7.9914 18.9155 8.1154C18.8665 8.1916 18.7957 8.2492 18.7339 8.3142C17.4613 9.5514 16.1921 10.792 14.9187 12.028C15.2259 13.8188 15.5333 15.6096 15.8399 17.4006C15.9039 17.732 15.6891 18.0862 15.3663 18.1836C15.1927 18.238 14.9973 18.2264 14.8347 18.1432C13.2229 17.296 11.6111 16.4486 9.99965 15.6002C8.42285 16.4306 6.84525 17.2592 5.26825 18.089C5.21205 18.1184 5.15685 18.15 5.09725 18.1726C4.86685 18.2594 4.59065 18.2166 4.40205 18.0566C4.21145 17.9014 4.11605 17.6414 4.15905 17.3998C4.46605 15.6088 4.77385 13.8178 5.08025 12.0268C3.81605 10.8022 2.55865 9.5704 1.29605 8.3442C1.22485 8.2684 1.14125 8.2032 1.08365 8.1156C0.976052 7.9552 0.939252 7.7492 0.985252 7.5616C1.04645 7.29 1.28605 7.07 1.56205 7.0332C3.36045 6.7702 5.15885 6.5068 6.95745 6.2448C7.76445 4.6154 8.56705 2.9838 9.37305 1.3538Z" fill="#E8C331" />
</svg>