<svg width="26" height="26" viewBox="0 0 26 26" fill="none" xmlns="http://www.w3.org/2000/svg">
  <path fill-rule="evenodd" clip-rule="evenodd" d="M21.7688 4.13021C19.4425 1.7904 16.3485 0.501187 13.052 0.5C6.25913 0.5 0.730769 6.05276 0.728406 12.8781C0.727224 15.06 1.29507 17.1897 2.37344 19.0666L0.625 25.4818L7.15787 23.7604C8.95771 24.747 10.9845 25.2663 13.0467 25.2669H13.052C19.8437 25.2669 25.3727 19.7135 25.375 12.8882C25.3762 9.58032 24.0957 6.47063 21.7688 4.13081V4.13021ZM13.052 23.1764H13.0479C11.2102 23.1758 9.4074 22.6796 7.83447 21.7423L7.46041 21.5192L3.58359 22.5407L4.61823 18.7436L4.37478 18.3543C3.34959 16.7161 2.80774 14.8226 2.80893 12.8787C2.81129 7.20605 7.40605 2.59052 13.0562 2.59052C15.7919 2.59171 18.3635 3.66309 20.2975 5.60818C22.2315 7.55269 23.2957 10.1383 23.2945 12.887C23.2921 18.5603 18.6974 23.1758 13.052 23.1758V23.1764ZM18.6702 15.4708C18.3623 15.3159 16.8485 14.568 16.566 14.4647C16.2836 14.3614 16.0786 14.3098 15.8735 14.6196C15.6685 14.9295 15.0782 15.6263 14.8985 15.8323C14.7189 16.0388 14.5392 16.0644 14.2314 15.9094C13.9236 15.7545 12.9315 15.428 11.755 14.3744C10.8397 13.5541 10.2216 12.5416 10.042 12.2317C9.86239 11.9219 10.0231 11.7545 10.1767 11.6008C10.315 11.4619 10.4846 11.2393 10.6388 11.0588C10.7931 10.8784 10.8439 10.749 10.9466 10.543C11.0495 10.3365 10.9981 10.1561 10.9213 10.0011C10.8444 9.8462 10.2288 8.32369 9.9717 7.70463C9.72172 7.10158 9.46769 7.18349 9.27918 7.1734C9.09954 7.1645 8.89453 7.16272 8.68889 7.16272C8.48326 7.16272 8.14996 7.23988 7.86754 7.54972C7.58511 7.85953 6.78975 8.60801 6.78975 10.1299C6.78975 11.6518 7.89298 13.1233 8.04718 13.3298C8.20139 13.5364 10.2186 16.6603 13.3072 18.0006C14.0418 18.3193 14.6155 18.5098 15.0628 18.6523C15.8003 18.8879 16.4715 18.8547 17.0021 18.7751C17.5936 18.6861 18.8238 18.0267 19.0803 17.3043C19.3367 16.5819 19.3367 15.9622 19.2599 15.8334C19.1831 15.7046 18.9775 15.6269 18.6696 15.472L18.6702 15.4708Z" fill="#FFFFFF" />
</svg>