<svg width="20" height="20" viewBox="0 0 20 20" fill="none" xmlns="http://www.w3.org/2000/svg">
<g clip-path="url(#clip0_6805_131484)">
<path d="M3.09031 2.27042L3.09032 2.27043L3.0944 2.26888C3.10564 2.26461 3.12465 2.26601 3.13282 2.26995L3.13282 2.26996L3.13619 2.27157C5.63582 3.46069 8.13552 4.65012 10.6352 5.83956C13.5208 7.21259 16.4063 8.58562 19.2918 9.9582L19.2994 9.96178L19.307 9.96518C19.3122 9.96751 19.319 9.97212 19.3247 9.97847C19.3277 9.98183 19.3292 9.98432 19.3298 9.98545C19.33 9.98569 19.3301 9.98587 19.3301 9.98598L19.3326 9.99422L19.3335 9.99712C19.3331 10.0003 19.3319 10.0055 19.3292 10.0118C19.3258 10.0193 19.3219 10.0246 19.3194 10.0272L19.311 10.0312C16.6441 11.3006 13.9769 12.5695 11.3097 13.8385C8.6451 15.1062 5.98039 16.374 3.31587 17.6422C3.28028 17.6582 3.24778 17.674 3.22323 17.686L3.20873 17.6931C3.18708 17.7038 3.17241 17.7109 3.15722 17.718C3.13918 17.7264 3.12968 17.7301 3.12638 17.7313L3.12253 17.7322C3.11972 17.7329 3.11037 17.7339 3.09784 17.7308C3.08807 17.7283 3.08293 17.725 3.08181 17.7243L3.08186 17.7242L3.07369 17.7172C3.07359 17.717 3.07349 17.7168 3.07337 17.7166C3.07196 17.7142 3.06995 17.7099 3.06855 17.704C3.06714 17.698 3.06691 17.6929 3.06713 17.6896C3.06716 17.6891 3.06721 17.6887 3.06725 17.6883L3.07067 17.6795C4.03609 15.2002 5.00134 12.7207 5.96579 10.2408L6.05978 9.99913L5.96576 9.75746C5.46185 8.46218 4.95748 7.16639 4.45315 5.87069C3.99124 4.68397 3.52935 3.49733 3.06787 2.31122C3.0667 2.30593 3.06683 2.29782 3.06845 2.2932L3.06849 2.29321L3.07034 2.28776C3.07043 2.28761 3.07055 2.28741 3.0707 2.28717C3.07164 2.28566 3.07339 2.28326 3.07611 2.28049C3.07883 2.27773 3.08182 2.27531 3.0847 2.27342C3.08757 2.27155 3.08959 2.27068 3.09031 2.27042ZM2.85773 1.64564C3.03869 1.57692 3.24812 1.58536 3.42258 1.66955L2.85773 1.64564ZM4.71046 3.10597L3.19538 2.3843L3.80222 3.94892C4.52516 5.81285 5.25111 7.6755 5.97684 9.53755L5.97724 9.53859L6.14278 9.96334L6.59865 9.96316C8.25357 9.96254 9.90654 9.96267 11.5596 9.9628C13.0947 9.96292 14.6298 9.96304 16.1667 9.96256L16.453 8.6939C15.3469 8.16762 14.2408 7.64144 13.1348 7.11527C10.3263 5.77925 7.51808 4.4433 4.71046 3.10597ZM6.59709 10.0364L6.14105 10.0364L5.97581 10.4615C5.64391 11.3153 5.31119 12.1699 4.9784 13.0248C4.58573 14.0334 4.19296 15.0423 3.80135 16.0503L3.19311 17.6158L4.70942 16.8936C7.937 15.3564 11.1654 13.8207 14.3939 12.2849C15.0802 11.9585 15.7666 11.632 16.4529 11.3055L16.1668 10.0368C13.2669 10.0355 10.367 10.0359 7.46748 10.0363C7.17735 10.0363 6.88722 10.0363 6.59709 10.0364Z" fill="white" stroke="white" stroke-width="1.33333"/>
</g>
<defs>
<clipPath id="clip0_6805_131484">
<rect width="20" height="20" fill="white"/>
</clipPath>
</defs>
</svg>
