<svg width="20" height="20" viewBox="0 0 20 20" fill="none" xmlns="http://www.w3.org/2000/svg">
<g clip-path="url(#clip0_6805_131494)">
<path d="M4.44438 6.22024C3.99237 5.16957 3.54039 4.11897 3.08883 3.0689C3.11231 3.06486 3.14002 3.06774 3.15581 3.07463L3.15581 3.07464L3.15901 3.07602C3.16366 3.07802 3.1683 3.08002 3.17295 3.08202L3.81104 4.57052C4.53395 6.25687 5.25987 7.94205 5.98552 9.6266L5.98612 9.62799L6.14579 9.99864L5.98466 10.3737C5.65276 11.1461 5.31996 11.9196 4.98709 12.6932C4.59445 13.6057 4.2017 14.5185 3.81019 15.4302L3.17041 16.92C3.15362 16.9269 3.14546 16.9295 3.14312 16.9302L3.13639 16.9317C3.12496 16.9341 3.10759 16.9348 3.0886 16.9313C4.04509 14.7088 5.00141 12.4862 5.95694 10.2633L6.07012 9.99995L5.95691 9.73665C5.45305 8.56485 4.9487 7.3925 4.44438 6.22024ZM16.1729 10.0003L16.423 8.78597C17.3632 9.19071 18.3035 9.59541 19.2437 10.0001C18.3035 10.405 17.3632 10.8098 16.4229 11.2147L16.1729 10.0003ZM2.85773 2.44204C3.03869 2.37986 3.24812 2.3875 3.42258 2.46367L2.43947 2.828C2.50535 2.65238 2.66395 2.5073 2.85773 2.44204Z" fill="white" stroke="white" stroke-width="1.33333"/>
</g>
<defs>
<clipPath id="clip0_6805_131494">
<rect width="20" height="20" fill="white"/>
</clipPath>
</defs>
</svg>
