<svg width="17" height="25" viewBox="0 0 17 25" fill="none" xmlns="http://www.w3.org/2000/svg">
  <path d="M3.57453 1.85448C4.87228 0.808978 6.51053 0.196229 8.17578 0.131979C9.38703 0.0804786 10.6098 0.314729 11.7158 0.811229C11.9463 0.912979 12.1228 1.12273 12.1913 1.36448C12.2928 1.70248 12.164 2.09573 11.8785 2.30448C11.63 2.49523 11.2773 2.53648 10.992 2.40623C10.004 1.96448 8.89728 1.79073 7.82153 1.91323C6.90178 2.01548 6.00628 2.32998 5.22503 2.82623C4.42028 3.33423 3.73778 4.03373 3.24878 4.84998C2.74078 5.69473 2.44153 6.66398 2.38553 7.64798C2.31053 8.90298 2.63728 10.178 3.30578 11.2427C3.80853 12.051 4.50453 12.7382 5.31828 13.2322C6.20628 13.7745 7.23478 14.0835 8.27453 14.121C9.37878 14.1635 10.493 13.8972 11.4593 13.3615C12.2783 12.9107 12.9905 12.2687 13.5245 11.5015C14.0828 10.7022 14.4453 9.76773 14.5723 8.80098C14.6418 8.32073 14.6233 7.83473 14.625 7.35123C14.6243 7.05548 14.7875 6.76798 15.0398 6.61448C15.3298 6.43248 15.728 6.44398 16.006 6.64448C16.2328 6.80273 16.3753 7.07298 16.3755 7.34998C16.3735 7.83248 16.3883 8.31673 16.3353 8.79748C16.227 9.87223 15.8933 10.9237 15.3633 11.8647C14.8578 12.7635 14.174 13.5607 13.3625 14.197C13.7668 17.2307 14.1675 20.2652 14.571 23.2992C14.5985 23.483 14.58 23.6775 14.4945 23.8445C14.378 24.0865 14.1433 24.268 13.879 24.317C13.6753 24.3552 13.457 24.3245 13.2768 24.2207C11.6845 23.2657 10.093 22.3095 8.50028 21.3555C6.94478 22.2895 5.38853 23.2222 3.83303 24.1562C3.61853 24.3067 3.34378 24.373 3.08678 24.3095C2.78603 24.2407 2.53328 23.9987 2.45128 23.7012C2.40453 23.5477 2.41403 23.385 2.43953 23.2287C2.84003 20.2185 3.23928 17.2082 3.63928 14.198C2.93278 13.6435 2.32178 12.9677 1.84253 12.2082C1.17328 11.1522 0.763031 9.93423 0.655281 8.68873C0.565781 7.67598 0.675281 6.64598 0.975781 5.67473C1.43428 4.17973 2.35203 2.82973 3.57453 1.85448ZM5.15603 16.075C4.90453 17.9745 4.65028 19.8735 4.40053 21.773C5.61753 21.04 6.83703 20.3107 8.05503 19.579C8.27978 19.4445 8.56578 19.421 8.81053 19.5137C8.90878 19.5495 8.99503 19.61 9.08478 19.6627C10.2568 20.366 11.429 21.0692 12.601 21.7725C12.3135 19.5775 12.0165 17.3835 11.7305 15.188C11.6955 15.199 11.6623 15.2137 11.6288 15.228C10.622 15.6652 9.52253 15.8857 8.42503 15.8755C7.34428 15.864 6.26353 15.6327 5.27903 15.1847C5.22853 15.4797 5.19878 15.7785 5.15603 16.075Z" fill="#35952D" />
  <path d="M15.0489 1.74857C15.3347 1.57332 15.7217 1.58557 15.9962 1.77832C16.3262 1.99657 16.4639 2.45132 16.3162 2.81757C16.2309 3.05357 16.0232 3.20682 15.8569 3.38282C13.6507 5.61832 11.4402 7.84932 9.23219 10.0833C9.11619 10.2088 8.96694 10.3053 8.80019 10.3468C8.50569 10.4266 8.16944 10.3398 7.95744 10.1186C7.25394 9.41307 6.55469 8.70382 5.85419 7.99532C5.53844 7.66907 5.55044 7.09457 5.88094 6.78257C6.18869 6.45807 6.75194 6.44182 7.07894 6.74632C7.58094 7.24507 8.07569 7.75107 8.57419 8.25332C10.5762 6.23682 12.5699 4.21232 14.5704 2.19457C14.7297 2.04632 14.8604 1.86332 15.0489 1.74857Z" fill="#35952D" />
</svg>