<svg width="40" height="40" viewBox="0 0 40 40" fill="none" xmlns="http://www.w3.org/2000/svg">
  <path d="M2.5409 4.04799C2.69867 3.99842 2.86578 3.99805 3.02952 4.00101C5.08102 4.00175 7.13251 4.00101 9.18438 4.00138C9.75843 4.01359 10.2844 4.45679 10.3963 5.0143C10.8457 7.24434 11.3 9.47401 11.7465 11.7048C20.205 11.707 28.6635 11.7044 37.122 11.7059C37.4793 11.7092 37.83 11.8705 38.0687 12.1336C38.3413 12.4303 38.4547 12.8568 38.3779 13.2497C37.58 17.3983 36.7826 21.5469 35.9847 25.6951C35.918 26.0299 35.8676 26.3699 35.7568 26.6939C35.4353 27.6787 34.7475 28.5403 33.8534 29.0749C33.2424 29.4437 32.539 29.6616 31.8247 29.7023C31.439 29.7234 31.0526 29.7079 30.6669 29.7127C25.8806 29.7123 21.0946 29.7131 16.3087 29.7123C15.0352 29.7079 13.7767 29.1297 12.9614 28.1578C12.485 27.5999 12.1546 26.9211 12.0084 26.2049C10.6894 19.6664 9.37051 13.1276 8.0486 6.58953C6.33765 6.59249 4.62708 6.59064 2.91651 6.59064C2.52187 6.59323 2.12948 6.4127 1.88404 6.10527C1.56923 5.72311 1.51179 5.16006 1.73149 4.71945C1.89113 4.39686 2.19102 4.14492 2.5409 4.04799ZM12.2695 14.2955C13.0147 17.9946 13.7633 21.6934 14.5093 25.3925C14.5507 25.5937 14.5813 25.799 14.66 25.9903C14.8704 26.526 15.3575 26.944 15.9226 27.0724C16.1953 27.1393 16.4776 27.1208 16.7555 27.1231C21.6179 27.1231 26.4803 27.1227 31.3428 27.1231C31.6001 27.1282 31.8623 27.1164 32.1085 27.0346C32.5934 26.8822 33.0048 26.5175 33.2078 26.0543C33.3122 25.8364 33.3424 25.5948 33.3894 25.361C34.0981 21.6723 34.8083 17.9839 35.5166 14.2955C27.7676 14.2948 20.0185 14.2952 12.2695 14.2955Z" fill="#B4B8BB" />
  <path d="M15.0232 30.3437C15.5707 30.283 16.1373 30.3807 16.6285 30.6293C17.1709 30.899 17.623 31.3455 17.8938 31.8845C18.1873 32.4561 18.2738 33.129 18.1373 33.7557C18.0124 34.3487 17.6875 34.8981 17.2272 35.2965C16.7856 35.6816 16.2212 35.9284 15.6352 35.9842C14.9765 36.0553 14.2939 35.8881 13.7453 35.5196C13.2768 35.2066 12.9023 34.7553 12.6908 34.2359C12.395 33.5204 12.4118 32.6851 12.7374 31.9825C13.1417 31.0902 14.0403 30.4402 15.0232 30.3437Z" fill="#B4B8BB" />
  <path d="M32.1077 30.3441C33.029 30.2317 33.9932 30.6016 34.596 31.3023C35.1324 31.9064 35.3823 32.7458 35.2697 33.5423C35.1794 34.2352 34.8172 34.8886 34.276 35.3355C33.6975 35.8212 32.9179 36.062 32.1637 35.9862C31.4169 35.9218 30.7064 35.546 30.2312 34.9722C29.8089 34.4705 29.5691 33.8179 29.5784 33.1635C29.5687 32.5361 29.7892 31.9097 30.1793 31.4166C30.643 30.8221 31.3535 30.4248 32.1077 30.3441Z" fill="#B4B8BB" />
</svg>