<svg width="20" height="16" viewBox="0 0 20 16" fill="none" xmlns="http://www.w3.org/2000/svg">
  <path d="M1.27045 0.0239975C1.34934 -0.000788962 1.43289 -0.000973874 1.51476 0.000505914C2.54051 0.000875861 3.56626 0.000505883 4.59219 0.000690856C4.87921 0.00679498 5.14218 0.228393 5.19813 0.507148C5.42286 1.62217 5.65002 2.737 5.87326 3.85239C10.1025 3.8535 14.3318 3.85221 18.561 3.85295C18.7397 3.85461 18.915 3.93526 19.0343 4.06678C19.1707 4.21513 19.2274 4.4284 19.1889 4.62484C18.79 6.69913 18.3913 8.77343 17.9924 10.8475C17.959 11.0149 17.9338 11.1849 17.8784 11.347C17.7177 11.8394 17.3737 12.2702 16.9267 12.5375C16.6212 12.7219 16.2695 12.8308 15.9123 12.8512C15.7195 12.8617 15.5263 12.8539 15.3334 12.8563C12.9403 12.8562 10.5473 12.8565 8.15433 12.8562C7.51762 12.8539 6.88837 12.5648 6.48068 12.0789C6.24252 11.8 6.07729 11.4605 6.00418 11.1024C5.34472 7.83321 4.68525 4.5638 4.0243 1.29477C3.16883 1.29624 2.31354 1.29532 1.45825 1.29532C1.26094 1.29661 1.06474 1.20635 0.942022 1.05263C0.784617 0.861557 0.755896 0.580028 0.865744 0.359724C0.945566 0.198428 1.09551 0.0724605 1.27045 0.0239975ZM6.13473 5.14776C6.50735 6.99731 6.88166 8.84668 7.25466 10.6962C7.27536 10.7969 7.29065 10.8995 7.33 10.9951C7.43519 11.263 7.67876 11.472 7.9613 11.5362C8.09763 11.5697 8.23881 11.5604 8.37776 11.5615C10.809 11.5615 13.2402 11.5613 15.6714 11.5615C15.8001 11.5641 15.9312 11.5582 16.0543 11.5173C16.2967 11.4411 16.5024 11.2587 16.6039 11.0271C16.6561 10.9182 16.6712 10.7974 16.6947 10.6805C17.0491 8.83613 17.4041 6.99195 17.7583 5.14776C13.8838 5.14739 10.0093 5.14758 6.13473 5.14776Z" fill="#FFFFFF" />
  <path d="M7.51158 13.1709C7.78536 13.1405 8.06865 13.1894 8.31427 13.3137C8.58544 13.4485 8.81148 13.6718 8.94688 13.9413C9.09365 14.2271 9.13692 14.5635 9.06866 14.8769C9.00619 15.1734 8.84374 15.4481 8.6136 15.6473C8.39279 15.8398 8.11061 15.9632 7.81762 15.9911C7.48827 16.0267 7.14697 15.9431 6.87263 15.7588C6.63839 15.6023 6.45114 15.3767 6.3454 15.117C6.1975 14.7592 6.2059 14.3416 6.36871 13.9903C6.57087 13.5441 7.02015 13.2191 7.51158 13.1709Z" fill="#FFFFFF" />
  <path d="M16.0539 13.1721C16.5145 13.1158 16.9966 13.3008 17.298 13.6511C17.5662 13.9532 17.6911 14.3729 17.6348 14.7712C17.5897 15.1176 17.4086 15.4443 17.138 15.6677C16.8487 15.9106 16.4589 16.031 16.0818 15.9931C15.7085 15.9609 15.3532 15.773 15.1156 15.4861C14.9045 15.2353 14.7846 14.909 14.7892 14.5817C14.7844 14.268 14.8946 13.9549 15.0897 13.7083C15.3215 13.4111 15.6768 13.2124 16.0539 13.1721Z" fill="#FFFFFF" />
</svg>