<svg width="200" height="200" viewBox="0 0 200 200" fill="none" xmlns="http://www.w3.org/2000/svg">
<path d="M23.9301 25.9301C27.9761 21.3381 33.8781 18.4361 39.9841 18.0241C40.9181 17.9801 41.8541 17.9321 42.7921 17.9501C80.9981 17.9501 119.206 17.9501 157.412 17.9481C161.376 17.8741 165.384 18.6581 168.93 20.4621C175.076 23.4781 179.75 29.3141 181.344 35.9741C181.872 38.0721 182.064 40.2401 182.052 42.3981C182.044 70.1041 182.06 97.8101 182.044 125.516C178.168 121.178 173.388 117.61 168.028 115.326C167.962 107.484 168.018 99.6381 168 91.7961C168 75.1261 167.998 58.4561 168.002 41.7881C167.962 39.4801 167.184 37.1561 165.652 35.4081C163.778 33.2001 160.884 31.9521 157.996 32.0021C119.662 31.9961 81.3281 32.0041 42.9941 31.9981C41.6061 31.9881 40.1881 32.0161 38.8541 32.4541C36.2961 33.2561 34.0701 35.1301 32.9561 37.5821C32.1441 39.2521 31.9201 41.1521 32.0501 42.9881C32.0521 81.3161 32.0501 119.642 32.0501 157.97C39.1441 150.89 46.2261 143.798 53.3121 136.712C54.5961 135.434 56.3681 134.668 58.1821 134.636C64.9861 134.53 71.7961 134.678 78.6041 134.65C84.6721 134.65 90.7381 134.65 96.8041 134.65C103.176 134.58 109.548 134.598 115.922 134.604C113.792 139.008 112.542 143.804 112.074 148.666C95.3821 148.626 78.6921 148.668 62.0021 148.646C61.7281 148.676 61.3801 148.558 61.1741 148.798C50.9781 158.998 40.7781 169.192 30.5821 179.392C30.0581 179.93 29.5201 180.462 28.8861 180.874C26.7241 182.332 23.7281 182.414 21.4821 181.098C19.4501 179.958 18.0681 177.72 18.0001 175.39C17.9981 130.528 18.0041 85.6661 17.9961 40.8041C18.1641 35.3581 20.3041 29.9961 23.9301 25.9301Z" fill="#B4B8BB"/>
<path d="M63.0233 61.092C63.8769 60.9948 64.7364 61.0008 65.5939 61.0067C88.4477 61.0067 111.303 61.0067 134.157 61.0067C135.958 60.9908 137.885 60.9591 139.47 61.9433C142.373 63.5368 143.73 67.3091 142.563 70.3809C141.747 72.7145 139.584 74.5124 137.122 74.8815C135.742 75.072 134.347 74.9728 132.96 74.9966C128.756 74.9728 124.552 75.0502 120.353 74.945C111.03 74.9728 101.705 74.8934 92.3836 74.9966C86.2508 74.9986 80.1181 74.9926 73.9854 74.9986C70.7272 74.8993 67.4609 74.947 64.2027 74.9867C62.0998 75.0263 59.9789 74.1532 58.6377 72.526C56.7767 70.3889 56.4488 67.1067 57.8281 64.6421C58.8915 62.7569 60.8405 61.3361 63.0233 61.092Z" fill="#B4B8BB"/>
<path d="M63.0761 93.0898C63.6613 93.0203 64.2526 92.9984 64.8418 93.0024C76.4891 93.0123 88.1364 92.9905 99.7857 93.0123C101.791 92.9766 103.817 93.7672 105.153 95.2751C107.198 97.4286 107.586 100.907 106.092 103.464C104.981 105.419 102.882 106.813 100.613 106.952C99.8097 107.038 99.0007 106.994 98.1957 106.96C87.2755 106.96 76.3553 106.96 65.4351 106.96C64.2286 106.938 62.9822 107.081 61.8256 106.65C58.8214 105.693 56.7101 102.56 57.0277 99.4251C57.2634 96.2724 59.8841 93.4216 63.0761 93.0898Z" fill="#B4B8BB"/>
<path d="M149.615 130.83C153.041 130.44 156.657 130.826 159.719 132.498C162.381 133.932 164.493 136.264 165.849 138.948C167.559 142.232 168.247 145.948 168.423 149.618C168.599 154.51 168.199 159.588 166.065 164.068C164.833 166.746 162.897 169.14 160.381 170.704C158.461 171.914 156.241 172.596 153.991 172.822C150.797 173.112 147.455 172.746 144.581 171.244C142.029 169.97 139.983 167.836 138.571 165.378C136.687 162.11 135.867 158.34 135.611 154.608C135.417 151.412 135.499 148.182 136.097 145.03C136.737 141.604 138.069 138.232 140.383 135.586C142.705 132.896 146.097 131.222 149.615 130.83ZM150.709 137.934C149.441 138.188 148.307 138.926 147.457 139.884C145.545 142.07 144.851 145.01 144.541 147.826C144.209 151.246 144.247 154.73 144.925 158.106C145.405 160.3 146.241 162.538 147.897 164.122C149.485 165.654 151.949 166.136 154.015 165.388C155.571 164.85 156.755 163.578 157.569 162.186C159.021 159.65 159.409 156.678 159.579 153.808C159.659 150.506 159.643 147.132 158.657 143.948C158.085 142.122 157.213 140.282 155.677 139.072C154.305 137.966 152.425 137.552 150.709 137.934Z" fill="#B4B8BB"/>
</svg>
