<svg width="20" height="20" viewBox="0 0 20 20" fill="none" xmlns="http://www.w3.org/2000/svg">
  <g clip-path="url(#clip0_5347_45407)">
    <path d="M1.7106 1.35272C2.0698 1.06912 2.523 0.908119 2.9804 0.899719C6.254 0.899719 9.5276 0.899719 12.801 0.899719C12.921 0.900719 13.0414 0.895519 13.1612 0.907319C13.5882 0.943119 14.003 1.11252 14.3328 1.38632C14.7488 1.72832 15.0246 2.23472 15.086 2.76992C15.1068 2.92592 15.0996 3.08372 15.1008 3.24072C15.1008 3.79372 15.1008 4.34672 15.1008 4.89972C15.7274 4.89972 16.3538 4.89992 16.9804 4.89952C17.3734 4.89912 17.7658 5.01112 18.0998 5.21872C18.6162 5.53592 18.9812 6.08512 19.0742 6.68412C19.095 6.81472 19.1036 6.94712 19.101 7.07932C19.1008 10.8191 19.1008 14.5589 19.1008 18.2985C19.1102 18.4621 19.086 18.6325 18.9946 18.7719C18.84 19.0289 18.5082 19.1577 18.2198 19.0767C18.0676 19.0387 17.9394 18.9409 17.8352 18.8267C16.9778 17.9693 16.1206 17.1113 15.2626 16.2545C12.5022 16.2549 9.7416 16.2545 6.981 16.2547C6.3006 16.2477 5.638 15.8855 5.2618 15.3189C5.0324 14.9785 4.9052 14.5705 4.9006 14.1601C4.901 13.5251 4.9008 12.8899 4.9008 12.2547C4.8468 12.2547 4.793 12.2545 4.7392 12.2543C3.8946 13.0973 3.0516 13.9419 2.2074 14.7855C2.1024 14.8951 1.9908 15.0075 1.843 15.0571C1.5428 15.1737 1.1726 15.0485 1.007 14.7719C0.9372 14.6607 0.8996 14.5299 0.9006 14.3985C0.9008 10.6119 0.901 6.82532 0.9006 3.03872C0.8912 2.39132 1.1992 1.74972 1.7106 1.35272ZM2.8392 2.32392C2.6158 2.38172 2.4264 2.55332 2.3466 2.76992C2.294 2.89972 2.2994 3.04172 2.3008 3.17912C2.3008 6.35492 2.3006 9.53092 2.301 12.7067C2.8492 12.1595 3.3964 11.6111 3.9446 11.0637C4.0744 10.9329 4.2558 10.8557 4.4402 10.8547C4.5936 10.8543 4.747 10.8547 4.9006 10.8547C4.9012 9.56292 4.9006 8.27092 4.9008 6.97912C4.91 6.44192 5.1324 5.91112 5.512 5.53052C5.8566 5.17812 6.3288 4.95492 6.8194 4.90932C6.9392 4.89592 7.0598 4.90012 7.1802 4.89972C9.3536 4.89972 11.5272 4.89972 13.7008 4.89972C13.7008 4.31272 13.7008 3.72572 13.7008 3.13872C13.7012 3.04492 13.7046 2.94992 13.6816 2.85832C13.6124 2.54032 13.3068 2.29612 12.9812 2.29972C9.6946 2.29972 6.4082 2.29972 3.1216 2.29972C3.027 2.29832 2.9308 2.29772 2.8392 2.32392ZM6.3518 6.75732C6.2944 6.89012 6.2988 7.03692 6.3008 7.17852C6.3008 9.49872 6.3008 11.8189 6.3008 14.1391C6.2998 14.4527 6.5264 14.7481 6.8296 14.8281C6.931 14.8593 7.0376 14.8557 7.1422 14.8547C9.9486 14.8547 12.7548 14.8547 15.561 14.8547C15.7452 14.8559 15.927 14.9325 16.0566 15.0633C16.6048 15.6109 17.1522 16.1593 17.7006 16.7067C17.701 13.6579 17.7006 10.6091 17.7008 7.56012C17.6988 7.35972 17.7048 7.15912 17.6978 6.95892C17.6736 6.60512 17.3556 6.30432 17.001 6.30012C13.6746 6.29912 10.3482 6.30012 7.0218 6.29972C6.7326 6.29712 6.455 6.48732 6.3518 6.75732Z" fill="#FFFFFF" />
  </g>
  <defs>
    <clipPath id="clip0_5347_45407">
      <rect width="20" height="20" fill="white" />
    </clipPath>
  </defs>
</svg>