<svg width="22" height="21" viewBox="0 0 22 21" fill="none" xmlns="http://www.w3.org/2000/svg">
  <path d="M1.8419 0.555969C2.25498 0.229829 2.77616 0.0446786 3.30217 0.0350186C7.06681 0.0350186 10.8314 0.0350186 14.5959 0.0350186C14.7339 0.0361686 14.8723 0.0301887 15.0101 0.0437587C15.5011 0.0849287 15.9782 0.279739 16.3574 0.594609C16.8358 0.987909 17.153 1.57027 17.2236 2.18575C17.2475 2.36515 17.2392 2.54662 17.2406 2.72717C17.2406 3.36312 17.2406 3.99907 17.2406 4.63502C17.9612 4.63502 18.6816 4.63525 19.4022 4.63479C19.8541 4.63433 20.3054 4.76313 20.6895 5.00187C21.2833 5.36665 21.7031 5.99823 21.81 6.68708C21.834 6.83727 21.8438 6.98953 21.8409 7.14156C21.8406 11.4423 21.8406 15.7431 21.8406 20.0436C21.8514 20.2318 21.8236 20.4277 21.7185 20.588C21.5407 20.8836 21.1591 21.0317 20.8275 20.9386C20.6524 20.8949 20.505 20.7824 20.3852 20.6511C19.3992 19.6651 18.4134 18.6784 17.4267 17.693C14.2522 17.6935 11.0775 17.693 7.90286 17.6933C7.1204 17.6852 6.35841 17.2687 5.92578 16.6171C5.66197 16.2256 5.51569 15.7564 5.5104 15.2845C5.51086 14.5542 5.51063 13.8237 5.51063 13.0933C5.44853 13.0933 5.38666 13.093 5.32479 13.0928C4.3535 14.0623 3.38405 15.0335 2.41322 16.0037C2.29247 16.1297 2.16413 16.259 1.99416 16.316C1.64893 16.4501 1.2232 16.3061 1.03276 15.988C0.952487 15.8602 0.909247 15.7097 0.910397 15.5586C0.910627 11.204 0.910857 6.84946 0.910397 2.49487C0.899587 1.75036 1.25379 1.01252 1.8419 0.555969ZM3.13979 1.67285C2.88288 1.73932 2.66507 1.93666 2.5733 2.18575C2.51281 2.33502 2.51902 2.49832 2.52063 2.65633C2.52063 6.3085 2.5204 9.9609 2.52086 13.6131C3.15129 12.9838 3.78057 12.3531 4.411 11.7236C4.56027 11.5732 4.76888 11.4844 4.98094 11.4833C5.15735 11.4828 5.33376 11.4833 5.5104 11.4833C5.51109 9.9977 5.5104 8.5119 5.51063 7.02633C5.52121 6.40855 5.77697 5.79813 6.21351 5.36044C6.6098 4.95518 7.15283 4.6985 7.71702 4.64606C7.85479 4.63065 7.99348 4.63548 8.13194 4.63502C10.6313 4.63502 13.131 4.63502 15.6306 4.63502C15.6306 3.95997 15.6306 3.28492 15.6306 2.60987C15.6311 2.502 15.635 2.39275 15.6085 2.28741C15.529 1.92171 15.1775 1.64088 14.8031 1.64502C11.0235 1.64502 7.24414 1.64502 3.46455 1.64502C3.35576 1.64341 3.24513 1.64272 3.13979 1.67285ZM7.17928 6.77126C7.11327 6.92398 7.11833 7.0928 7.12063 7.25564C7.12063 9.92387 7.12063 12.5921 7.12063 15.2603C7.11948 15.621 7.38007 15.9607 7.72875 16.0527C7.84536 16.0886 7.96795 16.0844 8.08824 16.0833C11.3156 16.0833 14.5427 16.0833 17.7699 16.0833C17.9817 16.0846 18.1908 16.1727 18.3398 16.3232C18.9702 16.9529 19.5997 17.5836 20.2304 18.2131C20.2309 14.7069 20.2304 11.2008 20.2306 7.69448C20.2283 7.46402 20.2352 7.23333 20.2272 7.0031C20.1993 6.59623 19.8336 6.25031 19.4259 6.24548C15.6005 6.24433 11.7751 6.24548 7.94978 6.24502C7.6172 6.24203 7.29796 6.46076 7.17928 6.77126Z" fill="#9294A5" />
</svg>