<svg width="200" height="200" viewBox="0 0 200 200" fill="none" xmlns="http://www.w3.org/2000/svg">
<path d="M38.5689 18.1656C40.5669 17.8976 42.5869 17.9536 44.5969 17.9496C82.4669 17.9496 120.337 17.9496 158.207 17.9496C162.895 17.9636 167.589 19.3136 171.485 21.9376C176.757 25.4176 180.515 31.0916 181.635 37.3116C182.173 40.0456 182.035 42.8396 182.051 45.6076C182.049 72.2496 182.055 98.8896 182.049 125.532C178.185 121.172 173.383 117.618 168.023 115.32C167.967 90.7436 168.021 66.1656 167.997 41.5896C167.919 39.2456 167.061 36.8996 165.447 35.1756C164.001 33.5916 162.009 32.5176 159.899 32.1556C158.939 32.0056 157.967 31.9916 157.001 31.9976C118.667 32.0036 80.3329 31.9936 42.0009 32.0036C38.6989 31.9296 35.4029 33.6156 33.6109 36.3996C32.3269 38.3296 31.8629 40.7076 32.0509 42.9976C32.0509 81.3236 32.0509 119.652 32.0509 157.978C39.1349 150.888 46.2249 143.806 53.3089 136.716C54.5929 135.434 56.3689 134.668 58.1869 134.636C64.9829 134.532 71.7889 134.678 78.591 134.65C85.1889 134.65 91.7889 134.65 98.3869 134.65C104.233 134.552 110.079 134.616 115.925 134.604C113.795 139.006 112.539 143.8 112.081 148.662C95.389 148.63 78.6989 148.664 62.0069 148.646C61.7349 148.678 61.3849 148.558 61.179 148.796C51.151 158.826 41.1189 168.854 31.0909 178.884C30.1889 179.794 29.2969 180.768 28.1129 181.318C25.4529 182.654 21.9869 182.066 19.9349 179.902C18.7949 178.694 18.0449 177.078 18.0009 175.406C17.9989 131.07 18.0049 86.7356 17.9989 42.3996C17.8409 38.2976 18.8209 34.1736 20.7289 30.5456C24.2109 23.8516 31.0909 19.1076 38.5689 18.1656Z" fill="#B4B8BB"/>
<path d="M63.0213 61.0355C64.0713 60.9135 65.1293 60.9535 66.1853 60.9495C89.2553 60.9495 112.325 60.9495 135.395 60.9495C136.661 60.9755 137.987 61.0575 139.121 61.6795C141.947 62.9975 143.587 66.3775 142.903 69.4175C142.333 72.5635 139.371 75.0295 136.173 75.0315C127.185 75.1135 118.197 74.9575 109.209 74.9995C99.2072 74.9675 89.2093 75.0875 79.2073 75.0495C74.7353 75.0895 70.2633 74.9395 65.7913 75.0155C63.9453 75.1175 61.9693 75.0555 60.3633 74.0275C57.6713 72.4595 56.3553 68.9935 57.2533 66.0195C57.9873 63.4335 60.3353 61.3515 63.0213 61.0355Z" fill="#B4B8BB"/>
<path d="M63.0229 93.0355C63.7429 92.9495 64.4689 92.9395 65.1949 92.9475C76.6609 92.9535 88.1289 92.9435 99.5949 92.9535C101.053 92.9475 102.539 93.2316 103.777 94.0396C106.071 95.4736 107.395 98.3236 106.963 101.002C106.577 104.306 103.525 107.036 100.193 107.022C88.4649 106.974 76.7309 107.012 65.0009 107C64.0709 106.986 63.1169 107.078 62.2109 106.818C60.5829 106.408 59.1729 105.342 58.1989 103.992C56.8769 102.11 56.5809 99.5556 57.4449 97.4256C58.3549 95.1176 60.5309 93.3115 63.0229 93.0355Z" fill="#B4B8BB"/>
<path d="M140.678 135.298C142.842 132.494 146.372 131.11 149.814 130.778C153.314 130.478 156.992 130.934 160.084 132.694C162.414 134.02 164.262 136.266 164.872 138.902C165.48 141.566 165.29 144.506 163.916 146.91C162.984 148.642 161.468 149.966 159.858 151.05C158.262 152.046 156.536 153.036 155.534 154.694C154.57 156.206 154.474 158.056 154.444 159.798C151.93 159.8 149.418 159.8 146.906 159.8C146.884 156.778 146.962 153.498 148.726 150.91C150.448 148.372 153.658 147.466 155.46 145.01C156.528 143.604 156.78 141.602 156 140.006C155.23 138.452 153.508 137.538 151.808 137.496C150.08 137.452 148.286 138.242 147.332 139.72C146.774 140.516 146.582 141.494 146.506 142.446C143.784 142.454 141.062 142.45 138.34 142.448C138.412 139.912 139.042 137.296 140.678 135.298Z" fill="#B4B8BB"/>
<path d="M149.498 163.156C152.068 162.358 155.024 164.144 155.54 166.77C156.17 169.394 154.082 172.236 151.42 172.516C149.488 172.784 147.472 171.75 146.578 170.014C146.072 169.096 145.962 168.004 146.094 166.98C146.332 165.178 147.766 163.638 149.498 163.156Z" fill="#B4B8BB"/>
</svg>
