<svg width="16" height="16" viewBox="0 0 16 16" fill="none" xmlns="http://www.w3.org/2000/svg">
<path d="M6.72051 1.47135C7.58707 1.38159 8.47363 1.48351 9.29523 1.77407C10.392 2.15871 11.3664 2.87967 12.0599 3.81199C12.7821 4.77455 13.1951 5.96447 13.2237 7.16767C13.2562 8.21567 13.001 9.27119 12.4909 10.1877C12.3152 10.5048 12.1101 10.8058 11.8788 11.085C12.6647 11.8712 13.4509 12.6571 14.2368 13.4432C14.3404 13.5523 14.4682 13.6482 14.5215 13.7942C14.616 14.0254 14.533 14.3133 14.3271 14.4555C14.1164 14.6122 13.7973 14.5899 13.6111 14.4045C12.7682 13.5635 11.9271 12.7206 11.0847 11.879C10.2828 12.5443 9.30035 12.9898 8.27091 13.1526C7.01699 13.3549 5.69827 13.1429 4.57667 12.5442C3.56131 12.0082 2.70963 11.1677 2.15987 10.1597C1.83331 9.56463 1.61235 8.91215 1.50899 8.24143C1.35811 7.26607 1.45315 6.25279 1.79027 5.32479C2.14195 4.35167 2.75651 3.47583 3.55075 2.81279C4.44211 2.06303 5.56115 1.58783 6.72051 1.47135ZM7.10867 2.56543C6.48451 2.59391 5.86595 2.74639 5.30099 3.01359C4.30419 3.48095 3.48035 4.30479 3.01299 5.30175C2.74451 5.86943 2.59203 6.49119 2.56451 7.11855C2.52883 7.89471 2.68547 8.67935 3.02035 9.38079C3.49827 10.3904 4.34243 11.2203 5.36019 11.6806C5.94675 11.9478 6.58835 12.0934 7.23283 12.1051C8.30867 12.1326 9.38915 11.7779 10.2399 11.1187C10.4058 10.9882 10.5708 10.8538 10.7111 10.6955C10.801 10.6203 10.8767 10.5302 10.9536 10.4424C11.3599 9.97071 11.6733 9.41887 11.8674 8.82735C12.258 7.65343 12.1666 6.32847 11.6143 5.22095C11.1359 4.24991 10.3175 3.45167 9.33395 2.99887C8.64163 2.67759 7.87091 2.52863 7.10867 2.56543Z" fill="#CACBD3"/>
</svg>
