<svg width="14" height="14" viewBox="0 0 14 14" fill="none" xmlns="http://www.w3.org/2000/svg">
  <path d="M6.91133 0.225298C8.06933 0.208648 9.23093 0.494398 10.2463 1.05225C11.2697 1.611 12.1438 2.43885 12.7579 3.4299C13.2637 4.24245 13.5926 5.16435 13.7156 6.11355C13.8395 7.06395 13.7632 8.04075 13.4857 8.9586C13.1512 10.0747 12.5189 11.0991 11.6752 11.902C10.8149 12.7257 9.73358 13.3165 8.57438 13.5907C7.58198 13.8273 6.53663 13.836 5.54003 13.6179C4.50323 13.3918 3.52283 12.9147 2.70323 12.2407C1.86053 11.5512 1.18763 10.6554 0.76178 9.65325C0.23753 8.42835 0.0927801 7.04715 0.33998 5.73885C0.53528 4.6923 0.98543 3.69525 1.63808 2.85435C2.33363 1.9542 3.25913 1.23315 4.30343 0.781498C5.12408 0.424498 6.01658 0.235648 6.91133 0.225298ZM6.92663 1.27515C6.33053 1.2834 5.73488 1.38195 5.16998 1.57365C4.16093 1.91145 3.25298 2.54115 2.57768 3.36315C1.88318 4.2021 1.43708 5.2437 1.31243 6.32595C1.22663 7.0527 1.28078 7.7958 1.47233 8.50215C1.62128 9.05025 1.85243 9.576 2.15678 10.0555C2.71568 10.9411 3.52193 11.6691 4.46123 12.1327C5.46638 12.6342 6.62213 12.8226 7.73543 12.6775C8.56463 12.5718 9.36938 12.2796 10.0733 11.8287C10.7485 11.3982 11.3318 10.8246 11.7737 10.1566C12.2072 9.5043 12.5036 8.76135 12.6374 7.9896C12.8341 6.87 12.6905 5.6922 12.2221 4.6557C11.7704 3.648 11.0194 2.77785 10.09 2.18175C9.15518 1.57665 8.03948 1.2594 6.92663 1.27515Z" fill="#9294A5" />
  <path d="M6.64497 3.3661C7.24842 3.28735 7.87917 3.4504 8.36817 3.81265C8.73072 4.07755 9.01497 4.4473 9.17937 4.8649C9.29682 5.16175 9.35337 5.4823 9.34647 5.80135C9.33792 6.1165 9.23997 6.42625 9.07767 6.69565C8.83272 7.1005 8.46432 7.4161 8.06607 7.6642C7.77972 7.84225 7.47507 7.9912 7.15857 8.10745C6.93402 8.2072 6.64662 8.128 6.51207 7.9207C6.41517 7.78105 6.39552 7.5931 6.45672 7.435C6.49542 7.3336 6.56727 7.24585 6.65757 7.1857C6.73077 7.1368 6.81732 7.1161 6.89757 7.0822C7.14477 6.9811 7.38447 6.85945 7.60602 6.7099C7.81362 6.5668 8.01432 6.4033 8.15337 6.19C8.23617 6.06595 8.29227 5.92165 8.29662 5.7715C8.30262 5.4556 8.19297 5.13865 7.99212 4.89445C7.82712 4.69015 7.59987 4.5379 7.34952 4.45945C7.05852 4.36615 6.73587 4.3789 6.45207 4.49155C6.09507 4.63045 5.80542 4.92895 5.67732 5.28985C5.63097 5.42965 5.52552 5.54815 5.38962 5.6059C5.18157 5.70175 4.91532 5.63845 4.77222 5.4598C4.66242 5.3269 4.62342 5.1391 4.67457 4.97395C4.88307 4.34875 5.36412 3.82135 5.96712 3.55555C6.18222 3.45985 6.41112 3.3949 6.64497 3.3661Z" fill="#9294A5" />
  <path d="M6.91643 9.60597C7.12898 9.56877 7.35863 9.67572 7.46198 9.86607C7.53533 9.99372 7.54988 10.1523 7.50338 10.2918C7.46093 10.42 7.36688 10.53 7.24673 10.5919C7.09538 10.6696 6.90563 10.6699 6.75473 10.5907C6.56288 10.4937 6.44693 10.2705 6.47753 10.0576C6.50273 9.83187 6.69128 9.63702 6.91643 9.60597Z" fill="#9294A5" />
</svg>