<svg width="14" height="15" viewBox="0 0 14 15" fill="none" xmlns="http://www.w3.org/2000/svg">
  <path d="M6.91328 0.72542C8.07128 0.70877 9.23288 0.99452 10.2482 1.55237C11.2717 2.11112 12.1457 2.93897 12.7598 3.93002C13.2656 4.74257 13.5946 5.66447 13.7176 6.61367C13.8415 7.56407 13.7651 8.54087 13.4876 9.45872C13.1531 10.5749 12.5209 11.5992 11.6771 12.4022C10.8169 13.2258 9.73553 13.8167 8.57633 14.0909C7.58393 14.3274 6.53858 14.3361 5.54198 14.118C4.50518 13.892 3.52478 13.4148 2.70518 12.7409C1.86248 12.0513 1.18958 11.1555 0.763733 10.1534C0.239483 8.92847 0.0947332 7.54727 0.341933 6.23897C0.537233 5.19242 0.987383 4.19537 1.64003 3.35447C2.33558 2.45432 3.26108 1.73327 4.30538 1.28162C5.12603 0.92462 6.01853 0.73577 6.91328 0.72542ZM6.92858 1.77527C6.33248 1.78352 5.73683 1.88207 5.17193 2.07377C4.16288 2.41157 3.25493 3.04127 2.57963 3.86327C1.88513 4.70222 1.43903 5.74382 1.31438 6.82607C1.22858 7.55282 1.28273 8.29592 1.47428 9.00227C1.62323 9.55037 1.85438 10.0761 2.15873 10.5557C2.71763 11.4413 3.52388 12.1692 4.46318 12.6329C5.46833 13.1343 6.62408 13.3227 7.73738 13.1777C8.56658 13.0719 9.37133 12.7797 10.0753 12.3288C10.7504 11.8983 11.3338 11.3247 11.7757 10.6568C12.2092 10.0044 12.5056 9.26147 12.6394 8.48972C12.836 7.37012 12.6925 6.19232 12.224 5.15582C11.7724 4.14812 11.0213 3.27797 10.0919 2.68187C9.15713 2.07677 8.04143 1.75952 6.92858 1.77527Z" fill="#9294A5" />
  <path d="M6.64888 3.8661C7.25233 3.78735 7.88308 3.9504 8.37208 4.31265C8.73463 4.57755 9.01888 4.9473 9.18328 5.3649C9.30073 5.66175 9.35728 5.9823 9.35038 6.30135C9.34183 6.6165 9.24388 6.92625 9.08158 7.19565C8.83663 7.6005 8.46823 7.9161 8.06998 8.1642C7.78363 8.34225 7.47898 8.4912 7.16248 8.60745C6.93793 8.7072 6.65053 8.628 6.51598 8.4207C6.41908 8.28105 6.39943 8.0931 6.46063 7.935C6.49933 7.8336 6.57118 7.74585 6.66148 7.6857C6.73468 7.6368 6.82123 7.6161 6.90148 7.5822C7.14868 7.4811 7.38838 7.35945 7.60993 7.2099C7.81753 7.0668 8.01823 6.9033 8.15728 6.69C8.24008 6.56595 8.29618 6.42165 8.30053 6.2715C8.30653 5.9556 8.19688 5.63865 7.99603 5.39445C7.83103 5.19015 7.60378 5.0379 7.35343 4.95945C7.06243 4.86615 6.73978 4.8789 6.45598 4.99155C6.09898 5.13045 5.80933 5.42895 5.68123 5.78985C5.63488 5.92965 5.52943 6.04815 5.39353 6.1059C5.18548 6.20175 4.91923 6.13845 4.77613 5.9598C4.66633 5.8269 4.62733 5.6391 4.67848 5.47395C4.88698 4.84875 5.36803 4.32135 5.97103 4.05555C6.18613 3.95985 6.41503 3.8949 6.64888 3.8661Z" fill="#9294A5" />
  <path d="M6.91838 10.1061C7.13093 10.0689 7.36059 10.1758 7.46394 10.3662C7.53728 10.4938 7.55184 10.6524 7.50534 10.7919C7.46289 10.9201 7.36883 11.0301 7.24868 11.092C7.09733 11.1697 6.90758 11.17 6.75668 11.0908C6.56483 10.9938 6.44888 10.7706 6.47948 10.5577C6.50468 10.332 6.69323 10.1371 6.91838 10.1061Z" fill="#9294A5" />
</svg>