<svg width="190" height="190" viewBox="0 0 190 190" fill="none" xmlns="http://www.w3.org/2000/svg">
  <path d="M37.9327 -30.8521C40.2108 -34.1705 44.449 -34.6089 48.1456 -34.4456C95.4275 -34.3424 142.718 -34.4628 190 -34.3768V-10.7788C188.049 -13.0569 186.699 -17.1404 183.157 -16.9341C139.288 -16.9427 95.4189 -16.9341 51.5585 -16.9341C48.9107 -17.3553 47.69 -14.7161 46.2887 -13.0054C39.8326 -3.98741 32.7919 4.60931 26.5077 13.7476C81.0022 13.9797 135.505 13.9282 190 13.8164V31.3365C132.522 31.3967 75.0361 31.3107 17.5585 31.3709C17.3522 83.9828 17.5757 136.595 17.4037 189.207C17.2834 193.574 18.1258 198.207 21.1433 201.56C24.3155 205.454 29.4219 207.208 34.3393 207.062C86.229 207.045 138.11 207.045 190 207.062V224.445C137.835 224.496 85.6788 224.445 33.514 224.47C24.668 224.634 15.822 221.126 9.58933 214.833C3.30513 208.601 -0.133575 199.738 0.0039729 190.917C0.0297631 135.004 -0.00460702 79.0913 0.0211831 23.1782C-0.0905742 20.4187 1.19893 17.8912 2.86669 15.7764C14.627 0.293758 26.1724 -15.3609 37.9327 -30.8521Z" fill="black" fill-opacity="0.1" />
  <path d="M66.574 62.5C70.666 61.2534 75.4544 63.4026 77.0705 67.3915C77.8958 69.6352 77.7497 72.0767 77.9818 74.4322C79.0048 87.7571 87.4898 100.154 99.422 106.12C110.262 111.785 123.794 111.888 134.729 106.403C145.784 101.073 154.003 90.3017 156.229 78.2405C156.796 75.2575 156.736 72.2056 157.132 69.2054C157.725 65.0704 161.826 61.9326 165.952 62.1733C170.354 62.1561 174.282 66.0848 174.325 70.4777C174.463 83.3126 170.096 96.1905 162.075 106.24C152.756 118.155 138.485 126.038 123.433 127.569C109.196 129.167 94.4445 125.067 83.0452 116.41C68.7919 105.845 60.049 88.2213 60.3843 70.4691C60.4445 66.8499 63.1181 63.4886 66.574 62.5Z" fill="black" fill-opacity="0.1" />
</svg>