<svg width="50" height="50" viewBox="0 0 50 50" fill="none" xmlns="http://www.w3.org/2000/svg">
  <g clip-path="url(#clip0_5246_128874)">
    <path d="M24.9945 7.94105C25.324 7.75105 25.65 7.55555 25.9835 7.37305C27.39 8.19055 28.805 8.99455 30.209 9.81705C28.451 10.8385 26.691 11.855 24.932 12.8745C24.7455 12.992 24.5345 13.075 24.376 13.232C24.719 13.231 25.059 13.1715 25.4025 13.166C27.345 13.11 29.286 13.6045 31.0065 14.497C31.8225 14.9295 32.61 15.4305 33.284 16.067C33.8565 16.616 34.361 17.2945 34.4965 18.0935C34.616 18.7665 34.396 19.458 34.012 20.0095C33.772 20.347 33.5235 20.6845 33.205 20.953C32.7785 21.2975 32.3205 21.5995 31.8775 21.922C32.545 21.569 33.191 21.1745 33.851 20.806C34.637 20.371 35.3885 19.8705 36.2145 19.51C36.981 19.1735 37.805 18.907 38.652 18.9355C39.345 18.938 40.0415 19.2275 40.4975 19.756C41.076 20.414 41.305 21.299 41.4045 22.15C41.4535 22.684 41.506 23.2225 41.4455 23.758C41.352 25.5895 40.7925 27.389 39.8625 28.9675C38.797 30.7855 37.259 32.312 35.4715 33.421C34.699 33.8955 33.885 34.3235 33.003 34.551C32.482 34.6825 31.932 34.7525 31.4005 34.643C31.035 34.568 30.68 34.402 30.417 34.133C30.3505 34.0625 30.272 34.004 30.1825 33.967C30.1665 36.186 30.18 38.4055 30.176 40.6245C28.7535 41.4605 27.3225 42.281 25.8965 43.1095C24.3645 42.2225 22.831 41.338 21.298 40.453C19.5615 39.4565 17.843 38.4305 16.106 37.434C15.129 36.8565 14.134 36.31 13.155 35.736C12.199 35.18 11.2405 34.628 10.2855 34.07C10.2885 31.196 10.286 28.322 10.287 25.448C10.2775 24.3155 10.308 23.184 10.3 22.0515C10.3 20.1785 10.3 18.3055 10.3 16.4325C10.3745 16.398 10.449 16.365 10.521 16.326C15.3455 13.531 20.17 10.7355 24.9945 7.94105ZM23.179 14.539C22.138 14.6565 21.1195 15.01 20.246 15.591C19.8125 15.884 19.4005 16.2445 19.173 16.725C18.978 17.1165 18.972 17.5955 19.154 17.993C19.355 18.445 19.7285 18.793 20.12 19.0825C21.902 20.337 24.299 20.6315 26.344 19.892C27.036 19.64 27.702 19.292 28.265 18.8135C28.6555 18.4765 28.999 18.0295 29.054 17.5015C29.107 17.0165 28.8755 16.546 28.551 16.199C28.0635 15.6705 27.426 15.307 26.772 15.024C25.643 14.5555 24.391 14.3955 23.179 14.539ZM14.5765 18.9045C14.5855 21.1105 14.548 23.3165 14.5685 25.5225C14.7505 25.472 14.847 25.295 14.997 25.193C15.497 24.8235 16.1515 24.75 16.754 24.82C17.638 24.9265 18.4685 25.2855 19.2435 25.709C20.8915 26.616 22.3555 27.8645 23.485 29.3705C24.664 30.9405 25.468 32.8 25.74 34.748C25.8045 35.1685 25.821 35.594 25.8815 36.015C25.902 32.488 25.861 28.961 25.875 25.434C22.1095 23.256 18.344 21.078 14.5765 18.9045ZM34.9755 23.2805C34.667 23.3435 34.3705 23.455 34.0865 23.59C31.7185 24.73 30.088 27.3105 30.188 29.9525C30.214 30.543 30.327 31.1695 30.7085 31.641C30.969 31.971 31.378 32.1695 31.7965 32.1865C32.3655 32.218 32.918 32.0205 33.418 31.7655C34.2835 31.3135 35.046 30.6695 35.6485 29.902C36.723 28.538 37.2815 26.751 37.071 25.0185C36.9975 24.472 36.8185 23.8885 36.372 23.5315C35.9855 23.2155 35.447 23.1845 34.9755 23.2805ZM15.928 27.3375C15.5875 27.4025 15.281 27.6 15.0675 27.8715C14.701 28.345 14.5885 28.9605 14.5645 29.5455C14.479 31.776 15.635 33.967 17.4215 35.2755C17.989 35.686 18.617 36.038 19.303 36.2C19.8005 36.321 20.377 36.2785 20.7795 35.934C21.213 35.5685 21.38 34.9905 21.45 34.448C21.582 33.3025 21.382 32.1275 20.9165 31.075C20.2565 29.579 19.056 28.3185 17.574 27.6205C17.064 27.388 16.4895 27.2265 15.928 27.3375Z" fill="white" />
    <path d="M27.919 0H29.4765C33.276 0.1405 37.037 1.301 40.2315 3.368C43.206 5.284 45.695 7.9485 47.3955 11.0515C48.997 13.964 49.8845 17.2585 50 20.579V22.0155C49.9 24.675 49.319 27.3185 48.256 29.76C47.182 32.2525 45.615 34.528 43.6845 36.435C41.576 38.543 39.4685 40.652 37.3595 42.7595C36.6495 43.4315 35.9945 44.161 35.2495 44.796C33.755 46.0975 32.0765 47.1885 30.279 48.024C27.697 49.232 24.868 49.8905 22.0215 50H20.293C19.4925 49.9325 18.691 49.874 17.8985 49.7395C14.7505 49.2395 11.7185 48.019 9.107 46.1905C6.352 44.266 4.056 41.6865 2.4765 38.7195C1.1955 36.3155 0.3875 33.6615 0.1055 30.9525C0.0615 30.5545 0.045 30.155 0 29.7575V27.69C0.042 27.2925 0.06 26.893 0.1035 26.4955C0.244 25.115 0.523 23.7485 0.932 22.423C1.905 19.2405 3.651 16.3025 5.9655 13.9135C8.5965 11.279 11.231 8.648 13.8625 6.0145C15.696 4.228 17.8535 2.774 20.2025 1.755C22.6345 0.692 25.268 0.105 27.919 0ZM24.9945 7.941C20.17 10.7355 15.3455 13.531 10.521 16.326C10.449 16.365 10.3745 16.398 10.3 16.4325C10.3 18.3055 10.3 20.1785 10.3 22.0515C10.308 23.184 10.2775 24.3155 10.287 25.448C10.286 28.322 10.2885 31.196 10.2855 34.07C11.2405 34.628 12.199 35.18 13.155 35.736C14.134 36.31 15.129 36.8565 16.106 37.434C17.843 38.4305 19.5615 39.4565 21.298 40.453C22.831 41.338 24.3645 42.2225 25.8965 43.1095C27.3225 42.281 28.7535 41.4605 30.176 40.6245C30.18 38.4055 30.1665 36.186 30.1825 33.967C30.272 34.004 30.3505 34.0625 30.417 34.133C30.68 34.402 31.035 34.568 31.4005 34.643C31.932 34.7525 32.482 34.6825 33.003 34.551C33.885 34.3235 34.699 33.8955 35.4715 33.421C37.259 32.312 38.797 30.7855 39.8625 28.9675C40.7925 27.389 41.352 25.5895 41.4455 23.758C41.506 23.2225 41.4535 22.684 41.4045 22.15C41.305 21.299 41.076 20.414 40.4975 19.756C40.0415 19.2275 39.345 18.938 38.652 18.9355C37.805 18.907 36.981 19.1735 36.2145 19.51C35.3885 19.8705 34.637 20.371 33.851 20.806C33.191 21.1745 32.545 21.569 31.8775 21.922C32.3205 21.5995 32.7785 21.2975 33.205 20.953C33.5235 20.6845 33.772 20.347 34.012 20.0095C34.396 19.458 34.616 18.7665 34.4965 18.0935C34.361 17.2945 33.8565 16.616 33.284 16.067C32.61 15.4305 31.8225 14.9295 31.0065 14.497C29.286 13.6045 27.345 13.11 25.4025 13.166C25.059 13.1715 24.719 13.231 24.376 13.232C24.5345 13.075 24.7455 12.992 24.932 12.8745C26.691 11.855 28.451 10.8385 30.209 9.817C28.805 8.9945 27.39 8.1905 25.9835 7.373C25.65 7.5555 25.324 7.751 24.9945 7.941Z" fill="#D71E23" />
    <path d="M23.1805 14.5391C24.3925 14.3956 25.6445 14.5556 26.7735 15.0241C27.4275 15.3071 28.065 15.6706 28.5525 16.1991C28.877 16.5461 29.1085 17.0166 29.0555 17.5016C29.0005 18.0296 28.657 18.4766 28.2665 18.8136C27.7035 19.2921 27.0375 19.6401 26.3455 19.8921C24.3005 20.6316 21.9035 20.3371 20.1215 19.0826C19.73 18.7931 19.3565 18.4451 19.1555 17.9931C18.9735 17.5956 18.9795 17.1166 19.1745 16.7251C19.402 16.2446 19.814 15.8841 20.2475 15.5911C21.121 15.0101 22.1395 14.6566 23.1805 14.5391Z" fill="#D71E23" />
    <path d="M14.5767 18.9043C18.3442 21.0778 22.1097 23.2558 25.8752 25.4338C25.8612 28.9608 25.9022 32.4878 25.8817 36.0148C25.8212 35.5938 25.8047 35.1683 25.7402 34.7478C25.4682 32.7998 24.6642 30.9403 23.4852 29.3703C22.3557 27.8643 20.8917 26.6158 19.2437 25.7088C18.4687 25.2853 17.6382 24.9263 16.7542 24.8198C16.1517 24.7498 15.4972 24.8233 14.9972 25.1928C14.8472 25.2948 14.7507 25.4718 14.5687 25.5223C14.5482 23.3163 14.5857 21.1103 14.5767 18.9043Z" fill="#D71E23" />
    <path d="M34.9755 23.2804C35.447 23.1844 35.9855 23.2154 36.372 23.5314C36.8184 23.8884 36.9974 24.4719 37.0709 25.0184C37.2814 26.7509 36.7229 28.5379 35.6484 29.9019C35.0459 30.6694 34.2834 31.3134 33.4179 31.7654C32.918 32.0204 32.3655 32.2179 31.7965 32.1864C31.378 32.1694 30.969 31.9709 30.7085 31.6409C30.327 31.1694 30.214 30.5429 30.188 29.9524C30.088 27.3104 31.7185 24.7299 34.0864 23.5899C34.3704 23.4549 34.667 23.3434 34.9755 23.2804Z" fill="#D71E23" />
    <path d="M15.9265 27.3366C16.488 27.2256 17.0625 27.3871 17.5725 27.6196C19.0545 28.3176 20.255 29.5781 20.915 31.0741C21.3805 32.1266 21.5805 33.3016 21.4485 34.4471C21.3785 34.9896 21.2115 35.5676 20.778 35.9331C20.3755 36.2776 19.799 36.3201 19.3015 36.1991C18.6155 36.0371 17.9875 35.6851 17.42 35.2746C15.6335 33.9661 14.4775 31.7751 14.563 29.5446C14.587 28.9596 14.6995 28.3441 15.066 27.8706C15.2795 27.5991 15.586 27.4016 15.9265 27.3366Z" fill="#D71E23" />
    <path d="M29.4766 0H50.0001V20.579C49.8846 17.2585 48.9971 13.964 47.3956 11.0515C45.6951 7.9485 43.2061 5.284 40.2316 3.368C37.0371 1.301 33.2761 0.1405 29.4766 0Z" fill="#F4F4F6" />
    <path d="M48.2579 29.7601C49.3209 27.3186 49.9019 24.6751 50.0019 22.0156V50.0001H22.0234C24.8699 49.8906 27.6989 49.2321 30.2809 48.0241C32.0784 47.1886 33.7569 46.0976 35.2514 44.7961C35.9964 44.1611 36.6514 43.4316 37.3614 42.7596C39.4704 40.6521 41.5779 38.5431 43.6864 36.4351C45.6169 34.5281 47.1839 32.2526 48.2579 29.7601Z" fill="#F4F4F6" />
  </g>
  <defs>
    <clipPath id="clip0_5246_128874">
      <rect width="50" height="50" fill="white" />
    </clipPath>
  </defs>
</svg>