<svg width="20" height="20" viewBox="0 0 20 20" fill="none" xmlns="http://www.w3.org/2000/svg">
<path d="M2.8201 12.9793C2.5627 12.7183 2.5723 12.2537 2.8385 12.0023C3.0879 11.7443 3.5381 11.7329 3.7995 11.9791C4.7995 12.9781 5.7985 13.9783 6.7985 14.9775C6.7987 12.3119 6.7985 9.64628 6.7985 6.98088C6.7995 6.75428 6.7923 6.52728 6.8149 6.30148C6.8833 5.53248 7.1793 4.78567 7.6567 4.17887C8.2843 3.37247 9.2291 2.82227 10.2409 2.67727C10.6307 2.61467 11.0265 2.64047 11.4195 2.63527C13.1789 2.63527 14.9385 2.63507 16.6979 2.63528C16.9439 2.64148 17.1771 2.79387 17.2877 3.01267C17.4139 3.25207 17.3837 3.56427 17.2117 3.77367C17.0803 3.93887 16.8707 4.03648 16.6601 4.03528C14.8397 4.03528 13.0195 4.03528 11.1993 4.03528C10.9657 4.03908 10.7307 4.02268 10.4987 4.05588C9.8101 4.14068 9.1629 4.51308 8.7431 5.06568C8.3981 5.51348 8.2037 6.07447 8.1983 6.63987C8.1987 9.41908 8.1983 12.1983 8.1987 14.9773C9.1987 13.9781 10.1979 12.9775 11.1981 11.9785C11.4411 11.7513 11.8487 11.7415 12.1039 11.9539C12.3539 12.1469 12.4365 12.5173 12.2987 12.8003C12.2507 12.9115 12.1623 12.9963 12.0771 13.0791C10.7109 14.4455 9.3445 15.8117 7.9781 17.1779C7.7695 17.3817 7.4277 17.4253 7.1721 17.2875C7.0897 17.2475 7.0221 17.1847 6.9597 17.1189C5.5799 15.7389 4.1999 14.3593 2.8201 12.9793Z" fill="#9294A5"/>
</svg>
