<svg width="20" height="20" viewBox="0 0 20 20" fill="none" xmlns="http://www.w3.org/2000/svg">
<path d="M2.8201 13.7801C2.5627 13.5191 2.5723 13.0545 2.8385 12.8031C3.0879 12.5451 3.5381 12.5337 3.7995 12.7799C4.7995 13.7789 5.7985 14.7791 6.7985 15.7783C6.7987 13.1127 6.7985 10.4471 6.7985 7.78166C6.7995 7.55506 6.7923 7.32806 6.8149 7.10226C6.8833 6.33326 7.1793 5.58646 7.6567 4.97966C8.2843 4.17326 9.2291 3.62306 10.2409 3.47806C10.6307 3.41546 11.0265 3.44126 11.4195 3.43606C13.1789 3.43606 14.9385 3.43586 16.6979 3.43606C16.9439 3.44226 17.1771 3.59466 17.2877 3.81346C17.4139 4.05286 17.3837 4.36506 17.2117 4.57446C17.0803 4.73966 16.8707 4.83726 16.6601 4.83606C14.8397 4.83606 13.0195 4.83606 11.1993 4.83606C10.9657 4.83986 10.7307 4.82346 10.4987 4.85666C9.8101 4.94146 9.1629 5.31386 8.7431 5.86646C8.3981 6.31426 8.2037 6.87526 8.1983 7.44066C8.1987 10.2199 8.1983 12.9991 8.1987 15.7781C9.1987 14.7789 10.1979 13.7783 11.1981 12.7793C11.4411 12.5521 11.8487 12.5423 12.1039 12.7547C12.3539 12.9477 12.4365 13.3181 12.2987 13.6011C12.2507 13.7123 12.1623 13.7971 12.0771 13.8799C10.7109 15.2463 9.3445 16.6125 7.9781 17.9787C7.7695 18.1825 7.4277 18.2261 7.1721 18.0883C7.0897 18.0483 7.0221 17.9855 6.9597 17.9197C5.5799 16.5397 4.1999 15.1601 2.8201 13.7801Z" fill="#76788E"/>
</svg>
