<svg width="20" height="20" viewBox="0 0 20 20" fill="none" xmlns="http://www.w3.org/2000/svg">
<g clip-path="url(#clip0_3144_81332)">
<path d="M0.9214 1.74336C1.4418 1.29576 2.1164 1.04116 2.7992 1.00036C7.5926 0.999356 12.386 1.00036 17.1794 0.999756C17.8968 1.03616 18.6072 1.31216 19.14 1.79816C19.6222 2.23236 19.9422 2.84716 20 3.49556V12.2278C19.8746 12.094 19.7762 11.939 19.6654 11.7938C18.8786 10.721 18.0878 9.65136 17.2994 8.57976C17.0812 8.28536 16.7742 8.05996 16.4334 7.92736C16.1132 7.79836 15.759 7.77076 15.418 7.81136C15.0352 7.86096 14.6788 8.03836 14.3806 8.27896C10.2348 11.334 6.0868 14.3858 1.9418 17.4416C1.5904 17.7036 1.2302 17.9542 0.8858 18.2252C0.3896 17.789 0.0582 17.1644 0 16.504V3.49676C0.0586 2.82016 0.406 2.18156 0.9214 1.74336ZM4.2652 3.50796C3.8224 3.55976 3.3914 3.75916 3.0824 4.08316C2.8198 4.33236 2.6422 4.66436 2.5518 5.01296C2.4412 5.47676 2.4888 5.98276 2.7112 6.40736C2.8312 6.66376 3.0234 6.87796 3.2366 7.06076C3.6544 7.39816 4.21 7.55836 4.743 7.48876C5.308 7.42576 5.8354 7.10256 6.1532 6.63236C6.4354 6.22556 6.5536 5.71036 6.4838 5.22096C6.4078 4.64576 6.065 4.11296 5.5724 3.80656C5.1894 3.55716 4.7176 3.45656 4.2652 3.50796Z" fill="#B4B8BB"/>
<path d="M4.2668 3.50792C4.7192 3.45652 5.19099 3.55712 5.57399 3.80652C6.0666 4.11292 6.4094 4.64572 6.4854 5.22092C6.5552 5.71032 6.437 6.22552 6.1548 6.63232C5.837 7.10252 5.30959 7.42572 4.7446 7.48872C4.2116 7.55832 3.656 7.39812 3.2382 7.06072C3.025 6.87792 2.8328 6.66372 2.7128 6.40732C2.4904 5.98272 2.4428 5.47672 2.5534 5.01292C2.6438 4.66432 2.8214 4.33232 3.084 4.08312C3.393 3.75912 3.82399 3.55972 4.2668 3.50792Z" fill="#A2A6A9"/>
<path d="M15.4189 7.81128C15.7599 7.77068 16.1141 7.79828 16.4343 7.92728C16.7751 8.05988 17.0821 8.28528 17.3003 8.57968C18.0887 9.65128 18.8795 10.7209 19.6663 11.7937C19.7771 11.9389 19.8755 12.0939 20.0009 12.2277V16.4919C19.9449 17.1927 19.5775 17.8525 19.0347 18.2943C18.4527 18.7709 17.6925 19.0259 16.9413 18.9999C12.2811 19.0001 7.62112 18.9997 2.96112 19.0001C2.63632 19.0079 2.31292 18.9473 2.00312 18.8525C1.59332 18.7229 1.20832 18.5111 0.886719 18.2251C1.23112 17.9541 1.59132 17.7035 1.94272 17.4415C6.08772 14.3857 10.2357 11.3339 14.3815 8.27888C14.6797 8.03828 15.0361 7.86088 15.4189 7.81128Z" fill="#A2A6A9"/>
</g>
<defs>
<clipPath id="clip0_3144_81332">
<rect width="20" height="20" fill="white"/>
</clipPath>
</defs>
</svg>
