<svg width="20" height="20" viewBox="0 0 20 20" fill="none" xmlns="http://www.w3.org/2000/svg">
<path d="M6.80078 2.79999H4.40078C3.97643 2.79999 3.56947 2.96856 3.26941 3.26862C2.96935 3.56868 2.80078 3.97564 2.80078 4.39999V6.79999M17.2008 6.79999V4.39999C17.2008 3.97564 17.0322 3.56868 16.7322 3.26862C16.4321 2.96856 16.0251 2.79999 15.6008 2.79999H13.2008M13.2008 17.2H15.6008C16.0251 17.2 16.4321 17.0314 16.7322 16.7314C17.0322 16.4313 17.2008 16.0243 17.2008 15.6V13.2M2.80078 13.2V15.6C2.80078 16.0243 2.96935 16.4313 3.26941 16.7314C3.56947 17.0314 3.97643 17.2 4.40078 17.2H6.80078" stroke="#556290" stroke-width="2" stroke-linecap="round" stroke-linejoin="round"/>
</svg>
