<svg width="20" height="20" viewBox="0 0 20 20" fill="none" xmlns="http://www.w3.org/2000/svg">
<path d="M2.18257 6.40113C2.37345 6.13581 2.70917 5.97991 3.03984 6.00218C3.27872 6.01401 3.50973 6.11684 3.679 6.28208C5.78623 8.34498 7.89206 10.4092 9.99958 12.4719C12.1026 10.4136 14.2045 8.35377 16.3067 6.29472C16.4563 6.1457 16.6539 6.04178 16.8658 6.01181C17.1771 5.96232 17.5084 6.07065 17.7262 6.29445C18.0049 6.57187 18.0799 7.01947 17.9092 7.37058C17.8508 7.49705 17.7593 7.60538 17.6577 7.70078C15.3318 9.97731 13.0082 12.256 10.682 14.532C10.4456 14.7545 10.0919 14.8512 9.77305 14.7734C9.58975 14.7314 9.42077 14.6371 9.28912 14.5056C6.95087 12.2143 4.61093 9.9248 2.27352 7.6326C1.94762 7.31256 1.90748 6.76378 2.18257 6.40113Z" fill="#556290"/>
</svg>
