<svg width="50" height="51" viewBox="0 0 50 51" fill="none" xmlns="http://www.w3.org/2000/svg">
<path d="M28.3155 0.500732C27.8358 0.512512 27.4948 0.528572 27.0895 0.559624C22.8301 0.881386 18.773 2.4752 15.4477 5.1312C14.9632 5.51881 14.5323 5.8941 14.0504 6.34864C13.9262 6.46589 6.20233 14.1865 5.9914 14.4039C3.34075 17.1397 1.49156 20.4911 0.596945 24.1798C0.251091 25.6077 0.0631744 26.9965 0.00642452 28.5458C-0.00214151 28.7894 -0.00214151 29.6353 0.00642452 29.8789C0.0653159 31.4931 0.266082 32.9273 0.642452 34.4264C1.46854 37.7136 3.06021 40.7336 5.31307 43.2874C5.77029 43.8062 6.30941 44.3587 6.81748 44.8293C8.58476 46.467 10.5742 47.7706 12.7655 48.7279C15.1271 49.7595 17.6787 50.3538 20.2742 50.4775C20.8711 50.5059 21.543 50.5085 22.1212 50.4855C26.5841 50.3062 30.8264 48.7621 34.3251 46.0451C34.8717 45.6206 35.3439 45.2158 35.9045 44.6906C36.0346 44.5691 43.7954 36.8142 44.0304 36.5711C46.2437 34.2824 47.9044 31.5455 48.9088 28.5298C49.7664 25.9557 50.1225 23.2515 49.9629 20.5232C49.7552 16.9699 48.6539 13.512 46.7737 10.509C44.902 7.52057 42.299 5.0209 39.2452 3.2804C36.9094 1.94893 34.3294 1.07198 31.6563 0.7015C30.9094 0.597637 30.1942 0.536602 29.3916 0.507694C29.2449 0.502876 28.4531 0.49752 28.3155 0.500732ZM28.0864 9.07745C29.2428 9.74506 30.1947 10.296 30.2016 10.3018C30.2161 10.3152 30.2172 10.3324 30.2038 10.3324C30.1984 10.3324 30.192 10.3345 30.1888 10.3372C30.1861 10.3399 30.1685 10.3511 30.1492 10.3623C30.1299 10.3731 30.1074 10.3859 30.0983 10.3913C30.0898 10.3966 30.0667 10.4095 30.0475 10.4207C30.0282 10.4319 30.0046 10.4453 29.9955 10.4507C29.9859 10.4566 29.9698 10.4651 29.9607 10.471C29.9511 10.4764 29.9275 10.4898 29.9083 10.501C29.889 10.5122 29.8665 10.5251 29.8574 10.5305C29.8488 10.5358 29.8258 10.5487 29.8065 10.5599C29.746 10.5947 29.7407 10.5979 29.6979 10.6236C29.6748 10.637 29.6545 10.6482 29.6529 10.6482C29.6513 10.6482 29.6438 10.6525 29.6363 10.6584C29.6283 10.6638 29.6133 10.6729 29.6031 10.6788C29.5538 10.7066 29.5281 10.721 29.4243 10.7815C29.3627 10.8169 29.3113 10.8463 29.3102 10.8463C29.3092 10.8463 29.2974 10.8533 29.2845 10.8624C29.2717 10.871 29.2599 10.8784 29.2589 10.8784C29.2572 10.8784 29.2369 10.8897 29.2139 10.9031C29.171 10.9288 29.1657 10.932 29.1052 10.9668C29.0859 10.978 29.0618 10.9919 29.0517 10.9978C29.0415 11.0037 29.0222 11.0144 29.0094 11.0219C28.996 11.0294 28.973 11.0423 28.9585 11.0514C28.9291 11.0685 28.9178 11.0749 28.8643 11.106C28.845 11.1172 28.8225 11.1301 28.8134 11.1354C28.8049 11.1408 28.7818 11.1536 28.7626 11.1649C28.7021 11.1997 28.6967 11.2029 28.6539 11.2286C28.6309 11.242 28.611 11.2532 28.61 11.2532C28.6089 11.2532 28.5928 11.2623 28.5746 11.2736C28.5559 11.2853 28.5297 11.3003 28.5163 11.3078C28.4772 11.3298 28.4569 11.3415 28.413 11.3678C28.3899 11.3812 28.3701 11.3924 28.3691 11.3924C28.3685 11.3924 28.3455 11.4058 28.3187 11.4219C28.2914 11.4379 28.2673 11.4513 28.2647 11.4513C28.2625 11.4513 28.2534 11.4583 28.2448 11.4668C28.2363 11.4749 28.2127 11.4915 28.1924 11.5032C28.1715 11.515 28.1335 11.537 28.1078 11.5525C28.0816 11.5675 28.0569 11.5798 28.0526 11.5798C28.0484 11.5798 28.0291 11.5894 28.0098 11.6012C27.9905 11.613 27.9739 11.6226 27.9729 11.6226C27.9718 11.6226 27.952 11.6339 27.929 11.6472C27.8861 11.6729 27.8808 11.6762 27.8203 11.711C27.801 11.7222 27.7785 11.735 27.7694 11.7404C27.7609 11.7458 27.7378 11.7586 27.7186 11.7698C27.6993 11.7811 27.6768 11.7939 27.6677 11.7993C27.6591 11.8046 27.6276 11.8228 27.5981 11.8394C27.5189 11.885 27.5162 11.8866 27.4707 11.9139C27.4477 11.9272 27.4279 11.9385 27.4268 11.9385C27.4263 11.9385 27.4032 11.9519 27.3765 11.9679C27.3492 11.984 27.3261 11.9974 27.3245 11.9974C27.3229 11.9974 27.3149 12.0017 27.3074 12.0076C27.2994 12.0129 27.2844 12.022 27.2742 12.0279C27.2282 12.0536 27.2025 12.0686 27.127 12.1125C27.0831 12.1382 27.036 12.1655 27.0226 12.173C27.0092 12.1805 26.983 12.1955 26.9642 12.2072C26.946 12.2185 26.93 12.2276 26.9289 12.2276C26.9278 12.2276 26.908 12.2388 26.885 12.2522C26.8422 12.2779 26.8368 12.2811 26.7763 12.3159C26.757 12.3272 26.7329 12.3411 26.7228 12.347C26.7126 12.3529 26.6933 12.3636 26.6799 12.3711C26.6666 12.378 26.6537 12.3861 26.6505 12.3882C26.6478 12.3903 26.636 12.3973 26.6253 12.4037C26.6141 12.4102 26.597 12.4193 26.5879 12.4251C26.5782 12.4305 26.5547 12.4439 26.5354 12.4551C26.5161 12.4664 26.4936 12.4792 26.4845 12.4846C26.476 12.4899 26.4529 12.5028 26.4337 12.514C26.3732 12.5488 26.3678 12.552 26.325 12.5777C26.302 12.5911 26.2822 12.6024 26.2811 12.6024C26.28 12.6024 26.264 12.6115 26.2458 12.6227C26.227 12.6345 26.2008 12.6495 26.1874 12.657C26.1306 12.6886 26.1199 12.695 26.1151 12.6987C26.1124 12.7009 26.1012 12.7078 26.091 12.7132C26.0809 12.7191 26.0605 12.7303 26.0455 12.7389C26.0311 12.7469 26.0123 12.7581 26.0043 12.7635C25.9968 12.7694 25.9888 12.7737 25.9872 12.7737C25.9856 12.7737 25.9625 12.7871 25.9352 12.8031C25.9085 12.8192 25.8854 12.8326 25.8849 12.8326C25.8838 12.8326 25.864 12.8438 25.841 12.8572C25.7971 12.8834 25.7768 12.8952 25.7377 12.9172C25.7243 12.9247 25.6981 12.9396 25.6793 12.9514C25.6611 12.9627 25.6451 12.9718 25.644 12.9718C25.6429 12.9718 25.6231 12.983 25.6001 12.9964C25.5573 13.0221 25.5519 13.0253 25.4914 13.0601C25.4721 13.0713 25.4496 13.0842 25.4405 13.0895C25.432 13.0949 25.409 13.1077 25.3897 13.119C25.3361 13.15 25.3249 13.1565 25.2955 13.1736C25.281 13.1827 25.258 13.1956 25.2446 13.203C25.2318 13.2105 25.2125 13.2212 25.2023 13.2271C25.1921 13.233 25.168 13.2469 25.1488 13.2582C25.0883 13.293 25.0829 13.2962 25.0401 13.3219C25.0171 13.3353 24.9967 13.3465 24.9951 13.3465C24.9935 13.3465 24.986 13.3508 24.9785 13.3567C24.9646 13.3663 24.9571 13.3706 24.8998 13.4022C24.8854 13.4108 24.8709 13.4193 24.8677 13.4215C24.865 13.4236 24.8538 13.4306 24.8436 13.4365C24.8334 13.4424 24.8008 13.4606 24.7713 13.4777C24.7419 13.4943 24.7071 13.5146 24.6942 13.5221C24.6808 13.5291 24.6578 13.5425 24.6434 13.5516C24.6139 13.5687 24.6027 13.5751 24.5491 13.6062C24.5299 13.6174 24.5074 13.6303 24.4983 13.6356C24.4453 13.6667 24.4148 13.6833 24.4046 13.6865C24.388 13.6918 24.3939 13.7004 24.4265 13.7202C24.4538 13.7368 24.4576 13.7374 24.4903 13.7341C24.5095 13.7325 24.5325 13.7304 24.5411 13.7304C24.5502 13.7299 24.5599 13.7277 24.5625 13.7261C24.5657 13.724 24.5775 13.7229 24.5898 13.7229C24.6016 13.7229 24.6139 13.7213 24.6166 13.7197C24.6198 13.7181 24.6402 13.7149 24.6616 13.7133C24.6835 13.7111 24.7114 13.709 24.7231 13.7079C24.7349 13.7068 24.759 13.7042 24.7767 13.7026C24.8532 13.6956 24.8795 13.6935 24.8945 13.6913C24.9036 13.6902 24.9309 13.6881 24.956 13.687C24.9812 13.686 25.0015 13.6843 25.0015 13.6838C25.0015 13.6833 25.0149 13.6822 25.031 13.6811C25.047 13.6801 25.0604 13.679 25.0604 13.6785C25.0604 13.6779 25.0824 13.6763 25.1086 13.6752C25.1354 13.6742 25.1771 13.6726 25.2023 13.671C25.281 13.6661 25.3758 13.6613 25.3833 13.6619C25.3929 13.6629 25.395 13.6624 25.5048 13.6592C25.561 13.6576 25.6108 13.6565 25.6161 13.6565C25.621 13.6565 25.6295 13.657 25.6349 13.657C25.6397 13.657 25.6922 13.657 25.7511 13.657C25.9706 13.657 26.1419 13.6624 26.3694 13.6763C26.469 13.6827 26.491 13.6838 26.514 13.6865C26.5274 13.6876 26.5552 13.6902 26.5755 13.6913C26.5964 13.6929 26.6237 13.6951 26.6371 13.6967C26.6505 13.6983 26.6644 13.6993 26.6682 13.6999C26.6714 13.6999 26.6778 13.6999 26.6815 13.6999C26.6848 13.7004 26.6987 13.7015 26.7121 13.7031C26.7255 13.7042 26.7469 13.7063 26.7603 13.7079C26.7736 13.709 26.7881 13.7106 26.7924 13.7106C26.7967 13.7111 26.8379 13.7159 26.8834 13.7213C26.9289 13.7266 26.9701 13.7309 26.9744 13.7315C26.9787 13.7315 26.9926 13.7331 27.0049 13.7347C27.0301 13.7379 27.0601 13.7416 27.0906 13.7454C27.1018 13.747 27.135 13.7518 27.1645 13.7561C27.2217 13.7652 27.2432 13.7679 27.2769 13.7722C27.2887 13.7732 27.3128 13.777 27.3304 13.7802C27.3674 13.7871 27.3861 13.7898 27.4161 13.7936C27.4279 13.7952 27.452 13.7989 27.4696 13.8021C27.4873 13.8053 27.5108 13.8086 27.5216 13.8096C27.5323 13.8102 27.544 13.8134 27.5483 13.8155C27.5521 13.8182 27.5628 13.8209 27.5713 13.8214C27.5804 13.8219 27.6008 13.8252 27.6169 13.8284C27.6329 13.8316 27.6549 13.8353 27.665 13.8359C27.6752 13.8369 27.6902 13.8401 27.6982 13.8434C27.7063 13.8466 27.7164 13.8482 27.7207 13.8466C27.725 13.845 27.7336 13.8466 27.74 13.8498C27.7459 13.853 27.7603 13.8567 27.771 13.8578C27.8069 13.8616 27.8444 13.8691 27.8513 13.8733C27.8556 13.8755 27.8674 13.8787 27.8781 13.8792C27.8888 13.8803 27.9113 13.884 27.9274 13.8873C27.9434 13.8905 27.9675 13.8948 27.9809 13.8969C27.9943 13.8996 28.0104 13.9044 28.0173 13.9081C28.0243 13.9119 28.0334 13.9135 28.0382 13.9119C28.0425 13.9103 28.051 13.9113 28.0575 13.9151C28.0687 13.921 28.0773 13.9231 28.1442 13.9344C28.1592 13.9365 28.1763 13.9419 28.1833 13.9456C28.1902 13.9494 28.1993 13.951 28.2036 13.9494C28.2079 13.9478 28.2202 13.9499 28.2309 13.9542C28.2411 13.9585 28.2561 13.9622 28.2641 13.9622C28.2716 13.9627 28.2839 13.966 28.2914 13.9702C28.2989 13.9745 28.3128 13.9777 28.3225 13.9783C28.3321 13.9783 28.3471 13.9815 28.3551 13.9858C28.3632 13.99 28.3771 13.9933 28.3857 13.9933C28.3942 13.9927 28.4092 13.997 28.4194 14.0018C28.429 14.0072 28.4403 14.0099 28.4445 14.0083C28.4494 14.0066 28.4622 14.0099 28.4735 14.0157C28.4852 14.0216 28.5024 14.0265 28.512 14.0265C28.5216 14.027 28.5356 14.0302 28.5431 14.0345C28.5505 14.0388 28.565 14.042 28.5757 14.0425C28.5859 14.0425 28.5993 14.0463 28.6052 14.0505C28.6105 14.0548 28.6234 14.0586 28.633 14.0586C28.6426 14.0586 28.6576 14.0623 28.6662 14.0666C28.6753 14.0714 28.6914 14.0757 28.7021 14.0768C28.7133 14.0779 28.7299 14.0827 28.7385 14.0875C28.7476 14.0923 28.7615 14.0961 28.7695 14.0961C28.7775 14.0961 28.7941 14.1009 28.8059 14.1073C28.8182 14.1132 28.8305 14.1169 28.8343 14.1159C28.838 14.1143 28.8541 14.1191 28.8696 14.126C28.8857 14.133 28.906 14.1383 28.9141 14.1389C28.9221 14.1389 28.9382 14.1437 28.9499 14.1496C28.9617 14.1555 28.9772 14.1603 28.9847 14.1603C28.9922 14.1603 29.0078 14.1651 29.0195 14.171C29.0313 14.1769 29.0468 14.1817 29.0543 14.1817C29.0618 14.1817 29.0774 14.1865 29.0891 14.1924C29.1009 14.1983 29.1164 14.2031 29.1239 14.2031C29.1314 14.2031 29.1496 14.209 29.1641 14.2165C29.1785 14.224 29.1962 14.2299 29.2037 14.2299C29.2107 14.2299 29.2294 14.2358 29.2455 14.2433C29.261 14.2508 29.2803 14.2567 29.2878 14.2567C29.2953 14.2567 29.3124 14.2626 29.3252 14.269C29.3381 14.2759 29.3584 14.2834 29.3702 14.2856C29.3815 14.2877 29.4023 14.2957 29.4168 14.3027C29.4307 14.3097 29.4473 14.3156 29.4532 14.3156C29.4596 14.3156 29.481 14.3225 29.5014 14.3316C29.5217 14.3402 29.5421 14.3477 29.5469 14.3477C29.5522 14.3477 29.5747 14.3562 29.5977 14.3664C29.6208 14.3766 29.6438 14.3852 29.6491 14.3852C29.655 14.3852 29.6738 14.3921 29.6914 14.4007C29.7091 14.4092 29.7321 14.4178 29.7423 14.42C29.7525 14.4221 29.7744 14.4307 29.7905 14.4387C29.8071 14.4473 29.8312 14.4564 29.844 14.4601C29.8569 14.4639 29.8815 14.4735 29.8981 14.4821C29.9147 14.4901 29.9404 14.4997 29.9543 14.5035C29.9688 14.5067 29.995 14.5174 30.0127 14.527C30.0303 14.5367 30.0576 14.5484 30.0737 14.5533C30.0898 14.5581 30.1187 14.5699 30.1379 14.58C30.1572 14.5902 30.184 14.6009 30.1974 14.6047C30.2108 14.6079 30.2413 14.6213 30.2648 14.6341C30.2889 14.6464 30.3216 14.6614 30.3371 14.6662C30.3532 14.6716 30.3938 14.6898 30.4276 14.7064C30.4613 14.7235 30.495 14.739 30.5025 14.7412C30.533 14.7492 31.0127 14.988 31.137 15.0571C31.1958 15.0897 31.2911 15.1427 31.3484 15.1748C31.4662 15.2402 31.5738 15.3028 31.6804 15.3676C31.72 15.3917 31.7923 15.435 31.841 15.4639C31.8897 15.4928 31.9689 15.5432 32.0176 15.5758C32.0664 15.609 32.1253 15.6476 32.1488 15.662C32.1724 15.6765 32.2098 15.7016 32.2318 15.7177C32.2537 15.7338 32.2998 15.7659 32.3335 15.7889C32.3935 15.8296 32.4561 15.874 32.5252 15.926C32.5439 15.9399 32.5803 15.9667 32.6066 15.9859C32.6323 16.0052 32.6655 16.0304 32.6799 16.0421C32.6944 16.0539 32.7174 16.0716 32.7302 16.0812C32.7431 16.0909 32.7709 16.1123 32.7918 16.1294C32.8132 16.146 32.8453 16.1717 32.8635 16.1867C32.8817 16.2011 32.9096 16.2242 32.9251 16.2376C32.9406 16.2509 32.9733 16.2782 32.9974 16.2991C33.2512 16.5133 33.5312 16.7917 33.7212 17.0203C34.1067 17.4823 34.3449 17.9251 34.4611 18.3946C34.5168 18.62 34.5312 18.7426 34.5307 18.9867C34.5302 19.1082 34.5275 19.1634 34.5189 19.241C34.5125 19.2956 34.5061 19.3459 34.505 19.3534C34.5034 19.3609 34.4996 19.3802 34.497 19.3963C34.4938 19.4123 34.4879 19.4439 34.4831 19.4659C34.4782 19.4878 34.4723 19.5157 34.4697 19.5274C34.4654 19.5478 34.46 19.5681 34.4477 19.6104C34.4445 19.6206 34.4418 19.6345 34.4413 19.6409C34.4408 19.6474 34.4386 19.6543 34.4365 19.6565C34.4338 19.6586 34.4322 19.665 34.4322 19.6704C34.4322 19.6757 34.43 19.6843 34.4274 19.6897C34.4247 19.6945 34.4188 19.7105 34.414 19.7255C34.4022 19.7646 34.392 19.7919 34.3878 19.7957C34.3856 19.7978 34.384 19.8042 34.384 19.8096C34.384 19.8149 34.3813 19.824 34.3787 19.8299C34.376 19.8358 34.3712 19.8454 34.3679 19.8513C34.3653 19.8572 34.3626 19.8663 34.3626 19.8717C34.3626 19.877 34.3599 19.884 34.3567 19.8872C34.3535 19.8904 34.3503 19.8963 34.3497 19.9001C34.3492 19.9043 34.3449 19.9145 34.3412 19.9236C34.3273 19.9563 34.3203 19.9723 34.3112 19.9959C34.3064 20.0093 34.2989 20.0237 34.2946 20.0285C34.2909 20.0328 34.2876 20.0419 34.2876 20.0478C34.2876 20.0542 34.2855 20.0601 34.2834 20.0612C34.2812 20.0617 34.2727 20.0773 34.2646 20.0949C34.2561 20.1126 34.2475 20.1308 34.2448 20.1351C34.2421 20.1394 34.232 20.1586 34.2223 20.1779C34.2127 20.1972 34.2031 20.2133 34.2009 20.2143C34.1982 20.2154 34.1966 20.2191 34.1966 20.2229C34.1966 20.2266 34.1907 20.2389 34.1832 20.2497C34.1757 20.2604 34.1699 20.2727 34.1699 20.2764C34.1699 20.2807 34.1666 20.2866 34.1624 20.2898C34.1581 20.2936 34.1506 20.3037 34.1458 20.3134C34.1324 20.3391 34.1254 20.3514 34.1104 20.3739C34.1029 20.3856 34.0906 20.4044 34.0831 20.4162C34.0762 20.4279 34.0655 20.4445 34.0596 20.4531C34.0542 20.4617 34.044 20.4772 34.0382 20.4879C34.0317 20.4981 34.0237 20.5077 34.0205 20.5088C34.0173 20.5098 34.0146 20.5136 34.0146 20.5173C34.0146 20.5206 34.0076 20.5318 33.9985 20.542C33.99 20.5521 33.983 20.5634 33.9825 20.5666C33.9825 20.5698 33.9739 20.5816 33.9637 20.5934C33.9536 20.6046 33.945 20.6169 33.945 20.6201C33.945 20.6228 33.938 20.6324 33.9289 20.641C33.9204 20.6496 33.9129 20.6587 33.9129 20.6614C33.9129 20.664 33.9048 20.6758 33.8957 20.6865C33.8535 20.7358 33.8379 20.7556 33.8379 20.7604C33.8379 20.7636 33.8358 20.7668 33.8331 20.7679C33.831 20.7684 33.8219 20.7802 33.8138 20.7936C33.7849 20.8396 33.6404 21.0217 33.5611 21.1121C33.4214 21.2712 33.3111 21.3804 33.2014 21.4676C32.9695 21.6518 32.6028 21.9222 32.2666 22.1561C32.2168 22.1909 32.1552 22.2343 32.1301 22.252C32.1049 22.2702 32.0364 22.3167 31.9775 22.3564C31.9186 22.3954 31.8693 22.4292 31.8677 22.4308C31.8661 22.4324 31.871 22.4302 31.8784 22.4254C31.8859 22.4211 32.0872 22.306 32.3255 22.1695C34.0269 21.1973 34.777 20.7668 34.8096 20.7454C34.9033 20.6822 35.3712 20.4151 35.5029 20.3492C35.5458 20.3278 35.617 20.2903 35.6609 20.2663C35.7053 20.2416 35.7642 20.2116 35.792 20.1993C35.8199 20.187 35.8697 20.1629 35.9018 20.1458C35.9345 20.1287 35.9794 20.1072 36.003 20.0976C36.026 20.0885 36.0619 20.0719 36.0833 20.0601C36.1042 20.0489 36.1374 20.0334 36.1577 20.0253C36.1775 20.0178 36.2123 20.0028 36.2353 19.9911C36.2578 19.9798 36.2899 19.9664 36.306 19.9611C36.3221 19.9557 36.351 19.9434 36.3703 19.9343C36.3895 19.9247 36.4147 19.914 36.4265 19.9102C36.4382 19.9065 36.4613 19.8968 36.4773 19.8888C36.4939 19.8802 36.518 19.8711 36.5309 19.8674C36.5437 19.8636 36.5678 19.8545 36.5844 19.846C36.6005 19.838 36.6219 19.8294 36.6315 19.8272C36.6412 19.8251 36.6642 19.8171 36.6824 19.8085C36.7006 19.8005 36.7241 19.7919 36.7343 19.7898C36.7445 19.7876 36.7654 19.7801 36.7798 19.7732C36.7948 19.7667 36.821 19.7566 36.8387 19.7507C36.8564 19.7448 36.8783 19.7378 36.8869 19.7346C36.9415 19.7159 36.9592 19.71 36.9806 19.7036C36.994 19.6998 37.017 19.6923 37.0314 19.6875C37.0812 19.6714 37.101 19.665 37.1171 19.6597C37.1262 19.6565 37.1476 19.65 37.1653 19.6452C37.2124 19.6324 37.2702 19.6158 37.2884 19.6093C37.2975 19.6061 37.3157 19.6019 37.3296 19.5997C37.3441 19.597 37.358 19.5933 37.3618 19.5911C37.3655 19.589 37.3778 19.5853 37.3901 19.5831C37.4019 19.581 37.4191 19.5772 37.4276 19.574C37.449 19.5665 37.4881 19.5569 37.5079 19.5542C37.517 19.5526 37.5299 19.5494 37.5374 19.5467C37.5449 19.544 37.5604 19.5403 37.5722 19.5381C37.584 19.536 37.6043 19.5323 37.6177 19.5296C37.6311 19.5264 37.6525 19.5221 37.6659 19.5194C37.6792 19.5167 37.7007 19.5124 37.7141 19.5092C37.7553 19.5007 37.8018 19.4916 37.8158 19.4894C37.8233 19.4884 37.8447 19.4851 37.864 19.4819C37.9501 19.4669 38.1225 19.445 38.1772 19.4412C38.2039 19.4396 38.2264 19.437 38.2285 19.4364C38.2371 19.4311 38.402 19.4257 38.5519 19.4262C38.7093 19.4262 38.7902 19.4295 38.8464 19.4364C38.8581 19.438 38.8764 19.4402 38.8876 19.4418C38.8983 19.4434 38.9213 19.4455 38.9395 19.4466C38.9572 19.4482 38.9915 19.453 39.0161 19.4573C39.0407 19.4616 39.0953 19.4718 39.1381 19.4792C39.3234 19.5124 39.5108 19.5719 39.711 19.6597C39.7715 19.6864 39.9417 19.7775 39.9626 19.7946C39.9669 19.7983 39.9798 19.8058 39.991 19.8112C40.0017 19.8171 40.0108 19.823 40.0108 19.8246C40.0108 19.8262 40.0199 19.8321 40.0312 19.838C40.0419 19.8438 40.0531 19.8513 40.0552 19.8551C40.0574 19.8588 40.0617 19.862 40.0649 19.862C40.0692 19.862 40.1495 19.9193 40.1714 19.9381C40.1757 19.9418 40.1918 19.9547 40.2068 19.9664C40.248 19.9991 40.2924 20.0371 40.331 20.0746C40.3497 20.0933 40.3658 20.1083 40.3668 20.1083C40.3717 20.1083 40.4487 20.1881 40.4514 20.1956C40.4536 20.2009 40.4584 20.2047 40.4632 20.2047C40.4675 20.2047 40.4712 20.2084 40.4712 20.2127C40.4712 20.217 40.4761 20.2229 40.4814 20.2261C40.4873 20.2288 40.4937 20.2363 40.4953 20.2422C40.4969 20.248 40.5023 20.2529 40.5066 20.2529C40.5109 20.2529 40.5162 20.2572 40.5178 20.262C40.52 20.2673 40.5264 20.2764 40.5323 20.2828C40.5387 20.2893 40.5483 20.3005 40.5542 20.3085C40.5601 20.3166 40.5703 20.3284 40.5772 20.3342C40.5837 20.3407 40.589 20.3482 40.589 20.3508C40.589 20.3535 40.5944 20.3615 40.6013 20.368C40.6078 20.3749 40.6174 20.3862 40.6222 20.3931C40.627 20.3996 40.6377 20.4129 40.6452 20.422C40.6527 20.4317 40.6586 20.4419 40.6586 20.4451C40.6586 20.4477 40.6634 20.4531 40.6693 20.4563C40.6752 20.4595 40.68 20.4654 40.68 20.4692C40.68 20.4729 40.6854 20.4825 40.6923 20.49C40.7143 20.5157 40.7282 20.5355 40.7282 20.5409C40.7282 20.5436 40.732 20.5489 40.7368 20.5527C40.7411 20.557 40.748 20.5677 40.7523 20.5778C40.7566 20.5875 40.7625 20.5955 40.7652 20.5955C40.7684 20.5955 40.771 20.5987 40.771 20.603C40.771 20.6073 40.7769 20.618 40.7844 20.6266C40.7919 20.6357 40.7978 20.6464 40.7978 20.6507C40.7978 20.6555 40.801 20.6614 40.8053 20.6635C40.8096 20.6656 40.8166 20.6769 40.8208 20.6876C40.8257 20.6988 40.8315 20.7079 40.8348 20.7079C40.8374 20.7079 40.8412 20.7149 40.8433 20.7235C40.8449 20.732 40.8514 20.7433 40.8572 20.7486C40.8626 20.7534 40.8674 20.762 40.8674 20.7668C40.8674 20.7716 40.8722 20.7802 40.8781 20.7856C40.884 20.7909 40.8888 20.7995 40.8888 20.8043C40.8888 20.8097 40.8931 20.8193 40.899 20.8263C40.9044 20.8332 40.9108 20.845 40.9129 20.8525C40.9151 20.86 40.9215 20.8718 40.9268 20.8787C40.9327 20.8857 40.937 20.8948 40.937 20.8991C40.937 20.9033 40.9418 20.913 40.9477 20.9205C40.9536 20.928 40.9584 20.9381 40.9584 20.9435C40.9584 20.9489 40.9627 20.9585 40.9681 20.9655C40.974 20.9724 40.9798 20.9853 40.982 20.9938C40.9841 21.0024 40.9906 21.0158 40.9964 21.0227C41.0018 21.0302 41.0066 21.0409 41.0066 21.0463C41.0066 21.0522 41.0114 21.0629 41.0173 21.0704C41.0232 21.0779 41.028 21.0897 41.028 21.0961C41.028 21.1025 41.0323 21.1138 41.0382 21.1207C41.0436 21.1277 41.0494 21.1421 41.0516 21.1528C41.0537 21.1641 41.0585 21.1753 41.0628 21.1791C41.0671 21.1828 41.0719 21.1941 41.0741 21.2053C41.0762 21.216 41.0816 21.2315 41.0869 21.2406C41.0923 21.2492 41.0976 21.2653 41.0998 21.276C41.1019 21.2872 41.1067 21.2985 41.111 21.3022C41.1153 21.306 41.119 21.3151 41.119 21.3231C41.119 21.3306 41.1249 21.3488 41.1324 21.3638C41.1394 21.3782 41.1458 21.3959 41.1458 21.4029C41.1458 21.4093 41.1506 21.4237 41.1565 21.4344C41.1624 21.4457 41.1672 21.4607 41.1672 21.4682C41.1672 21.4757 41.1715 21.4901 41.1769 21.5003C41.1828 21.5105 41.1886 21.5292 41.1902 21.541C41.1924 21.5533 41.1988 21.5736 41.2047 21.5865C41.2106 21.5993 41.2154 21.617 41.2154 21.6261C41.2154 21.6347 41.2202 21.6518 41.2261 21.6636C41.232 21.6754 41.2363 21.693 41.2368 21.7027C41.2368 21.7123 41.2416 21.7316 41.247 21.7455C41.2529 21.7594 41.2588 21.7835 41.2609 21.7996C41.2625 21.8156 41.2679 21.8354 41.2722 21.844C41.2764 21.852 41.2823 21.8751 41.2845 21.8954C41.2872 21.9152 41.293 21.9404 41.2979 21.9511C41.3027 21.9623 41.3064 21.9821 41.3064 21.995C41.3064 22.0084 41.3107 22.0319 41.3166 22.0474C41.3219 22.063 41.3289 22.0962 41.3321 22.1213C41.3353 22.1465 41.3418 22.1802 41.3466 22.1963C41.3509 22.2123 41.3546 22.2364 41.3546 22.2498C41.3546 22.2632 41.3594 22.2916 41.3653 22.3135C41.3712 22.3355 41.376 22.3671 41.376 22.3831C41.376 22.3997 41.3808 22.4335 41.3862 22.4586C41.3921 22.4838 41.398 22.5293 41.4001 22.5603C41.4023 22.5914 41.4071 22.6331 41.4114 22.654C41.4156 22.6744 41.4215 22.7322 41.4242 22.7825C41.4274 22.8323 41.4322 22.8842 41.4349 22.8976C41.4376 22.911 41.4424 22.9833 41.4456 23.0582C41.4515 23.2114 41.4547 23.2462 41.4622 23.2344C41.4649 23.2301 41.467 23.2965 41.467 23.4019C41.467 23.5545 41.4681 23.5775 41.4751 23.5775C41.482 23.5775 41.4831 23.6011 41.4831 23.7596C41.4831 23.918 41.482 23.9416 41.4751 23.9416C41.4681 23.9416 41.467 23.9555 41.467 24.0332C41.467 24.0862 41.4649 24.1231 41.4622 24.1215C41.4563 24.1177 41.4526 24.1756 41.4483 24.3228C41.4467 24.3806 41.4419 24.454 41.4376 24.4861C41.4338 24.5177 41.429 24.5787 41.4269 24.6215C41.4247 24.6644 41.4199 24.72 41.4156 24.7457C41.4114 24.7714 41.4055 24.8266 41.4028 24.8689C41.4001 24.9112 41.3953 24.9551 41.3921 24.9668C41.3894 24.9786 41.3846 25.0193 41.3814 25.0579C41.3787 25.0959 41.3733 25.136 41.3707 25.1462C41.3675 25.1564 41.3626 25.1901 41.36 25.2212C41.3573 25.2517 41.3514 25.294 41.3466 25.3148C41.3423 25.3352 41.3364 25.3727 41.3337 25.3978C41.3311 25.423 41.3252 25.4626 41.3203 25.4862C41.3161 25.5097 41.3096 25.5445 41.3064 25.5638C41.3011 25.5986 41.2968 25.6211 41.2818 25.7003C41.277 25.7239 41.27 25.7635 41.2663 25.7886C41.2625 25.8138 41.2566 25.8411 41.2534 25.8502C41.2502 25.8588 41.2454 25.8818 41.2427 25.9011C41.2406 25.9204 41.2347 25.9514 41.2299 25.9707C41.225 25.99 41.2192 26.0189 41.2159 26.0349C41.2127 26.051 41.2079 26.074 41.2052 26.0858C41.1902 26.1447 41.1811 26.1859 41.1747 26.2196C41.171 26.24 41.164 26.2678 41.1597 26.2807C41.1549 26.2935 41.1512 26.3101 41.1512 26.3181C41.1512 26.3262 41.1463 26.346 41.1405 26.3631C41.1346 26.3797 41.1297 26.399 41.1297 26.4059C41.1297 26.4134 41.126 26.4295 41.1212 26.4423C41.1164 26.4552 41.1094 26.4804 41.1051 26.498C41.095 26.5441 41.0816 26.5971 41.0751 26.6158C41.0719 26.6244 41.0671 26.6415 41.0644 26.6533C41.0618 26.6651 41.0548 26.6902 41.0489 26.7095C41.0436 26.7288 41.0328 26.7657 41.0254 26.7925C41.0179 26.8187 41.0066 26.8551 41.0007 26.8728C40.9954 26.8905 40.9906 26.9097 40.9906 26.9156C40.99 26.9215 40.9857 26.936 40.9798 26.9477C40.974 26.9595 40.9691 26.975 40.9691 26.9825C40.9691 26.99 40.9654 27.0029 40.9606 27.012C40.9563 27.0205 40.9499 27.0398 40.9467 27.0548C40.9434 27.0693 40.9392 27.0843 40.9365 27.0875C40.9343 27.0901 40.9284 27.1062 40.9242 27.1223C40.9199 27.1383 40.9118 27.163 40.907 27.1779C40.8937 27.2176 40.8813 27.255 40.8706 27.285C40.8658 27.2995 40.8583 27.3225 40.854 27.3359C40.8417 27.3766 40.8289 27.4124 40.8187 27.4355C40.8128 27.4478 40.8085 27.4606 40.8085 27.4638C40.8085 27.4676 40.8042 27.4815 40.7984 27.4954C40.793 27.5093 40.7818 27.5388 40.7737 27.5607C40.7657 27.5827 40.755 27.6116 40.7496 27.625C40.74 27.6496 40.7341 27.6667 40.7175 27.7139C40.7122 27.7288 40.7052 27.746 40.702 27.7513C40.6988 27.7567 40.6923 27.7717 40.6881 27.784C40.6838 27.7968 40.6763 27.8172 40.672 27.8295C40.6677 27.8423 40.6602 27.8589 40.6559 27.867C40.6517 27.8745 40.6479 27.8841 40.6479 27.8884C40.6479 27.8921 40.642 27.9071 40.6345 27.9221C40.6276 27.9366 40.6211 27.9521 40.6211 27.9553C40.6211 27.9591 40.6163 27.9698 40.6104 27.9794C40.6045 27.989 40.5997 28.0008 40.5997 28.0051C40.5997 28.0094 40.5944 28.0238 40.5885 28.0372C40.5767 28.0613 40.5714 28.0736 40.5435 28.1389C40.5355 28.1582 40.5248 28.1834 40.5194 28.1952C40.5141 28.2069 40.5028 28.2321 40.4948 28.2514C40.4868 28.2706 40.4718 28.3044 40.4616 28.3263C40.4514 28.3483 40.4375 28.3799 40.43 28.3959C40.4231 28.412 40.4113 28.4371 40.4043 28.4521C40.3968 28.4666 40.3786 28.5051 40.3636 28.5378C40.3283 28.6128 40.2041 28.8644 40.18 28.9088C40.1698 28.9276 40.1602 28.9468 40.1586 28.9516C40.1564 28.957 40.1484 28.9725 40.1404 28.9875C40.1323 29.002 40.1125 29.0384 40.097 29.0678C40.0809 29.0973 40.059 29.138 40.0478 29.1578C40.036 29.1781 40.0269 29.1958 40.0269 29.1974C40.0269 29.199 40.0226 29.2065 40.0167 29.214C40.0113 29.222 39.999 29.244 39.9889 29.2632C39.9792 29.2825 39.9621 29.3125 39.9509 29.3307C39.9396 29.3489 39.9305 29.365 39.9305 29.3666C39.9305 29.3682 39.9166 29.3933 39.8995 29.4222C39.8818 29.4512 39.8406 29.5202 39.8074 29.5764C39.7742 29.6321 39.7367 29.6937 39.7244 29.7129C39.7121 29.7322 39.6896 29.7681 39.6741 29.7933C39.6585 29.8184 39.635 29.8564 39.6211 29.8778C39.6071 29.8993 39.5739 29.9507 39.5466 29.993C39.5199 30.0347 39.476 30.1 39.4497 30.1386C39.423 30.1766 39.3801 30.2392 39.3539 30.2767C39.2356 30.448 39.1178 30.6086 38.9647 30.8078C38.9181 30.8678 38.7741 31.046 38.6922 31.144C38.6574 31.1858 38.622 31.2286 38.6135 31.2388C38.5723 31.2886 38.5541 31.3094 38.5359 31.3282C38.5246 31.3394 38.5096 31.3571 38.5021 31.3673C38.4946 31.3774 38.4839 31.3897 38.4791 31.394C38.4743 31.3983 38.4422 31.4347 38.4074 31.4743C38.3731 31.514 38.341 31.5504 38.3362 31.5546C38.3313 31.5589 38.3051 31.5868 38.2783 31.6162C38.2521 31.6457 38.2232 31.6772 38.2141 31.6858C38.2055 31.6949 38.1611 31.742 38.1156 31.7902C38.0165 31.8946 37.8179 32.0932 37.7012 32.2051C37.6546 32.249 37.6091 32.2929 37.6 32.302C37.5904 32.3117 37.5529 32.3459 37.516 32.3791C37.479 32.4123 37.4394 32.4487 37.4276 32.46C37.3944 32.491 37.2868 32.5863 37.2376 32.6281C37.2129 32.6484 37.1856 32.673 37.1765 32.6821C37.1674 32.6912 37.1492 32.7068 37.1358 32.7169C37.1225 32.7266 37.1101 32.7378 37.1075 32.741C37.1053 32.7448 37.0866 32.7598 37.0662 32.7748C37.0454 32.7898 37.0288 32.8042 37.0288 32.8063C37.0288 32.809 37.0175 32.8192 37.0036 32.8294C36.9892 32.839 36.9656 32.8583 36.9506 32.8717C36.9254 32.8936 36.9046 32.9107 36.8398 32.9616C36.8275 32.9712 36.8028 32.9911 36.7852 33.0055C36.7477 33.0366 36.6931 33.0789 36.6599 33.1035C36.6465 33.1126 36.624 33.1308 36.609 33.1431C36.594 33.1559 36.5673 33.1758 36.5496 33.1881C36.5319 33.2004 36.5041 33.2218 36.488 33.2357C36.472 33.2496 36.4452 33.27 36.4281 33.2802C36.4115 33.2909 36.3863 33.3096 36.3719 33.3219C36.3579 33.3348 36.3296 33.3556 36.3087 33.3685C36.2883 33.3819 36.2557 33.4054 36.2364 33.4204C36.2171 33.4359 36.1834 33.46 36.1615 33.474C36.1395 33.4879 36.1068 33.5109 36.0886 33.5248C36.071 33.5387 36.0239 33.5714 35.9842 33.5971C35.9452 33.6228 35.8997 33.6538 35.8831 33.6662C35.867 33.6785 35.8161 33.7122 35.7706 33.7406C35.7251 33.7695 35.6646 33.8086 35.6368 33.8278C35.5688 33.875 35.1458 34.1293 35.012 34.2037C34.9847 34.2192 34.9413 34.2433 34.9156 34.2577C34.7202 34.367 34.6303 34.4151 34.5018 34.4789C34.2925 34.5822 34.2004 34.6266 34.1624 34.6405C34.1442 34.6475 34.1158 34.6609 34.0997 34.67C34.0831 34.6791 34.0531 34.6925 34.0328 34.6994C34.0125 34.7064 33.9793 34.7203 33.9584 34.7305C33.938 34.7407 33.9113 34.7524 33.8995 34.7562C33.8877 34.7599 33.8668 34.7685 33.8535 34.7755C33.8401 34.7819 33.8122 34.7926 33.7919 34.799C33.7715 34.8054 33.7501 34.814 33.7437 34.8178C33.7373 34.822 33.7121 34.8322 33.6875 34.8408C33.6629 34.8499 33.6307 34.8611 33.6157 34.8665C33.6013 34.8713 33.5724 34.882 33.5515 34.89C33.5017 34.9093 33.4664 34.9216 33.4337 34.9307C33.4193 34.9345 33.3962 34.9425 33.3829 34.9484C33.3695 34.9537 33.3491 34.9607 33.3373 34.9639C33.3159 34.9693 33.309 34.9714 33.257 34.9891C33.2426 34.9939 33.2233 34.9992 33.2142 35.0009C33.2056 35.0019 33.1864 35.0078 33.1714 35.0132C33.143 35.0233 33.1098 35.0324 33.075 35.0399C33.0632 35.0421 33.0466 35.0469 33.0375 35.0496C33.0049 35.0608 32.9615 35.0721 32.9497 35.0721C32.9433 35.0721 32.9331 35.0747 32.9278 35.0774C32.9224 35.0806 32.9074 35.0838 32.8951 35.0854C32.8828 35.087 32.87 35.0903 32.8668 35.0919C32.8641 35.094 32.8507 35.0972 32.8384 35.0999C32.8255 35.102 32.8052 35.1063 32.7929 35.109C32.78 35.1117 32.7554 35.1165 32.7377 35.1202C32.7201 35.124 32.6949 35.1288 32.6815 35.1315C32.6585 35.1368 32.5798 35.1497 32.545 35.1545C32.4647 35.1657 32.2912 35.1882 32.2827 35.1888C32.2768 35.1888 32.2586 35.1898 32.2425 35.1914C32.0696 35.208 31.7152 35.2043 31.6081 35.1839C31.5936 35.1813 31.5695 35.1781 31.5545 35.1765C31.5401 35.1743 31.4989 35.1684 31.4635 35.1625C31.4079 35.1534 31.3838 35.1486 31.3484 35.139C31.3441 35.1379 31.3077 35.1283 31.2676 35.1181C31.1809 35.0956 31.0995 35.0699 31.0609 35.0528C31.0459 35.0458 31.0304 35.0399 31.0277 35.0399C31.0245 35.0399 31.0176 35.0378 31.0122 35.0351C31.0074 35.0324 30.9972 35.0282 30.9897 35.0249C30.9822 35.0223 30.9581 35.011 30.9362 35.0009C30.9142 34.9907 30.8864 34.9778 30.8746 34.9725C30.8628 34.9671 30.8521 34.9618 30.8505 34.9602C30.8489 34.958 30.8361 34.9505 30.8211 34.943C30.7852 34.9248 30.7145 34.8841 30.7113 34.8799C30.707 34.8745 30.6878 34.8633 30.6781 34.86C30.6728 34.8579 30.6685 34.8547 30.6685 34.852C30.6685 34.8493 30.6631 34.8445 30.6567 34.8418C30.6385 34.8338 30.6235 34.8242 30.6187 34.8167C30.6166 34.8129 30.6107 34.8097 30.6064 34.8097C30.6021 34.8097 30.5973 34.806 30.5957 34.8017C30.5935 34.7974 30.5898 34.7937 30.586 34.7937C30.5828 34.7937 30.5759 34.7894 30.5711 34.784C30.5539 34.7669 30.5427 34.7578 30.5336 34.7546C30.5282 34.7524 30.5239 34.7487 30.5239 34.7455C30.5239 34.7428 30.5202 34.7401 30.5159 34.7401C30.5116 34.7401 30.5057 34.7353 30.5025 34.7294C30.4993 34.7235 30.4934 34.7187 30.4891 34.7187C30.4849 34.7187 30.4811 34.715 30.4811 34.7107C30.4811 34.7064 30.479 34.7026 30.4763 34.7026C30.4693 34.7026 30.434 34.67 30.3714 34.6063C30.3408 34.5752 30.3109 34.5452 30.305 34.5388C30.2986 34.5324 30.2937 34.526 30.2937 34.5238C30.2937 34.5163 30.2579 34.4831 30.2498 34.4831C30.2386 34.4831 30.1952 34.5078 30.1861 34.519C30.1797 34.527 30.1792 34.7878 30.1824 36.3436C30.184 37.3415 30.1861 38.8245 30.1867 39.6377C30.1877 41.0768 30.1877 41.118 30.1781 41.1309C30.1722 41.1384 30.0774 41.1967 29.9672 41.2605C29.8569 41.3247 29.6363 41.4521 29.4773 41.5447C29.3183 41.6368 29.0447 41.7953 28.8696 41.897C28.6946 41.9987 28.4237 42.1556 28.2673 42.2461C28.1115 42.3366 27.8851 42.4677 27.7641 42.5379C27.6436 42.608 27.3941 42.7525 27.21 42.8591C27.0258 42.9656 26.7308 43.1369 26.5541 43.2392C26.3775 43.3415 26.1644 43.4651 26.0803 43.5133C25.9963 43.562 25.9224 43.6065 25.916 43.6124C25.9063 43.6215 25.9026 43.622 25.8919 43.6161C25.8854 43.6129 25.6349 43.4683 25.3361 43.2954C24.6311 42.8875 24.1776 42.6257 22.7904 41.8247C22.1635 41.4623 21.2994 40.9639 20.8711 40.7165C20.4428 40.4692 19.9572 40.1892 19.7923 40.0944C19.6274 39.9991 19.4807 39.9135 19.4657 39.9038C19.4513 39.8942 19.3887 39.8562 19.3265 39.8198C19.265 39.7828 19.1815 39.7325 19.1418 39.7073C19.1022 39.6822 18.1096 39.105 16.9361 38.4251C15.7625 37.7446 14.7357 37.1493 14.6538 37.1017C14.5719 37.0546 14.4996 37.0155 14.4937 37.0155C14.4878 37.0155 14.3754 36.9534 14.2437 36.8768C13.7897 36.6139 13.0942 36.2108 12.8806 36.0866C12.7628 36.0181 12.5979 35.9222 12.5139 35.874C12.4298 35.8253 12.2253 35.7065 12.0588 35.6101C11.8923 35.5137 11.4988 35.2851 11.1835 35.1026C10.8687 34.92 10.5373 34.7278 10.4473 34.6759L10.284 34.5811L10.2824 31.3319C10.2808 28.4168 10.2953 16.8912 10.3006 16.8859C10.3017 16.8848 10.3156 16.8891 10.3322 16.895C10.3644 16.9073 10.3697 16.9068 10.4018 16.8854C10.4136 16.8779 10.4366 16.8645 10.4527 16.8564C10.4687 16.8479 10.488 16.8366 10.4955 16.8318C10.503 16.8265 10.518 16.8174 10.5292 16.8109C10.54 16.805 10.5571 16.7954 10.5667 16.7901C10.5758 16.7847 10.5962 16.7735 10.6106 16.7654C10.6256 16.7569 10.6401 16.7483 10.6427 16.7462C10.646 16.744 10.6567 16.7371 10.6668 16.7317C10.677 16.7258 10.6979 16.7146 10.7123 16.7065C10.7273 16.698 10.7418 16.6894 10.7445 16.6873C10.7477 16.6851 10.7584 16.6782 10.7686 16.6723C10.7852 16.6632 10.8183 16.6439 10.8756 16.6107C10.8858 16.6048 10.9051 16.5941 10.9179 16.5866C10.9313 16.5791 10.9543 16.5663 10.9688 16.5572C10.9982 16.54 11.0095 16.5336 11.063 16.5026C11.0823 16.4913 11.1053 16.4785 11.1139 16.4731C11.123 16.4678 11.1455 16.4549 11.1647 16.4437C11.2183 16.4126 11.2295 16.4062 11.259 16.3891C11.2734 16.38 11.2964 16.3666 11.3098 16.3596C11.3425 16.3409 11.4372 16.2863 11.4565 16.275C11.4795 16.2616 11.539 16.2274 11.5609 16.2151C11.5711 16.2092 11.5823 16.2022 11.585 16.2001C11.5882 16.1979 11.5989 16.191 11.6091 16.1856C11.6193 16.1797 11.6402 16.1685 11.6546 16.1605C11.6696 16.1519 11.6841 16.1433 11.6867 16.1412C11.6899 16.139 11.7006 16.1321 11.7108 16.1267C11.721 16.1208 11.7419 16.1096 11.7563 16.101C11.7713 16.093 11.7895 16.0818 11.7976 16.0764C11.805 16.0705 11.8131 16.0662 11.8141 16.0662C11.8158 16.0662 11.8447 16.0502 11.8779 16.0309C11.9111 16.0111 11.9491 15.9891 11.9619 15.9816C11.9753 15.9741 11.9983 15.9613 12.0128 15.9522C12.0422 15.9351 12.0535 15.9286 12.107 15.8976C12.1263 15.8863 12.1493 15.8735 12.1579 15.8681C12.167 15.8628 12.1894 15.8499 12.2087 15.8387C12.2623 15.8076 12.2735 15.8012 12.3029 15.7841C12.3174 15.775 12.3404 15.7621 12.3538 15.7546C12.3667 15.7472 12.3859 15.7364 12.3961 15.7306C12.4063 15.7247 12.4304 15.7107 12.4496 15.6995C12.4689 15.6883 12.4919 15.6754 12.5005 15.6701C12.5225 15.6572 12.5819 15.6229 12.6049 15.6101C12.6151 15.6042 12.6263 15.5972 12.629 15.5951C12.6322 15.593 12.6429 15.586 12.6531 15.5806C12.6633 15.5748 12.6841 15.5635 12.6986 15.5555C12.7136 15.5469 12.728 15.5384 12.7307 15.5362C12.7339 15.5341 12.7446 15.5271 12.7548 15.5218C12.765 15.5159 12.7859 15.5046 12.8003 15.4966C12.8153 15.488 12.8298 15.4795 12.8324 15.4773C12.8356 15.4752 12.8469 15.4682 12.8581 15.4618C12.8688 15.4554 12.886 15.4463 12.8956 15.4409C12.9047 15.4356 12.9251 15.4243 12.9395 15.4158C12.9545 15.4077 12.9727 15.3965 12.9807 15.3911C12.9882 15.3852 12.9957 15.381 12.9973 15.381C12.9989 15.381 13.0193 15.3697 13.0423 15.3563C13.0851 15.3306 13.0905 15.3274 13.151 15.2926C13.1703 15.2814 13.1933 15.2685 13.2018 15.2632C13.2109 15.2578 13.2334 15.245 13.2527 15.2337C13.272 15.2225 13.2955 15.2091 13.3052 15.2037C13.3143 15.1979 13.3303 15.1893 13.34 15.1834C13.3491 15.178 13.3726 15.1647 13.3919 15.1534C13.4112 15.1422 13.4342 15.1293 13.4428 15.124C13.4519 15.1186 13.4744 15.1058 13.4936 15.0945C13.5541 15.0597 13.5595 15.0565 13.6023 15.0308C13.6253 15.0174 13.6451 15.0062 13.6462 15.0062C13.6467 15.0062 13.6698 14.9928 13.6965 14.9767C13.7238 14.9607 13.7469 14.9473 13.7485 14.9473C13.7501 14.9473 13.7613 14.9403 13.7736 14.9323C13.7859 14.9243 13.8095 14.9104 13.8256 14.9023C13.8416 14.8938 13.8614 14.8825 13.8695 14.8766C13.877 14.8713 13.885 14.867 13.8871 14.867C13.8893 14.867 13.8973 14.8627 13.9048 14.8568C13.9187 14.8472 13.9262 14.8429 13.9835 14.8113C13.9985 14.8027 14.0129 14.7942 14.0156 14.792C14.0188 14.7899 14.0295 14.7829 14.0397 14.7776C14.0499 14.7717 14.0708 14.7605 14.0852 14.7524C14.1002 14.7439 14.1147 14.7353 14.1173 14.7332C14.1206 14.731 14.1313 14.724 14.1414 14.7182C14.158 14.7091 14.1912 14.6898 14.2485 14.6566C14.2587 14.6507 14.278 14.64 14.2908 14.6325C14.3042 14.625 14.3272 14.6122 14.3417 14.6031C14.3711 14.5859 14.3823 14.5795 14.4359 14.5484C14.4552 14.5372 14.4782 14.5244 14.4867 14.519C14.4958 14.5136 14.5183 14.5008 14.5376 14.4896C14.5911 14.4585 14.6024 14.4521 14.6318 14.4349C14.6463 14.4258 14.6693 14.413 14.6827 14.4055C14.6955 14.398 14.7148 14.3873 14.725 14.3814C14.7352 14.3755 14.7593 14.3616 14.7785 14.3504C14.839 14.3156 14.8444 14.3123 14.8872 14.2866C14.9102 14.2733 14.9306 14.262 14.9322 14.262C14.9338 14.262 14.9413 14.2577 14.9488 14.2518C14.9568 14.2465 14.9755 14.2352 14.99 14.2272C15.005 14.2187 15.0253 14.2074 15.0355 14.2015C15.0457 14.1962 15.0569 14.1892 15.0596 14.1871C15.0666 14.1817 15.103 14.1608 15.1238 14.1507C15.1329 14.1464 15.1458 14.1383 15.1533 14.1335C15.1661 14.1244 15.179 14.1169 15.2336 14.0864C15.247 14.0789 15.2732 14.0639 15.292 14.0522C15.3102 14.0409 15.3262 14.0318 15.3273 14.0318C15.3284 14.0318 15.3482 14.0206 15.3712 14.0072C15.414 13.9815 15.4194 13.9783 15.4799 13.9435C15.4991 13.9322 15.5222 13.9194 15.5307 13.914C15.5398 13.9087 15.5623 13.8958 15.5816 13.8846C15.6009 13.8733 15.6244 13.86 15.6341 13.8546C15.6432 13.8487 15.6592 13.8401 15.6689 13.8343C15.678 13.8289 15.7015 13.8155 15.7208 13.8043C15.7401 13.793 15.7631 13.7802 15.7717 13.7748C15.7808 13.7695 15.8032 13.7566 15.8225 13.7454C15.883 13.7106 15.8884 13.7074 15.9312 13.6817C15.9542 13.6683 15.974 13.657 15.9751 13.657C15.9756 13.657 15.9987 13.6437 16.0254 13.6276C16.0527 13.6115 16.0757 13.5982 16.0774 13.5982C16.079 13.5982 16.087 13.5939 16.0945 13.588C16.1084 13.5783 16.1293 13.566 16.1732 13.5419C16.2133 13.52 16.2374 13.5061 16.2519 13.4959C16.2594 13.49 16.2674 13.4857 16.269 13.4857C16.2706 13.4857 16.2936 13.4723 16.3209 13.4563C16.3477 13.4402 16.3707 13.4268 16.3713 13.4268C16.3723 13.4268 16.3922 13.4156 16.4152 13.4022C16.458 13.3765 16.4634 13.3733 16.5239 13.3385C16.5431 13.3273 16.5661 13.3144 16.5747 13.3091C16.5838 13.3037 16.6149 13.286 16.6443 13.2689C16.6738 13.2523 16.7053 13.2341 16.7139 13.2287C16.723 13.2234 16.7455 13.2105 16.7648 13.1993C16.784 13.1881 16.8071 13.1752 16.8156 13.1699C16.8247 13.1645 16.8472 13.1516 16.8665 13.1404C16.92 13.1094 16.9313 13.1029 16.9607 13.0858C16.9752 13.0767 16.9982 13.0633 17.0116 13.0564C17.0683 13.0237 17.139 12.983 17.1663 12.9664C17.1979 12.9477 17.2123 12.9396 17.2546 12.9161C17.2696 12.9075 17.2841 12.899 17.2868 12.8968C17.29 12.8947 17.3007 12.8877 17.3109 12.8824C17.321 12.8765 17.3419 12.8652 17.3564 12.8572C17.3714 12.8486 17.3858 12.8401 17.3885 12.8379C17.3944 12.8331 17.4249 12.816 17.4608 12.7962C17.4741 12.7892 17.4875 12.7812 17.4902 12.779C17.4934 12.7769 17.5052 12.7694 17.517 12.763C17.5288 12.756 17.5491 12.7448 17.5619 12.7373C17.5753 12.7298 17.5984 12.7169 17.6128 12.7078C17.6423 12.6907 17.6535 12.6843 17.707 12.6532C17.7263 12.642 17.7493 12.6291 17.7579 12.6238C17.767 12.6184 17.7895 12.6056 17.8088 12.5943C17.828 12.5831 17.8511 12.5702 17.8596 12.5649C17.8687 12.5595 17.8912 12.5467 17.9105 12.5354C17.9298 12.5242 17.9533 12.5108 17.9629 12.5055C17.972 12.4996 17.9881 12.491 17.9977 12.4851C18.0068 12.4798 18.0293 12.4669 18.047 12.4567C18.0647 12.446 18.1032 12.4241 18.1327 12.4069C18.1621 12.3898 18.1937 12.3721 18.2023 12.3668C18.2114 12.362 18.2371 12.3464 18.2601 12.3325C18.2831 12.3191 18.3034 12.3079 18.3051 12.3079C18.3067 12.3079 18.3142 12.3036 18.3216 12.2977C18.3356 12.2881 18.3431 12.2838 18.4003 12.2522C18.4153 12.2437 18.4298 12.2351 18.4325 12.2329C18.4389 12.2281 18.4742 12.2078 18.4967 12.196C18.5053 12.1917 18.5315 12.1762 18.5545 12.1623C18.5776 12.1484 18.5974 12.1366 18.5984 12.1366C18.5995 12.1366 18.6193 12.1253 18.6423 12.1119C18.6852 12.0863 18.6905 12.083 18.751 12.0482C18.7703 12.037 18.7933 12.0242 18.8019 12.0188C18.811 12.0134 18.8335 12.0006 18.8527 11.9893C18.872 11.9781 18.895 11.9653 18.9036 11.9599C18.9127 11.9546 18.9438 11.9369 18.9732 11.9198C19.0026 11.9032 19.0342 11.885 19.0428 11.8796C19.0519 11.8742 19.0744 11.8614 19.0937 11.8502C19.1129 11.8389 19.136 11.8261 19.1445 11.8207C19.1665 11.8079 19.2259 11.7736 19.2489 11.7607C19.2591 11.7549 19.2703 11.7479 19.273 11.7458C19.2762 11.7436 19.2869 11.7367 19.2971 11.7313C19.3597 11.6965 19.3705 11.6901 19.3828 11.682C19.3903 11.6772 19.4095 11.666 19.4256 11.6574C19.4417 11.6489 19.4738 11.6301 19.4968 11.6162C19.5198 11.6023 19.5402 11.5905 19.5418 11.5905C19.5434 11.5905 19.5659 11.5771 19.5926 11.5611C19.6189 11.545 19.6414 11.5316 19.6424 11.5316C19.6435 11.5316 19.6633 11.5204 19.6863 11.507C19.7292 11.4813 19.7345 11.4781 19.795 11.4433C19.8143 11.432 19.8373 11.4192 19.8459 11.4138C19.855 11.4085 19.8775 11.3956 19.8967 11.3844C19.916 11.3731 19.9396 11.3597 19.9492 11.3544C19.9583 11.3485 19.9744 11.3399 19.984 11.3341C19.9931 11.3287 20.0166 11.3153 20.0359 11.3041C20.0552 11.2928 20.0782 11.28 20.0868 11.2746C20.0959 11.2693 20.1184 11.2564 20.1376 11.2452C20.1569 11.2339 20.1799 11.2211 20.1885 11.2157C20.1976 11.2104 20.2201 11.1975 20.2394 11.1863C20.2586 11.175 20.2817 11.1622 20.2902 11.1568C20.3186 11.1402 20.5017 11.0348 20.5338 11.0166C20.544 11.0107 20.5552 11.0037 20.5579 11.0016C20.5611 10.9994 20.5718 10.9925 20.582 10.9871C20.5922 10.9812 20.6131 10.97 20.6275 10.962C20.6425 10.9534 20.657 10.9448 20.6596 10.9427C20.6628 10.9406 20.6736 10.9336 20.6837 10.9282C20.6939 10.9223 20.7148 10.9111 20.7292 10.9031C20.7442 10.8945 20.7587 10.8859 20.7614 10.8838C20.7646 10.8817 20.7753 10.8747 20.7854 10.8688C20.802 10.8597 20.8352 10.8404 20.8925 10.8072C20.9027 10.8014 20.922 10.7906 20.9348 10.7831C20.9482 10.7757 20.9712 10.7628 20.9857 10.7537C21.0151 10.7366 21.0264 10.7301 21.0799 10.6991C21.0992 10.6879 21.1222 10.675 21.1308 10.6697C21.1399 10.6643 21.1624 10.6514 21.1816 10.6402C21.2009 10.629 21.225 10.615 21.2352 10.6092C21.2453 10.6033 21.2646 10.5926 21.2775 10.5851C21.2908 10.5776 21.3139 10.5647 21.3283 10.5556C21.3578 10.5385 21.369 10.5321 21.4225 10.501C21.4418 10.4898 21.4648 10.4769 21.4734 10.4716C21.4954 10.4587 21.5548 10.4244 21.5778 10.4116C21.588 10.4057 21.5992 10.3988 21.6019 10.3966C21.6051 10.3945 21.6158 10.3875 21.626 10.3822C21.6886 10.3474 21.6993 10.3409 21.7117 10.3329C21.7191 10.3281 21.7384 10.3168 21.7545 10.3083C21.7705 10.2997 21.8027 10.281 21.8257 10.267C21.8487 10.2531 21.8685 10.2414 21.8696 10.2414C21.8707 10.2414 21.8937 10.228 21.921 10.2119C21.9478 10.1958 21.9708 10.1825 21.9713 10.1825C21.9724 10.1825 21.9922 10.1712 22.0152 10.1578C22.058 10.1321 22.0634 10.1289 22.1239 10.0941C22.1432 10.0829 22.1662 10.07 22.1748 10.0647C22.1839 10.0593 22.2063 10.0465 22.2256 10.0352C22.2449 10.024 22.2684 10.0106 22.2781 10.0052C22.2872 9.99936 22.3032 9.9908 22.3129 9.98491C22.322 9.97955 22.3455 9.96617 22.3648 9.95493C22.3841 9.94368 22.4071 9.93083 22.4157 9.92548C22.4248 9.92012 22.4473 9.90728 22.4665 9.89603C22.4858 9.88479 22.5088 9.87194 22.5174 9.86659C22.5367 9.85535 22.5956 9.82108 22.6218 9.80663C22.632 9.80074 22.6464 9.79163 22.6539 9.78682C22.6614 9.782 22.6807 9.77076 22.6967 9.76273C22.7128 9.75416 22.7326 9.74292 22.7406 9.73703C22.7481 9.73167 22.7562 9.72739 22.7583 9.72739C22.7599 9.72739 22.7722 9.71989 22.7851 9.71133C22.7979 9.70223 22.8102 9.69527 22.8118 9.69527C22.814 9.69527 22.837 9.68188 22.8638 9.66582C22.89 9.64976 22.9125 9.63638 22.9136 9.63638C22.9152 9.63638 22.9377 9.62299 22.965 9.60693C22.9917 9.59087 23.0148 9.57748 23.0153 9.57748C23.0164 9.57748 23.0362 9.56624 23.0592 9.55286C23.102 9.52716 23.1074 9.52395 23.1679 9.48915C23.1871 9.47791 23.2112 9.46399 23.2214 9.4581C23.2316 9.45221 23.2509 9.4415 23.2637 9.43401C23.2771 9.42651 23.3001 9.41366 23.3146 9.40456C23.344 9.38743 23.3553 9.381 23.4088 9.34995C23.4281 9.33871 23.4511 9.32586 23.4597 9.32051C23.4688 9.31515 23.4912 9.3023 23.5105 9.29106C23.5641 9.26001 23.5753 9.25358 23.6047 9.23645C23.6192 9.22735 23.6422 9.2145 23.6556 9.207C23.6685 9.19951 23.6877 9.1888 23.6979 9.18291C23.7081 9.17702 23.7322 9.16311 23.7514 9.15186C23.7707 9.14062 23.7937 9.12777 23.8023 9.12242C23.8242 9.10957 23.8837 9.0753 23.9067 9.06245C23.9169 9.05656 23.9281 9.04961 23.9308 9.04746C23.934 9.04532 23.9447 9.03836 23.9549 9.03301C23.965 9.02712 23.9859 9.01588 24.0004 9.00785C24.0154 8.99928 24.0298 8.99072 24.0325 8.98857C24.0357 8.98643 24.0464 8.97947 24.0566 8.97358C24.0732 8.96448 24.1064 8.94521 24.1637 8.91201C24.1738 8.90612 24.1931 8.89542 24.2065 8.88792C24.2199 8.88043 24.2461 8.86544 24.2649 8.85366C24.2831 8.84241 24.2991 8.83331 24.3002 8.83331C24.3013 8.83331 24.3211 8.82207 24.3441 8.80869C24.3869 8.78299 24.3923 8.77978 24.4528 8.74498C24.4721 8.73373 24.4951 8.72089 24.5036 8.71553C24.5127 8.71018 24.5352 8.69733 24.5545 8.68608C24.5738 8.67484 24.5973 8.66146 24.607 8.65611C24.6161 8.65022 24.6321 8.64165 24.6418 8.63576C24.6509 8.63041 24.6744 8.61702 24.6937 8.60578C24.713 8.59454 24.736 8.58169 24.7446 8.57633C24.7665 8.56348 24.8259 8.52922 24.849 8.51637C24.8591 8.51048 24.8704 8.50352 24.873 8.50138C24.8763 8.49924 24.8891 8.49121 24.9025 8.48425C24.9384 8.46444 24.9689 8.44731 24.9748 8.44249C24.978 8.44035 24.9887 8.43339 24.9989 8.42804C25.0561 8.39591 25.0695 8.38842 25.1027 8.36807C25.1231 8.35629 25.1402 8.34612 25.1413 8.34612C25.1423 8.34612 25.1648 8.33274 25.1921 8.31668C25.2189 8.30061 25.2419 8.28723 25.243 8.28723C25.2441 8.28723 25.2666 8.27385 25.2939 8.25779C25.3206 8.24173 25.3436 8.22834 25.3442 8.22834C25.3452 8.22834 25.3651 8.2171 25.3881 8.20371C25.4309 8.17801 25.4363 8.1748 25.4968 8.14C25.516 8.12876 25.5401 8.11484 25.5503 8.10895C25.5605 8.10306 25.5797 8.09235 25.5926 8.08486C25.606 8.07736 25.629 8.06451 25.6435 8.05541C25.6729 8.03828 25.6841 8.03186 25.7377 8.0008C25.757 7.98956 25.78 7.97672 25.7885 7.97136C25.8051 7.96172 25.8614 7.92907 25.8919 7.91193C25.9015 7.90604 25.916 7.89748 25.9235 7.89266C25.9465 7.87713 25.9706 7.86482 25.977 7.86482C25.9802 7.86428 26.9294 8.41037 28.0864 9.07745Z" fill="#E64348"/>
<path d="M23.9645 14.9933C23.9624 14.9949 23.9174 14.9971 23.8639 14.9982C23.8103 14.9987 23.7654 15.0008 23.7638 15.0024C23.7622 15.004 23.7557 15.0035 23.7488 15.0008C23.7418 14.9982 23.7349 14.9976 23.7327 14.9998C23.7311 15.0019 23.7086 15.0035 23.6829 15.004C23.6572 15.0046 23.616 15.0067 23.5908 15.0083C23.5657 15.0105 23.5261 15.0132 23.5025 15.0148C23.442 15.0185 23.3767 15.0244 23.3151 15.0303C23.2948 15.0324 23.2718 15.0351 23.2643 15.0356C23.2568 15.0362 23.2498 15.0372 23.2482 15.0383C23.2466 15.0388 23.2337 15.0405 23.2188 15.0415C23.2043 15.0426 23.185 15.0447 23.1759 15.0458C23.1674 15.0469 23.1347 15.0512 23.1036 15.0544C23.0426 15.0619 23.0378 15.0624 22.9859 15.0704C22.9666 15.0731 22.9382 15.0769 22.9227 15.0785C22.9072 15.0795 22.89 15.0833 22.8841 15.0865C22.8783 15.0897 22.8713 15.0913 22.8692 15.0897C22.867 15.0886 22.8488 15.0908 22.8285 15.0951C22.8087 15.0993 22.7899 15.1015 22.7872 15.0993C22.7846 15.0977 22.7792 15.0983 22.776 15.101C22.7674 15.1063 22.7599 15.1079 22.7235 15.1133C22.6689 15.1218 22.6357 15.1283 22.5715 15.1422C22.5367 15.1502 22.5067 15.155 22.5051 15.1534C22.5035 15.1518 22.4997 15.1529 22.4965 15.1556C22.4933 15.1577 22.4596 15.1663 22.421 15.1743C22.383 15.1823 22.3418 15.1925 22.33 15.1968C22.3177 15.2011 22.3022 15.2043 22.2947 15.2043C22.2877 15.2043 22.2679 15.2091 22.2508 15.215C22.2342 15.2209 22.2165 15.2257 22.2122 15.2257C22.2074 15.2257 22.1898 15.2305 22.1721 15.2364C22.1544 15.2423 22.1298 15.2487 22.118 15.2498C22.1057 15.2514 22.0929 15.2546 22.0896 15.2567C22.0784 15.2637 22.0463 15.2739 22.034 15.2739C22.0275 15.2739 22.0072 15.2798 21.989 15.2873C21.9708 15.2948 21.9504 15.3006 21.944 15.3006C21.9371 15.3006 21.913 15.3076 21.8899 15.3162C21.8669 15.3247 21.8193 15.3403 21.7839 15.3515C21.7486 15.3628 21.6994 15.3799 21.6742 15.3895C21.649 15.3997 21.6244 15.4077 21.6196 15.4077C21.6142 15.4077 21.5891 15.4174 21.5634 15.4286C21.5371 15.4404 21.5039 15.4532 21.4884 15.4575C21.4734 15.4623 21.4456 15.473 21.4268 15.4816C21.4081 15.4902 21.3771 15.5025 21.3583 15.5094C21.3176 15.5234 21.3026 15.5298 21.2379 15.5603C21.2116 15.5726 21.18 15.586 21.1683 15.5897C21.1565 15.5935 21.0965 15.6213 21.0344 15.6513C20.9728 15.6813 20.8936 15.7198 20.8588 15.737C20.8235 15.7536 20.7828 15.7745 20.7678 15.7836C20.7378 15.8012 20.7266 15.8076 20.673 15.8387C20.6538 15.8499 20.6297 15.8639 20.6195 15.8698C20.6093 15.8756 20.5901 15.8863 20.5767 15.8938C20.5633 15.9013 20.5429 15.9131 20.5312 15.9195C20.5194 15.9265 20.4771 15.9501 20.4375 15.9725C20.3979 15.995 20.3352 16.0346 20.2983 16.0609C20.2613 16.0876 20.1939 16.1342 20.1484 16.1647C20.1029 16.1958 20.0579 16.2274 20.0488 16.2359C20.014 16.267 20.0022 16.2761 19.9754 16.2938C19.9599 16.3034 19.9406 16.3179 19.9315 16.3264C19.923 16.3345 19.8962 16.3569 19.8726 16.3757C19.8491 16.3944 19.8229 16.4174 19.8138 16.4271C19.8052 16.4362 19.787 16.4522 19.7736 16.4624C19.7602 16.4726 19.7345 16.4951 19.7163 16.5133C19.6981 16.5309 19.6788 16.5497 19.6735 16.5545C19.6473 16.5791 19.6157 16.6107 19.6055 16.6225C19.5996 16.6294 19.5825 16.6477 19.5675 16.6632C19.523 16.7098 19.4936 16.7429 19.4684 16.7751C19.4551 16.7922 19.4363 16.8147 19.4272 16.8249C19.4176 16.8356 19.4095 16.8468 19.4095 16.85C19.409 16.8532 19.4021 16.8618 19.3935 16.8693C19.3844 16.8763 19.3774 16.8848 19.3774 16.888C19.3774 16.8912 19.3705 16.9025 19.3614 16.9121C19.3528 16.9218 19.3453 16.9319 19.3453 16.9335C19.3453 16.9357 19.3367 16.948 19.3266 16.9608C19.3164 16.9737 19.3078 16.9871 19.3078 16.9903C19.3078 16.9935 19.3046 16.9994 19.3003 17.0026C19.296 17.0064 19.2886 17.0165 19.2837 17.0262C19.2789 17.0358 19.2682 17.054 19.2596 17.0674C19.2511 17.0808 19.242 17.0952 19.2398 17.0995C19.2382 17.1038 19.2307 17.1166 19.2238 17.1273C19.2168 17.1386 19.2115 17.1509 19.2115 17.1552C19.2115 17.1595 19.2077 17.1638 19.2034 17.1659C19.1991 17.1675 19.1954 17.1723 19.1954 17.1761C19.1954 17.1803 19.1868 17.2012 19.1761 17.2232C19.1654 17.2451 19.1547 17.2676 19.1526 17.2735C19.1499 17.2794 19.1424 17.2976 19.1349 17.3137C19.1279 17.3297 19.1183 17.3527 19.1146 17.3645C19.1108 17.3763 19.1055 17.3881 19.1033 17.3913C19.1012 17.394 19.099 17.4004 19.099 17.4057C19.099 17.4111 19.0969 17.4197 19.0942 17.425C19.0915 17.4298 19.0867 17.4448 19.083 17.4582C19.0792 17.4716 19.0744 17.4877 19.0717 17.4946C19.069 17.5016 19.0669 17.5128 19.0669 17.5198C19.0669 17.5267 19.0648 17.5337 19.0621 17.5353C19.0594 17.5369 19.0557 17.5476 19.0541 17.5583C19.0525 17.5696 19.0498 17.5835 19.0487 17.5894C19.0428 17.6156 19.0337 17.6718 19.0321 17.6922C19.031 17.705 19.0289 17.7173 19.0268 17.7205C19.0203 17.7307 19.0182 17.9235 19.0235 17.9936C19.0268 18.0332 19.0375 18.1065 19.0476 18.1569C19.1151 18.4926 19.2891 18.8025 19.5873 19.1189C19.6772 19.2148 19.8657 19.3856 19.9599 19.4568C19.9712 19.4648 20.0017 19.4884 20.0279 19.5087C20.2447 19.6768 20.5826 19.8877 20.8336 20.0114C20.885 20.0371 20.9525 20.0714 20.9836 20.0885C21.0146 20.1051 21.0569 20.1249 21.0772 20.1324C21.0981 20.1404 21.1345 20.1576 21.1592 20.1704C21.1833 20.1838 21.2207 20.2004 21.2416 20.2079C21.2625 20.2149 21.2919 20.2277 21.3069 20.2357C21.3219 20.2443 21.3514 20.2566 21.3717 20.263C21.3926 20.2695 21.4188 20.2807 21.4306 20.2877C21.4424 20.2946 21.4665 20.3043 21.4841 20.3091C21.5018 20.3144 21.5302 20.3251 21.5468 20.3337C21.5639 20.3423 21.5826 20.3492 21.5891 20.3492C21.5955 20.3492 21.6148 20.3562 21.6324 20.3653C21.6496 20.3739 21.6694 20.3814 21.6758 20.3814C21.6822 20.3814 21.7031 20.3889 21.7213 20.3974C21.74 20.4065 21.7609 20.4135 21.7668 20.4135C21.7732 20.4135 21.7914 20.4194 21.807 20.4269C21.823 20.4344 21.8412 20.4403 21.8471 20.4403C21.8535 20.4403 21.8717 20.4461 21.8873 20.4536C21.9033 20.4611 21.9226 20.467 21.9306 20.467C21.9387 20.467 21.9542 20.4718 21.966 20.4777C21.9777 20.4836 21.9933 20.4884 22.0008 20.4884C22.0083 20.489 22.0275 20.4943 22.0436 20.5013C22.0591 20.5082 22.0752 20.5131 22.0789 20.5115C22.0827 20.5104 22.095 20.5141 22.1073 20.52C22.1191 20.5264 22.1362 20.5313 22.1453 20.5313C22.1544 20.5313 22.1716 20.5361 22.1833 20.542C22.1951 20.5484 22.2069 20.5516 22.2101 20.5495C22.2133 20.5479 22.2278 20.5516 22.2422 20.5575C22.2567 20.5639 22.2711 20.5677 22.2738 20.5661C22.2765 20.5645 22.2904 20.5677 22.3043 20.5741C22.3177 20.58 22.3327 20.5837 22.3375 20.5821C22.3423 20.5811 22.353 20.5832 22.3616 20.5875C22.3696 20.5918 22.3841 20.5955 22.3927 20.5955C22.4012 20.5955 22.4135 20.5982 22.42 20.6019C22.4264 20.6051 22.443 20.61 22.4574 20.6126C22.4714 20.6148 22.4939 20.6191 22.5083 20.6212C22.5222 20.6239 22.5388 20.6287 22.5458 20.6325C22.5527 20.6362 22.5618 20.6378 22.5667 20.6362C22.5709 20.6346 22.5827 20.6367 22.5929 20.6416C22.6031 20.6464 22.6148 20.649 22.6191 20.6474C22.6234 20.6453 22.6357 20.648 22.6464 20.6523C22.6571 20.6565 22.6695 20.6592 22.6737 20.6576C22.678 20.656 22.6866 20.6571 22.693 20.6608C22.6994 20.6646 22.7134 20.6678 22.7235 20.6689C22.7337 20.6694 22.7557 20.6726 22.7717 20.6758C22.7878 20.679 22.8087 20.6822 22.8172 20.6833C22.8263 20.6838 22.8392 20.6865 22.8461 20.6887C22.8531 20.6913 22.8665 20.694 22.8756 20.6951C22.8847 20.6956 22.9056 20.6994 22.9216 20.7026C22.9377 20.7058 22.9607 20.709 22.9725 20.7106C22.995 20.7133 23.0164 20.716 23.0528 20.7208C23.1053 20.7277 23.1556 20.7342 23.1893 20.7379C23.223 20.7417 23.253 20.7454 23.275 20.7481C23.2851 20.7492 23.306 20.7513 23.3215 20.7529C23.3371 20.754 23.3612 20.7567 23.3751 20.7583C23.389 20.7604 23.4163 20.7631 23.4356 20.7642C23.4549 20.7652 23.4897 20.7679 23.5132 20.7695C23.5555 20.7727 23.6149 20.7765 23.6926 20.7807C23.7145 20.7818 23.7739 20.784 23.8237 20.7856C23.8741 20.7866 23.9174 20.7882 23.9201 20.7882C23.9233 20.7888 23.9522 20.7882 23.9849 20.7877C24.0181 20.7872 24.0475 20.7888 24.0507 20.7904C24.0539 20.7925 24.0593 20.7925 24.0625 20.7904C24.0657 20.7888 24.1112 20.7866 24.1637 20.7856C24.2156 20.785 24.2611 20.7829 24.2649 20.7807C24.2681 20.7786 24.275 20.7797 24.2804 20.7824C24.2863 20.7856 24.2916 20.7866 24.2933 20.7856C24.2954 20.7834 24.3109 20.7818 24.4367 20.7749C24.4924 20.7716 24.5331 20.7684 24.5866 20.7642C24.6059 20.7625 24.6348 20.7599 24.6509 20.7588C24.6669 20.7572 24.6937 20.7551 24.7098 20.7529C24.7258 20.7513 24.7478 20.7492 24.758 20.7486C24.7681 20.7481 24.7799 20.7459 24.7837 20.7433C24.7874 20.7411 24.7992 20.7395 24.8104 20.7406C24.8211 20.7411 24.834 20.7401 24.8383 20.7385C24.8425 20.7368 24.8634 20.7342 24.8838 20.732C24.9475 20.7261 24.9577 20.7251 24.9882 20.7192C25.023 20.7122 25.1027 20.7015 25.122 20.7004C25.1295 20.6999 25.1386 20.6978 25.1418 20.6956C25.1456 20.6929 25.1622 20.6903 25.1782 20.6892C25.1948 20.6876 25.2125 20.6844 25.2184 20.6812C25.2237 20.6785 25.235 20.6758 25.243 20.6758C25.2516 20.6758 25.3003 20.6672 25.3522 20.6565C25.4036 20.6458 25.4518 20.6367 25.4593 20.6362C25.4668 20.6351 25.4764 20.633 25.4807 20.6314C25.4914 20.6271 25.5294 20.618 25.5396 20.6175C25.5492 20.6169 25.6076 20.603 25.6424 20.5923C25.6563 20.588 25.6724 20.5848 25.6783 20.5848C25.6847 20.5848 25.7034 20.58 25.72 20.5741C25.7372 20.5682 25.7596 20.5629 25.7698 20.5612C25.78 20.5602 25.8014 20.5538 25.8169 20.5479C25.8325 20.5414 25.8517 20.5366 25.8603 20.5366C25.8683 20.5366 25.8828 20.5329 25.8913 20.5286C25.9005 20.5243 25.9219 20.5179 25.939 20.5147C25.9567 20.5115 25.9733 20.5072 25.9759 20.5045C25.9856 20.4975 26.0338 20.4831 26.0482 20.4831C26.0557 20.4831 26.0643 20.4809 26.067 20.4783C26.0734 20.4729 26.1285 20.4536 26.1548 20.4483C26.1644 20.4461 26.1847 20.4392 26.2003 20.4328C26.2153 20.4258 26.2393 20.4178 26.2543 20.414C26.2688 20.4103 26.2934 20.4017 26.3084 20.3947C26.3239 20.3878 26.3507 20.3781 26.3678 20.3739C26.385 20.369 26.4112 20.3599 26.4257 20.353C26.4406 20.3455 26.4749 20.3321 26.5027 20.323C26.5301 20.3134 26.5638 20.3005 26.5777 20.2936C26.5911 20.2866 26.6157 20.277 26.6318 20.2716C26.6478 20.2663 26.688 20.2497 26.7212 20.2336C26.7538 20.2181 26.7977 20.1993 26.8186 20.1918C26.8395 20.1843 26.8657 20.1736 26.877 20.1683C26.9493 20.1313 27.0178 20.0976 27.036 20.0896C27.0751 20.0719 27.2073 20.0071 27.2207 19.9991C27.2282 19.9943 27.286 19.9616 27.3492 19.9258C27.6013 19.7828 27.8059 19.6575 27.8364 19.627C27.8407 19.6227 27.8722 19.6013 27.906 19.5788C27.959 19.5446 28.0077 19.5076 28.0334 19.4835C28.0377 19.4798 28.0628 19.461 28.0896 19.4418C28.1169 19.423 28.1447 19.4011 28.1517 19.3931C28.1592 19.3856 28.1795 19.3679 28.1972 19.3545C28.2154 19.3406 28.2374 19.3224 28.2459 19.3133C28.255 19.3042 28.2716 19.2892 28.2834 19.2801C28.3 19.2672 28.4242 19.15 28.4483 19.1248C28.4504 19.1227 28.467 19.1045 28.4858 19.0852C28.504 19.0659 28.5313 19.0365 28.5457 19.0199C28.5607 19.0033 28.5827 18.9781 28.5955 18.9648C28.6078 18.9508 28.618 18.9375 28.618 18.9348C28.618 18.9321 28.6255 18.9235 28.6341 18.916C28.6432 18.9091 28.6501 18.9005 28.6501 18.8973C28.6501 18.8946 28.6598 18.8812 28.6716 18.8679C28.6833 18.8545 28.693 18.8416 28.693 18.8389C28.693 18.8368 28.7005 18.8266 28.709 18.817C28.7181 18.8074 28.7251 18.7972 28.7251 18.794C28.7251 18.7902 28.731 18.7822 28.7385 18.7752C28.746 18.7683 28.7519 18.7608 28.7519 18.7581C28.7519 18.756 28.7642 18.7362 28.7786 18.7142C28.7936 18.6923 28.8054 18.6724 28.8054 18.6703C28.8054 18.6682 28.8086 18.6623 28.8129 18.658C28.8166 18.6532 28.83 18.6301 28.8429 18.6066C28.8552 18.583 28.8675 18.5616 28.8702 18.5584C28.8729 18.5557 28.875 18.5493 28.875 18.544C28.875 18.5386 28.8771 18.5343 28.8793 18.5343C28.882 18.5343 28.8879 18.5241 28.8932 18.5113C28.8991 18.499 28.9093 18.4754 28.9168 18.4594C28.9237 18.4433 28.9323 18.424 28.935 18.4165C28.9382 18.409 28.9425 18.3989 28.9451 18.394C28.9478 18.3887 28.95 18.3796 28.95 18.3742C28.95 18.3683 28.9526 18.3619 28.9553 18.3603C28.9585 18.3587 28.9607 18.3512 28.9607 18.3443C28.9607 18.3373 28.9628 18.3298 28.966 18.3282C28.9708 18.325 28.9842 18.287 28.9848 18.2736C28.9848 18.2704 28.9869 18.2656 28.989 18.2634C28.9912 18.2613 28.9928 18.2527 28.9928 18.2447C28.9928 18.2366 28.9949 18.2286 28.9976 18.227C29.0003 18.2254 29.0035 18.2163 29.0051 18.2067C29.0072 18.197 29.0099 18.1804 29.0115 18.1703C29.0137 18.1601 29.0169 18.1467 29.0196 18.1408C29.0238 18.1312 29.0303 18.0873 29.0383 18.015C29.0485 17.9277 29.0485 17.7762 29.0388 17.7141C29.0345 17.6868 29.0297 17.6499 29.0276 17.6322C29.0217 17.5792 28.9933 17.4711 28.9655 17.395C28.951 17.3565 28.9392 17.3228 28.9392 17.3212C28.9392 17.3195 28.9259 17.289 28.9093 17.2532C28.8638 17.1552 28.829 17.0942 28.7529 16.9764C28.6791 16.8629 28.5495 16.7103 28.4114 16.5748C28.3204 16.4854 28.2872 16.4555 28.1849 16.3703C28.0971 16.2964 27.8985 16.1487 27.8417 16.1139C27.8257 16.1042 27.7796 16.0743 27.74 16.047C27.6527 15.9881 27.6051 15.9586 27.4616 15.8756C27.3503 15.8114 27.0231 15.6438 26.9862 15.6326C26.9755 15.6288 26.945 15.6149 26.9182 15.6005C26.892 15.5865 26.8566 15.571 26.8406 15.5657C26.8245 15.5603 26.7929 15.5469 26.771 15.5362C26.7485 15.525 26.7196 15.5132 26.7067 15.5094C26.6933 15.5057 26.6693 15.4961 26.6527 15.4875C26.6361 15.4795 26.6104 15.4693 26.5964 15.4661C26.582 15.4623 26.5574 15.4527 26.5413 15.4441C26.5252 15.4361 26.5065 15.4291 26.4995 15.4291C26.4926 15.4291 26.4728 15.4216 26.4551 15.4131C26.4374 15.404 26.4182 15.397 26.4117 15.397C26.4058 15.397 26.3844 15.3895 26.3641 15.381C26.3437 15.3719 26.3229 15.3649 26.317 15.3649C26.3111 15.3649 26.2934 15.359 26.2774 15.3515C26.2618 15.344 26.2436 15.3381 26.2367 15.3381C26.2302 15.3381 26.2153 15.3333 26.2035 15.3274C26.1917 15.3215 26.1756 15.3167 26.1676 15.3167C26.159 15.3167 26.1424 15.3119 26.1312 15.306C26.1194 15.2996 26.1028 15.2948 26.0937 15.2942C26.0852 15.2942 26.0686 15.2894 26.0579 15.2841C26.0466 15.2782 26.0322 15.2739 26.0247 15.2739C26.0177 15.2739 26.0016 15.2691 25.9888 15.2632C25.9759 15.2573 25.9583 15.2525 25.9502 15.2525C25.9417 15.2525 25.9299 15.2498 25.9235 15.246C25.917 15.2428 25.9021 15.238 25.8903 15.2359C25.863 15.2305 25.825 15.2209 25.8046 15.2139C25.7961 15.2107 25.7778 15.207 25.7645 15.2048C25.7511 15.2027 25.735 15.1979 25.7281 15.1941C25.7211 15.1904 25.712 15.1888 25.7077 15.1904C25.7029 15.192 25.6927 15.1898 25.6842 15.1855C25.6756 15.1813 25.6611 15.1775 25.652 15.1775C25.6429 15.1775 25.6285 15.1738 25.6194 15.1689C25.6108 15.1647 25.5985 15.1625 25.5931 15.1641C25.5878 15.1657 25.576 15.1636 25.5674 15.1593C25.5589 15.155 25.545 15.1518 25.5364 15.1518C25.5273 15.1523 25.5155 15.1497 25.5096 15.1465C25.5037 15.1432 25.4914 15.1411 25.4829 15.1411C25.4743 15.1416 25.4614 15.1384 25.4545 15.1352C25.4481 15.1315 25.439 15.1299 25.4347 15.1315C25.4304 15.1331 25.4175 15.1309 25.4068 15.1266C25.3961 15.1218 25.3843 15.1197 25.3806 15.1208C25.3769 15.1224 25.3667 15.1208 25.3587 15.1175C25.3506 15.1143 25.3372 15.1111 25.3281 15.1101C25.3196 15.109 25.2976 15.1058 25.2799 15.1026C25.2623 15.0993 25.2409 15.0956 25.2318 15.0945C25.2232 15.0935 25.2012 15.0902 25.1836 15.087C25.1531 15.0817 25.1295 15.0779 25.0926 15.0731C24.8565 15.0415 24.819 15.0372 24.7419 15.0303C24.7317 15.0292 24.7076 15.0271 24.6884 15.0249C24.5963 15.0169 24.577 15.0153 24.4689 15.0094C24.3671 15.0035 24.2959 15.0008 24.2065 14.9992C24.1578 14.9982 24.115 14.996 24.1118 14.9939C24.1085 14.9917 24.1037 14.9923 24.1021 14.9955C24.1 14.9987 24.0936 14.9998 24.0871 14.9976C24.0807 14.9955 24.0588 14.9944 24.0379 14.9955C23.9865 14.9976 23.9854 14.9976 23.9758 14.9933C23.9715 14.9912 23.9661 14.9912 23.9645 14.9933Z" fill="#E64348"/>
<path d="M14.5845 20.5082C14.5845 21.1084 14.5845 21.603 14.5856 21.6073C14.5898 21.6287 14.5909 21.8338 14.5866 21.8391C14.5834 21.8429 14.5813 22.5057 14.5807 23.5106C14.5807 24.4261 14.5786 25.3544 14.5765 25.5729L14.5732 25.9696L14.6038 25.9894C14.6386 26.0113 14.66 26.0129 14.6685 25.9931C14.6712 25.9867 14.6766 25.9813 14.6803 25.9813C14.6835 25.9813 14.6883 25.9765 14.69 25.9706C14.6916 25.9647 14.698 25.9573 14.7039 25.9546C14.7092 25.9514 14.714 25.9465 14.714 25.9444C14.714 25.9369 14.8816 25.7725 14.8891 25.7725C14.8902 25.7725 14.8998 25.764 14.9105 25.7538C14.9212 25.7436 14.933 25.7351 14.9373 25.7351C14.941 25.7351 14.9443 25.7329 14.9443 25.7303C14.9443 25.7281 14.9544 25.719 14.9673 25.7104C14.9796 25.7019 14.9919 25.6917 14.994 25.6885C14.9962 25.6847 15.0021 25.6815 15.0064 25.6815C15.0106 25.6815 15.0155 25.6778 15.0171 25.6735C15.0192 25.6692 15.023 25.6655 15.0256 25.6655C15.0288 25.6655 15.0401 25.658 15.0513 25.6494C15.0626 25.6403 15.0744 25.6334 15.0776 25.6334C15.0808 25.6334 15.0835 25.6312 15.0835 25.6291C15.0835 25.6264 15.0936 25.6194 15.1065 25.6125C15.1188 25.606 15.1338 25.598 15.1397 25.5943C15.1798 25.5691 15.2034 25.5563 15.2698 25.5215C15.304 25.5033 15.3924 25.4642 15.41 25.4588C15.4175 25.4567 15.4363 25.4492 15.4518 25.4422C15.5401 25.4021 15.7955 25.3362 15.9374 25.3175C16.1547 25.288 16.4037 25.2811 16.6093 25.2987C16.6227 25.2998 16.6526 25.302 16.6762 25.3036C16.7249 25.3073 16.892 25.3293 16.968 25.3421C16.9958 25.3464 17.0247 25.3512 17.0322 25.3523C17.0681 25.3582 17.1275 25.3694 17.1848 25.3817C17.1966 25.3844 17.2185 25.3892 17.233 25.3919C17.248 25.3946 17.2673 25.3994 17.2758 25.4021C17.2849 25.4053 17.3063 25.4101 17.324 25.4138C17.3417 25.4176 17.3636 25.4229 17.3722 25.4256C17.3813 25.4288 17.3979 25.4331 17.4097 25.4353C17.4214 25.4374 17.4386 25.4417 17.4471 25.4449C17.4562 25.4481 17.4739 25.4529 17.4873 25.4567C17.5248 25.4658 17.5633 25.4765 17.581 25.4824C17.5901 25.4856 17.6153 25.4931 17.6372 25.5C17.733 25.5284 17.7502 25.5343 17.8433 25.5659C17.8583 25.5712 17.8845 25.5798 17.9022 25.5852C17.9199 25.5905 17.945 25.5996 17.9584 25.605C17.9825 25.6157 17.9997 25.6221 18.08 25.6499C18.104 25.658 18.134 25.6703 18.1463 25.6762C18.1587 25.6826 18.1811 25.6917 18.1961 25.696C18.2111 25.7003 18.2347 25.7099 18.2481 25.7163C18.2614 25.7233 18.2877 25.734 18.307 25.7404C18.3257 25.7469 18.3509 25.7581 18.3632 25.7651C18.3749 25.772 18.4017 25.7838 18.4221 25.7908C18.4424 25.7977 18.481 25.8143 18.5072 25.8277C18.534 25.8405 18.5613 25.8534 18.5688 25.8555C18.6019 25.8641 19.0361 26.0809 19.1657 26.1532C19.4275 26.2983 19.519 26.3508 19.6154 26.4086C19.6716 26.4423 19.7739 26.5039 19.843 26.5451C19.912 26.5863 20.0164 26.6516 20.0742 26.6902C20.1321 26.7287 20.2043 26.7769 20.2348 26.7967C20.328 26.8583 20.4056 26.9108 20.4506 26.9434C20.4742 26.96 20.5197 26.9921 20.5518 27.0135C20.5839 27.035 20.6214 27.0617 20.6348 27.073C20.6482 27.0842 20.6771 27.1046 20.6979 27.1185C20.7194 27.1324 20.7483 27.1533 20.7622 27.1656C20.7766 27.1779 20.805 27.1988 20.8254 27.2122C20.8462 27.2256 20.8725 27.2454 20.8843 27.2555C20.896 27.2662 20.9212 27.2855 20.9405 27.2984C20.9597 27.3112 20.9849 27.3305 20.9967 27.3412C21.0085 27.3519 21.0304 27.369 21.0449 27.3787C21.0599 27.3883 21.0802 27.4044 21.0904 27.414C21.1006 27.4236 21.1214 27.4408 21.137 27.452C21.1664 27.4734 21.2537 27.543 21.3072 27.5875C21.3249 27.6025 21.3522 27.6244 21.3682 27.6373C21.3843 27.6496 21.4121 27.6731 21.4309 27.6892C21.4491 27.7053 21.4812 27.7331 21.5026 27.7508C21.577 27.8134 21.698 27.9183 21.7628 27.9772C21.7783 27.9911 21.8067 28.0168 21.8271 28.0345C21.8469 28.0522 21.8736 28.0763 21.8859 28.088C21.8977 28.0998 21.9341 28.1336 21.9663 28.163C22.1922 28.3713 22.5696 28.7535 22.7527 28.9607C22.7763 28.9869 22.803 29.0164 22.8121 29.0255C22.8582 29.0726 23.1885 29.4645 23.2694 29.5684C23.2993 29.6069 23.3197 29.6326 23.3374 29.654C23.3582 29.6792 23.514 29.8853 23.5724 29.9645C23.6056 30.009 23.6575 30.0812 23.6816 30.116C23.6859 30.1225 23.7068 30.1519 23.7276 30.1814C23.7855 30.2633 23.8444 30.35 23.9038 30.4394C24.0248 30.6241 24.0906 30.7258 24.0976 30.7408C24.0997 30.7451 24.1158 30.7719 24.134 30.7997C24.1522 30.8276 24.1795 30.872 24.195 30.8988C24.2106 30.925 24.232 30.9614 24.2421 30.9791C24.3096 31.0926 24.3294 31.1268 24.3294 31.1295C24.3294 31.1311 24.3337 31.1392 24.3396 31.1466C24.3449 31.1547 24.361 31.1825 24.3749 31.2093C24.3894 31.2355 24.4065 31.266 24.4135 31.2762C24.4199 31.2864 24.4258 31.2966 24.4258 31.2982C24.4258 31.3003 24.4343 31.3174 24.445 31.3362C24.4558 31.3544 24.4772 31.394 24.4927 31.4234C24.5082 31.4529 24.5286 31.4904 24.5371 31.5064C24.5585 31.545 24.7395 31.9085 24.7668 31.9668C24.7786 31.992 24.7995 32.0359 24.8134 32.0648C24.8268 32.0932 24.838 32.12 24.838 32.1237C24.838 32.1275 24.8402 32.1328 24.8428 32.1355C24.8455 32.1387 24.8616 32.1719 24.8782 32.2104C24.8948 32.2484 24.9124 32.2897 24.9178 32.3015C24.9231 32.3132 24.9322 32.3336 24.9381 32.347C24.944 32.3603 24.9547 32.3844 24.9611 32.4005C24.9681 32.4166 24.9794 32.4423 24.9863 32.4578C24.9933 32.4728 24.9986 32.4888 24.9986 32.4926C24.9986 32.4963 25.0034 32.5065 25.0093 32.5156C25.0152 32.5242 25.02 32.5354 25.02 32.5397C25.02 32.544 25.0265 32.5595 25.0334 32.5745C25.0409 32.5889 25.0468 32.6045 25.0468 32.6082C25.0468 32.6114 25.0516 32.6237 25.0575 32.6345C25.0634 32.6457 25.0682 32.6575 25.0682 32.6612C25.0682 32.665 25.073 32.6784 25.0784 32.6907C25.0929 32.7239 25.1078 32.7613 25.1244 32.8074C25.1325 32.8293 25.1421 32.8545 25.1464 32.8636C25.1507 32.8722 25.1571 32.8904 25.1614 32.9037C25.1657 32.9171 25.1753 32.9444 25.1833 32.9653C25.1908 32.9857 25.201 33.0135 25.2053 33.0269C25.2096 33.0403 25.2165 33.0585 25.2208 33.0681C25.2251 33.0772 25.2288 33.0885 25.2288 33.0933C25.2288 33.0981 25.2337 33.1115 25.2395 33.1233C25.2454 33.135 25.2503 33.1479 25.2503 33.1527C25.2503 33.1575 25.2545 33.1725 25.2599 33.1864C25.2743 33.2223 25.2872 33.2608 25.2963 33.2924C25.3006 33.308 25.3075 33.3272 25.3118 33.3353C25.3161 33.3438 25.3199 33.3567 25.3199 33.3642C25.3199 33.3717 25.3247 33.3872 25.3306 33.399C25.3364 33.4107 25.3413 33.4252 25.3413 33.4311C25.3413 33.437 25.3461 33.4514 25.3514 33.4638C25.3568 33.4761 25.3643 33.4986 25.3675 33.5141C25.3707 33.5301 25.3761 33.5451 25.3782 33.5483C25.3809 33.5516 25.3857 33.566 25.3884 33.581C25.3911 33.5955 25.3975 33.6185 25.4018 33.6319C25.4146 33.6704 25.4317 33.7293 25.4355 33.7496C25.4376 33.7598 25.4419 33.7753 25.4462 33.7844C25.4499 33.793 25.4564 33.815 25.4607 33.8326C25.4751 33.8899 25.481 33.9124 25.4912 33.9477C25.4965 33.967 25.5035 33.9932 25.5067 34.0066C25.5094 34.02 25.5158 34.0462 25.5206 34.0655C25.5254 34.0848 25.534 34.1185 25.5394 34.1405C25.5447 34.1624 25.5522 34.1913 25.5554 34.2047C25.5586 34.2181 25.564 34.2395 25.5667 34.2529C25.5699 34.2663 25.5768 34.2952 25.5822 34.3171C25.5875 34.3391 25.594 34.3691 25.5956 34.3841C25.5977 34.3985 25.6025 34.4183 25.6063 34.428C25.61 34.4371 25.6154 34.459 25.6175 34.4761C25.6197 34.4933 25.6256 34.5227 25.6309 34.542C25.6368 34.5613 25.6411 34.5838 25.6411 34.5929C25.6411 34.602 25.6459 34.6261 25.6518 34.6464C25.6577 34.6667 25.6625 34.6914 25.6625 34.6999C25.6625 34.709 25.6662 34.731 25.6711 34.7481C25.6759 34.7658 25.6828 34.8017 25.6866 34.8284C25.6909 34.8547 25.6978 34.8932 25.7021 34.9141C25.7069 34.9344 25.7107 34.9612 25.7107 34.973C25.7107 34.9848 25.7155 35.0121 25.7214 35.034C25.7273 35.056 25.7321 35.0859 25.7321 35.1009C25.7321 35.1159 25.7358 35.1427 25.7401 35.1604C25.7444 35.178 25.7508 35.2187 25.7535 35.2508C25.7567 35.283 25.7626 35.3242 25.7664 35.3418C25.7706 35.3601 25.7755 35.3975 25.7776 35.4254C25.7792 35.4532 25.7846 35.4966 25.7888 35.5217C25.7937 35.5464 25.7995 35.5994 25.8022 35.6395C25.8049 35.6791 25.8103 35.7332 25.8151 35.76C25.8194 35.7862 25.8231 35.8301 25.8231 35.8569C25.8231 35.8836 25.8263 35.9259 25.8306 35.9506C25.8349 35.9752 25.8483 36.1037 25.8606 36.2365C25.8724 36.3687 25.8831 36.4822 25.8841 36.4881C25.8879 36.5116 25.8868 34.4001 25.8799 30.2708C25.8756 27.8873 25.8713 25.9369 25.8702 25.9358C25.8697 25.9348 25.5458 25.7474 25.1512 25.5193C24.7566 25.2912 22.6489 24.0733 20.4667 22.8119C18.285 21.5506 16.378 20.4488 16.2292 20.3626C16.0803 20.2764 15.7864 20.1067 15.576 19.9851C14.7033 19.4803 14.5941 19.4176 14.5898 19.4176C14.5877 19.4176 14.585 19.9086 14.5845 20.5082Z" fill="#E64348"/>
<path d="M35.4436 23.7356C35.4425 23.7367 35.4045 23.7383 35.359 23.7388C35.3135 23.7394 35.2616 23.7415 35.2439 23.7442C35.2262 23.7463 35.1952 23.7501 35.1743 23.7517C35.154 23.7538 35.1309 23.756 35.1234 23.757C35.0865 23.7624 34.9998 23.7768 34.9778 23.7811C34.9634 23.7843 34.9409 23.7886 34.927 23.7918C34.9125 23.7945 34.8906 23.7988 34.8772 23.8015C34.8638 23.8036 34.8499 23.8079 34.8461 23.81C34.8429 23.8122 34.8295 23.8148 34.8172 23.8165C34.8049 23.8181 34.7904 23.8218 34.7851 23.8245C34.7797 23.8272 34.7653 23.8314 34.753 23.8341C34.7401 23.8368 34.723 23.8416 34.7139 23.8443C34.7053 23.8475 34.6796 23.855 34.6577 23.8614C34.6357 23.8684 34.602 23.8791 34.5827 23.8855C34.5634 23.8919 34.5372 23.901 34.5238 23.9059C34.5104 23.9101 34.4879 23.9182 34.473 23.923C34.4585 23.9283 34.4344 23.9369 34.4194 23.9428C34.405 23.9487 34.3744 23.9605 34.3525 23.9685C34.3305 23.9765 34.3006 23.9888 34.2856 23.9963C34.2711 24.0038 34.2492 24.0129 34.2374 24.0167C34.2256 24.0204 34.1956 24.0338 34.1705 24.0461C34.1453 24.0584 34.1062 24.0766 34.0832 24.0857C34.0602 24.0949 34.0157 24.1163 33.9842 24.1339C33.9526 24.1511 33.8969 24.18 33.86 24.1976C33.7374 24.2571 33.5248 24.3797 33.4049 24.4605C33.3679 24.4851 33.309 24.5237 33.2737 24.5456C33.2384 24.5681 33.1913 24.5997 33.1693 24.6163C33.1474 24.6329 33.1088 24.6602 33.0837 24.6773C33.0585 24.6939 33.0237 24.7191 33.0055 24.733C32.9873 24.7469 32.9573 24.7694 32.9386 24.7839C32.8824 24.8256 32.8534 24.8481 32.8245 24.8722C32.8095 24.8845 32.7865 24.9027 32.7737 24.9124C32.7603 24.9215 32.7357 24.9413 32.7191 24.9563C32.7019 24.9707 32.6709 24.9975 32.65 25.0152C32.5783 25.0751 32.4942 25.1485 32.4524 25.1876C32.3534 25.2796 32.3047 25.3262 32.211 25.4194C32.1537 25.4772 32.0804 25.5527 32.0477 25.588C32.0156 25.6228 31.9792 25.6614 31.9679 25.6731C31.9497 25.6924 31.8137 25.8503 31.7714 25.9012C31.6387 26.0618 31.5273 26.2074 31.409 26.3772C31.3721 26.4291 31.2222 26.6534 31.22 26.6598C31.2189 26.6625 31.197 26.6984 31.1718 26.7396C31.1113 26.837 31.0546 26.9329 31.0546 26.9366C31.0546 26.9382 31.0471 26.9521 31.038 26.9677C31.0219 26.995 31.0064 27.0228 30.9545 27.1192C30.894 27.2311 30.7767 27.4736 30.7226 27.5983C30.7018 27.6471 30.6798 27.6963 30.6739 27.7086C30.6686 27.7209 30.6638 27.7333 30.6638 27.737C30.6638 27.7402 30.6589 27.752 30.653 27.7627C30.6472 27.7739 30.6423 27.7863 30.6423 27.79C30.6423 27.7938 30.6375 27.8061 30.6322 27.8168C30.6263 27.8275 30.6156 27.8548 30.6075 27.8767C30.5995 27.8987 30.5899 27.9239 30.5856 27.933C30.5813 27.9415 30.5749 27.9597 30.5706 27.9731C30.5663 27.9865 30.5567 28.0138 30.5486 28.0347C30.5412 28.055 30.5315 28.0829 30.5278 28.0962C30.524 28.1096 30.5171 28.1278 30.5122 28.1375C30.5069 28.1471 30.5031 28.1583 30.5031 28.1632C30.5031 28.168 30.4989 28.183 30.493 28.1969C30.4876 28.2108 30.4764 28.2435 30.4683 28.2702C30.4443 28.35 30.4325 28.387 30.4271 28.4041C30.4239 28.4127 30.4191 28.4298 30.4164 28.4416C30.4132 28.4533 30.4068 28.4764 30.4014 28.4924C30.3961 28.5085 30.3902 28.5326 30.388 28.546C30.3859 28.5593 30.3811 28.5759 30.3773 28.5834C30.3736 28.5909 30.3688 28.6091 30.3666 28.6236C30.3645 28.6386 30.3581 28.6621 30.3527 28.6761C30.3468 28.69 30.3425 28.7082 30.3425 28.7167C30.3425 28.7248 30.3377 28.7457 30.3318 28.7628C30.3259 28.7799 30.3211 28.7992 30.3211 28.8051C30.3211 28.8115 30.3174 28.8297 30.3131 28.8458C30.3083 28.8618 30.3013 28.8945 30.297 28.918C30.2927 28.9416 30.2852 28.9743 30.281 28.9903C30.2767 29.0064 30.2729 29.0278 30.2729 29.0385C30.2729 29.0487 30.2681 29.0744 30.2622 29.0947C30.2563 29.1151 30.2515 29.1418 30.2515 29.1536C30.2515 29.1654 30.2478 29.1906 30.2435 29.2098C30.2392 29.2291 30.2322 29.2725 30.228 29.3062C30.2237 29.3399 30.2178 29.379 30.2146 29.3929C30.2114 29.4068 30.2076 29.439 30.2055 29.4652C30.2039 29.4909 30.199 29.5316 30.1948 29.5551C30.1905 29.5787 30.1846 29.6387 30.1819 29.689C30.1792 29.7388 30.1734 29.8196 30.1685 29.8678C30.161 29.9422 30.16 30.0022 30.1621 30.2586C30.1637 30.4273 30.1675 30.5772 30.1707 30.5964C30.1739 30.6157 30.1787 30.6709 30.1819 30.7196C30.1851 30.7683 30.1916 30.8234 30.1958 30.8427C30.2001 30.862 30.2049 30.8968 30.2071 30.9203C30.2087 30.9439 30.2146 30.9808 30.2199 31.0028C30.2258 31.0247 30.2301 31.0521 30.2301 31.0633C30.2301 31.0745 30.2344 31.0976 30.2403 31.1147C30.2456 31.1313 30.2521 31.1607 30.2542 31.18C30.2558 31.1993 30.2612 31.2218 30.2649 31.2309C30.2692 31.2394 30.2751 31.2619 30.2777 31.2801C30.2804 31.2983 30.2863 31.3197 30.2906 31.3283C30.2949 31.3363 30.2997 31.3545 30.3013 31.369C30.3034 31.3829 30.3083 31.3995 30.3125 31.4065C30.3168 31.4129 30.3216 31.4284 30.3238 31.4407C30.3259 31.453 30.3318 31.4723 30.3377 31.4836C30.3431 31.4943 30.3479 31.5098 30.3479 31.5178C30.3479 31.5253 30.3522 31.5376 30.3575 31.5446C30.3634 31.5516 30.3693 31.5665 30.3709 31.5783C30.3725 31.5896 30.3779 31.603 30.3821 31.6078C30.387 31.6131 30.3923 31.6254 30.3939 31.6356C30.3961 31.6458 30.402 31.6597 30.4078 31.6667C30.4132 31.6736 30.4175 31.6849 30.4175 31.6913C30.4175 31.6977 30.4218 31.709 30.4277 31.7159C30.433 31.7229 30.4394 31.7368 30.4416 31.7464C30.4437 31.7561 30.4485 31.7657 30.4523 31.7673C30.4566 31.7684 30.4614 31.7775 30.4635 31.7866C30.4651 31.7962 30.4716 31.8096 30.4769 31.8166C30.4828 31.8235 30.4871 31.8321 30.4871 31.8358C30.4871 31.8396 30.4919 31.8487 30.4978 31.8562C30.5037 31.8637 30.5085 31.8733 30.5085 31.8781C30.5085 31.883 30.5133 31.891 30.5192 31.8958C30.5251 31.9012 30.5299 31.9081 30.5299 31.9113C30.5299 31.9151 30.5358 31.9252 30.5433 31.9338C30.5508 31.9429 30.5567 31.9536 30.5567 31.9584C30.5567 31.9633 30.5599 31.9686 30.5642 31.9702C30.5685 31.9718 30.5743 31.9799 30.5776 31.9874C30.5808 31.9954 30.592 32.0125 30.6022 32.0259C30.6124 32.0393 30.6231 32.0553 30.6263 32.0623C30.629 32.0687 30.6354 32.0757 30.6397 32.0773C30.6439 32.0794 30.6477 32.0837 30.6477 32.088C30.6477 32.0923 30.6525 32.0982 30.6584 32.1019C30.6643 32.1057 30.6691 32.1116 30.6691 32.1148C30.6691 32.118 30.6798 32.1324 30.6932 32.1458C30.7066 32.1597 30.7173 32.1726 30.7173 32.1737C30.7173 32.1753 30.7269 32.1865 30.7387 32.1988C30.7505 32.2111 30.7724 32.2347 30.788 32.2513C30.8035 32.2674 30.8206 32.2823 30.826 32.2845C30.8308 32.2861 30.8351 32.2914 30.8351 32.2963C30.8351 32.3005 30.8372 32.3043 30.8399 32.3043C30.842 32.3043 30.8501 32.3096 30.8576 32.3166C30.8865 32.3423 30.9111 32.3632 30.9132 32.3632C30.9143 32.3632 30.9357 32.3787 30.9604 32.398C30.985 32.4173 31.008 32.4328 31.0112 32.4328C31.0144 32.4328 31.0171 32.4349 31.0171 32.4381C31.0171 32.4408 31.0262 32.4472 31.0374 32.4521C31.0482 32.4574 31.0626 32.466 31.0696 32.4708C31.0765 32.4761 31.0931 32.4858 31.107 32.4922C31.121 32.4992 31.1333 32.5056 31.1349 32.5077C31.1408 32.5142 31.2366 32.5581 31.2848 32.5757C31.3126 32.5859 31.3405 32.5961 31.3464 32.5988C31.394 32.6186 31.5129 32.6475 31.6007 32.6603C31.6344 32.6651 31.6638 32.6705 31.6654 32.6716C31.681 32.6807 31.954 32.6849 32.0557 32.6769C32.1328 32.671 32.2528 32.655 32.3234 32.641C32.3395 32.6378 32.3588 32.6346 32.3663 32.6341C32.3737 32.633 32.3882 32.6298 32.3984 32.6266C32.4085 32.6234 32.4316 32.618 32.4492 32.6148C32.4669 32.6111 32.491 32.6052 32.5028 32.6009C32.5151 32.5966 32.5295 32.5934 32.536 32.5934C32.5419 32.5934 32.5558 32.5896 32.5659 32.5854C32.5767 32.5811 32.5911 32.5773 32.5975 32.5773C32.6045 32.5768 32.6195 32.5725 32.6313 32.5666C32.643 32.5607 32.658 32.5565 32.665 32.5559C32.672 32.5559 32.6885 32.5516 32.7025 32.5463C32.7416 32.5308 32.7946 32.5126 32.8219 32.5051C32.8352 32.5013 32.8561 32.4933 32.8674 32.4874C32.8786 32.4815 32.9006 32.4729 32.9155 32.4687C32.9305 32.4644 32.9546 32.4547 32.9691 32.4472C32.9835 32.4403 33.0087 32.4301 33.0248 32.4248C33.0408 32.4194 33.0729 32.406 33.096 32.3942C33.1185 32.383 33.15 32.3691 33.1656 32.3632C33.2127 32.3455 33.4954 32.201 33.5907 32.1464C33.7732 32.0409 33.9579 31.9236 34.0832 31.8348C34.1073 31.8176 34.1485 31.7893 34.1753 31.7711C34.2021 31.7534 34.2353 31.7288 34.2492 31.7175C34.2636 31.7057 34.2931 31.6838 34.315 31.6688C34.3375 31.6538 34.3589 31.6378 34.3632 31.6324C34.3675 31.6276 34.3862 31.6126 34.4055 31.5987C34.4253 31.5853 34.4494 31.5665 34.4596 31.5569C34.4697 31.5473 34.4933 31.528 34.5115 31.5135C34.5693 31.4691 34.6105 31.4348 34.6282 31.4182C34.6379 31.4091 34.6641 31.3867 34.6866 31.3674C34.7979 31.2737 34.8707 31.2057 35.0378 31.0397C35.177 30.9011 35.2118 30.8652 35.2814 30.7865C35.3076 30.7571 35.3333 30.7292 35.3381 30.7249C35.3488 30.7158 35.4773 30.5654 35.5009 30.5349C35.51 30.5231 35.5351 30.492 35.5571 30.4653C35.5796 30.439 35.601 30.4117 35.6053 30.4053C35.6096 30.3989 35.6353 30.3652 35.6615 30.3304C35.7439 30.2233 35.7787 30.1767 35.7884 30.1628C35.7937 30.1553 35.8087 30.1339 35.8226 30.1146C35.8553 30.068 36.0298 29.8052 36.0411 29.7848C36.048 29.772 36.0903 29.7034 36.1358 29.6301C36.1417 29.621 36.1492 29.6081 36.153 29.6006C36.1594 29.5878 36.2001 29.5155 36.2103 29.4989C36.2135 29.4946 36.2199 29.4823 36.2252 29.4722C36.2306 29.462 36.2424 29.44 36.2515 29.424C36.297 29.341 36.3184 29.2998 36.3687 29.1991C36.4255 29.0845 36.4533 29.0262 36.494 28.9341C36.5004 28.9191 36.5106 28.8966 36.5165 28.8832C36.5229 28.8699 36.5309 28.8517 36.5347 28.8431C36.5818 28.7323 36.6123 28.6573 36.6182 28.637C36.6209 28.6268 36.6257 28.6156 36.6284 28.6123C36.6311 28.6091 36.6369 28.5957 36.6407 28.5829C36.645 28.5701 36.6552 28.5422 36.6626 28.5219C36.6707 28.501 36.6814 28.471 36.6867 28.4549C36.6921 28.4389 36.7028 28.4084 36.7108 28.388C36.7183 28.3671 36.7274 28.3409 36.7306 28.3291C36.7339 28.3174 36.7408 28.2981 36.7462 28.2858C36.7521 28.274 36.7563 28.2595 36.7563 28.2542C36.7563 28.2483 36.7612 28.2317 36.7665 28.2167C36.7724 28.2022 36.7831 28.168 36.7911 28.1418C36.7986 28.115 36.8077 28.0861 36.8109 28.0775C36.8142 28.0684 36.8195 28.0481 36.8238 28.032C36.8275 28.0159 36.8345 27.9929 36.8388 27.9811C36.8431 27.9694 36.8468 27.9544 36.8474 27.9479C36.8474 27.941 36.8522 27.9217 36.8575 27.9051C36.8698 27.8666 36.8832 27.8152 36.8923 27.7697C36.8961 27.7504 36.903 27.7231 36.9084 27.7092C36.9132 27.6952 36.917 27.6765 36.917 27.6685C36.917 27.6599 36.9218 27.6374 36.9277 27.6187C36.9335 27.6005 36.9384 27.5775 36.9384 27.5689C36.9384 27.5598 36.9432 27.5357 36.9485 27.5154C36.9544 27.4945 36.9603 27.4634 36.9625 27.4458C36.9646 27.4281 36.971 27.396 36.9764 27.374C36.9823 27.3521 36.9865 27.3253 36.9865 27.3141C36.9865 27.3028 36.9914 27.2739 36.9973 27.2493C37.0031 27.2247 37.008 27.1936 37.008 27.1802C37.008 27.1663 37.0122 27.1326 37.0181 27.1053C37.0235 27.0774 37.0299 27.0298 37.0315 26.9987C37.0337 26.9677 37.0374 26.9329 37.0406 26.9211C37.0433 26.9093 37.0492 26.8488 37.054 26.7873C37.0583 26.7251 37.0642 26.6566 37.0669 26.6347C37.0701 26.6127 37.0738 26.4682 37.0754 26.3134C37.0786 26.0383 37.0738 25.8573 37.0615 25.7797C37.0583 25.7615 37.0535 25.7085 37.0508 25.6619C37.0481 25.6153 37.0422 25.5639 37.0374 25.5479C37.0331 25.5318 37.0294 25.504 37.0294 25.4863C37.0294 25.4686 37.0256 25.4386 37.0213 25.4194C37.0171 25.4001 37.0096 25.361 37.0053 25.3321C37.001 25.3032 36.9951 25.2754 36.9919 25.2695C36.9887 25.2636 36.9849 25.2427 36.9828 25.2224C36.9812 25.2025 36.9764 25.1795 36.9716 25.171C36.9673 25.1624 36.9619 25.1404 36.9598 25.1222C36.9576 25.104 36.9518 25.081 36.9475 25.0708C36.9426 25.0607 36.9373 25.0403 36.9352 25.0259C36.9335 25.0109 36.9287 24.9937 36.9244 24.9873C36.9207 24.9809 36.9159 24.9654 36.9137 24.9525C36.9116 24.9397 36.9062 24.922 36.9009 24.9134C36.8955 24.9043 36.8902 24.8872 36.8886 24.8744C36.887 24.8615 36.8822 24.8471 36.8779 24.8422C36.8731 24.8374 36.8677 24.8235 36.8656 24.8117C36.8634 24.7999 36.8575 24.7844 36.8522 24.7775C36.8463 24.7705 36.842 24.7582 36.842 24.7501C36.842 24.7421 36.8372 24.7303 36.8313 24.7234C36.8254 24.7164 36.8206 24.7057 36.8206 24.6993C36.8206 24.6929 36.8163 24.6816 36.8109 24.6747C36.8051 24.6677 36.7992 24.6549 36.797 24.6463C36.7949 24.6377 36.7885 24.6243 36.7826 24.6174C36.7772 24.6099 36.7724 24.6002 36.7724 24.5949C36.7724 24.5895 36.7676 24.5794 36.7617 24.5719C36.7558 24.5644 36.751 24.5547 36.751 24.5499C36.751 24.5451 36.7462 24.5365 36.7403 24.5306C36.7344 24.5248 36.7285 24.514 36.7264 24.5071C36.7248 24.5001 36.7189 24.49 36.713 24.4846C36.7076 24.4798 36.7028 24.4712 36.7028 24.4664C36.7028 24.461 36.6991 24.4541 36.6942 24.4503C36.69 24.4461 36.683 24.4353 36.6787 24.4252C36.6744 24.4155 36.6685 24.4075 36.6659 24.4075C36.6626 24.4075 36.66 24.4043 36.66 24.4C36.66 24.3957 36.6541 24.385 36.6466 24.3765C36.6391 24.3674 36.6332 24.3577 36.6332 24.3545C36.6332 24.3513 36.6284 24.3459 36.6225 24.3422C36.6166 24.3384 36.6118 24.3326 36.6118 24.3293C36.6118 24.3235 36.5968 24.3042 36.5743 24.2812C36.5684 24.2747 36.5636 24.2672 36.5636 24.264C36.5636 24.2603 36.5588 24.2549 36.5529 24.2512C36.547 24.2474 36.5422 24.2421 36.5422 24.2389C36.5422 24.2362 36.5374 24.2292 36.5315 24.2228C36.4469 24.1361 36.4062 24.0959 36.3843 24.0766C36.3436 24.0413 36.2547 23.9739 36.2488 23.9739C36.2461 23.9739 36.2408 23.9706 36.2376 23.9664C36.2338 23.9621 36.2236 23.9551 36.214 23.9503C36.1947 23.9407 36.1771 23.93 36.1728 23.9257C36.1712 23.9241 36.1556 23.9155 36.138 23.9069C36.1203 23.8978 36.1053 23.8893 36.1042 23.8866C36.1032 23.8844 36.0989 23.8828 36.0946 23.8828C36.0903 23.8828 36.0828 23.8807 36.0775 23.8775C36.0132 23.8422 35.8805 23.7983 35.7605 23.7726C35.661 23.7511 35.6149 23.7452 35.5223 23.7404C35.487 23.7388 35.4554 23.7367 35.4516 23.7356C35.4484 23.7345 35.4447 23.7345 35.4436 23.7356Z" fill="#E64348"/>
<path d="M16.163 27.8136C16.1512 27.8158 16.1213 27.8184 16.0961 27.8206C16.0452 27.8238 15.9093 27.8463 15.8584 27.8591C15.7968 27.8747 15.6635 27.9223 15.6046 27.9496C15.5409 27.9791 15.4815 28.0106 15.4644 28.024C15.4601 28.0272 15.4478 28.0347 15.4376 28.0401C15.4274 28.046 15.4178 28.0519 15.4162 28.0535C15.4146 28.0551 15.399 28.0663 15.3814 28.0781C15.3418 28.1043 15.3375 28.1081 15.3262 28.1193C15.3214 28.1247 15.3155 28.129 15.3128 28.129C15.308 28.129 15.2813 28.152 15.2582 28.1755C15.2518 28.1825 15.2438 28.1878 15.2406 28.1878C15.2374 28.1878 15.2331 28.1927 15.2315 28.1986C15.2299 28.2044 15.2256 28.2093 15.2229 28.2093C15.2181 28.2093 15.1592 28.2655 15.1592 28.2703C15.1592 28.2724 15.1083 28.3276 15.0794 28.357C15.073 28.3635 15.0682 28.3704 15.0682 28.3731C15.0682 28.3758 15.0639 28.3822 15.0591 28.387C15.0537 28.3918 15.0435 28.4047 15.0361 28.4154C15.0286 28.4261 15.0173 28.4411 15.0109 28.4486C15.0039 28.4561 14.9986 28.4657 14.9986 28.47C14.9986 28.4737 14.9948 28.4786 14.9905 28.4802C14.9863 28.4818 14.9804 28.4914 14.9772 28.5016C14.974 28.5118 14.9686 28.5198 14.9659 28.5198C14.9632 28.5198 14.9579 28.5262 14.9547 28.5342C14.9509 28.5428 14.944 28.5535 14.9386 28.5589C14.9333 28.5642 14.929 28.5728 14.929 28.5787C14.929 28.584 14.9258 28.591 14.9215 28.5931C14.9172 28.5953 14.9102 28.606 14.9054 28.6161C14.8926 28.6435 14.8808 28.6659 14.8749 28.675C14.8722 28.6793 14.8674 28.689 14.8642 28.6965C14.861 28.704 14.8562 28.7136 14.8535 28.7179C14.8508 28.7222 14.846 28.7318 14.8428 28.7393C14.8396 28.7468 14.831 28.765 14.824 28.7794C14.8171 28.7944 14.8112 28.8094 14.8112 28.8137C14.8112 28.8175 14.8064 28.8266 14.8005 28.834C14.7946 28.8415 14.7898 28.8539 14.7898 28.8608C14.7898 28.8683 14.785 28.8801 14.7791 28.8876C14.7732 28.8951 14.7684 28.9063 14.7684 28.9127C14.7684 28.9192 14.7635 28.9326 14.7582 28.9433C14.7523 28.954 14.7459 28.9716 14.7443 28.9823C14.7421 28.9931 14.7357 29.0107 14.7304 29.0214C14.7245 29.0327 14.7202 29.0477 14.7202 29.0552C14.7202 29.0627 14.7154 29.0776 14.7095 29.0889C14.7036 29.0996 14.6988 29.1151 14.6988 29.1231C14.6982 29.1317 14.6945 29.1478 14.6902 29.1596C14.6854 29.1713 14.6784 29.1965 14.6747 29.2158C14.6704 29.235 14.664 29.2602 14.6591 29.272C14.6549 29.2838 14.6511 29.303 14.6506 29.3153C14.6506 29.3271 14.6463 29.3501 14.6409 29.3662C14.6351 29.3823 14.6292 29.4117 14.6276 29.4326C14.6254 29.4529 14.6201 29.4819 14.6158 29.4963C14.6115 29.5113 14.6061 29.5434 14.6045 29.5686C14.6024 29.5937 14.5976 29.628 14.5938 29.6441C14.5896 29.6601 14.5837 29.7131 14.581 29.7619C14.5778 29.8106 14.573 29.8636 14.5703 29.8796C14.5622 29.9219 14.5537 30.4851 14.5596 30.5542C14.5622 30.5853 14.5681 30.6597 14.573 30.7202C14.5874 30.9134 14.612 31.126 14.6329 31.2395C14.6377 31.2647 14.6442 31.308 14.6479 31.3359C14.6517 31.3637 14.6586 31.4012 14.6634 31.4188C14.6683 31.436 14.672 31.4569 14.672 31.4643C14.672 31.4718 14.6763 31.4981 14.6822 31.5232C14.6881 31.5484 14.695 31.5805 14.6982 31.5955C14.7009 31.61 14.7057 31.6319 14.7089 31.6437C14.7164 31.6731 14.7304 31.7342 14.7373 31.7668C14.7405 31.7813 14.7475 31.8075 14.7528 31.8247C14.7587 31.8413 14.763 31.8611 14.763 31.8686C14.763 31.8755 14.7678 31.8937 14.7737 31.9087C14.7796 31.9237 14.7844 31.9398 14.7844 31.9451C14.7844 31.9499 14.7903 31.9746 14.7978 31.9997C14.8053 32.0249 14.8165 32.0618 14.8224 32.0827C14.8289 32.103 14.8358 32.1271 14.839 32.1362C14.8422 32.1448 14.8487 32.1668 14.854 32.1844C14.8754 32.2535 14.8861 32.2872 14.8947 32.3129C14.9001 32.3274 14.9081 32.3515 14.9135 32.3665C14.9306 32.4168 14.9354 32.4307 14.9488 32.4655C14.9557 32.4848 14.9654 32.511 14.9697 32.5244C14.974 32.5378 14.9793 32.5533 14.9825 32.5592C14.9852 32.5651 14.9911 32.5801 14.9959 32.5924C15.0002 32.6052 15.0077 32.6256 15.012 32.6379C15.0168 32.6507 15.0237 32.6679 15.0275 32.677C15.0318 32.6855 15.0414 32.7086 15.0494 32.7278C15.0719 32.784 15.081 32.8049 15.133 32.9232C15.1597 32.9848 15.1849 33.0416 15.1892 33.0491C15.1929 33.0566 15.225 33.1213 15.2604 33.1936C15.3327 33.3398 15.4081 33.4843 15.4215 33.5014C15.4237 33.5041 15.4338 33.5223 15.444 33.5416C15.467 33.5844 15.52 33.6749 15.5682 33.7531C15.588 33.7852 15.6073 33.8168 15.6105 33.8227C15.6201 33.8387 15.7492 34.0336 15.7952 34.1011C15.9221 34.2863 16.1561 34.5856 16.2937 34.7382C16.2985 34.7441 16.3242 34.773 16.3504 34.8024C16.4018 34.8602 16.4286 34.8891 16.5271 34.9914C16.6599 35.1295 16.7717 35.2366 16.9377 35.3838C17.04 35.4748 17.0603 35.492 17.0882 35.5129C17.1031 35.5241 17.1197 35.538 17.1251 35.5439C17.1304 35.5493 17.1524 35.5675 17.1738 35.5841C17.2225 35.6215 17.2504 35.643 17.3007 35.6831C17.3441 35.7174 17.3992 35.7586 17.4576 35.7993C17.4774 35.8132 17.5186 35.8426 17.5486 35.8646C17.5786 35.8865 17.6283 35.9208 17.6594 35.9401C17.6904 35.9599 17.7579 36.0038 17.8093 36.0375C17.9721 36.1441 18.092 36.2121 18.3297 36.3314C18.5165 36.4257 18.6022 36.4658 18.6445 36.4803C18.6606 36.4856 18.6884 36.4974 18.7061 36.5065C18.7237 36.5156 18.7457 36.5247 18.7542 36.5263C18.7633 36.5285 18.7858 36.5365 18.8051 36.5451C18.8244 36.5531 18.8522 36.5638 18.8667 36.5686C18.8929 36.5783 18.9074 36.5831 18.9764 36.6066C19.0294 36.6248 19.0974 36.6452 19.1799 36.6677C19.2211 36.6784 19.2463 36.6843 19.2976 36.695C19.3137 36.6987 19.3357 36.7035 19.3458 36.7067C19.3565 36.7094 19.3721 36.7126 19.3806 36.7137C19.3897 36.7153 19.4111 36.7185 19.4288 36.7217C19.4465 36.7249 19.4668 36.7287 19.4743 36.7298C19.4818 36.7308 19.4984 36.733 19.5118 36.7351C19.7961 36.7753 20.0702 36.7571 20.3122 36.681C20.3448 36.6709 20.3754 36.6602 20.3802 36.6575C20.3855 36.6543 20.392 36.6521 20.3952 36.6521C20.4016 36.6521 20.552 36.5783 20.5879 36.5574C20.6013 36.5499 20.6195 36.5381 20.6291 36.5311C20.6382 36.5242 20.6479 36.5183 20.6505 36.5183C20.6532 36.5183 20.6629 36.5108 20.6725 36.5022C20.6821 36.4931 20.6918 36.4862 20.6928 36.4862C20.6982 36.4862 20.7539 36.4407 20.7539 36.4369C20.7539 36.4342 20.7565 36.4326 20.7592 36.4326C20.7624 36.4326 20.7748 36.4235 20.7865 36.4123C20.8224 36.3802 20.8931 36.31 20.8931 36.3074C20.8931 36.3052 20.9145 36.2817 20.952 36.2426C20.9579 36.2361 20.9627 36.2292 20.9627 36.2265C20.9627 36.2233 20.9675 36.2179 20.9734 36.2142C20.9793 36.2104 20.9841 36.2046 20.9841 36.2008C20.9841 36.1971 20.99 36.1885 20.9975 36.1821C21.005 36.1756 21.0109 36.1671 21.0109 36.1633C21.0109 36.1601 21.0157 36.1537 21.0216 36.15C21.0275 36.1462 21.0323 36.1403 21.0323 36.136C21.0323 36.1323 21.0371 36.1248 21.043 36.1194C21.0489 36.1141 21.0537 36.1066 21.0537 36.1028C21.0537 36.0991 21.058 36.0921 21.0628 36.0873C21.0719 36.0782 21.0842 36.0573 21.0987 36.0279C21.1029 36.0188 21.1104 36.0086 21.1147 36.0043C21.1195 36.0006 21.1233 35.9936 21.1233 35.9883C21.1233 35.9834 21.1281 35.9738 21.1335 35.9674C21.1393 35.9604 21.1458 35.9486 21.1474 35.9401C21.149 35.9315 21.1538 35.9235 21.1581 35.9224C21.1618 35.9208 21.1666 35.9112 21.1688 35.9015C21.1709 35.8919 21.1774 35.878 21.1827 35.871C21.1886 35.8641 21.1929 35.8544 21.1929 35.8491C21.1929 35.8437 21.1972 35.8341 21.2031 35.8271C21.2084 35.8202 21.2148 35.8062 21.217 35.7961C21.2191 35.7859 21.2245 35.7741 21.2282 35.7698C21.2325 35.7661 21.2368 35.7565 21.2384 35.7484C21.24 35.7404 21.2464 35.7249 21.2518 35.7142C21.2577 35.7034 21.2625 35.689 21.2625 35.6826C21.2625 35.6761 21.2668 35.6633 21.2727 35.6542C21.278 35.6451 21.2844 35.628 21.2866 35.6162C21.2882 35.6044 21.2935 35.5894 21.2978 35.583C21.3016 35.5766 21.3069 35.561 21.3085 35.5482C21.3107 35.5353 21.3166 35.5161 21.3219 35.5054C21.3278 35.4941 21.3321 35.4781 21.3321 35.469C21.3321 35.4599 21.3358 35.4438 21.3406 35.4325C21.3455 35.4218 21.353 35.3956 21.3567 35.3753C21.3605 35.3544 21.3669 35.3282 21.3717 35.3164C21.376 35.3046 21.3797 35.2853 21.3803 35.2735C21.3803 35.2618 21.3851 35.2366 21.391 35.2184C21.3969 35.1997 21.4017 35.175 21.4017 35.1643C21.4017 35.1536 21.4065 35.1263 21.4119 35.1044C21.4177 35.0824 21.4236 35.0428 21.4258 35.0166C21.4279 34.9898 21.4327 34.9539 21.437 34.9363C21.4413 34.9186 21.4472 34.8656 21.4504 34.8185C21.4531 34.7714 21.4579 34.7184 21.4606 34.7007C21.4756 34.6075 21.4756 33.9351 21.4606 33.8307C21.4579 33.8088 21.4525 33.7472 21.4499 33.6942C21.4472 33.6412 21.4424 33.5893 21.4392 33.5791C21.4359 33.5689 21.4311 33.5277 21.4284 33.4881C21.4258 33.4484 21.421 33.4072 21.4177 33.3971C21.4145 33.3869 21.4097 33.3542 21.4065 33.3248C21.4038 33.2953 21.3979 33.2579 21.3936 33.2418C21.3899 33.2257 21.3851 33.1952 21.3829 33.1749C21.3808 33.154 21.376 33.1267 21.3722 33.1133C21.3679 33.0999 21.3621 33.0699 21.3594 33.0464C21.3562 33.0228 21.3503 32.9918 21.3455 32.9773C21.3412 32.9629 21.3374 32.9436 21.3374 32.934C21.3374 32.9248 21.3337 32.904 21.3289 32.8879C21.324 32.8718 21.3171 32.8435 21.3133 32.8242C21.3069 32.7905 21.2984 32.7535 21.2785 32.677C21.2732 32.6561 21.2662 32.6293 21.263 32.6165C21.2411 32.5319 21.2057 32.4077 21.1891 32.3584C21.1849 32.345 21.1795 32.3247 21.1768 32.3124C21.1741 32.3006 21.1688 32.2824 21.1645 32.2722C21.1543 32.2497 21.1142 32.1277 21.1067 32.0988C21.104 32.0875 21.0992 32.0752 21.097 32.072C21.0944 32.0693 21.0885 32.0543 21.0842 32.0399C21.0794 32.0249 21.0692 31.996 21.0617 31.9756C21.0537 31.9548 21.044 31.9285 21.0398 31.9167C21.0355 31.905 21.0285 31.8878 21.0248 31.8793C21.0178 31.8643 20.991 31.7968 20.9675 31.7352C20.9621 31.7208 20.9552 31.7063 20.952 31.7031C20.9493 31.7004 20.9466 31.6946 20.9466 31.6903C20.9466 31.6865 20.9407 31.6694 20.9327 31.6528C20.9161 31.6148 20.9086 31.5987 20.8909 31.558C20.7983 31.3487 20.6505 31.0617 20.552 30.8979C20.5451 30.8872 20.536 30.8706 20.5317 30.862C20.5269 30.8529 20.5167 30.8358 20.5087 30.823C20.5006 30.8107 20.4798 30.7769 20.4626 30.748C20.3914 30.6302 20.2833 30.4685 20.1837 30.3299C20.1778 30.3213 20.1682 30.3079 20.1623 30.2994C20.1564 30.2908 20.1286 30.2539 20.1007 30.2169C19.8817 29.9278 19.6949 29.7126 19.439 29.4545C19.3378 29.3528 19.137 29.1687 19.0262 29.0755C19.0064 29.0584 18.9775 29.0343 18.9625 29.0214C18.9475 29.0086 18.9261 28.9914 18.9143 28.9829C18.9031 28.9743 18.8817 28.9566 18.8667 28.9438C18.8522 28.9304 18.8292 28.9127 18.8158 28.9036C18.8024 28.8945 18.7783 28.8763 18.7623 28.8624C18.7462 28.849 18.7194 28.8292 18.7034 28.8191C18.6868 28.8083 18.6622 28.7896 18.6482 28.7778C18.6343 28.7655 18.6054 28.7446 18.5845 28.7307C18.5631 28.7173 18.5278 28.6922 18.5053 28.675C18.4833 28.6579 18.448 28.6338 18.4277 28.6215C18.4068 28.6092 18.3479 28.5706 18.2965 28.5364C18.1996 28.4716 18.1498 28.4405 17.994 28.3506C17.8934 28.2922 17.6203 28.153 17.5577 28.1284C17.5357 28.1193 17.5057 28.1054 17.4908 28.0974C17.4763 28.0893 17.4506 28.0781 17.4345 28.0727C17.4185 28.0674 17.3885 28.0551 17.3676 28.0449C17.3473 28.0353 17.3269 28.0272 17.3232 28.0272C17.3194 28.0272 17.2964 28.0192 17.2723 28.0096C17.2215 27.9887 17.1877 27.9764 17.1428 27.963C17.1251 27.9582 17.1015 27.9496 17.0908 27.9448C17.0796 27.94 17.0657 27.9362 17.0598 27.9362C17.0534 27.9362 17.0416 27.9325 17.0325 27.9282C17.0239 27.9234 17.0068 27.9175 16.9939 27.9148C16.965 27.9089 16.9297 27.8998 16.8992 27.8907C16.8858 27.887 16.8606 27.8811 16.8429 27.8773C16.8253 27.8741 16.8023 27.8693 16.7921 27.8666C16.7819 27.8639 16.7589 27.8591 16.7412 27.8559C16.7236 27.8527 16.7005 27.8479 16.6904 27.8452C16.6802 27.8431 16.6679 27.8409 16.6636 27.8409C16.6593 27.8409 16.6197 27.8356 16.5753 27.8297C16.5314 27.8233 16.4719 27.8168 16.4441 27.8152C16.3691 27.8104 16.1876 27.8093 16.163 27.8136Z" fill="#E64348"/>
</svg>
