<svg width="18" height="18" viewBox="0 0 18 18" fill="none" xmlns="http://www.w3.org/2000/svg">
  <path d="M7.79847 0.753552L7.80004 0.753323C9.3103 0.532043 10.8822 0.736912 12.2834 1.34077L12.2853 1.34157C13.5881 1.89831 14.745 2.79661 15.6064 3.92147L15.6075 3.92282C16.3693 4.91242 16.9036 6.0777 17.1571 7.30102L17.1574 7.30263C17.2828 7.89996 17.3381 8.51553 17.3327 9.13436C17.3315 9.26052 17.3321 9.37272 17.3328 9.4789C17.3337 9.64586 17.3346 9.79791 17.328 9.96587C17.3004 10.5262 17.0747 11.0783 16.7018 11.4984L16.7004 11.5C16.4201 11.8178 16.058 12.0633 15.6604 12.2042L15.6579 12.2051C15.1623 12.383 14.6073 12.3992 14.1025 12.2502L14.0984 12.249C13.5195 12.0821 13.003 11.6929 12.6806 11.1817L12.1861 10.3973L11.6 11.1159C11.2093 11.5951 10.6845 11.9643 10.1034 12.1653L10.1011 12.1661C9.4753 12.3852 8.77926 12.4099 8.1354 12.2391L8.1353 12.239C7.58354 12.0927 7.06996 11.802 6.6648 11.4042L6.66482 11.4042L6.66064 11.4002C6.22933 10.9841 5.9141 10.4454 5.76012 9.86429L5.76 9.86383C5.59093 9.22752 5.61343 8.53954 5.82551 7.91832L5.82608 7.91663C6.03831 7.28949 6.44538 6.72729 6.97489 6.32709L6.97489 6.3271L6.97683 6.32562C7.52119 5.91105 8.19778 5.67 8.87947 5.64985L8.87947 5.64988L8.8867 5.64959C9.71648 5.61604 10.559 5.91273 11.1873 6.45823L12.2646 7.39368L12.2909 5.96714C12.2919 5.91199 12.2909 5.85576 12.2901 5.81421C12.29 5.80761 12.2899 5.80138 12.2898 5.79558C12.2889 5.74692 12.2888 5.71586 12.29 5.68984C12.2906 5.67749 12.2914 5.66883 12.2921 5.66324L12.2943 5.65838C12.2965 5.6565 12.3004 5.65366 12.306 5.65104C12.3121 5.64816 12.3173 5.64691 12.3204 5.64649L12.3284 5.64857L12.3352 5.65007C12.3372 5.65161 12.3404 5.65439 12.3437 5.65859C12.3479 5.66388 12.3503 5.66877 12.3514 5.67169C12.3521 6.84475 12.3519 8.01794 12.3517 9.19133C12.3516 9.38332 12.3516 9.57532 12.3516 9.76733C12.3396 10.2469 12.4701 10.7292 12.7286 11.1379C12.9718 11.5264 13.3242 11.8414 13.7347 12.041C14.2976 12.3174 14.9633 12.367 15.5626 12.171C16.2326 11.9585 16.792 11.45 17.068 10.8043C17.2096 10.4792 17.2734 10.1319 17.2716 9.79288L17.2716 9.79147C17.2707 9.68272 17.2712 9.56852 17.2716 9.45034C17.2732 9.04389 17.2749 8.59046 17.2262 8.15056C17.0665 6.58231 16.4457 5.06746 15.4603 3.83768C14.4984 2.63003 13.1925 1.70333 11.7347 1.19464C10.8855 0.896387 9.98751 0.737971 9.08688 0.729216C7.84464 0.714583 6.60208 0.986726 5.47942 1.51581C4.07856 2.17255 2.87219 3.23069 2.03853 4.53433C1.22302 5.80207 0.764306 7.29514 0.731652 8.80369C0.684972 10.5592 1.22049 12.3192 2.23155 13.7529C3.10278 14.9972 4.32285 15.991 5.71819 16.5918C7.12861 17.2042 8.71012 17.4116 10.2314 17.1791C11.6095 16.9726 12.9295 16.4104 14.0339 15.5619C14.0376 15.5614 14.0438 15.5611 14.0515 15.5622C14.0588 15.5632 14.0643 15.5651 14.0676 15.5666L14.071 15.5713L14.0756 15.5771C14.0764 15.5811 14.077 15.5878 14.0761 15.5961C14.0753 15.6026 14.0739 15.6076 14.0727 15.6108C13.1749 16.3027 12.1309 16.8063 11.03 17.0825L11.0297 17.0826C9.9351 17.3578 8.7837 17.4074 7.66989 17.2267L7.66878 17.2265C6.45581 17.0318 5.28661 16.5627 4.27518 15.8654L4.2741 15.8647C3.16867 15.1057 2.25131 14.0731 1.62769 12.886L1.62685 12.8844C0.945761 11.5964 0.613635 10.1243 0.673556 8.66825L0.673617 8.66667C0.727455 7.27819 1.13687 5.90391 1.85301 4.71366L1.85372 4.71248C2.39176 3.81405 3.10196 3.01853 3.93372 2.38253L3.93462 2.38184C5.05535 1.52185 6.40019 0.955037 7.79847 0.753552ZM12.3514 5.66746V5.66797V5.66746ZM8.71385 5.7215C8.02308 5.77935 7.36 6.06373 6.84092 6.51766C6.16225 7.10374 5.74103 7.97222 5.71225 8.87445C5.6759 9.71653 5.98035 10.5577 6.54001 11.1831C7.11986 11.8404 7.96695 12.25 8.84844 12.2857C9.75958 12.3328 10.6696 11.9782 11.3123 11.3379C11.9747 10.688 12.3399 9.75409 12.2841 8.82268C12.241 7.92653 11.8115 7.06894 11.1297 6.49365C10.4684 5.92495 9.58086 5.64248 8.71385 5.7215Z" fill="#DDDDDD" stroke="#DDDDDD" stroke-width="1.33333" />
</svg>