<svg width="20" height="20" viewBox="0 0 20 20" fill="none" xmlns="http://www.w3.org/2000/svg">
  <path d="M8.70339 1.0937C10.3353 0.85459 12.032 1.07557 13.5472 1.72853C14.9555 2.33029 16.2045 3.30007 17.1357 4.51614C17.9592 5.58575 18.5359 6.84386 18.8099 8.16573C18.946 8.81432 19.0052 9.47804 18.9994 10.1402C18.9966 10.4253 19.0054 10.7104 18.994 10.9952C18.9597 11.7087 18.6746 12.4067 18.2004 12.9409C17.8458 13.343 17.3885 13.6535 16.8831 13.8326C16.2545 14.0582 15.5546 14.0787 14.9138 13.8896C14.1768 13.6772 13.5257 13.186 13.1167 12.5372C12.6489 13.1109 12.0213 13.5532 11.3214 13.7953C10.5679 14.0592 9.73544 14.0881 8.96439 13.8834C8.30252 13.7079 7.68648 13.3598 7.19775 12.88C6.67814 12.3786 6.30059 11.7328 6.1157 11.035C5.91307 10.2725 5.93957 9.44995 6.19459 8.70293C6.45002 7.94814 6.93755 7.27545 7.57292 6.79524C8.22701 6.2971 9.03771 6.00778 9.85976 5.98347C10.8601 5.94302 11.8685 6.2985 12.6244 6.95485C12.628 6.76037 12.5977 6.55334 12.6915 6.37361C12.8256 6.0833 13.1751 5.91951 13.4841 6.00021C13.7883 6.06696 14.0198 6.36007 14.018 6.67131C14.0188 8.0396 14.0184 9.4081 14.0182 10.7764C14.0079 11.1291 14.1039 11.4848 14.2928 11.7829C14.4695 12.0656 14.7275 12.2965 15.0274 12.442C15.4368 12.6434 15.9245 12.6791 16.3583 12.5364C16.845 12.383 17.256 12.0096 17.4559 11.5402C17.5581 11.3064 17.6063 11.0512 17.6049 10.7965C17.6009 10.2713 17.6214 9.74425 17.5633 9.221C17.417 7.77937 16.8456 6.38437 15.9395 5.25379C15.0557 4.14393 13.8539 3.29111 12.5144 2.82385C11.7334 2.54947 10.9074 2.40381 10.0797 2.39584C8.93849 2.38229 7.79527 2.63256 6.76302 3.11915C5.47575 3.7225 4.3656 4.69627 3.59973 5.8942C2.8498 7.05966 2.42781 8.43393 2.39813 9.81977C2.35489 11.432 2.84761 13.0521 3.77705 14.3696C4.57758 15.5133 5.70049 16.4279 6.98278 16.9799C8.27921 17.543 9.73464 17.7337 11.1319 17.5199C12.4 17.33 13.6164 16.8115 14.6325 16.0296C14.9244 15.8033 15.3878 15.8698 15.6034 16.1697C15.8269 16.4522 15.7769 16.9054 15.4928 17.1287C14.5187 17.8823 13.3865 18.4295 12.1922 18.7292C11.0098 19.0264 9.76672 19.08 8.56313 18.8848C7.25214 18.6744 5.98978 18.1678 4.89676 17.4143C3.70194 16.5939 2.71153 15.4791 2.03751 14.1961C1.30113 12.8034 0.942699 11.2144 1.00745 9.64083C1.06563 8.14043 1.50754 6.65676 2.28177 5.36996C2.86315 4.39918 3.63001 3.54018 4.52877 2.85294C5.74013 1.92341 7.19198 1.31149 8.70339 1.0937ZM9.7719 7.38564C9.223 7.43107 8.69223 7.65823 8.27822 8.02087C7.73669 8.48773 7.40018 9.18414 7.37846 9.89947C7.34858 10.5682 7.59184 11.2423 8.03834 11.7402C8.50037 12.2651 9.17977 12.5924 9.87909 12.6197C10.6019 12.6582 11.3317 12.3748 11.8436 11.8637C12.3719 11.3465 12.6638 10.5975 12.6184 9.85862C12.5853 9.14727 12.2416 8.45924 11.6973 8.00115C11.1725 7.54863 10.4617 7.32208 9.7719 7.38564Z" fill="#B4B8BB" />
</svg>