<svg width="18" height="20" viewBox="0 0 18 20" fill="none" xmlns="http://www.w3.org/2000/svg">
  <path d="M7.20515 0.980469H10.612C10.7566 0.987069 10.902 0.989269 11.045 1.01407C11.4694 1.08007 11.8726 1.26827 12.2006 1.54467C12.6824 1.94887 12.988 2.55387 13.0302 3.18127C13.0482 3.56087 13.035 3.94067 13.0356 4.32027C14.017 4.31947 14.9984 4.32407 15.9798 4.31547C16.1598 4.31687 16.34 4.31267 16.52 4.31727C16.7318 4.32167 16.939 4.42707 17.0648 4.59767C17.1868 4.76147 17.2314 4.97947 17.1868 5.17847C17.127 5.46307 16.8702 5.69327 16.5804 5.71867C16.334 5.72427 16.0874 5.73067 15.8412 5.72147C14.7876 5.71527 13.7344 5.72887 12.6808 5.72547C12.2542 5.72327 11.8274 5.73067 11.4008 5.72027C10.2536 5.72147 9.10635 5.71887 7.95935 5.72147C7.23315 5.73067 6.50655 5.72287 5.78035 5.72547C5.08015 5.72307 4.37995 5.73087 3.67995 5.72027C3.07315 5.72227 2.46615 5.71687 1.85935 5.72307C1.62655 5.72087 1.37455 5.75887 1.16255 5.63847C0.918952 5.51207 0.773552 5.23087 0.799952 4.95907C0.817352 4.70287 0.990952 4.46707 1.22855 4.37067C1.37675 4.30567 1.54215 4.31387 1.70035 4.32027C2.78875 4.32067 3.87715 4.32047 4.96555 4.32027C4.97115 4.04707 4.95235 3.77407 4.96455 3.50107C4.96855 3.38167 4.96015 3.26187 4.97275 3.14287C5.01215 2.69827 5.17955 2.26547 5.45155 1.91127C5.79015 1.46447 6.29455 1.14987 6.84255 1.03487C6.96175 1.00667 7.08435 1.00007 7.20515 0.980469ZM7.01115 2.44627C6.71295 2.55167 6.47535 2.81247 6.39935 3.11947C6.35335 3.29627 6.37155 3.48027 6.36555 3.66067C6.36575 3.87887 6.36555 4.09707 6.36555 4.31527C8.12115 4.31387 9.87675 4.31887 11.6322 4.31287C11.6288 4.18247 11.6312 4.05187 11.6306 3.92127C11.627 3.68127 11.6516 3.43987 11.6182 3.20107C11.565 2.85627 11.3088 2.55327 10.9782 2.44227C10.8126 2.38347 10.6342 2.38507 10.461 2.38547C9.46055 2.38547 8.46035 2.38567 7.46015 2.38547C7.30895 2.38767 7.15415 2.39147 7.01115 2.44627Z" fill="white" />
  <path d="M2.46484 5.7006C2.93324 5.6998 3.40144 5.701 3.86964 5.7002C3.87084 9.2066 3.86944 12.7134 3.87024 16.22C3.86504 16.3928 3.86244 16.566 3.87244 16.7388C3.89564 17.1006 4.14464 17.4348 4.48324 17.5636C4.62724 17.6232 4.78464 17.6348 4.93884 17.6354C7.61264 17.6354 10.2864 17.6354 12.9602 17.6354C13.1332 17.6362 13.311 17.6378 13.4762 17.5784C13.8482 17.4572 14.119 17.0902 14.13 16.7C14.13 13.067 14.1298 9.434 14.13 5.8012C14.1296 5.7674 14.129 5.7338 14.1282 5.7004C14.5974 5.7004 15.0666 5.7004 15.5358 5.7004C15.5338 9.0936 15.5356 12.4868 15.535 15.88C15.5314 16.2228 15.5522 16.566 15.5238 16.9084C15.458 17.5988 15.0688 18.2508 14.4906 18.6342C14.0948 18.901 13.6174 19.043 13.1402 19.0366C10.507 19.0338 7.87324 19.0364 5.23984 19.0352C4.91904 19.0436 4.59284 19.049 4.27924 18.9716C3.62744 18.8192 3.05004 18.3738 2.73984 17.7802C2.57304 17.467 2.47904 17.1156 2.46524 16.7612C2.46484 13.0744 2.46544 9.3874 2.46484 5.7006Z" fill="white" />
  <path d="M7.20908 8.47352C7.34068 8.45352 7.47868 8.46312 7.60188 8.51632C7.80628 8.59872 7.96768 8.78232 8.01668 8.99792C8.04248 9.11712 8.04188 9.23992 8.03488 9.36092C8.03428 9.85432 8.03488 10.3479 8.03468 10.8413C8.03208 11.2275 8.04348 11.6137 8.03968 12.0001C8.04348 12.7403 8.03228 13.4805 8.03448 14.2209C8.01848 14.5727 7.69288 14.8769 7.34028 14.8705C7.01768 14.8819 6.71288 14.6367 6.64588 14.3229C6.62528 14.2165 6.62988 14.1077 6.62968 13.9999C6.62968 13.3601 6.62968 12.7203 6.62968 12.0805C6.62608 11.6403 6.63748 11.2005 6.63468 10.7603C6.63748 10.3205 6.62588 9.88112 6.62968 9.44152C6.63448 9.26172 6.60888 9.07312 6.68068 8.90292C6.76568 8.68032 6.97508 8.51352 7.20908 8.47352Z" fill="white" />
  <path d="M10.5317 8.47606C10.8309 8.41526 11.1625 8.56946 11.2951 8.84686C11.3477 8.94986 11.3739 9.06546 11.3669 9.18106C11.3661 10.8615 11.3667 12.5417 11.3665 14.2219C11.3549 14.5181 11.1229 14.7873 10.8343 14.8503C10.6525 14.8937 10.4521 14.8655 10.2937 14.7647C10.0893 14.6393 9.95809 14.4009 9.96609 14.1607C9.96709 13.7537 9.96629 13.3465 9.96649 12.9395C9.97009 12.4929 9.95829 12.0463 9.96149 11.5995C9.95909 10.7867 9.97089 9.97386 9.96609 9.16086C9.95669 8.83606 10.2139 8.53266 10.5317 8.47606Z" fill="white" />
</svg>