<svg width="25" height="26" viewBox="0 0 25 26" fill="none" xmlns="http://www.w3.org/2000/svg">
<path d="M10.2564 1.72461H14.5149C14.6957 1.73286 14.8774 1.73561 15.0562 1.76661C15.5867 1.84911 16.0907 2.08436 16.5007 2.42986C17.1029 2.93511 17.4849 3.69136 17.5377 4.47561C17.5602 4.95011 17.5437 5.42486 17.5444 5.89936C18.7712 5.89836 19.9979 5.90411 21.2247 5.89336C21.4497 5.89511 21.6749 5.88986 21.8999 5.89561C22.1647 5.90111 22.4237 6.03286 22.5809 6.24611C22.7334 6.45086 22.7892 6.72336 22.7334 6.97211C22.6587 7.32786 22.3377 7.61561 21.9754 7.64736C21.6674 7.65436 21.3592 7.66236 21.0514 7.65086C19.7344 7.64311 18.4179 7.66011 17.1009 7.65586C16.5677 7.65311 16.0342 7.66236 15.5009 7.64936C14.0669 7.65086 12.6329 7.64761 11.1992 7.65086C10.2914 7.66236 9.38319 7.65261 8.47544 7.65586C7.60019 7.65286 6.72494 7.66261 5.84994 7.64936C5.09144 7.65186 4.33269 7.64511 3.57419 7.65286C3.28319 7.65011 2.96819 7.69761 2.70319 7.54711C2.39869 7.38911 2.21694 7.03761 2.24994 6.69786C2.27169 6.37761 2.48869 6.08286 2.78569 5.96236C2.97094 5.88111 3.17769 5.89136 3.37544 5.89936C4.73594 5.89986 6.09644 5.89961 7.45694 5.89936C7.46394 5.55786 7.44044 5.21661 7.45569 4.87536C7.46069 4.72611 7.45019 4.57636 7.46594 4.42761C7.51519 3.87186 7.72444 3.33086 8.06444 2.88811C8.48769 2.32961 9.11819 1.93636 9.80319 1.79261C9.95219 1.75736 10.1054 1.74911 10.2564 1.72461ZM10.0139 3.55686C9.64119 3.68861 9.34419 4.01461 9.24919 4.39836C9.19169 4.61936 9.21444 4.84936 9.20694 5.07486C9.20719 5.34761 9.20694 5.62036 9.20694 5.89311C11.4014 5.89136 13.5959 5.89761 15.7902 5.89011C15.7859 5.72711 15.7889 5.56386 15.7882 5.40061C15.7837 5.10061 15.8144 4.79886 15.7727 4.50036C15.7062 4.06936 15.3859 3.69061 14.9727 3.55186C14.7657 3.47836 14.5427 3.48036 14.3262 3.48086C13.0757 3.48086 11.8254 3.48111 10.5752 3.48086C10.3862 3.48361 10.1927 3.48836 10.0139 3.55686Z" fill="white"/>
<path d="M4.33203 7.62452C4.91753 7.62352 5.50278 7.62502 6.08803 7.62402C6.08953 12.007 6.08778 16.3905 6.08878 20.7738C6.08228 20.9898 6.07903 21.2063 6.09153 21.4223C6.12053 21.8745 6.43178 22.2923 6.85503 22.4533C7.03503 22.5278 7.23178 22.5423 7.42453 22.543C10.7668 22.543 14.109 22.543 17.4513 22.543C17.6675 22.544 17.8898 22.546 18.0963 22.4718C18.5613 22.3203 18.8998 21.8615 18.9135 21.3738C18.9135 16.8325 18.9133 12.2913 18.9135 7.75027C18.913 7.70802 18.9123 7.66602 18.9113 7.62427C19.4978 7.62427 20.0843 7.62427 20.6708 7.62427C20.6683 11.8658 20.6705 16.1073 20.6698 20.3488C20.6653 20.7773 20.6913 21.2063 20.6558 21.6343C20.5735 22.4973 20.087 23.3123 19.3643 23.7915C18.8695 24.125 18.2728 24.3025 17.6763 24.2945C14.3848 24.291 11.0925 24.2943 7.80078 24.2928C7.39978 24.3033 6.99203 24.31 6.60003 24.2133C5.78528 24.0228 5.06353 23.466 4.67578 22.724C4.46728 22.3325 4.34978 21.8933 4.33253 21.4503C4.33203 16.8418 4.33278 12.233 4.33203 7.62452Z" fill="white"/>
<path d="M10.2643 11.0912C10.4288 11.0662 10.6013 11.0782 10.7553 11.1447C11.0108 11.2477 11.2125 11.4772 11.2738 11.7467C11.306 11.8957 11.3053 12.0492 11.2965 12.2004C11.2958 12.8172 11.2965 13.4342 11.2963 14.0509C11.293 14.5337 11.3073 15.0164 11.3025 15.4994C11.3073 16.4247 11.2933 17.3499 11.296 18.2754C11.276 18.7152 10.869 19.0954 10.4283 19.0874C10.025 19.1017 9.64403 18.7952 9.56028 18.4029C9.53453 18.2699 9.54028 18.1339 9.54003 17.9992C9.54003 17.1994 9.54003 16.3997 9.54003 15.5999C9.53553 15.0497 9.54978 14.4999 9.54628 13.9497C9.54978 13.3999 9.53528 12.8507 9.54003 12.3012C9.54603 12.0764 9.51403 11.8407 9.60378 11.6279C9.71003 11.3497 9.97178 11.1412 10.2643 11.0912Z" fill="white"/>
<path d="M14.4127 11.0936C14.7867 11.0176 15.2012 11.2104 15.3669 11.5571C15.4327 11.6859 15.4654 11.8304 15.4567 11.9749C15.4557 14.0754 15.4564 16.1756 15.4562 18.2759C15.4417 18.6461 15.1517 18.9826 14.7909 19.0614C14.5637 19.1156 14.3132 19.0804 14.1152 18.9544C13.8597 18.7976 13.6957 18.4996 13.7057 18.1994C13.7069 17.6906 13.7059 17.1816 13.7062 16.6729C13.7107 16.1146 13.6959 15.5564 13.6999 14.9979C13.6969 13.9819 13.7117 12.9659 13.7057 11.9496C13.6939 11.5436 14.0154 11.1644 14.4127 11.0936Z" fill="white"/>
</svg>
