<svg width="18" height="20" viewBox="0 0 18 20" fill="none" xmlns="http://www.w3.org/2000/svg">
  <path d="M7.04501 0.818606L10.4435 0.58096C10.5882 0.577457 10.7334 0.569509 10.8778 0.584273C11.3058 0.620508 11.7211 0.780124 12.0676 1.03297C12.5764 1.40258 12.9235 1.98479 13.0093 2.60771C13.0538 2.98513 13.0671 3.36493 13.0942 3.74356C14.0731 3.67431 15.0525 3.61044 16.0309 3.5334C16.2105 3.52224 16.39 3.50548 16.5699 3.49751C16.7815 3.48713 16.9955 3.57781 17.1329 3.73922C17.266 3.89411 17.3257 4.10847 17.2951 4.3101C17.2553 4.59818 17.0152 4.84573 16.7279 4.89128C16.4825 4.91406 16.2369 4.93764 15.9907 4.94564C14.9392 5.01295 13.8895 5.09999 12.8383 5.17009C12.4126 5.19765 11.9873 5.23481 11.561 5.25419C10.4167 5.33541 9.27211 5.41284 8.12809 5.49545C7.4043 5.55528 6.67892 5.59819 5.95468 5.65144C5.25601 5.69789 4.55806 5.75451 3.85903 5.79277C3.25385 5.83709 2.64795 5.87404 2.04306 5.92256C1.81067 5.9366 1.56194 5.99209 1.34206 5.88677C1.09023 5.77767 0.92557 5.5073 0.932946 5.23432C0.932432 4.97753 1.08916 4.73019 1.31946 4.61745C1.46276 4.54227 1.62833 4.53892 1.78659 4.53427C2.87237 4.45874 3.9581 4.38262 5.04384 4.3065C5.03037 4.03357 4.99257 3.76255 4.9857 3.48936C4.98136 3.36997 4.96462 3.25105 4.96889 3.13146C4.97718 2.6852 5.11398 2.24177 5.36061 1.86946C5.66722 1.40013 6.14845 1.05111 6.68709 0.898167C6.80403 0.861721 6.92587 0.846585 7.04501 0.818606ZM6.95373 2.29437C6.66361 2.42031 6.44478 2.69705 6.39038 3.00861C6.35683 3.18818 6.38782 3.37047 6.39442 3.55084C6.40984 3.7685 6.42486 3.98618 6.44008 4.20385C8.19131 4.07999 9.94298 3.96251 11.6937 3.83408C11.6812 3.70423 11.6745 3.57378 11.6648 3.44354C11.6444 3.20438 11.6521 2.96185 11.6022 2.72596C11.525 2.38571 11.2483 2.10132 10.9108 2.01365C10.7415 1.96655 10.5636 1.98059 10.3909 1.99307C9.39292 2.06285 8.39517 2.13282 7.3974 2.2024C7.24672 2.21514 7.09256 2.22973 6.95373 2.29437Z" fill="white" />
  <path d="M2.46484 5.7006C2.93324 5.6998 3.40144 5.701 3.86964 5.7002C3.87084 9.2066 3.86944 12.7134 3.87024 16.22C3.86504 16.3928 3.86244 16.566 3.87244 16.7388C3.89564 17.1006 4.14464 17.4348 4.48324 17.5636C4.62724 17.6232 4.78464 17.6348 4.93884 17.6354C7.61264 17.6354 10.2864 17.6354 12.9602 17.6354C13.1332 17.6362 13.311 17.6378 13.4762 17.5784C13.8482 17.4572 14.119 17.0902 14.13 16.7C14.13 13.067 14.1298 9.434 14.13 5.8012C14.1296 5.7674 14.129 5.7338 14.1282 5.7004C14.5974 5.7004 15.0666 5.7004 15.5358 5.7004C15.5338 9.0936 15.5356 12.4868 15.535 15.88C15.5314 16.2228 15.5522 16.566 15.5238 16.9084C15.458 17.5988 15.0688 18.2508 14.4906 18.6342C14.0948 18.901 13.6174 19.043 13.1402 19.0366C10.507 19.0338 7.87324 19.0364 5.23984 19.0352C4.91904 19.0436 4.59284 19.049 4.27924 18.9716C3.62744 18.8192 3.05004 18.3738 2.73984 17.7802C2.57304 17.467 2.47904 17.1156 2.46524 16.7612C2.46484 13.0744 2.46544 9.3874 2.46484 5.7006Z" fill="white" />
  <path d="M7.20908 8.47352C7.34068 8.45352 7.47868 8.46312 7.60188 8.51632C7.80628 8.59872 7.96768 8.78232 8.01668 8.99792C8.04248 9.11712 8.04188 9.23992 8.03488 9.36092C8.03428 9.85432 8.03488 10.3479 8.03468 10.8413C8.03208 11.2275 8.04348 11.6137 8.03968 12.0001C8.04348 12.7403 8.03228 13.4805 8.03448 14.2209C8.01848 14.5727 7.69288 14.8769 7.34028 14.8705C7.01768 14.8819 6.71288 14.6367 6.64588 14.3229C6.62528 14.2165 6.62988 14.1077 6.62968 13.9999C6.62968 13.3601 6.62968 12.7203 6.62968 12.0805C6.62608 11.6403 6.63748 11.2005 6.63468 10.7603C6.63748 10.3205 6.62588 9.88112 6.62968 9.44152C6.63448 9.26172 6.60888 9.07312 6.68068 8.90292C6.76568 8.68032 6.97508 8.51352 7.20908 8.47352Z" fill="white" />
  <path d="M10.5317 8.47606C10.8309 8.41526 11.1625 8.56946 11.2951 8.84686C11.3477 8.94986 11.3739 9.06546 11.3669 9.18106C11.3661 10.8615 11.3667 12.5417 11.3665 14.2219C11.3549 14.5181 11.1229 14.7873 10.8343 14.8503C10.6525 14.8937 10.4521 14.8655 10.2937 14.7647C10.0893 14.6393 9.95809 14.4009 9.96609 14.1607C9.96709 13.7537 9.96629 13.3465 9.96649 12.9395C9.97009 12.4929 9.95829 12.0463 9.96149 11.5995C9.95909 10.7867 9.97089 9.97386 9.96609 9.16086C9.95669 8.83606 10.2139 8.53266 10.5317 8.47606Z" fill="white" />
</svg>