<svg width="25" height="26" viewBox="0 0 25 26" fill="none" xmlns="http://www.w3.org/2000/svg">
<path d="M10.0533 1.52326L14.3015 1.2262C14.4823 1.22182 14.6638 1.21189 14.8443 1.23034C15.3793 1.27564 15.8985 1.47515 16.3316 1.79121C16.9676 2.25322 17.4014 2.98098 17.5087 3.75964C17.5643 4.23142 17.5809 4.70616 17.6148 5.17945C18.8385 5.09288 20.0627 5.01304 21.2857 4.91675C21.5102 4.9028 21.7346 4.88185 21.9594 4.87189C22.2239 4.85891 22.4915 4.97227 22.6632 5.17403C22.8296 5.36764 22.9043 5.63559 22.866 5.88762C22.8162 6.24772 22.5161 6.55716 22.1569 6.6141C21.8502 6.64257 21.5432 6.67205 21.2354 6.68205C19.9211 6.76619 18.609 6.87498 17.2949 6.96261C16.7628 6.99707 16.2312 7.04351 15.6983 7.06774C14.2679 7.16926 12.8372 7.26605 11.4072 7.36931C10.5024 7.4441 9.59573 7.49773 8.69042 7.5643C7.81709 7.62236 6.94465 7.69314 6.07086 7.74096C5.31438 7.79636 4.55701 7.84256 3.80089 7.9032C3.51041 7.92075 3.19949 7.99011 2.92464 7.85846C2.60986 7.72209 2.40403 7.38412 2.41325 7.0429C2.41261 6.72191 2.60852 6.41274 2.89639 6.27182C3.07552 6.17784 3.28248 6.17365 3.48031 6.16783C4.83753 6.07343 6.1947 5.97827 7.55187 5.88312C7.53503 5.54196 7.48778 5.20319 7.47919 4.8617C7.47377 4.71247 7.45285 4.56381 7.45818 4.41433C7.46855 3.8565 7.63955 3.30222 7.94783 2.83683C8.33109 2.25017 8.93263 1.81389 9.60593 1.62271C9.75211 1.57715 9.90441 1.55823 10.0533 1.52326ZM9.93924 3.36796C9.57658 3.52539 9.30305 3.87131 9.23505 4.26076C9.19311 4.48523 9.23184 4.71308 9.24009 4.93856C9.25937 5.21062 9.27814 5.48273 9.29717 5.75481C11.4862 5.59999 13.6758 5.45314 15.8642 5.2926C15.8486 5.13029 15.8402 4.96723 15.828 4.80443C15.8026 4.50547 15.8122 4.20231 15.7498 3.90745C15.6534 3.48214 15.3075 3.12665 14.8856 3.01707C14.6739 2.95819 14.4516 2.97574 14.2357 2.99134C12.9882 3.07857 11.741 3.16603 10.4938 3.25299C10.3055 3.26892 10.1128 3.28716 9.93924 3.36796Z" fill="white"/>
<path d="M4.32812 7.6255C4.91363 7.6245 5.49887 7.626 6.08412 7.625C6.08562 12.008 6.08387 16.3915 6.08487 20.7748C6.07837 20.9908 6.07512 21.2073 6.08762 21.4233C6.11662 21.8755 6.42788 22.2933 6.85113 22.4543C7.03113 22.5288 7.22787 22.5433 7.42062 22.544C10.7629 22.544 14.1051 22.544 17.4474 22.544C17.6636 22.545 17.8859 22.547 18.0924 22.4728C18.5574 22.3213 18.8959 21.8625 18.9096 21.3748C18.9096 16.8335 18.9094 12.2923 18.9096 7.75125C18.9091 7.709 18.9084 7.667 18.9074 7.62525C19.4939 7.62525 20.0804 7.62525 20.6669 7.62525C20.6644 11.8668 20.6666 16.1083 20.6659 20.3498C20.6614 20.7783 20.6874 21.2073 20.6519 21.6353C20.5696 22.4983 20.0831 23.3133 19.3604 23.7925C18.8656 24.126 18.2689 24.3035 17.6724 24.2955C14.3809 24.292 11.0886 24.2953 7.79687 24.2938C7.39587 24.3043 6.98812 24.311 6.59612 24.2143C5.78137 24.0238 5.05963 23.467 4.67188 22.725C4.46338 22.3335 4.34587 21.8943 4.32862 21.4513C4.32812 16.8428 4.32888 12.234 4.32812 7.6255Z" fill="white"/>
<path d="M10.2604 11.0921C10.4249 11.0671 10.5974 11.0791 10.7514 11.1456C11.0069 11.2486 11.2086 11.4781 11.2699 11.7476C11.3021 11.8966 11.3014 12.0501 11.2926 12.2014C11.2919 12.8181 11.2926 13.4351 11.2924 14.0519C11.2891 14.5346 11.3034 15.0174 11.2986 15.5004C11.3034 16.4256 11.2894 17.3509 11.2921 18.2764C11.2721 18.7161 10.8651 19.0964 10.4244 19.0884C10.0211 19.1026 9.64012 18.7961 9.55637 18.4039C9.53062 18.2709 9.53637 18.1349 9.53612 18.0001C9.53612 17.2004 9.53612 16.4006 9.53612 15.6009C9.53162 15.0506 9.54587 14.5009 9.54237 13.9506C9.54587 13.4009 9.53137 12.8516 9.53612 12.3021C9.54212 12.0774 9.51012 11.8416 9.59987 11.6289C9.70612 11.3506 9.96787 11.1421 10.2604 11.0921Z" fill="white"/>
<path d="M14.4127 11.0946C14.7867 11.0186 15.2012 11.2113 15.3669 11.5581C15.4327 11.6868 15.4654 11.8313 15.4567 11.9758C15.4557 14.0763 15.4564 16.1766 15.4562 18.2768C15.4417 18.6471 15.1517 18.9836 14.7909 19.0623C14.5637 19.1166 14.3132 19.0813 14.1152 18.9553C13.8597 18.7986 13.6957 18.5006 13.7057 18.2003C13.7069 17.6916 13.7059 17.1826 13.7062 16.6738C13.7107 16.1156 13.6959 15.5573 13.6999 14.9988C13.6969 13.9828 13.7117 12.9668 13.7057 11.9506C13.6939 11.5446 14.0154 11.1653 14.4127 11.0946Z" fill="white"/>
</svg>
