<svg width="26" height="26" viewBox="0 0 26 26" fill="none" xmlns="http://www.w3.org/2000/svg">
  <path d="M12.6152 0.5H13.3855C14.5347 0.54025 15.6797 0.7275 16.776 1.0765C18.5222 1.62675 20.1413 2.5715 21.4845 3.81475C22.76 4.991 23.7865 6.43575 24.4765 8.0275C25.1063 9.4735 25.448 11.0403 25.5 12.6155V13.386C25.461 14.4855 25.2888 15.5818 24.967 16.6345C24.4238 18.4348 23.462 20.1055 22.1848 21.4852C20.8753 22.905 19.2323 24.016 17.425 24.6985C16.1353 25.1888 14.7633 25.4535 13.385 25.5H12.6145C11.1275 25.4505 9.648 25.1443 8.271 24.5788C6.73575 23.9528 5.33 23.014 4.15775 21.8423C2.854 20.5385 1.84 18.9453 1.2215 17.2075C0.7815 15.9817 0.5445 14.686 0.5 13.3852V12.6137C0.5205 12.1412 0.5555 11.6685 0.62525 11.2005C0.90075 9.2635 1.64625 7.39675 2.7755 5.79975C3.93325 4.1555 5.4925 2.7965 7.28125 1.8775C8.92625 1.02525 10.7647 0.55925 12.6152 0.5Z" fill="#26A5E4" />

  <path d="M17.9125 8.0405C17.3593 8.141 16.8383 8.3645 16.313 8.55825C14.8933 9.11775 13.4845 9.7055 12.0805 10.303C10.0978 11.1503 8.12125 12.0112 6.144 12.8707C5.849 12.9962 5.53575 13.1217 5.31725 13.3665C5.2195 13.4707 5.19175 13.637 5.2595 13.7645C5.31575 13.8805 5.42875 13.954 5.5385 14.0137C5.70925 14.1017 5.89275 14.162 6.07475 14.2223C6.80725 14.4503 7.536 14.7093 8.29775 14.822C8.558 14.8648 8.8265 14.837 9.07575 14.7533C9.50725 14.6185 9.873 14.3452 10.2427 14.095C11.484 13.259 12.725 12.4225 13.974 11.5978C14.3343 11.3648 14.6898 11.124 15.058 10.9035C15.148 10.8453 15.2647 10.8163 15.3682 10.8538C15.461 10.9095 15.51 11.0473 15.4435 11.1405C15.379 11.2418 15.2905 11.3242 15.211 11.4137C14.9945 11.654 14.758 11.875 14.5288 12.103C14.3013 12.3093 14.0898 12.5322 13.861 12.7372C13.2603 13.3125 12.6435 13.8705 12.041 14.444C11.7738 14.7323 11.4505 14.9707 11.2293 15.2997C11.1193 15.4575 11.0683 15.668 11.1475 15.8503C11.2613 16.104 11.4918 16.2783 11.7148 16.4318C12.474 16.93 13.2185 17.4503 13.9738 17.9548C14.3248 18.191 14.6837 18.416 15.0247 18.6673C15.385 18.92 15.7588 19.1932 16.2048 19.262C16.4263 19.2947 16.6787 19.2875 16.856 19.132C17.1658 18.8693 17.2753 18.4555 17.363 18.0753C17.662 16.471 17.9358 14.862 18.197 13.2512C18.3878 12.054 18.5748 10.8558 18.7235 9.6525C18.7543 9.3355 18.8158 9.01925 18.7973 8.69975C18.7805 8.51825 18.7615 8.31225 18.616 8.18325C18.422 8.025 18.1518 8.0005 17.9125 8.0405Z" fill="#FFFFFF" />
</svg>
