<svg width="20" height="20" viewBox="0 0 20 20" fill="none" xmlns="http://www.w3.org/2000/svg">
  <path d="M9.88603 0.967814C11.5178 0.943014 13.1544 1.37201 14.5614 2.19961C15.7818 2.91321 16.8306 3.91721 17.5962 5.10581C18.356 6.27901 18.8352 7.63181 18.9828 9.02161C19.1108 10.2076 19.0048 11.419 18.6666 12.5632C18.228 14.057 17.3904 15.4302 16.2676 16.5082C15.1514 17.5862 13.753 18.3702 12.2486 18.7522C11.055 19.0586 9.79883 19.1144 8.58183 18.9232C7.20983 18.7082 5.89063 18.1678 4.76123 17.3598C3.59903 16.5332 2.63763 15.427 1.98083 14.1612C1.30063 12.8568 0.951226 11.3824 0.969426 9.91201C0.979426 8.45081 1.35323 6.99342 2.05003 5.70901C2.67263 4.55581 3.54983 3.54141 4.60043 2.75821C5.76743 1.88361 7.15063 1.30001 8.59183 1.07621C9.01983 1.00881 9.45283 0.973014 9.88603 0.967814ZM7.34563 2.84241C5.96803 3.35161 4.74743 4.27181 3.87283 5.45141C3.03983 6.56621 2.52383 7.91401 2.40023 9.30021C3.60003 9.30021 4.80003 9.30021 5.99983 9.30021C6.17023 6.88201 7.01343 4.51681 8.40823 2.53421C8.04703 2.61021 7.69163 2.71381 7.34563 2.84241ZM11.5954 2.53421C12.9896 4.51681 13.8344 6.88181 14.0026 9.30021C15.2026 9.30001 16.4026 9.30041 17.6026 9.30001C17.4508 7.55401 16.6642 5.87401 15.427 4.63361C14.391 3.58021 13.0416 2.83861 11.5954 2.53421ZM7.40463 9.29982C9.13563 9.30062 10.8666 9.30022 12.5976 9.29982C12.4128 6.92141 11.4944 4.60681 10.0016 2.74621C8.50863 4.60701 7.59223 6.92161 7.40463 9.29982ZM2.40023 10.7002C2.42803 11.0022 2.47283 11.3028 2.53663 11.5994C2.83783 13.0254 3.56423 14.3564 4.59483 15.3862C5.62883 16.4288 6.97023 17.1644 8.40803 17.4664C7.99243 16.8728 7.62343 16.2464 7.30823 15.594C6.56683 14.0654 6.12143 12.3946 5.99983 10.7002C4.80003 10.7002 3.60003 10.7002 2.40023 10.7002ZM7.40483 10.7006C7.59223 13.0792 8.50863 15.3942 10.0022 17.2548C11.4936 15.3932 12.4132 13.0794 12.5976 10.7004C10.8666 10.7002 9.13563 10.6998 7.40483 10.7006ZM14.0026 10.7002C13.8342 13.119 12.9896 15.4848 11.5946 17.4674C12.6746 17.2378 13.703 16.769 14.5846 16.104C15.386 15.5014 16.0682 14.7402 16.578 13.8766C17.1494 12.9114 17.5036 11.818 17.6024 10.7004C16.4026 10.7 15.2026 10.7004 14.0026 10.7002Z" fill="#9294A5" />
</svg>