<svg width="200" height="200" viewBox="0 0 200 200" fill="none" xmlns="http://www.w3.org/2000/svg">
<path d="M7.98861 26.5846C7.79061 23.3146 10.5326 20.2446 13.7846 20.0086C24.3906 19.9766 34.9946 20.0146 45.6026 19.9966C48.6366 19.8286 51.5306 22.2306 52.0446 25.2026C59.0006 59.6266 65.9306 94.0566 72.8886 128.479C73.6726 132.503 77.5086 135.577 81.5886 135.587C92.8786 135.621 104.169 135.591 115.459 135.601C113.637 139.707 112.479 144.113 112.119 148.595C102.283 148.609 92.4446 148.597 82.6066 148.601C77.0886 148.759 71.4866 146.941 67.2886 143.321C63.5926 140.169 60.9506 135.775 60.0106 131.001C56.2986 112.579 52.5766 94.1566 48.8606 75.7346C45.9586 61.4766 43.1346 47.2026 40.2066 32.9506C35.1366 32.9286 30.0706 33.0366 25.0026 33.0026C21.3286 32.8966 17.6526 32.9826 13.9786 32.9406C10.7426 32.7726 7.91261 29.8506 7.98861 26.5846Z" fill="#B4B8BB"/>
<path d="M94.9899 58.6303C96.1199 58.4483 97.2659 58.5063 98.4059 58.5003C112.472 58.4983 126.538 58.5023 140.604 58.4983C143.542 58.5243 146.468 59.5983 148.702 61.5123C151.546 63.8603 153.21 67.5183 153.196 71.1983C153.206 84.7983 153.198 98.3983 153.2 112C148.776 111.866 144.33 112.446 140.102 113.766C140.094 99.6783 140.104 85.5883 140.098 71.5003C125.814 71.5043 111.53 71.4923 97.2459 71.5063C97.2539 85.6703 97.2499 99.8343 97.2499 113.998C110.498 114.004 123.746 113.998 136.996 114C137.754 114.004 138.516 113.96 139.272 114.068C132 116.418 125.5 121.036 120.734 126.996C112.758 127.006 104.782 126.996 96.8059 127.002C93.7399 126.988 90.6899 125.842 88.3919 123.81C85.7159 121.464 84.1199 117.95 84.1019 114.392C84.0959 100.726 84.1019 87.0603 84.0999 73.3943C84.0879 71.4583 84.0399 69.4803 84.6219 67.6083C85.9319 62.9383 90.1859 59.2743 94.9899 58.6303Z" fill="#B4B8BB"/>
<path d="M74.5015 151.763C77.2195 151.353 80.0575 151.713 82.5695 152.835C85.8395 154.267 88.5275 156.981 89.9095 160.275C91.4035 163.747 91.4095 167.823 89.9335 171.301C87.8495 176.423 82.5315 180.017 76.9975 180.005C73.6175 180.117 70.2115 178.955 67.6035 176.803C65.1055 174.783 63.3235 171.894 62.6755 168.744C62.0295 165.537 62.4555 162.101 63.9995 159.205C66.0695 155.261 70.0895 152.397 74.5015 151.763Z" fill="#B4B8BB"/>
<path d="M153.793 132.091L153.128 156.534H146.889L146.207 132.091H153.793ZM150.009 167.443C148.884 167.443 147.918 167.045 147.111 166.25C146.304 165.443 145.906 164.477 145.918 163.352C145.906 162.239 146.304 161.284 147.111 160.489C147.918 159.693 148.884 159.295 150.009 159.295C151.088 159.295 152.037 159.693 152.855 160.489C153.673 161.284 154.088 162.239 154.099 163.352C154.088 164.102 153.889 164.79 153.503 165.415C153.128 166.028 152.634 166.523 152.02 166.898C151.406 167.261 150.736 167.443 150.009 167.443Z" fill="#B4B8BB"/>
</svg>
