<svg width="18" height="16" viewBox="0 0 18 16" fill="none" xmlns="http://www.w3.org/2000/svg">
  <path d="M0.905792 0.289948C1.01751 0.119025 1.21521 0.0052617 1.42111 8.2214e-05C2.47805 -0.000102767 3.53499 8.2214e-05 4.59174 8.2214e-05C4.87878 0.00600162 5.14194 0.227239 5.19808 0.505821C5.8848 3.90171 6.56816 7.29834 7.25451 10.6942C7.27615 10.8002 7.29237 10.9083 7.33564 11.0083C7.44848 11.2827 7.70735 11.4921 8.00166 11.5442C8.11338 11.5664 8.22771 11.5611 8.34092 11.5614C10.8026 11.5616 13.2645 11.5611 15.7264 11.5616C16.0929 11.5807 16.4605 11.3644 16.6043 11.0272C16.6666 10.9014 16.6646 10.7527 16.744 10.6339C16.8968 10.3674 17.2543 10.2458 17.5404 10.3618C17.8168 10.4613 17.9972 10.7636 17.9526 11.0518C17.8646 11.5649 17.579 12.0409 17.1707 12.3674C16.888 12.5957 16.5469 12.7514 16.1888 12.8178C15.9874 12.8568 15.7816 12.8585 15.5774 12.8563C13.1088 12.8563 10.6404 12.8563 8.17176 12.8563C7.82895 12.8548 7.48634 12.7769 7.17953 12.6247C6.57917 12.3311 6.13285 11.752 6.00398 11.1006C5.56792 8.93783 5.1315 6.77521 4.69451 4.6126C4.47033 3.50641 4.25062 2.39929 4.02364 1.29384C3.16869 1.29625 2.31355 1.29458 1.4586 1.29477C1.26557 1.29606 1.07365 1.21005 0.950367 1.06225C0.76815 0.850997 0.748939 0.520435 0.905792 0.289948Z" fill="#FFFFFF" />
  <path d="M9.52421 3.86174C9.57009 3.856 9.61653 3.8523 9.66297 3.85156C11.1304 3.85156 12.598 3.85156 14.0655 3.85156C14.3475 3.85563 14.6271 3.95626 14.8451 4.13403C15.0931 4.33177 15.261 4.6259 15.3035 4.93888C15.3216 5.05672 15.3142 5.17622 15.3156 5.29516C15.3156 6.68196 15.3156 8.06896 15.3156 9.45595C15.3114 9.73508 15.2105 10.0124 15.0316 10.2282C14.8298 10.478 14.528 10.6457 14.2076 10.6855C14.105 10.6999 14.0015 10.6953 13.8984 10.6959C12.4867 10.6959 11.0748 10.6959 9.66316 10.6959C9.40821 10.6916 9.1553 10.6089 8.94809 10.4613C8.60809 10.224 8.40125 9.8137 8.41468 9.40119C8.41505 7.98923 8.41487 6.57726 8.41468 5.1653C8.41076 5.01251 8.43035 4.85842 8.48014 4.71339C8.62711 4.26296 9.04974 3.91705 9.52421 3.86174ZM9.72042 5.14643C9.72042 6.56469 9.72042 7.98275 9.72042 9.40101C11.1504 9.40101 12.5801 9.40101 14.0101 9.40101C14.0101 7.98275 14.0101 6.56469 14.0101 5.14643C12.5801 5.14643 11.1504 5.14643 9.72042 5.14643Z" fill="#FFFFFF" />
  <path d="M7.51182 13.1709C7.78561 13.1405 8.06873 13.1894 8.31454 13.3138C8.58535 13.4485 8.81103 13.6712 8.94643 13.9402C9.09359 14.2262 9.13704 14.563 9.06878 14.8768C9.00574 15.1772 8.83956 15.4552 8.60475 15.655C8.38504 15.8437 8.10584 15.9641 7.8162 15.9915C7.48738 16.0266 7.14701 15.943 6.87321 15.7591C6.63467 15.6002 6.44481 15.3692 6.3398 15.1035C6.19787 14.7491 6.20794 14.3379 6.36834 13.9912C6.57033 13.5447 7.01981 13.2191 7.51182 13.1709Z" fill="#FFFFFF" />
  <path d="M16.0558 13.1719C16.525 13.115 17.0154 13.309 17.3154 13.6714C17.6142 14.0195 17.7213 14.5158 17.5974 14.9555C17.5135 15.2661 17.3181 15.5451 17.0547 15.7324C16.7759 15.9324 16.4226 16.0277 16.0802 15.9931C15.7074 15.9605 15.3526 15.7728 15.1154 15.4861C14.9043 15.235 14.7844 14.9084 14.7892 14.5809C14.7845 14.2631 14.8979 13.9463 15.0977 13.6984C15.3299 13.4061 15.6824 13.2113 16.0558 13.1719Z" fill="#FFFFFF" />
</svg>