<svg width="50" height="50" viewBox="0 0 50 50" fill="none" xmlns="http://www.w3.org/2000/svg">
<path d="M1.99862 6.64615C1.94912 5.82865 2.63462 5.06115 3.44762 5.00215C6.09912 4.99415 8.75012 5.00365 11.4021 4.99915C12.1606 4.95715 12.8841 5.55765 13.0126 6.30065C14.7516 14.9066 16.4841 23.5141 18.2236 32.1196C18.4196 33.1256 19.3786 33.8941 20.3986 33.8966C23.2211 33.9051 26.0436 33.8976 28.8661 33.9001C28.4106 34.9266 28.1211 36.0281 28.0311 37.1486C25.5721 37.1521 23.1126 37.1491 20.6531 37.1501C19.2736 37.1896 17.8731 36.7351 16.8236 35.8301C15.8996 35.0421 15.2391 33.9436 15.0041 32.7501C14.0761 28.1446 13.1456 23.5391 12.2166 18.9336C11.4911 15.3691 10.7851 11.8006 10.0531 8.23765C8.78562 8.23215 7.51912 8.25915 6.25212 8.25065C5.33362 8.22415 4.41462 8.24565 3.49612 8.23515C2.68712 8.19315 1.97962 7.46265 1.99862 6.64615Z" fill="#B4B8BB"/>
<path d="M23.7475 14.6576C24.03 14.6121 24.3165 14.6266 24.6015 14.6251C28.118 14.6246 31.6345 14.6256 35.151 14.6246C35.8855 14.6311 36.617 14.8996 37.1755 15.3781C37.8865 15.9651 38.3025 16.8796 38.299 17.7996C38.3015 21.1996 38.2995 24.5996 38.3 28.0001C37.194 27.9666 36.0825 28.1116 35.0255 28.4416C35.0235 24.9196 35.026 21.3971 35.0245 17.8751C31.4535 17.8761 27.8825 17.8731 24.3115 17.8766C24.3135 21.4176 24.3125 24.9586 24.3125 28.4996C27.6245 28.5011 30.9365 28.4996 34.249 28.5001C34.4385 28.5011 34.629 28.4901 34.818 28.5171C33 29.1046 31.375 30.2591 30.1835 31.7491C28.1895 31.7516 26.1955 31.7491 24.2015 31.7506C23.435 31.7471 22.6725 31.4606 22.098 30.9526C21.429 30.3661 21.03 29.4876 21.0255 28.5981C21.024 25.1816 21.0255 21.7651 21.025 18.3486C21.022 17.8646 21.01 17.3701 21.1555 16.9021C21.483 15.7346 22.5465 14.8186 23.7475 14.6576Z" fill="#B4B8BB"/>
<path d="M37.41 32.7076C38.276 32.6091 39.1915 32.7096 39.9615 33.1401C40.613 33.4991 41.13 34.0741 41.464 34.7341C41.892 35.5551 42.0645 36.4846 42.109 37.4021C42.153 38.6266 42.053 39.8971 41.519 41.0181C41.2035 41.7036 40.7025 42.3151 40.0515 42.7051C39.4385 43.0766 38.7135 43.2381 38.001 43.2256C37.226 43.2376 36.437 43.0396 35.792 42.6011C35.223 42.2221 34.79 41.6656 34.493 41.0551C34.112 40.2751 33.95 39.4071 33.899 38.5461C33.856 37.6731 33.891 36.7886 34.0965 35.9361C34.2775 35.1716 34.6145 34.4306 35.145 33.8446C35.725 33.2011 36.5525 32.8026 37.41 32.7076ZM37.6795 34.4841C37.281 34.5636 36.942 34.8321 36.7175 35.1636C36.3015 35.7561 36.176 36.4936 36.1155 37.2001C36.0595 38.0561 36.078 38.9296 36.291 39.7651C36.432 40.2646 36.654 40.7721 37.066 41.1071C37.509 41.4726 38.169 41.5346 38.678 41.2736C39.122 41.0381 39.414 40.5936 39.591 40.1356C39.8545 39.4236 39.9125 38.6526 39.903 37.8991C39.911 37.2946 39.86 36.6846 39.7015 36.1001C39.561 35.6131 39.3475 35.1176 38.947 34.7881C38.6015 34.4971 38.1195 34.3851 37.6795 34.4841Z" fill="#B4B8BB"/>
<path d="M18.6268 37.9404C19.3063 37.8379 20.0158 37.9279 20.6438 38.2084C21.4613 38.5664 22.1333 39.2449 22.4788 40.0684C22.8523 40.9364 22.8538 41.9554 22.4848 42.8249C21.9638 44.1054 20.6343 45.0039 19.2508 45.0009C18.4058 45.0289 17.5543 44.7384 16.9023 44.2004C16.2778 43.6954 15.8323 42.9729 15.6703 42.1854C15.5088 41.3839 15.6153 40.5249 16.0013 39.8009C16.5188 38.8149 17.5238 38.0989 18.6268 37.9404Z" fill="#B4B8BB"/>
</svg>
