<svg width="40" height="40" viewBox="0 0 40 40" fill="none" xmlns="http://www.w3.org/2000/svg">
  <path d="M1.81158 4.5799C2.03502 4.23805 2.43042 4.01052 2.84223 4.00016C4.9561 3.99979 7.06998 4.00016 9.18348 4.00016C9.75756 4.012 10.2839 4.45448 10.3962 5.01164C11.7696 11.8034 13.1363 18.5967 14.509 25.3885C14.5523 25.6005 14.5847 25.8165 14.6713 26.0167C14.897 26.5653 15.4147 26.9841 16.0033 27.0884C16.2268 27.1328 16.4554 27.1221 16.6818 27.1228C21.6053 27.1232 26.5291 27.1221 31.4529 27.1232C32.1858 27.1613 32.9211 26.7288 33.2086 26.0544C33.3332 25.8028 33.3291 25.5054 33.488 25.2679C33.7935 24.7347 34.5086 24.4917 35.0808 24.7236C35.6336 24.9227 35.9943 25.5272 35.9052 26.1036C35.7291 27.1299 35.158 28.0818 34.3415 28.7348C33.776 29.1913 33.0938 29.5028 32.3776 29.6356C31.9747 29.7137 31.5633 29.717 31.1548 29.7126C26.2176 29.7126 21.2807 29.7126 16.3435 29.7126C15.6579 29.7096 14.9727 29.5539 14.3591 29.2494C13.1583 28.6623 12.2657 27.5039 12.008 26.2013C11.1358 21.8757 10.263 17.5504 9.38902 13.2252C8.94065 11.0128 8.50124 8.79858 8.04728 6.58769C6.33738 6.59249 4.6271 6.58917 2.9172 6.58953C2.53113 6.59212 2.1473 6.42009 1.90073 6.12449C1.5363 5.70199 1.49788 5.04087 1.81158 4.5799Z" fill="#B4B8BB" />
  <path d="M19.0484 11.7254C19.1402 11.714 19.2331 11.7066 19.3259 11.7051C22.2608 11.7051 25.1961 11.7051 28.131 11.7051C28.695 11.7132 29.2541 11.9145 29.6902 12.27C30.1863 12.6655 30.522 13.2537 30.607 13.8797C30.6432 14.1154 30.6283 14.3544 30.6313 14.5923C30.6313 17.3659 30.6313 20.1399 30.6313 22.9138C30.6227 23.4721 30.4209 24.0267 30.0632 24.4584C29.6596 24.9579 29.0561 25.2934 28.4152 25.373C28.2101 25.4018 28.003 25.3926 27.7968 25.3937C24.9734 25.3937 22.1497 25.3937 19.3263 25.3937C18.8164 25.3852 18.3106 25.2198 17.8962 24.9246C17.2162 24.4499 16.8025 23.6294 16.8294 22.8043C16.8301 19.9804 16.8297 17.1565 16.8294 14.3326C16.8215 14.027 16.8607 13.7188 16.9603 13.4287C17.2542 12.5279 18.0995 11.836 19.0484 11.7254ZM19.4408 14.2948C19.4408 17.1313 19.4408 19.9675 19.4408 22.804C22.3007 22.804 25.1603 22.804 28.0202 22.804C28.0202 19.9675 28.0202 17.1313 28.0202 14.2948C25.1603 14.2948 22.3007 14.2948 19.4408 14.2948Z" fill="#B4B8BB" />
  <path d="M15.0236 30.3437C15.5712 30.283 16.1375 30.3807 16.6291 30.6296C17.1707 30.899 17.6221 31.3444 17.8929 31.8823C18.1872 32.4543 18.2741 33.128 18.1376 33.7555C18.0115 34.3563 17.6791 34.9123 17.2095 35.3119C16.7701 35.6893 16.2117 35.9301 15.6324 35.9849C14.9748 36.0551 14.294 35.8879 13.7464 35.5202C13.2693 35.2024 12.8896 34.7403 12.6796 34.209C12.3957 33.5002 12.4159 32.6778 12.7367 31.9844C13.1407 31.0914 14.0396 30.4402 15.0236 30.3437Z" fill="#B4B8BB" />
  <path d="M32.1116 30.3439C33.0501 30.2299 34.0307 30.618 34.6309 31.3428C35.2285 32.039 35.4426 33.0316 35.1949 33.911C35.027 34.5322 34.6361 35.0901 34.1094 35.4649C33.5518 35.8648 32.8453 36.0554 32.1604 35.9862C31.4148 35.9211 30.7053 35.5455 30.2308 34.9721C29.8086 34.4701 29.5687 33.8167 29.5784 33.1619C29.5691 32.5263 29.7959 31.8925 30.1954 31.3968C30.6598 30.8122 31.3648 30.4227 32.1116 30.3439Z" fill="#B4B8BB" />
</svg>