<svg width="149" height="140" viewBox="0 0 149 140" fill="none" xmlns="http://www.w3.org/2000/svg">
  <g clip-path="url(#clip0_9027_127549)">
    <path d="M0.100132 3.96953C-0.0698677 0.789531 2.73013 -2.16047 5.95013 -2.02047C15.3001 -2.12047 24.6701 -2.04047 34.0201 -2.06047C37.1401 -2.35047 39.9801 0.0795317 40.3701 3.13953C46.6401 34.4195 52.8901 65.7095 59.1601 96.9795C59.6901 101.23 63.7001 104.48 67.9701 104.16C89.9701 104.24 111.97 104.14 133.98 104.21C136.34 104.17 138.92 104.27 140.98 102.89C145.17 100.6 144.2 94.3395 149 92.6395V111.99C145.25 114.71 140.68 116.25 136.03 116.13C115.03 116.13 94.0301 116.11 73.0301 116.13C68.4801 116.13 63.7101 116.43 59.4501 114.52C53.3401 112.03 48.7601 106.3 47.5201 99.8295C41.4801 69.8495 35.5201 39.8495 29.4901 9.86953C21.6601 9.82953 13.8201 9.97953 5.99013 9.81953C2.85013 9.89953 0.0101323 7.12953 0.100132 3.96953Z" fill="#F5F5F5" />
    <path d="M79.3902 33.4596C93.2402 33.1296 107.12 33.3696 120.98 33.3396C127.19 33.2396 132.71 38.8196 132.47 45.0396C132.5 58.3496 132.55 71.6596 132.45 84.9596C132.47 91.0496 127 96.4296 120.91 96.2796C107.6 96.3296 94.2902 96.3496 80.9802 96.2696C74.9502 96.3396 69.5202 91.0196 69.5402 84.9696C69.4602 71.6596 69.4801 58.3396 69.5301 45.0196C69.3501 39.4096 73.8501 34.1896 79.3902 33.4596ZM81.5002 45.3196C81.5002 58.3196 81.4902 71.3096 81.5002 84.3096C94.5002 84.3096 107.5 84.3096 120.5 84.3096C120.51 71.3096 120.49 58.3196 120.51 45.3196C107.5 45.2996 94.5002 45.3096 81.5002 45.3196Z" fill="#F5F5F5" />
    <path d="M54.1404 122.12C59.4704 117.18 68.8204 118.08 73.1104 123.96C76.8004 128.54 76.5004 135.28 73.2204 140H52.3704C48.3004 134.71 48.9504 126.44 54.1404 122.12Z" fill="#F5F5F5" />
    <path d="M131.56 122.56C136.13 117.92 143.96 117.79 149 121.76V140H130.25C126.37 134.86 126.78 126.98 131.56 122.56Z" fill="#F5F5F5" />
  </g>
  <defs>
    <clipPath id="clip0_9027_127549">
      <rect width="149" height="143" fill="white" transform="translate(0 -3)" />
    </clipPath>
  </defs>
</svg>