<svg width="20" height="20" viewBox="0 0 20 20" fill="none" xmlns="http://www.w3.org/2000/svg">
<g clip-path="url(#clip0_1169_11441)">
<path d="M5.21979 0.961999C5.98839 0.867199 6.77619 0.933199 7.51859 1.1538C8.46199 1.431 9.32639 1.961 10.0124 2.6644C10.57 2.0938 11.249 1.6424 11.99 1.347C12.8254 1.0126 13.741 0.882999 14.6364 0.969799C15.4576 1.0482 16.2602 1.3102 16.9712 1.7282C18.0728 2.3714 18.9452 3.3902 19.4268 4.5704C19.9396 5.8116 20.0194 7.2252 19.6518 8.5166C19.3906 9.447 18.9004 10.3126 18.2326 11.0114C17.5754 11.6682 16.9286 12.3358 16.2754 12.9968C14.382 14.9228 12.4886 16.849 10.5946 18.7744C10.505 18.8726 10.4084 18.9704 10.2836 19.0224C10.0276 19.1396 9.70179 19.0754 9.51259 18.8662C7.02839 16.344 4.54899 13.8174 2.06579 11.2942C1.90179 11.1244 1.73139 10.9604 1.57799 10.7808C0.916188 10.0186 0.455388 9.0844 0.249388 8.0964C0.0933876 7.3572 0.0771876 6.589 0.202588 5.844C0.352988 4.9408 0.711788 4.0722 1.24759 3.3294C1.68799 2.7168 2.24739 2.19 2.88719 1.79C3.59199 1.3482 4.39399 1.062 5.21979 0.961999Z" fill="#556290"/>
</g>
<defs>
<clipPath id="clip0_1169_11441">
<rect width="20" height="20" fill="white"/>
</clipPath>
</defs>
</svg>
