<svg width="18" height="18" viewBox="0 0 18 18" fill="none" xmlns="http://www.w3.org/2000/svg">
<path d="M0 6.26361C0 9.97605 3.23401 13.6274 8.34324 16.7647C8.53348 16.878 8.81424 17 8.99544 17C9.18568 17 9.45748 16.878 9.65676 16.7647C14.766 13.6274 18 9.97605 18 6.26361C18 3.17865 15.7987 1 12.8545 1C11.1786 1 9.81979 1.76688 8.99544 2.94335C8.18925 1.7756 6.82133 1 5.13638 1C2.20131 1 0 3.17865 0 6.26361ZM1.45848 6.26361C1.45848 3.94553 3.0166 2.40305 5.11826 2.40305C6.83039 2.40305 7.79965 3.42266 8.38854 4.29411C8.63312 4.6427 8.78711 4.73856 8.99544 4.73856C9.21289 4.73856 9.34879 4.63398 9.61146 4.29411C10.2365 3.44008 11.1786 2.40305 12.8726 2.40305C14.9834 2.40305 16.5415 3.94553 16.5415 6.26361C16.5415 9.5054 12.9814 13 9.18568 15.4227C9.09508 15.4836 9.03169 15.5272 8.99544 15.5272C8.96831 15.5272 8.90484 15.4836 8.81424 15.4227C5.01861 13 1.45848 9.5054 1.45848 6.26361Z" fill="#28252E"/>
</svg>
