<svg width="20" height="20" viewBox="0 0 20 20" fill="none" xmlns="http://www.w3.org/2000/svg">
<g clip-path="url(#clip0_1169_11415)">
<path d="M3.05036 1.69092C3.85296 1.22372 4.77116 0.95572 5.69956 0.92352C7.09016 0.86612 8.48996 1.35132 9.55636 2.24352C9.70896 2.37332 9.86156 2.50472 9.99616 2.65372C9.93476 2.73592 9.88256 2.82452 9.82696 2.91052C9.81596 2.92532 9.80516 2.94012 9.79456 2.95492C9.78476 2.97112 9.77496 2.98732 9.76536 3.00352C9.75056 3.02632 9.73596 3.04932 9.72196 3.07252L9.71476 3.06572C9.70536 3.08872 9.69616 3.11152 9.68676 3.13432L9.67856 3.12672C9.63596 3.20472 9.58775 3.27972 9.53595 3.35212C9.52495 3.37192 9.51396 3.39152 9.50336 3.41152L9.49476 3.40672C9.48496 3.42892 9.47516 3.45092 9.46536 3.47312L9.45456 3.46632C9.44516 3.48872 9.43576 3.51112 9.42636 3.53372L9.41836 3.52712C9.37556 3.60492 9.32715 3.67952 9.27595 3.75192C9.26495 3.77132 9.25416 3.79072 9.24356 3.81032L9.23496 3.80692C9.22516 3.82872 9.21516 3.85032 9.20536 3.87212L9.19476 3.86672C9.18496 3.88892 9.17536 3.91112 9.16556 3.93352L9.15476 3.92572C9.14536 3.94872 9.13595 3.97172 9.12655 3.99472L9.11876 3.98632C9.07276 4.07112 9.01816 4.15072 8.96536 4.23112C8.95976 4.24112 8.94836 4.26072 8.94276 4.27052L8.93496 4.26672C8.92496 4.28892 8.91496 4.31092 8.90496 4.33312L8.89456 4.32652C8.88516 4.34892 8.87556 4.37152 8.86616 4.39412L8.85856 4.38692C8.81596 4.46452 8.76676 4.53832 8.71696 4.61172C8.69196 4.65152 8.66616 4.69112 8.64176 4.73132L8.63456 4.72692C8.62496 4.74912 8.61516 4.77132 8.60536 4.79352L8.59796 4.78772C8.57456 4.83032 8.54856 4.87132 8.52376 4.91312L8.51836 4.90672C8.48976 4.96512 8.45476 5.01992 8.41596 5.07192C8.40516 5.09132 8.39436 5.11092 8.38376 5.13032L8.37476 5.12712C8.36496 5.14892 8.35516 5.17092 8.34516 5.19292L8.33476 5.18612C8.32516 5.20872 8.31576 5.23132 8.30636 5.25372L8.29856 5.24712C8.23296 5.36592 8.15176 5.47492 8.08176 5.59092L8.07516 5.58632C8.06516 5.60852 8.05536 5.63052 8.04556 5.65272L8.03476 5.64652C8.02536 5.66872 8.01595 5.69112 8.00655 5.71352L7.99496 5.70532C7.98556 5.72872 7.97616 5.75192 7.96676 5.77532L7.95876 5.76572C7.92696 5.83072 7.88556 5.89032 7.84676 5.95092C7.83536 5.96532 7.82436 5.97992 7.81316 5.99432C7.80336 6.01372 7.79376 6.03312 7.78416 6.05252L7.77476 6.04632C7.76516 6.06892 7.75556 6.09132 7.74596 6.11372L7.73856 6.10732C7.68116 6.20572 7.61856 6.30132 7.55416 6.39552C7.54376 6.41392 7.53356 6.43252 7.52356 6.45132L7.51496 6.44672C7.50496 6.46892 7.49496 6.49132 7.48516 6.51352L7.47476 6.50592C7.46516 6.52872 7.45576 6.55152 7.44636 6.57412L7.43856 6.56692C7.39616 6.64452 7.34696 6.71792 7.29816 6.79152C7.28356 6.81312 7.26876 6.83472 7.25396 6.85632C7.24356 6.87472 7.23356 6.89332 7.22356 6.91192L7.21456 6.90652C7.20516 6.92892 7.19556 6.95112 7.18596 6.97352L7.17516 6.96552C7.16556 6.98852 7.15596 7.01172 7.14636 7.03492L7.13876 7.02632C7.09556 7.10552 7.04656 7.18152 6.99416 7.25512C6.98396 7.27352 6.97376 7.29232 6.96376 7.31092L6.95636 7.30752C6.94676 7.32592 6.93696 7.34432 6.92696 7.36272C6.91156 7.38552 6.89656 7.40872 6.88196 7.43212L6.87456 7.42612C6.86536 7.44912 6.85596 7.47212 6.84676 7.49512L6.83856 7.48612C6.80636 7.55072 6.76556 7.61032 6.72676 7.67092C6.71556 7.68532 6.70456 7.69972 6.69356 7.71412C6.68356 7.73352 6.67356 7.75292 6.66376 7.77252L6.65456 7.76672C6.64496 7.78872 6.63556 7.81092 6.62596 7.83312L6.61476 7.82592C6.60536 7.84872 6.59596 7.87152 6.58656 7.89452L6.57856 7.88672C6.53516 7.96592 6.48636 8.04192 6.43396 8.11532C6.42396 8.13372 6.41396 8.15212 6.40416 8.17052L6.39516 8.16672C6.38496 8.18912 6.37476 8.21132 6.36436 8.23372L6.34136 8.22712C6.34516 8.23612 6.35236 8.25412 6.35596 8.26312L6.33556 8.26252C6.32516 8.34152 6.29716 8.41872 6.30336 8.49952C6.30956 8.79252 6.28856 9.08492 6.29136 9.37812C6.28876 9.46752 6.32916 9.55092 6.33596 9.63972L6.34516 9.62212C6.36256 9.65192 6.38076 9.68152 6.39736 9.71212L6.41096 9.70292L6.40736 9.73292L6.43736 9.72772L6.42596 9.74172C6.45616 9.75732 6.48556 9.77432 6.51536 9.79132L6.50016 9.80252C6.58036 9.81432 6.65696 9.84872 6.73876 9.84932C7.18556 9.85272 7.63256 9.85412 8.07936 9.85972C8.22576 9.87212 8.37296 9.86532 8.51976 9.86732C9.06596 9.87072 9.61216 9.87412 10.1582 9.87892C10.3738 9.89352 10.5898 9.88472 10.8056 9.88772C10.7882 9.90972 10.7708 9.93212 10.754 9.95452C10.7384 9.97992 10.7224 10.0049 10.7066 10.0301C10.7006 10.0403 10.6888 10.0605 10.6828 10.0705L10.6748 10.0671C10.665 10.0891 10.6552 10.1109 10.6454 10.1329L10.6346 10.1261C10.6252 10.1485 10.6158 10.1711 10.6064 10.1939L10.5952 10.1849C10.5858 10.2079 10.5764 10.2311 10.5672 10.2541L10.5582 10.2471C10.5294 10.3049 10.4948 10.3597 10.4564 10.4115C10.4452 10.4309 10.4342 10.4507 10.4236 10.4705L10.415 10.4669C10.405 10.4887 10.395 10.5105 10.3852 10.5325L10.3748 10.5263C10.3652 10.5485 10.3554 10.5709 10.3458 10.5935L10.335 10.5855C10.3256 10.6083 10.316 10.6313 10.3068 10.6541L10.2986 10.6471C10.2454 10.7451 10.1796 10.8355 10.1216 10.9307L10.1148 10.9267C10.105 10.9487 10.0954 10.9705 10.0856 10.9927L10.075 10.9863C10.0652 11.0087 10.0556 11.0315 10.0458 11.0541L10.0384 11.0471C9.99256 11.1313 9.93715 11.2095 9.88655 11.2909C9.87555 11.3051 9.86456 11.3195 9.85356 11.3341C9.84356 11.3533 9.83356 11.3727 9.82396 11.3923L9.81456 11.3867C9.80496 11.4087 9.79536 11.4309 9.78576 11.4533L9.77496 11.4457C9.76536 11.4685 9.75576 11.4915 9.74636 11.5145L9.73856 11.5065C9.69556 11.5857 9.64556 11.6609 9.59516 11.7355C9.58476 11.7515 9.57456 11.7673 9.56436 11.7835C9.54996 11.8059 9.53576 11.8285 9.52196 11.8515L9.51476 11.8465C9.50496 11.8689 9.49536 11.8913 9.48576 11.9139L9.47496 11.9053C9.46556 11.9285 9.45636 11.9517 9.44696 11.9751L9.43856 11.9661C9.40636 12.0305 9.36536 12.0899 9.32676 12.1507C9.31536 12.1651 9.30416 12.1797 9.29296 12.1943C9.28336 12.2135 9.27356 12.2329 9.26396 12.2525L9.25476 12.2465C9.24496 12.2687 9.23516 12.2911 9.22536 12.3135L9.21456 12.3061C9.20516 12.3287 9.19596 12.3515 9.18676 12.3743L9.17556 12.3643C9.16636 12.3867 9.15736 12.4091 9.14816 12.4317L9.13776 12.4293C9.10796 12.4871 9.07236 12.5415 9.03616 12.5955C9.02196 12.6155 9.00796 12.6361 8.99356 12.6563C8.98356 12.6747 8.97356 12.6935 8.96376 12.7125L8.95456 12.7063C8.94516 12.7285 8.93595 12.7509 8.92655 12.7735L8.91856 12.7673C8.86036 12.8719 8.79116 12.9699 8.72596 13.0703C8.72016 13.0805 8.70856 13.1011 8.70276 13.1115L8.69456 13.1069C8.68496 13.1289 8.67536 13.1509 8.66556 13.1731L8.65476 13.1661C8.64516 13.1887 8.63556 13.2113 8.62596 13.2341L8.61496 13.2253C8.60556 13.2483 8.59636 13.2713 8.58696 13.2945L8.57836 13.2867C8.54956 13.3449 8.51456 13.4001 8.47576 13.4521C8.46496 13.4715 8.45416 13.4909 8.44356 13.5105L8.43616 13.5079C8.42636 13.5261 8.41656 13.5445 8.40676 13.5631C8.39136 13.5857 8.37615 13.6087 8.36155 13.6321L8.35836 13.6277C8.30096 13.7261 8.23856 13.8215 8.17416 13.9155C8.16376 13.9339 8.15376 13.9523 8.14376 13.9711L8.13476 13.9669C8.12516 13.9887 8.11536 14.0107 8.10556 14.0329L8.09476 14.0259C8.08536 14.0485 8.07596 14.0711 8.06636 14.0939L8.05836 14.0869C8.01576 14.1647 7.96776 14.2395 7.91596 14.3115C7.90496 14.3311 7.89416 14.3507 7.88356 14.3707L7.87636 14.3679C7.86636 14.3861 7.85636 14.4045 7.84636 14.4231C7.83136 14.4455 7.81636 14.4683 7.80196 14.4915L7.79476 14.4863C7.78536 14.5089 7.77596 14.5315 7.76656 14.5543L7.75856 14.5467C7.70556 14.6449 7.63996 14.7353 7.58176 14.8305L7.57476 14.8271C7.56496 14.8489 7.55516 14.8709 7.54536 14.8931L7.53456 14.8861C7.52516 14.9085 7.51596 14.9313 7.50656 14.9539L7.49856 14.9467C7.45276 15.0309 7.39756 15.1095 7.34676 15.1909C7.33556 15.2051 7.32436 15.2195 7.31336 15.2343C7.30356 15.2535 7.29376 15.2727 7.28416 15.2923L7.27456 15.2865C7.26496 15.3089 7.25516 15.3315 7.24556 15.3541L7.23836 15.3473C7.18196 15.4463 7.11736 15.5403 7.05516 15.6357C7.04496 15.6515 7.03476 15.6673 7.02456 15.6833C7.00996 15.7059 6.99576 15.7291 6.98176 15.7523L6.97796 15.7479C6.95436 15.7903 6.92836 15.8311 6.90376 15.8729L6.89836 15.8671C6.86116 15.9399 6.81396 16.0069 6.77056 16.0761C5.20336 14.4873 3.64136 12.8935 2.07576 11.3035C1.90496 11.1271 1.72796 10.9567 1.56876 10.7697C1.01536 10.1291 0.603356 9.36772 0.364756 8.55552C0.127956 7.74972 0.0609555 6.89472 0.169956 6.06212C0.282355 5.19532 0.584355 4.35292 1.05376 3.61552C1.55296 2.82692 2.24256 2.15892 3.05036 1.69092Z" fill="#AA181C"/>
<path d="M13.2254 1.01185C14.1334 0.864453 15.0776 0.954453 15.9464 1.25485C16.6728 1.50565 17.3466 1.90585 17.9168 2.42085C18.8654 3.27225 19.5192 4.44025 19.7636 5.69025C20.0012 6.88245 19.8698 8.14585 19.3866 9.26185C19.0714 9.99365 18.6096 10.6639 18.0296 11.2109C15.5512 13.7321 13.0728 16.2531 10.594 18.7739C10.5008 18.8761 10.399 18.9771 10.2676 19.0279C10.0804 19.1071 9.85816 19.0941 9.68036 18.9967C9.55376 18.9291 9.46616 18.8123 9.36316 18.7161C8.93256 18.2749 8.49656 17.8389 8.06836 17.3955C8.11116 17.3341 8.15156 17.2711 8.19116 17.2077C8.20236 17.1931 8.21356 17.1787 8.22476 17.1645C8.23456 17.1449 8.24416 17.1253 8.25396 17.1061L8.26356 17.1123C8.27276 17.0897 8.28216 17.0675 8.29156 17.0455L8.30296 17.0535C8.31236 17.0301 8.32176 17.0069 8.33156 16.9841L8.33956 16.9923C8.37196 16.9279 8.41276 16.8685 8.45136 16.8081C8.46256 16.7933 8.47376 16.7789 8.48496 16.7645C8.49456 16.7449 8.50456 16.7255 8.51436 16.7063L8.52336 16.7123C8.53296 16.6899 8.54256 16.6677 8.55236 16.6457L8.56236 16.6521C8.57116 16.6329 8.58036 16.6141 8.58996 16.5955C8.64456 16.5205 8.68996 16.4393 8.74296 16.3633C8.75336 16.3469 8.76376 16.3307 8.77436 16.3149C8.78816 16.2921 8.80216 16.2701 8.81596 16.2477L8.82356 16.2519C8.83276 16.2295 8.84216 16.2073 8.85196 16.1851L8.85956 16.1917C8.92656 16.0741 9.00576 15.9639 9.07636 15.8483L9.08336 15.8517C9.09296 15.8295 9.10256 15.8075 9.11256 15.7857L9.12336 15.7929C9.13256 15.7699 9.14216 15.7473 9.15176 15.7249L9.15976 15.7319C9.20236 15.6539 9.25036 15.5791 9.30216 15.5071C9.31276 15.4875 9.32356 15.4679 9.33456 15.4485L9.34316 15.4517C9.35296 15.4295 9.36296 15.4075 9.37316 15.3859L9.38336 15.3925C9.39276 15.3699 9.40236 15.3475 9.41216 15.3253L9.41956 15.3311C9.47736 15.2327 9.53936 15.1371 9.60416 15.0433C9.61416 15.0247 9.62416 15.0061 9.63436 14.9877L9.64336 14.9919C9.65276 14.9699 9.66256 14.9479 9.67236 14.9263L9.68336 14.9325C9.69276 14.9097 9.70216 14.8871 9.71176 14.8647L9.71956 14.8721C9.76516 14.7877 9.82076 14.7093 9.87136 14.6279C9.88236 14.6133 9.89356 14.5987 9.90496 14.5845C9.91456 14.5649 9.92416 14.5455 9.93416 14.5263L9.94376 14.5323C9.95276 14.5099 9.96216 14.4877 9.97156 14.4657L9.98296 14.4733C9.99236 14.4503 10.002 14.4273 10.0118 14.4047L10.0228 14.4137C10.0322 14.3901 10.0418 14.3669 10.0514 14.3437L10.0596 14.3525C10.0912 14.2873 10.1324 14.2277 10.1728 14.1679C10.1784 14.1579 10.1896 14.1381 10.1952 14.1281L10.2032 14.1319C10.213 14.1095 10.2228 14.0875 10.233 14.0657L10.2434 14.0727C10.2526 14.0501 10.262 14.0279 10.2714 14.0057L10.2798 14.0115C10.3258 13.9275 10.3808 13.8491 10.4314 13.7679C10.4424 13.7533 10.4536 13.7389 10.4648 13.7247C10.4744 13.7051 10.4842 13.6857 10.4942 13.6665L10.5036 13.6721C10.5128 13.6497 10.5224 13.6277 10.532 13.6059L10.5432 13.6131C10.5526 13.5899 10.5622 13.5667 10.5718 13.5439L10.5794 13.5527C10.6226 13.4733 10.6718 13.3971 10.7242 13.3235C10.7342 13.3049 10.7442 13.2865 10.7544 13.2681L10.7632 13.2719C10.773 13.2497 10.7828 13.2279 10.7928 13.2059L10.8036 13.2125C10.8128 13.1899 10.8222 13.1673 10.8318 13.1451L10.8396 13.1519C10.8824 13.0739 10.9312 12.9995 10.9824 12.9269C10.993 12.9073 11.0038 12.8877 11.0146 12.8685L11.0234 12.8719C11.033 12.8499 11.043 12.8281 11.053 12.8063L11.0634 12.8123C11.073 12.7899 11.0826 12.7675 11.0926 12.7455L11.1036 12.7525C11.1128 12.7297 11.122 12.7073 11.1314 12.6849L11.143 12.6937C11.1522 12.6705 11.1616 12.6473 11.1714 12.6241L11.1798 12.6321C11.2084 12.5739 11.2436 12.5195 11.281 12.4669C11.2918 12.4493 11.3028 12.4321 11.314 12.4151C11.328 12.3923 11.3422 12.3699 11.3562 12.3471L11.3636 12.3523C11.3728 12.3297 11.3822 12.3073 11.3916 12.2851L11.3996 12.2917C11.458 12.1867 11.5272 12.0885 11.5926 11.9879C11.5984 11.9777 11.6096 11.9575 11.6152 11.9475L11.6234 11.9521C11.6328 11.9299 11.6426 11.9077 11.6524 11.8859L11.6634 11.8927C11.6728 11.8697 11.6824 11.8471 11.6922 11.8245L11.703 11.8339C11.7122 11.8105 11.7216 11.7873 11.731 11.7643L11.7398 11.7721C11.7684 11.7137 11.8034 11.6587 11.8424 11.6067C11.853 11.5873 11.8636 11.5679 11.8744 11.5487L11.8834 11.5515C11.893 11.5295 11.903 11.5077 11.9132 11.4861L11.9236 11.4923C11.9328 11.4697 11.9422 11.4473 11.9518 11.4251L11.963 11.4339C11.9722 11.4105 11.9816 11.3873 11.9914 11.3643L11.9996 11.3721C12.043 11.2929 12.0916 11.2167 12.1442 11.1433C12.1542 11.1245 12.1644 11.1057 12.1746 11.0871L12.1834 11.0921C12.1928 11.0699 12.2026 11.0477 12.2124 11.0257L12.2202 11.0313C12.2434 10.9887 12.2696 10.9475 12.2944 10.9057L12.3 10.9117C12.3286 10.8535 12.3634 10.7987 12.4024 10.7467C12.413 10.7273 12.4236 10.7079 12.4344 10.6887L12.4432 10.6917C12.453 10.6697 12.4628 10.6479 12.473 10.6263L12.4834 10.6323C12.4928 10.6099 12.5022 10.5877 12.512 10.5655L12.5228 10.5735C12.5322 10.5503 12.5418 10.5273 12.5516 10.5045L12.5596 10.5121C12.6124 10.4139 12.6782 10.3235 12.7364 10.2285L12.743 10.2319C12.7528 10.2095 12.763 10.1875 12.7734 10.1655L12.7836 10.1725C12.7926 10.1499 12.802 10.1275 12.8116 10.1051L12.8196 10.1117C12.8852 9.99245 12.9666 9.88325 13.0368 9.76705L13.0568 9.77025C13.0532 9.76185 13.0462 9.74505 13.0426 9.73665L13.0624 9.73565C13.0772 9.65765 13.1004 9.58025 13.095 9.50005C13.0884 9.20665 13.1096 8.91385 13.1068 8.62065C13.1094 8.53085 13.0686 8.44745 13.0622 8.35865L13.054 8.37725C13.036 8.34745 13.0178 8.31805 13.0008 8.28765L12.9994 8.28805C12.9798 8.27165 12.9602 8.25585 12.9408 8.24005C12.9206 8.22745 12.9006 8.21505 12.8808 8.20265L12.9002 8.19665C12.8128 8.18325 12.7294 8.14565 12.6398 8.14905C12.2062 8.14685 11.7728 8.14385 11.3392 8.13985C11.163 8.12625 10.986 8.13385 10.8094 8.13125C10.2856 8.12765 9.76176 8.12465 9.23816 8.11985C9.02376 8.10525 8.80856 8.11365 8.59396 8.11145C8.62456 8.07025 8.65316 8.02765 8.68336 7.98605C8.69356 7.96685 8.70376 7.94765 8.71396 7.92845L8.72316 7.93165C8.73296 7.90965 8.74276 7.88785 8.75296 7.86625L8.76336 7.87245C8.77276 7.85005 8.78216 7.82765 8.79196 7.80545L8.80296 7.81345C8.81216 7.79025 8.82176 7.76725 8.83156 7.74445L8.83956 7.75205C8.88296 7.67285 8.93156 7.59685 8.98416 7.52345C8.99416 7.50485 9.00436 7.48605 9.01436 7.46745L9.02316 7.47205C9.03276 7.44985 9.04256 7.42785 9.05276 7.40585L9.06336 7.41265C9.07256 7.38985 9.08196 7.36725 9.09156 7.34465L9.09956 7.35225C9.14216 7.27425 9.19056 7.19945 9.24216 7.12705C9.25276 7.10745 9.26356 7.08785 9.27456 7.06845L9.28316 7.07165C9.29296 7.04965 9.30296 7.02785 9.31316 7.00605L9.32356 7.01225C9.33296 6.98985 9.34236 6.96745 9.35196 6.94525L9.36296 6.95345C9.37216 6.93065 9.38176 6.90785 9.39136 6.88505L9.40296 6.89345C9.41216 6.86985 9.42176 6.84665 9.43136 6.82325L9.43956 6.83305C9.46836 6.77285 9.50436 6.71665 9.54416 6.66345C9.55416 6.64485 9.56416 6.62625 9.57416 6.60785L9.58296 6.61205C9.59296 6.58965 9.60296 6.56745 9.61316 6.54545L9.62356 6.55265C9.63276 6.53005 9.64216 6.50745 9.65156 6.48525L9.66296 6.49365C9.67216 6.47025 9.68176 6.44685 9.69156 6.42345L9.69956 6.43245C9.73156 6.36805 9.77256 6.30865 9.81136 6.24805C9.82236 6.23345 9.83356 6.21885 9.84476 6.20445C9.85436 6.18505 9.86416 6.16565 9.87416 6.14625L9.88356 6.15225C9.89276 6.12985 9.90236 6.10765 9.91196 6.08565L9.91976 6.09105C9.97636 5.99385 10.0382 5.89965 10.1018 5.80685C10.1128 5.78725 10.1236 5.76765 10.1346 5.74825L10.1434 5.75165C10.153 5.72945 10.163 5.70745 10.1732 5.68545L10.1836 5.69265C10.1928 5.66985 10.2022 5.64725 10.2118 5.62485L10.2196 5.63185C10.2624 5.55405 10.311 5.47945 10.3624 5.40705C10.373 5.38745 10.3836 5.36805 10.3944 5.34865L10.4032 5.35185C10.413 5.32985 10.423 5.30805 10.4332 5.28645L10.4432 5.29205C10.453 5.26965 10.463 5.24725 10.4732 5.22485L10.4838 5.23285C10.4928 5.21005 10.502 5.18725 10.5116 5.16465L10.5196 5.17185C10.5652 5.08725 10.6208 5.00865 10.6716 4.92725C10.6826 4.91305 10.6938 4.89885 10.705 4.88465C10.7144 4.86525 10.7238 4.84585 10.7336 4.82665L10.7434 4.83225C10.7528 4.80965 10.7622 4.78725 10.772 4.76485L10.7796 4.77185C10.8352 4.67205 10.9 4.57785 10.9632 4.48265C10.973 4.46685 10.983 4.45125 10.9932 4.43565C11.0074 4.41265 11.022 4.39005 11.036 4.36705L11.0436 4.37205C11.0528 4.34965 11.0622 4.32725 11.0716 4.30505L11.083 4.31365C11.0922 4.29045 11.1016 4.26725 11.1112 4.24405L11.1198 4.25205C11.1482 4.19385 11.1834 4.13945 11.221 4.08685C11.2318 4.06925 11.243 4.05205 11.2542 4.03465C11.268 4.01225 11.2822 3.99005 11.296 3.96765L11.3038 3.97185C11.313 3.94945 11.3224 3.92705 11.3318 3.90485L11.3396 3.91205C11.3628 3.86925 11.389 3.82805 11.414 3.78605L11.4202 3.79125C11.4492 3.73205 11.4846 3.67625 11.5242 3.62345C11.5342 3.60465 11.5442 3.58605 11.5544 3.56725L11.5634 3.57205C11.5728 3.55005 11.5824 3.52805 11.5922 3.50605L11.6032 3.51285C11.6126 3.48985 11.6222 3.46705 11.6322 3.44445L11.6396 3.45205C11.6824 3.37405 11.7306 3.29905 11.7824 3.22665C11.793 3.20725 11.8036 3.18785 11.8146 3.16845L11.8234 3.17165C11.833 3.14985 11.8428 3.12805 11.8528 3.10625L11.8634 3.11245C11.8726 3.09005 11.8822 3.06765 11.892 3.04545L11.8996 3.05125C11.967 2.93405 12.0454 2.82385 12.1162 2.70865L12.1234 2.71145C12.133 2.68965 12.1426 2.66765 12.1526 2.64605L12.1634 2.65285C12.1726 2.63005 12.182 2.60745 12.1918 2.58465L12.1996 2.59205C12.2422 2.51425 12.2912 2.44005 12.3412 2.36665C12.352 2.34925 12.363 2.33185 12.3744 2.31465C12.3882 2.29245 12.4022 2.27005 12.416 2.24765L12.4238 2.25185C12.433 2.22965 12.4424 2.20765 12.452 2.18565L12.4632 2.19305C12.4724 2.17005 12.482 2.14705 12.4918 2.12405L12.4994 2.13205C12.5524 2.03385 12.6184 1.94345 12.6764 1.84825L12.6836 1.85185C12.6928 1.83005 12.7022 1.80825 12.712 1.78665L12.7232 1.79245C12.7326 1.76985 12.7422 1.74725 12.7522 1.72485L12.7596 1.73205C12.802 1.65425 12.8512 1.58045 12.9008 1.50725C12.9118 1.48985 12.9228 1.47225 12.9342 1.45485C12.9482 1.43225 12.9624 1.40985 12.9764 1.38725L12.9838 1.39205C12.993 1.36985 13.0024 1.34765 13.012 1.32545L13.0196 1.33145C13.0796 1.22445 13.1534 1.12585 13.2142 1.01925L13.2294 1.04345L13.2254 1.01185Z" fill="#AA181C"/>
</g>
<defs>
<clipPath id="clip0_1169_11415">
<rect width="20" height="20" fill="white"/>
</clipPath>
</defs>
</svg>
