<svg width="20" height="20" viewBox="0 0 20 20" fill="none" xmlns="http://www.w3.org/2000/svg">
  <path d="M5.21869 0.962134C5.98209 0.867934 6.76449 0.931934 7.50229 1.14873C8.45129 1.42553 9.32349 1.95553 10.0113 2.66493C10.5117 2.15353 11.1091 1.73753 11.7615 1.44373C12.6511 1.04193 13.6453 0.876534 14.6171 0.967934C15.4451 1.04413 16.2549 1.30673 16.9715 1.72813C18.1001 2.38713 18.9871 3.44013 19.4615 4.65633C19.9437 5.87713 20.0109 7.25613 19.6515 8.51833C19.3643 9.53893 18.8019 10.4833 18.0305 11.2117C15.5119 13.7735 12.9933 16.3355 10.4743 18.8969C10.2359 19.1277 9.82689 19.1423 9.57509 18.9253C9.41029 18.7701 9.25629 18.6041 9.09629 18.4443C6.85849 16.1681 4.62049 13.8919 2.38269 11.6157C2.16849 11.3971 1.95269 11.1799 1.73989 10.9603C1.13049 10.3135 0.671491 9.52753 0.402891 8.68093C0.177891 7.97153 0.0846912 7.22033 0.130491 6.47753C0.182691 5.60713 0.425891 4.74833 0.840091 3.98073C1.26069 3.19993 1.85829 2.51393 2.57929 1.99693C3.35389 1.43813 4.27029 1.07693 5.21869 0.962134ZM5.31889 2.32113C4.56429 2.42473 3.84049 2.73433 3.24049 3.20293C2.66149 3.65393 2.19589 4.24873 1.89489 4.91793C1.56409 5.64773 1.42589 6.46353 1.49789 7.26133C1.59169 8.35233 2.08369 9.40573 2.87069 10.1687C5.24949 12.5895 7.62949 15.0091 10.0085 17.4295C12.4069 14.9875 14.8071 12.5473 17.2071 10.1071C17.8819 9.43193 18.3175 8.52973 18.4639 7.58873C18.5891 6.79093 18.5017 5.96133 18.2145 5.20673C17.9451 4.49613 17.4987 3.85173 16.9199 3.35833C16.3663 2.88213 15.6923 2.54633 14.9773 2.39653C14.1271 2.21453 13.2231 2.30293 12.4223 2.64093C11.6859 2.94973 11.0381 3.46393 10.5665 4.10793C10.4963 4.20493 10.4029 4.28633 10.2933 4.33553C10.0095 4.46953 9.63909 4.37833 9.45849 4.11913C8.98029 3.45533 8.31809 2.92413 7.56149 2.61133C6.85729 2.31793 6.07449 2.21393 5.31889 2.32113Z" fill="#9294A5" />
</svg>