<svg width="26" height="25" viewBox="0 0 26 25" fill="none" xmlns="http://www.w3.org/2000/svg">
<g clip-path="url(#clip0_1_26413)">
<path d="M8.83301 9.375H17.1663" stroke="#28252E" stroke-width="1.7" stroke-linecap="round" stroke-linejoin="round"/>
<path d="M8.83301 13.5417H15.083" stroke="#28252E" stroke-width="1.7" stroke-linecap="round" stroke-linejoin="round"/>
<path d="M19.25 4.16675C20.0788 4.16675 20.8737 4.49599 21.4597 5.08204C22.0458 5.66809 22.375 6.46295 22.375 7.29175V15.6251C22.375 16.4539 22.0458 17.2487 21.4597 17.8348C20.8737 18.4208 20.0788 18.7501 19.25 18.7501H14.0417L8.83333 21.8751V18.7501H6.75C5.9212 18.7501 5.12634 18.4208 4.54029 17.8348C3.95424 17.2487 3.625 16.4539 3.625 15.6251V7.29175C3.625 6.46295 3.95424 5.66809 4.54029 5.08204C5.12634 4.49599 5.9212 4.16675 6.75 4.16675H19.25Z" stroke="#28252E" stroke-width="1.7" stroke-linecap="round" stroke-linejoin="round"/>
</g>
<defs>
<clipPath id="clip0_1_26413">
<rect width="25" height="25" fill="white" transform="translate(0.5)"/>
</clipPath>
</defs>
</svg>
