<svg width="29" height="29" viewBox="0 0 29 29" fill="none" xmlns="http://www.w3.org/2000/svg">
<g clipPath="url(#clip0_725_1839)">
<path d="M6.04199 20.5417C6.04199 21.1826 6.2966 21.7973 6.74982 22.2505C7.20303 22.7037 7.81772 22.9583 8.45866 22.9583C9.0996 22.9583 9.71429 22.7037 10.1675 22.2505C10.6207 21.7973 10.8753 21.1826 10.8753 20.5417C10.8753 19.9007 10.6207 19.286 10.1675 18.8328C9.71429 18.3796 9.0996 18.125 8.45866 18.125C7.81772 18.125 7.20303 18.3796 6.74982 18.8328C6.2966 19.286 6.04199 19.9007 6.04199 20.5417Z" stroke="#28252E" strokeWidth="1.5" strokeLinecap="round" strokeLinejoin="round"/>
<path d="M18.125 20.5417C18.125 21.1826 18.3796 21.7973 18.8328 22.2505C19.286 22.7037 19.9007 22.9583 20.5417 22.9583C21.1826 22.9583 21.7973 22.7037 22.2505 22.2505C22.7037 21.7973 22.9583 21.1826 22.9583 20.5417C22.9583 19.9007 22.7037 19.286 22.2505 18.8328C21.7973 18.3796 21.1826 18.125 20.5417 18.125C19.9007 18.125 19.286 18.3796 18.8328 18.8328C18.3796 19.286 18.125 19.9007 18.125 20.5417Z" stroke="#28252E" strokeWidth="1.5" strokeLinecap="round" strokeLinejoin="round"/>
<path d="M6.04167 20.5417H3.625V7.25008C3.625 6.92961 3.75231 6.62227 3.97891 6.39566C4.20552 6.16905 4.51286 6.04175 4.83333 6.04175H15.7083V20.5417M10.875 20.5417H18.125M22.9583 20.5417H25.375V13.2917M25.375 13.2917H15.7083M25.375 13.2917L21.75 7.25008H15.7083" stroke="#28252E" strokeWidth="1.5" strokeLinecap="round" strokeLinejoin="round"/>
</g>
<defs>
<clipPath id="clip0_725_1839">
<rect width="29" height="29" fill="white"/>
</clipPath>
</defs>
</svg>
