<svg width="100" height="100" viewBox="0 0 100 100" fill="none" xmlns="http://www.w3.org/2000/svg">
<g clip-path="url(#clip0_6474_129119)">
<path d="M47.5641 20.4017C51.4331 20.0377 55.4071 20.8297 58.8241 22.6887C62.2131 24.5107 65.0491 27.3427 66.8751 30.7287C68.7551 34.1777 69.5571 38.1967 69.1631 42.1027C68.7941 46.0807 67.1581 49.9257 64.5711 52.9677C62.2141 55.7657 59.0701 57.8927 55.5911 59.0287C51.2471 60.4507 46.4051 60.3247 42.1511 58.6457C38.4991 57.2207 35.3001 54.6757 33.0691 51.4537C30.6131 47.9327 29.3621 43.5937 29.5641 39.3057C29.7461 34.3957 31.8681 29.6017 35.3501 26.1407C38.5871 22.8827 42.9851 20.7987 47.5641 20.4017Z" fill="#AAAAAA"/>
<path d="M27.8843 74.0798C34.2143 68.8048 42.4563 65.8498 50.7023 66.0038C52.8363 65.9808 54.9693 66.2048 57.0633 66.6068C63.6363 67.8448 69.8293 71.0188 74.6703 75.6348C77.9203 78.6978 80.5823 82.3848 82.4593 86.4388C84.4163 90.6848 85.5503 95.3228 85.6843 99.9998H5.48828C6.92728 96.5408 8.92828 93.3178 11.3853 90.4908C12.5373 89.1448 13.8373 87.9378 15.0773 86.6758C17.9283 83.8258 20.7773 80.9758 23.6283 78.1258C25.0183 76.7478 26.3623 75.3158 27.8843 74.0798Z" fill="#AAAAAA"/>
</g>
<defs>
<clipPath id="clip0_6474_129119">
<rect width="100" height="100" fill="white"/>
</clipPath>
</defs>
</svg>
