<svg width="26" height="25" viewBox="0 0 26 25" fill="none" xmlns="http://www.w3.org/2000/svg">
<g clipPath="url(#clip0_1_26412)">
<path d="M20.8143 13.0956L13.0018 20.8331L5.18932 13.0956C4.67401 12.5941 4.26811 11.9914 3.99718 11.3254C3.72625 10.6594 3.59615 9.9445 3.61509 9.22573C3.63402 8.50696 3.80157 7.7999 4.10719 7.14907C4.41281 6.49823 4.84988 5.91773 5.39087 5.44411C5.93186 4.97049 6.56505 4.61402 7.25058 4.39713C7.93611 4.18025 8.65912 4.10766 9.37408 4.18393C10.089 4.26019 10.7805 4.48367 11.4048 4.84028C12.0292 5.1969 12.5729 5.67892 13.0018 6.25601C13.4326 5.68311 13.977 5.2053 14.6009 4.85247C15.2248 4.49964 15.9148 4.27939 16.6278 4.20551C17.3407 4.13162 18.0613 4.20569 18.7443 4.42308C19.4273 4.64047 20.0581 4.9965 20.5972 5.46889C21.1363 5.94127 21.5721 6.51984 21.8773 7.16839C22.1825 7.81695 22.3505 8.52151 22.3709 9.238C22.3913 9.95448 22.2635 10.6675 21.9957 11.3323C21.7279 11.9972 21.3257 12.5996 20.8143 13.1018" stroke="#28252E" strokeWidth="1.7" strokeLinecap="round" strokeLinejoin="round"/>
</g>
<defs>
<clipPath id="clip0_1_26412">
<rect width="25" height="25" fill="white" transform="translate(0.5)"/>
</clipPath>
</defs>
</svg>
