<svg width="18" height="16" viewBox="0 0 18 16" fill="none" xmlns="http://www.w3.org/2000/svg">
<path d="M4.49063 0.0757227C5.28683 -0.0582378 6.10332 -0.0140475 6.87992 0.205036C7.65653 0.42412 8.37344 0.812511 8.97782 1.34158L9.0111 1.3709L9.04169 1.34425C9.61851 0.844384 10.2966 0.471732 11.0309 0.251151C11.7651 0.030569 12.5385 -0.032871 13.2995 0.065063L13.5208 0.0970426C14.48 0.260591 15.3766 0.677255 16.1156 1.30291C16.8546 1.92857 17.4086 2.73993 17.7187 3.65107C18.0289 4.56221 18.0837 5.53922 17.8774 6.47863C17.6712 7.41804 17.2115 8.28488 16.547 8.98736L16.3851 9.1517L16.3419 9.18812L9.63992 15.743C9.48526 15.8942 9.28035 15.9849 9.06317 15.9983C8.84599 16.0117 8.63126 15.9469 8.45875 15.8159L8.37419 15.743L1.63351 9.14993C0.919426 8.46384 0.411585 7.59597 0.166229 6.64243C-0.0791282 5.6889 -0.0524258 4.68691 0.243378 3.74744C0.539182 2.80796 1.09254 1.96767 1.84218 1.31961C2.59182 0.67156 3.50847 0.241036 4.49063 0.0757227Z" fill="#E64348"/>
</svg>
