<svg width="27" height="28" viewBox="0 0 27 28" fill="none" xmlns="http://www.w3.org/2000/svg">
<g clip-path="url(#clip0_725_5185)">
<path d="M9 8.375C9 9.56847 9.47411 10.7131 10.318 11.557C11.1619 12.4009 12.3065 12.875 13.5 12.875C14.6935 12.875 15.8381 12.4009 16.682 11.557C17.5259 10.7131 18 9.56847 18 8.375C18 7.18153 17.5259 6.03693 16.682 5.19302C15.8381 4.34911 14.6935 3.875 13.5 3.875C12.3065 3.875 11.1619 4.34911 10.318 5.19302C9.47411 6.03693 9 7.18153 9 8.375Z" stroke="#28252E" stroke-width="1.5" stroke-linecap="round" stroke-linejoin="round"/>
<path d="M6.75 24.125V21.875C6.75 20.6815 7.22411 19.5369 8.06802 18.693C8.91193 17.8491 10.0565 17.375 11.25 17.375H15.75C16.9435 17.375 18.0881 17.8491 18.932 18.693C19.7759 19.5369 20.25 20.6815 20.25 21.875V24.125" stroke="#28252E" stroke-width="1.5" stroke-linecap="round" stroke-linejoin="round"/>
</g>
<defs>
<clipPath id="clip0_725_5185">
<rect width="27" height="27" fill="white" transform="translate(0 0.5)"/>
</clipPath>
</defs>
</svg>
