<svg width="27" height="27" viewBox="0 0 27 27" fill="none" xmlns="http://www.w3.org/2000/svg">
<g clip-path="url(#clip0_725_1813)">
<path d="M3.375 6.75C3.375 6.15326 3.61205 5.58097 4.03401 5.15901C4.45597 4.73705 5.02826 4.5 5.625 4.5H21.375C21.9717 4.5 22.544 4.73705 22.966 5.15901C23.3879 5.58097 23.625 6.15326 23.625 6.75C23.625 7.34674 23.3879 7.91903 22.966 8.34099C22.544 8.76295 21.9717 9 21.375 9H5.625C5.02826 9 4.45597 8.76295 4.03401 8.34099C3.61205 7.91903 3.375 7.34674 3.375 6.75Z" stroke="#28252E" stroke-width="1.5" stroke-linecap="round" stroke-linejoin="round"/>
<path d="M5.625 9V20.25C5.625 20.8467 5.86205 21.419 6.28401 21.841C6.70597 22.2629 7.27826 22.5 7.875 22.5H19.125C19.7217 22.5 20.294 22.2629 20.716 21.841C21.1379 21.419 21.375 20.8467 21.375 20.25V9" stroke="#28252E" stroke-width="1.5" stroke-linecap="round" stroke-linejoin="round"/>
<path d="M11.25 13.5H15.75" stroke="#28252E" stroke-width="1.5" stroke-linecap="round" stroke-linejoin="round"/>
</g>
<defs>
<clipPath id="clip0_725_1813">
<rect width="27" height="27" fill="white"/>
</clipPath>
</defs>
</svg>
