<svg width="14" height="14" viewBox="0 0 14 14" fill="none" xmlns="http://www.w3.org/2000/svg">
<path d="M6.99902 0C7.24301 0 7.46579 0.143581 7.57188 0.369755L9.39125 4.23359L13.457 4.85441C13.6957 4.88996 13.8919 5.06226 13.9689 5.29746C14.0431 5.53539 13.9821 5.7952 13.8124 5.9675L10.8632 8.98133L11.5607 13.2341C11.6005 13.4802 11.5024 13.7318 11.3034 13.8768C11.1072 14.0217 10.8234 14.0409 10.6325 13.9233L6.99902 11.9213L3.34436 13.9233C3.15341 14.0409 2.8935 14.0217 2.69459 13.8768C2.49833 13.7318 2.4002 13.4802 2.41611 13.2341L3.13484 8.98133L0.188577 5.9675C0.0172489 5.7952 -0.0434852 5.53539 0.0318357 5.29746C0.106891 5.06226 0.305007 4.88996 0.543434 4.85441L4.60678 4.23359L6.42615 0.369755C6.53489 0.143554 6.75502 0 6.99902 0ZM6.99902 2.15918L5.60664 5.11969C5.51382 5.31386 5.33347 5.45061 5.1266 5.48343L1.98859 5.9593L4.26731 8.28667C4.41318 8.43709 4.47948 8.65315 4.445 8.86373L3.90927 12.1346L6.69932 10.5976C6.88763 10.4937 7.11306 10.4937 7.29871 10.5976L10.0888 12.1346L9.55303 8.86373C9.51855 8.65315 9.58751 8.43709 9.73338 8.28667L12.0116 5.9593L8.87408 5.48343C8.66456 5.45061 8.48422 5.31386 8.39404 5.11969L6.99902 2.15918Z" fill="#888888"/>
<path d="M7.76165 0.492132C7.62113 0.191385 7.32512 0 6.99902 0C6.67291 0 6.37771 0.191385 6.23454 0.492132L4.5298 4.10931L0.722631 4.68893C0.404484 4.73814 0.139361 4.9678 0.041265 5.28222C-0.0568306 5.59664 0.0227063 5.94387 0.250712 6.17626L3.01329 8.99509L2.36109 12.9786C2.30807 13.3067 2.44063 13.6403 2.7031 13.8344C2.96557 14.0285 3.31288 14.0531 3.59922 13.8973L7.00075 12.0244L10.4023 13.8973C10.6886 14.0531 11.0359 14.0312 11.2984 13.8344C11.5609 13.6375 11.6934 13.3067 11.6404 12.9786L10.9855 8.99509L13.7481 6.17626C13.9761 5.94387 14.0583 5.59664 13.9576 5.28222C13.8568 4.9678 13.5944 4.73814 13.2762 4.68893L9.46639 4.10931L7.76165 0.492132Z" fill="#E64348"/>
</svg>
