<svg width="1240" height="455" viewBox="0 0 1240 455" fill="none" xmlns="http://www.w3.org/2000/svg">
<g clip-path="url(#clip0_7032_138452)">
<g clip-path="url(#clip1_7032_138452)">
<path d="M0 0.00128881C9.44885 -0.0400112 18.8564 0.915789 28.2049 2.21969C57.6784 6.55324 86.2845 16.6098 112.079 31.5073C118.976 35.4603 125.673 39.785 132.001 44.6053C140.326 50.9242 148.111 58.1251 154.099 66.7421C159.669 74.6864 163.589 84.1766 163.406 94.0001C163.271 103.399 159.524 112.464 154.037 119.99C150.627 124.506 147.134 128.99 143.09 132.961C139.092 137.038 134.249 140.117 129.599 143.38C125.399 146.156 121.233 148.991 116.938 151.625C116.401 151.962 115.867 152.345 115.608 152.95C117.262 152.36 118.743 151.392 120.295 150.584C129.195 145.988 137.966 141.141 146.819 136.456C157.318 131.105 167.528 125.214 177.976 119.768C188.841 114.081 200.178 109.234 211.952 105.756C222.58 102.608 233.726 100.9 244.818 101.673C256.452 102.514 268.055 107.249 276.126 115.83C283.194 123.193 287.743 132.651 290.398 142.43C292.345 149.501 293.49 156.779 294.015 164.086C294.504 166.387 293.938 168.874 295 171.054V182.718C294.466 183.951 294.248 185.297 294.254 186.636C292.87 210.519 286.722 234.101 276.592 255.775C266.659 277.024 252.992 296.467 236.749 313.362C221.126 329.693 203.146 343.729 183.708 355.243C168.489 364.135 152.515 372.156 135.316 376.386C128.104 378.132 120.711 379.342 113.274 379.144C104.701 378.964 95.8927 376.89 88.8215 371.852C86.2167 370.097 84.2608 367.444 81.2695 366.267C81.1456 399.511 81.2341 432.757 81.2164 466.001C81.1692 471.807 81.3108 477.633 81.1486 483.427C76.6587 486.067 72.0065 488.445 67.4488 490.982C46.3356 502.442 25.1605 513.791 4.0238 525.21C2.6491 525.927 1.2803 526.665 0 527.547V121.034C13.5965 117.246 26.845 111.821 38.6332 103.986C42.8517 101.127 46.9817 98.0652 50.4656 94.3187C55.3272 89.345 59.174 83.0143 59.8938 75.9844C60.4366 71.1405 59.0472 66.2288 56.7934 61.9601C55.0529 58.8302 52.9112 55.9038 50.3063 53.4346C48.1174 51.0835 45.6158 49.0627 43.0995 47.0744C35.1109 41.0299 26.0868 36.5105 16.8209 32.7787C11.3457 30.5987 5.664 28.9909 0 27.4038V0.00128881ZM175.112 177.609C174.168 177.715 173.233 177.872 172.295 178.01C161.297 180.134 151.028 184.975 141.464 190.683C124.77 200.758 110.374 214.634 99.8103 231.028C89.9425 246.291 83.3965 263.846 81.7061 281.974C81.1574 286.258 81.2577 290.585 81.2931 294.901C81.3167 296.054 81.24 297.226 81.5085 298.361C81.7681 301.624 82.184 304.872 82.9215 308.064C84.4054 314.719 87.2669 321.227 92.0252 326.201C96.8691 331.425 103.875 334.343 110.911 334.876C113.363 334.856 115.844 335.083 118.277 334.702C123.337 334.343 128.29 333.024 133.072 331.372C138.473 329.422 143.7 327 148.704 324.18C159.666 318.085 169.719 310.365 178.469 301.382C196.022 283.446 208.146 259.961 211.397 234.995C211.757 233.393 211.547 231.736 211.931 230.14C211.963 228.317 212.297 226.514 212.235 224.688C212.217 221.641 212.353 218.582 212.108 215.546C211.657 207.655 210.258 199.622 206.591 192.53C204.308 188.158 201.016 184.258 196.856 181.574C192.977 179.019 188.372 177.801 183.794 177.367C180.903 177.346 177.976 177.137 175.112 177.609Z" fill="#F7F7F7"/>
</g>
<g clip-path="url(#clip2_7032_138452)">
<g clip-path="url(#clip3_7032_138452)">
<path d="M1229.25 -129.351C1232.83 -131.227 1236.32 -133.295 1240 -135V-48.9161C1235.78 -46.4263 1231.36 -44.2816 1227.11 -41.8449C1224.24 -40.423 1221.51 -38.7445 1218.64 -37.3019C1216.23 -36.0364 1213.67 -34.8741 1211.7 -32.933C1213.07 -32.9684 1214.45 -32.9654 1215.82 -32.9802C1217.87 -33.1424 1219.9 -33.4846 1221.96 -33.5377C1227.94 -34.3283 1233.98 -34.1248 1240 -34.0953V-6.80185C1231.74 -8.68985 1223.35 -10.1 1214.89 -10.513C1213.15 -10.8316 1211.37 -10.7401 1209.62 -10.7785C1205.29 -10.8345 1200.95 -10.8109 1196.63 -10.6988C1195.45 -10.5248 1194.27 -10.395 1193.08 -10.4009C1191.29 -10.4068 1189.56 -9.8492 1187.77 -9.8433C1176.33 -8.4686 1164.99 -5.85195 1154.25 -1.63935C1151.18 -0.317754 1148.01 0.79439 1145.05 2.34609C1138.78 5.38754 1132.68 8.83609 1127.13 13.0752C1122.19 16.7332 1117.73 21.1582 1114.51 26.4181C1112.45 29.7516 1110.91 33.4863 1110.58 37.4186C1110.12 40.466 1110.54 43.5782 1111.3 46.543C1112.55 50.5638 1114.65 54.2867 1117.21 57.6173C1119.13 59.8121 1121.01 62.0718 1123.31 63.886C1124.86 65.4141 1126.65 66.6472 1128.38 67.9541C1132.18 70.8569 1136.35 73.1962 1140.49 75.5621C1148.53 79.7452 1156.92 83.2793 1165.64 85.7691C1173.53 88.0465 1181.62 89.672 1189.79 90.5275C1192.81 91.2325 1195.94 90.7458 1198.99 91.2502C1202.83 91.3417 1206.67 91.324 1210.52 91.2709C1213.29 90.9198 1216.1 91.0496 1218.88 90.5983C1224.94 90.0319 1230.98 89.02 1236.91 87.6306C1237.95 87.3739 1239.02 87.2146 1240 86.7751V181.901C1210.38 165.912 1180.73 150.014 1151.11 134.025C1145.03 130.801 1138.99 127.5 1132.94 124.214C1129.86 122.721 1126.94 120.936 1123.9 119.376C1120.07 117.434 1116.39 115.219 1112.55 113.284C1085.69 98.8347 1058.84 84.362 1031.95 69.9571C1030.06 68.9748 1028.28 67.7417 1026.28 67.0101C1026.4 91.7724 1026.25 116.538 1026.23 141.303C1026.18 144.061 1026.37 146.828 1026.05 149.575C1026.03 154.59 1026.05 159.608 1026.04 164.623C1026.47 170.862 1026.04 177.139 1026.32 183.391C1029.89 182.326 1031.94 178.939 1035.04 177.095C1038.43 175.083 1042.01 173.304 1045.86 172.36C1050.1 171.239 1054.48 170.638 1058.87 170.647C1066.45 170.472 1074 171.709 1081.34 173.54C1093.68 176.877 1105.52 181.901 1116.83 187.824C1127.4 193.353 1137.59 199.613 1147.29 206.554C1156.82 213.416 1165.98 220.82 1174.41 228.995C1177.56 231.948 1180.64 234.989 1183.55 238.19C1195.73 251.114 1206.38 265.507 1215.05 281.021C1218.01 286.145 1220.51 291.511 1223.03 296.862C1228.28 308.836 1232.65 321.232 1235.36 334.041C1236.05 336.941 1236.54 339.879 1237.11 342.803C1237.47 346.051 1238.3 349.24 1238.4 352.514C1238.71 354.007 1238.67 355.538 1238.9 357.042C1238.96 358.29 1239.28 359.508 1239.27 360.765C1239.3 362.417 1239.29 364.149 1240 365.683V454.593H1169.01C1165.82 453.289 1162.94 451.318 1159.85 449.796C1157.76 448.784 1155.76 447.607 1153.73 446.495C1142.98 440.843 1132.37 434.946 1121.65 429.238C1119.44 427.863 1117.05 426.81 1114.8 425.5C1112.49 424.299 1110.29 422.886 1107.94 421.748C1104.28 419.818 1100.73 417.68 1097.03 415.83C1092.05 413.004 1086.98 410.343 1081.96 407.596C1079.02 406.13 1076.25 404.363 1073.28 402.935C1071.17 401.729 1068.97 400.673 1066.89 399.416C1063.97 397.788 1060.93 396.386 1058.06 394.67C1055.57 393.336 1053.02 392.094 1050.6 390.64C1040.7 385.268 1030.71 380.046 1020.78 374.719C1015.42 371.96 1010.11 369.09 1004.83 366.193C994.088 360.42 983.371 354.609 972.644 348.812C967.629 346.186 962.691 343.422 957.706 340.741C954.956 339.395 952.372 337.743 949.629 336.389C948.059 335.637 946.62 334.64 945 333.994V152.713C945.345 150.941 944.891 149.112 945.316 147.35C945.513 146.33 945.381 145.282 945.41 144.253C945.487 135.108 945.457 125.963 945.437 116.818C945.434 85.8399 945.442 54.859 945.434 23.8811C945.463 23.7542 945.528 23.5035 945.56 23.3796C952.443 20.288 958.915 16.3674 965.612 12.9012C968.594 11.1548 971.754 9.7329 974.706 7.93045C977.931 6.2342 981.167 4.55859 984.341 2.77089C995.044 -2.98456 1005.73 -8.77541 1016.45 -14.4925C1026.36 -20.009 1036.44 -25.2217 1046.36 -30.7264C1049.65 -32.3253 1052.77 -34.2398 1056.02 -35.8977C1058.99 -37.5261 1062 -39.0837 1064.94 -40.7623C1068.37 -42.4172 1071.61 -44.3967 1074.99 -46.1283C1079.25 -48.4618 1083.59 -50.6595 1087.8 -53.0697C1091.41 -54.9252 1094.97 -56.8781 1098.51 -58.8605C1108.56 -64.1233 1118.43 -69.6929 1128.47 -74.9616C1132.43 -77.2184 1136.54 -79.189 1140.48 -81.487C1143.71 -83.2659 1147.03 -84.8884 1150.23 -86.7528C1153.46 -88.4136 1156.64 -90.1836 1159.83 -91.9241C1163.13 -93.526 1166.24 -95.4877 1169.54 -97.0925C1174.98 -100.104 1180.48 -103.01 1185.94 -105.996C1188.32 -107.187 1190.64 -108.503 1192.97 -109.804C1195.75 -111.229 1198.5 -112.707 1201.22 -114.25C1210.58 -119.244 1219.91 -124.306 1229.25 -129.351ZM1053.74 215.097C1048.08 215.776 1042.67 218.26 1038.4 222.03C1035.8 224.328 1033.73 227.169 1032.06 230.195C1029.28 234.954 1027.87 240.352 1026.9 245.727C1026.87 247.119 1026.57 248.485 1026.34 249.86C1026.29 251.335 1026.33 252.822 1026.07 254.285C1026.02 257.025 1026 259.769 1026.09 262.51C1026.37 264.079 1026.25 265.684 1026.34 267.271C1026.64 268.914 1026.85 270.578 1026.94 272.247C1027.5 274.805 1027.68 277.428 1028.36 279.959C1029.54 285.502 1031.15 290.965 1033.2 296.255C1034.81 300.013 1036.2 303.877 1038.16 307.482C1039.37 309.518 1040.27 311.733 1041.58 313.719C1046.01 321.515 1051.45 328.702 1057.41 335.386C1061 339.083 1064.56 342.817 1068.48 346.169C1075.32 352.001 1082.69 357.246 1090.6 361.535C1100.21 366.937 1110.72 371.025 1121.7 372.394C1124.8 372.444 1127.96 372.701 1131.01 372.019C1133.49 371.651 1135.92 370.954 1138.24 369.981C1142.99 368.049 1146.84 364.37 1149.71 360.187C1153.12 355.178 1154.82 349.245 1156.01 343.384C1156.03 342.584 1156.14 341.803 1156.39 341.05C1156.75 339.906 1156.49 338.687 1156.71 337.522C1157.01 336.15 1156.9 334.74 1156.98 333.351C1157.04 327.342 1157.21 321.288 1156.36 315.335C1155.97 313.925 1156.17 312.432 1155.7 311.046C1155.39 310.058 1155.55 308.99 1155.17 308.019C1154.43 304.535 1153.64 301.048 1152.59 297.641C1150.95 291.859 1148.6 286.313 1146.12 280.853C1144.79 278.351 1143.59 275.782 1142.15 273.342C1136.47 263.48 1129.5 254.338 1121.29 246.438C1115.23 240.228 1108.3 234.921 1101.09 230.119C1096.57 227.322 1092.03 224.537 1087.18 222.351C1078.25 218.097 1068.6 214.554 1058.57 214.838C1056.96 214.902 1055.33 214.799 1053.74 215.097Z" fill="#F7F7F7"/>
</g>
</g>
</g>
<defs>
<clipPath id="clip0_7032_138452">
<rect width="1240" height="455" fill="white"/>
</clipPath>
<clipPath id="clip1_7032_138452">
<rect width="295" height="455" fill="white"/>
</clipPath>
<clipPath id="clip2_7032_138452">
<rect width="295" height="455" fill="white" transform="translate(945)"/>
</clipPath>
<clipPath id="clip3_7032_138452">
<rect width="295" height="590" fill="white" transform="translate(945 -135)"/>
</clipPath>
</defs>
</svg>
