<svg width="1240" height="555" viewBox="0 0 1240 555" fill="none" xmlns="http://www.w3.org/2000/svg">
<path d="M1229.54 5.31779C1233.03 3.55168 1236.42 1.60506 1240 0V81.0332C1235.89 83.3769 1231.6 85.3957 1227.46 87.6895C1224.67 89.0279 1222.01 90.608 1219.22 91.9659C1216.87 93.1572 1214.38 94.2513 1212.47 96.0785C1213.8 96.0452 1215.14 96.048 1216.48 96.0341C1218.47 95.8814 1220.45 95.5592 1222.45 95.5093C1228.26 94.765 1234.15 94.9566 1240 94.9844V120.676C1231.96 118.899 1223.8 117.572 1215.57 117.183C1213.87 116.883 1212.15 116.969 1210.44 116.933C1206.23 116.88 1202.01 116.903 1197.8 117.008C1196.66 117.172 1195.51 117.294 1194.35 117.289C1192.61 117.283 1190.93 117.808 1189.19 117.813C1178.06 119.107 1167.03 121.571 1156.57 125.536C1153.59 126.78 1150.51 127.827 1147.62 129.288C1141.52 132.151 1135.59 135.397 1130.19 139.387C1125.38 142.831 1121.05 146.996 1117.91 151.947C1115.91 155.085 1114.41 158.601 1114.09 162.302C1113.65 165.171 1114.05 168.101 1114.79 170.891C1116 174.676 1118.05 178.181 1120.54 181.316C1122.4 183.382 1124.23 185.509 1126.47 187.217C1127.98 188.655 1129.73 189.816 1131.41 191.046C1135.1 193.779 1139.16 195.981 1143.19 198.208C1151.01 202.146 1159.17 205.472 1167.65 207.816C1175.33 209.96 1183.2 211.49 1191.15 212.295C1194.09 212.959 1197.14 212.501 1200.1 212.976C1203.84 213.062 1207.58 213.045 1211.32 212.995C1214.02 212.665 1216.75 212.787 1219.45 212.362C1225.35 211.829 1231.22 210.876 1237 209.568C1238.01 209.327 1239.04 209.177 1240 208.763V298.307C1211.19 283.257 1182.33 268.292 1153.52 253.241C1147.61 250.206 1141.73 247.098 1135.84 244.005C1132.85 242.6 1130 240.92 1127.05 239.451C1123.32 237.623 1119.74 235.538 1116.01 233.716C1089.88 220.115 1063.75 206.491 1037.59 192.932C1035.76 192.007 1034.02 190.846 1032.07 190.158C1032.19 213.467 1032.05 236.779 1032.02 260.092C1031.97 262.688 1032.16 265.293 1031.85 267.878C1031.84 272.599 1031.86 277.322 1031.84 282.043C1032.26 287.916 1031.84 293.825 1032.12 299.71C1035.59 298.707 1037.58 295.519 1040.6 293.784C1043.9 291.89 1047.38 290.216 1051.13 289.327C1055.25 288.272 1059.51 287.705 1063.78 287.713C1071.16 287.55 1078.5 288.713 1085.64 290.438C1097.65 293.578 1109.17 298.307 1120.17 303.883C1130.45 309.087 1140.37 314.98 1149.8 321.514C1159.07 327.973 1167.98 334.943 1176.19 342.638C1179.26 345.418 1182.25 348.281 1185.08 351.294C1196.93 363.459 1207.29 377.008 1215.73 391.612C1218.6 396.435 1221.04 401.487 1223.49 406.524C1228.59 417.795 1232.85 429.464 1235.49 441.521C1236.16 444.251 1236.64 447.017 1237.19 449.769C1237.54 452.826 1238.35 455.828 1238.45 458.91C1238.74 460.315 1238.7 461.757 1238.93 463.173C1238.99 464.348 1239.3 465.494 1239.29 466.677C1239.32 468.232 1239.31 469.863 1240 471.307V555H1170.94C1167.83 553.773 1165.03 551.918 1162.02 550.485C1159.99 549.532 1158.05 548.424 1156.07 547.377C1145.61 542.057 1135.29 536.506 1124.86 531.132C1122.71 529.838 1120.38 528.847 1118.2 527.614C1115.94 526.484 1113.8 525.154 1111.52 524.082C1107.96 522.266 1104.51 520.252 1100.91 518.511C1096.06 515.851 1091.13 513.346 1086.25 510.761C1083.39 509.381 1080.69 507.717 1077.8 506.373C1075.75 505.238 1073.61 504.244 1071.58 503.061C1068.74 501.528 1065.78 500.209 1062.99 498.592C1060.57 497.337 1058.09 496.168 1055.74 494.799C1046.1 489.742 1036.38 484.827 1026.72 479.812C1021.51 477.216 1016.35 474.514 1011.2 471.787C1000.76 466.352 990.33 460.882 979.895 455.425C975.016 452.954 970.211 450.352 965.361 447.828C962.686 446.561 960.172 445.006 957.503 443.732C955.976 443.024 954.576 442.085 953 441.477V270.833C953.336 269.164 952.894 267.442 953.307 265.784C953.499 264.823 953.37 263.838 953.399 262.868C953.474 254.26 953.445 245.652 953.425 237.043C953.422 207.883 953.431 178.72 953.422 149.559C953.451 149.44 953.514 149.204 953.545 149.087C960.241 146.177 966.538 142.486 973.053 139.223C975.954 137.58 979.028 136.241 981.901 134.544C985.038 132.948 988.186 131.37 991.274 129.688C1001.69 124.27 1012.08 118.819 1022.51 113.437C1032.15 108.244 1041.96 103.337 1051.61 98.1557C1054.81 96.6506 1057.84 94.8483 1061.01 93.2877C1063.9 91.7549 1066.83 90.2886 1069.69 88.7086C1073.02 87.1507 1076.18 85.2874 1079.47 83.6574C1083.61 81.4608 1087.83 79.392 1091.93 77.1233C1095.44 75.3766 1098.91 73.5383 1102.35 71.6722C1112.12 66.7182 1121.73 61.4754 1131.5 56.5158C1135.35 54.3915 1139.35 52.5365 1143.17 50.3733C1146.32 48.6988 1149.55 47.1715 1152.66 45.4165C1155.81 43.8531 1158.9 42.1869 1162 40.5485C1165.22 39.0407 1168.24 37.194 1171.45 35.6834C1176.75 32.8481 1182.09 30.1129 1187.4 27.3026C1189.72 26.1808 1191.98 24.9423 1194.25 23.7176C1196.95 22.3764 1199.63 20.9852 1202.27 19.5328C1211.38 14.8315 1220.46 10.0663 1229.54 5.31779ZM1058.79 329.556C1053.29 330.195 1048.02 332.533 1043.87 336.082C1041.34 338.245 1039.32 340.919 1037.7 343.768C1034.99 348.247 1033.63 353.329 1032.68 358.389C1032.65 359.699 1032.36 360.985 1032.14 362.279C1032.08 363.668 1032.12 365.067 1031.87 366.445C1031.82 369.024 1031.8 371.607 1031.89 374.187C1032.17 375.664 1032.05 377.175 1032.14 378.669C1032.42 380.215 1032.63 381.782 1032.72 383.353C1033.26 385.761 1033.43 388.23 1034.1 390.612C1035.24 395.83 1036.82 400.973 1038.81 405.952C1040.37 409.49 1041.73 413.127 1043.63 416.521C1044.81 418.437 1045.69 420.522 1046.96 422.391C1051.27 429.731 1056.56 436.495 1062.36 442.788C1065.85 446.267 1069.32 449.783 1073.13 452.937C1079.79 458.427 1086.95 463.365 1094.65 467.402C1104 472.487 1114.22 476.336 1124.9 477.624C1127.92 477.671 1131 477.913 1133.97 477.271C1136.38 476.924 1138.75 476.269 1141 475.352C1145.62 473.534 1149.37 470.071 1152.16 466.133C1155.47 461.418 1157.13 455.834 1158.29 450.316C1158.31 449.563 1158.42 448.827 1158.66 448.119C1159.01 447.042 1158.76 445.895 1158.97 444.798C1159.26 443.507 1159.16 442.179 1159.23 440.872C1159.29 435.215 1159.45 429.517 1158.63 423.913C1158.25 422.586 1158.44 421.18 1157.99 419.875C1157.68 418.945 1157.84 417.94 1157.47 417.026C1156.75 413.747 1155.98 410.464 1154.96 407.257C1153.36 401.814 1151.08 396.594 1148.67 391.454C1147.37 389.099 1146.2 386.68 1144.8 384.383C1139.28 375.1 1132.49 366.495 1124.51 359.058C1118.61 353.213 1111.87 348.217 1104.86 343.696C1100.46 341.064 1096.04 338.442 1091.33 336.384C1082.64 332.38 1073.25 329.045 1063.5 329.312C1061.93 329.373 1060.34 329.276 1058.79 329.556Z" fill="#F5F5F5"/>
<path d="M0 29.0012C9.19261 28.9624 18.345 29.861 27.4401 31.087C56.1142 35.1614 83.9446 44.6165 109.04 58.6232C115.75 62.3398 122.265 66.4059 128.421 70.9379C136.52 76.879 144.094 83.6493 149.92 91.751C155.339 99.2203 159.153 108.143 158.975 117.379C158.843 126.216 155.198 134.739 149.86 141.814C146.542 146.061 143.144 150.277 139.209 154.01C135.32 157.843 130.608 160.739 126.085 163.806C121.998 166.416 117.946 169.082 113.767 171.558C113.244 171.875 112.725 172.235 112.472 172.804C114.083 172.249 115.523 171.339 117.033 170.579C125.692 166.258 134.224 161.701 142.837 157.297C153.051 152.265 162.984 146.726 173.15 141.606C183.72 136.259 194.75 131.702 206.204 128.432C216.544 125.472 227.387 123.866 238.178 124.593C249.498 125.384 260.785 129.835 268.638 137.904C275.514 144.826 279.94 153.719 282.523 162.913C284.417 169.561 285.531 176.404 286.041 183.274C286.518 185.437 285.967 187.776 287 189.825V200.792C286.481 201.951 286.268 203.216 286.274 204.475C284.928 226.93 278.947 249.102 269.091 269.48C259.428 289.458 246.131 307.739 230.329 323.623C215.129 338.978 197.637 352.175 178.726 363C163.92 371.36 148.379 378.901 131.647 382.878C124.63 384.52 117.438 385.657 110.202 385.472C101.862 385.302 93.2922 383.353 86.4128 378.615C83.8786 376.965 81.9758 374.472 79.0656 373.365C78.9451 404.621 79.0312 435.879 79.014 467.135C78.968 472.593 79.1058 478.071 78.948 483.518C74.5798 486 70.0538 488.236 65.6197 490.621C45.0791 501.397 24.4782 512.067 3.91468 522.803C2.57726 523.477 1.24558 524.171 0 525V142.796C13.2278 139.235 26.117 134.134 37.5855 126.768C41.6896 124.08 45.7076 121.201 49.0971 117.679C53.8269 113.002 57.5693 107.05 58.2696 100.441C58.7977 95.8864 57.4459 91.2684 55.2532 87.255C53.5599 84.3122 51.4763 81.5608 48.9421 79.2393C46.8126 77.0287 44.3788 75.1288 41.9307 73.2594C34.1587 67.5763 25.3794 63.3272 16.3647 59.8186C11.038 57.7689 5.5104 56.2573 0 54.7651V29.0012ZM170.363 195.988C169.445 196.088 168.535 196.235 167.622 196.365C156.923 198.362 146.933 202.914 137.628 208.281C121.387 217.752 107.381 230.799 97.1036 246.212C87.5034 260.563 81.1349 277.069 79.4904 294.112C78.9566 298.14 79.0542 302.208 79.0886 306.266C79.1116 307.351 79.0369 308.452 79.2981 309.52C79.5507 312.587 79.9553 315.641 80.6728 318.642C82.1164 324.899 84.9003 331.018 89.5297 335.694C94.2422 340.606 101.058 343.349 107.903 343.851C110.288 343.832 112.702 344.045 115.07 343.687C119.992 343.349 124.811 342.109 129.463 340.556C134.718 338.723 139.803 336.446 144.671 333.794C155.336 328.064 165.117 320.805 173.629 312.36C190.706 295.496 202.501 273.416 205.664 249.943C206.014 248.437 205.811 246.878 206.184 245.377C206.215 243.663 206.54 241.969 206.479 240.252C206.462 237.387 206.594 234.511 206.356 231.657C205.917 224.237 204.556 216.685 200.989 210.017C198.768 205.906 195.565 202.24 191.518 199.716C187.744 197.314 183.264 196.168 178.81 195.761C175.997 195.741 173.15 195.544 170.363 195.988Z" fill="#F5F5F5"/>
</svg>
