<svg width="20" height="20" viewBox="0 0 20 20" fill="none" xmlns="http://www.w3.org/2000/svg">
<path d="M11 2.99994H19.0007" stroke="#28252E" stroke-width="1.5" stroke-linecap="round" stroke-linejoin="round"/>
<path d="M11 7H16.0004" stroke="#28252E" stroke-width="1.5" stroke-linecap="round" stroke-linejoin="round"/>
<path d="M11 13H19.0007" stroke="#28252E" stroke-width="1.5" stroke-linecap="round" stroke-linejoin="round"/>
<path d="M11 17.0001H16.0004" stroke="#28252E" stroke-width="1.5" stroke-linecap="round" stroke-linejoin="round"/>
<path d="M1 3C1 2.73479 1.10537 2.48043 1.29292 2.29289C1.48047 2.10536 1.73485 2 2.00009 2H6.00043C6.26567 2 6.52005 2.10536 6.7076 2.29289C6.89515 2.48043 7.00052 2.73479 7.00052 3V7.00001C7.00052 7.26523 6.89515 7.51958 6.7076 7.70712C6.52005 7.89466 6.26567 8.00002 6.00043 8.00002H2.00009C1.73485 8.00002 1.48047 7.89466 1.29292 7.70712C1.10537 7.51958 1 7.26523 1 7.00001V3Z" stroke="#28252E" stroke-width="1.5" stroke-linecap="round" stroke-linejoin="round"/>
<path d="M1 13C1 12.7348 1.10537 12.4804 1.29292 12.2929C1.48047 12.1054 1.73485 12 2.00009 12H6.00043C6.26567 12 6.52005 12.1054 6.7076 12.2929C6.89515 12.4804 7.00052 12.7348 7.00052 13V17C7.00052 17.2652 6.89515 17.5196 6.7076 17.7071C6.52005 17.8947 6.26567 18 6.00043 18H2.00009C1.73485 18 1.48047 17.8947 1.29292 17.7071C1.10537 17.5196 1 17.2652 1 17V13Z" stroke="#28252E" stroke-width="1.5" stroke-linecap="round" stroke-linejoin="round"/>
</svg>
