<svg width="200" height="200" viewBox="0 0 200 200" fill="none" xmlns="http://www.w3.org/2000/svg">
<path d="M87.7881 8.18595C92.4241 5.56595 97.9181 4.51195 103.194 5.20395C106.502 5.61995 109.718 6.71795 112.594 8.40395C132.398 19.6059 152.2 30.8139 172.004 42.0159C173.798 43.0519 175.66 43.9919 177.298 45.2739C182.404 49.1319 185.904 55.0479 186.762 61.3939C187.102 63.5839 186.978 65.8039 187 68.0099C186.992 89.5039 187.014 110.998 186.99 132.492C183.64 126.59 178.848 121.476 173.034 117.95C172.954 110.036 173.022 102.116 173 94.1979C172.998 84.7479 173.004 75.2999 172.996 65.8499C150.988 78.5579 129.012 91.3199 107.008 104.036C106.99 128.908 107.004 153.78 107.002 178.652C110.558 176.644 114.116 174.638 117.664 172.614C120.144 176.726 123.37 180.368 127.102 183.384C122.954 185.746 118.794 188.086 114.642 190.442C112.904 191.404 111.212 192.468 109.354 193.188C103.474 195.584 96.6741 195.604 90.7801 193.242C88.6401 192.422 86.7101 191.17 84.7081 190.076C66.0621 179.52 47.4141 168.968 28.7641 158.42C26.5121 157.104 24.1401 155.958 22.1301 154.276C17.3321 150.424 14.0701 144.714 13.2381 138.614C12.9121 136.492 13.0161 134.342 13.0001 132.204C13.0001 110.602 13.0001 88.9999 13.0001 67.3979C13.0081 65.3899 12.9261 63.3719 13.2401 61.3799C14.2261 54.0319 18.7881 47.2999 25.2041 43.6019C46.0621 31.7919 66.9261 19.9899 87.7881 8.18595ZM94.7561 20.3539C87.9601 24.2039 81.1461 28.0259 74.3681 31.9079C96.4601 44.0519 118.552 56.1959 140.634 68.3559C148.782 63.6659 156.928 58.9659 165.042 54.2179C160.084 51.3359 155.06 48.5599 150.078 45.7159C135.214 37.3099 120.356 28.8979 105.492 20.4919C102.262 18.5659 98.0321 18.5039 94.7561 20.3539ZM34.9241 54.2159C56.6081 66.7939 78.3121 79.3339 100 91.9039C108.81 86.7959 117.628 81.6999 126.44 76.5919C126.346 76.5259 126.156 76.3959 126.062 76.3299C104.04 64.2299 82.0301 52.1079 60.0081 40.0079C51.6501 44.7499 43.2761 49.4619 34.9241 54.2159ZM27.0021 65.8699C26.9981 89.0459 27.0001 112.224 27.0001 135.402C27.0581 138.398 28.4721 141.33 30.7801 143.238C31.8421 144.156 33.1281 144.748 34.3301 145.46C53.8861 156.522 73.4381 167.594 92.9981 178.652C92.9961 153.78 93.0081 128.91 92.9941 104.038C78.7941 95.8279 64.6021 87.6019 50.4041 79.3859C42.6001 74.8879 34.8281 70.3259 27.0021 65.8699Z" fill="#B4B8BB"/>
<path d="M149.631 130.83C152.607 130.496 155.707 130.734 158.487 131.906C161.287 133.07 163.639 135.2 165.199 137.788C167.371 141.324 168.233 145.498 168.423 149.6C168.603 154.496 168.205 159.574 166.071 164.058C164.891 166.624 163.069 168.93 160.703 170.498C158.711 171.832 156.369 172.586 153.993 172.822C150.849 173.106 147.565 172.76 144.721 171.314C142.383 170.172 140.433 168.32 139.041 166.136C137.109 163.164 136.147 159.662 135.755 156.168C135.413 152.988 135.435 149.768 135.841 146.594C136.363 142.738 137.633 138.87 140.161 135.848C142.491 133.006 145.993 131.228 149.631 130.83ZM150.701 137.938C149.157 138.248 147.831 139.27 146.941 140.542C145.215 142.92 144.699 145.916 144.453 148.78C144.227 152.208 144.299 155.7 145.149 159.044C145.707 161.028 146.583 163.042 148.203 164.388C149.977 165.884 152.643 166.148 154.701 165.096C156.289 164.258 157.393 162.73 158.113 161.124C159.119 158.822 159.439 156.292 159.581 153.806C159.661 150.504 159.645 147.132 158.659 143.948C158.087 142.118 157.213 140.278 155.673 139.068C154.299 137.962 152.417 137.55 150.701 137.938Z" fill="#B4B8BB"/>
</svg>
