<svg width="50" height="50" viewBox="0 0 50 50" fill="none" xmlns="http://www.w3.org/2000/svg">
  <path d="M21.9787 2.0292C23.5647 1.1387 25.5457 1.0042 27.2402 1.6632C27.6482 1.8137 28.0277 2.0272 28.4032 2.2432C33.2692 4.9967 38.1357 7.7502 43.0022 10.5037C43.4732 10.7742 43.9617 11.0222 44.3872 11.3647C45.8472 12.4917 46.7492 14.3032 46.7522 16.1497C46.7482 21.8042 46.7577 27.4587 46.7477 33.1127C45.9032 31.6442 44.7112 30.3652 43.2582 29.4852C43.2422 25.1447 43.2572 20.8042 43.2507 16.4642C37.7472 19.6377 32.2547 22.8307 26.7537 26.0087C26.7492 32.2267 26.7527 38.4447 26.7522 44.6622C27.6407 44.1612 28.5302 43.6602 29.4162 43.1537C30.0407 44.1792 30.8422 45.0957 31.7807 45.8447C30.7422 46.4332 29.7032 47.0202 28.6647 47.6087C28.2187 47.8557 27.7842 48.1287 27.3057 48.3107C25.7337 48.9412 23.9047 48.8897 22.3712 48.1707C21.9292 47.9597 21.5127 47.7002 21.0837 47.4642C16.1667 44.6812 11.2492 41.8997 6.3322 39.1167C4.8132 38.2502 3.6997 36.7087 3.3677 34.9902C3.2127 34.2692 3.2577 33.5292 3.2517 32.7977C3.2517 27.2322 3.2517 21.6662 3.2517 16.1007C3.2707 14.7712 3.7397 13.4547 4.5647 12.4122C5.0592 11.7872 5.6722 11.2552 6.3667 10.8627C11.5707 7.9187 16.7747 4.9732 21.9787 2.0292ZM23.6582 5.1057C21.9707 6.0637 20.2772 7.0112 18.5942 7.9772C24.1167 11.0127 29.6392 14.0477 35.1587 17.0887C37.1997 15.9177 39.2352 14.7367 41.2687 13.5527C36.2972 10.7327 31.3202 7.9217 26.3457 5.1062C25.5317 4.6327 24.4727 4.6332 23.6582 5.1057ZM8.7672 13.5312C8.7667 13.5422 8.7652 13.5642 8.7647 13.5752C14.1777 16.7077 19.5902 19.8412 25.0017 22.9757C27.1707 21.7187 29.3402 20.4622 31.5107 19.2077C31.5452 19.1842 31.5777 19.1582 31.6087 19.1292C26.0717 16.0927 20.5407 13.0452 15.0077 10.0017C12.9262 11.1762 10.8472 12.3552 8.7672 13.5312ZM6.7527 16.4652C6.7502 22.2427 6.7532 28.0197 6.7512 33.7972C6.7497 34.5632 7.1052 35.3187 7.6942 35.8077C7.9512 36.0302 8.2607 36.1752 8.5517 36.3462C13.4512 39.1182 18.3507 41.8922 23.2512 44.6627C23.2507 38.4447 23.2542 32.2262 23.2497 26.0082C17.7482 22.8312 12.2567 19.6367 6.7527 16.4652Z" fill="#556290" />
  <path d="M36.9415 32.2384C37.1114 31.7511 37.647 31.4302 38.1569 31.513C38.6848 31.5736 39.1196 32.056 39.1279 32.587C39.1292 34.0155 39.1283 35.444 39.1286 36.8728C40.4825 36.8728 41.8365 36.8728 43.1904 36.8728C43.3251 36.8735 43.4614 36.8654 43.5942 36.8941C43.891 36.9508 44.1579 37.1355 44.3213 37.3887C44.5044 37.6688 44.5485 38.0319 44.4457 38.3493C44.331 38.7151 44.0151 39.0093 43.6419 39.0966C43.4834 39.1392 43.318 39.1272 43.1559 39.1285C41.8136 39.1285 40.4709 39.1285 39.1286 39.1285C39.1283 40.5567 39.1292 41.9852 39.1279 43.4134C39.1189 43.8819 38.7821 44.3192 38.3328 44.451C38.0479 44.538 37.7292 44.5087 37.4669 44.3672C37.1881 44.2177 36.9757 43.9476 36.9038 43.6386C36.8619 43.4814 36.8735 43.3173 36.8725 43.1565C36.8725 41.8138 36.8725 40.4713 36.8725 39.1285C35.5299 39.1285 34.1872 39.1285 32.8446 39.1285C32.6905 39.1272 32.5339 39.1382 32.3824 39.1024C32.0891 39.0389 31.8268 38.8511 31.6689 38.5965C31.5119 38.3452 31.4613 38.0303 31.53 37.7419C31.6173 37.344 31.9418 37.0114 32.3363 36.9109C32.5107 36.8593 32.6941 36.8744 32.8736 36.8728C34.2066 36.8728 35.5396 36.8728 36.8725 36.8728C36.8725 35.5629 36.8725 34.253 36.8725 32.9428C36.8748 32.7069 36.8516 32.4623 36.9415 32.2384Z" fill="#556290" />
</svg>