<svg width="20" height="20" viewBox="0 0 20 20" fill="none" xmlns="http://www.w3.org/2000/svg">
  <mask id="path-1-inside-1_5788_22328" fill="white">
    <path d="M5.85842 0.0699376C4.79442 0.120138 4.06782 0.289938 3.43262 0.539538C2.77522 0.795738 2.21802 1.13954 1.66362 1.69594C1.10922 2.25234 0.767816 2.80994 0.513416 3.46834C0.267216 4.10494 0.100416 4.83214 0.0534162 5.89674C0.00641622 6.96134 -0.00398378 7.30354 0.00121621 10.0191C0.00641621 12.7347 0.0184162 13.0751 0.0700162 14.1419C0.120816 15.2057 0.290016 15.9321 0.539616 16.5675C0.796216 17.2249 1.13962 17.7819 1.69622 18.3365C2.25282 18.8911 2.81002 19.2317 3.47002 19.4865C4.10602 19.7323 4.83342 19.8999 5.89782 19.9465C6.96222 19.9931 7.30482 20.0039 10.0196 19.9987C12.7344 19.9935 13.0762 19.9815 14.1428 19.9309C15.2094 19.8803 15.932 19.7099 16.5676 19.4615C17.225 19.2043 17.7824 18.8615 18.3366 18.3047C18.8908 17.7479 19.232 17.1899 19.4862 16.5311C19.7326 15.8951 19.9 15.1677 19.9462 14.1041C19.9928 13.0367 20.0038 12.6959 19.9986 9.98074C19.9934 7.26554 19.9812 6.92514 19.9306 5.85874C19.88 4.79234 19.7106 4.06814 19.4612 3.43234C19.2042 2.77494 18.8612 2.21834 18.3048 1.66334C17.7484 1.10834 17.19 0.767338 16.5314 0.513738C15.895 0.267538 15.168 0.0997376 14.1036 0.0537376C13.0392 0.00773761 12.6966 -0.00406239 9.98082 0.00113761C7.26502 0.00633761 6.92502 0.0179376 5.85842 0.0699376ZM5.97522 18.1475C5.00022 18.1051 4.47082 17.9431 4.11802 17.8075C3.65082 17.6275 3.31802 17.4099 2.96642 17.0617C2.61482 16.7135 2.39882 16.3795 2.21642 15.9133C2.07942 15.5605 1.91442 15.0317 1.86882 14.0567C1.81922 13.0029 1.80882 12.6865 1.80302 10.0167C1.79722 7.34694 1.80742 7.03094 1.85362 5.97674C1.89522 5.00254 2.05822 4.47254 2.19362 4.11994C2.37362 3.65214 2.59042 3.31994 2.93942 2.96854C3.28842 2.61714 3.62142 2.40074 4.08802 2.21834C4.44042 2.08074 4.96922 1.91714 5.94382 1.87074C6.99842 1.82074 7.31442 1.81074 9.98382 1.80494C12.6532 1.79914 12.97 1.80914 14.025 1.85554C14.9992 1.89794 15.5294 2.05934 15.8816 2.19554C16.349 2.37554 16.6816 2.59174 17.033 2.94134C17.3844 3.29094 17.601 3.62274 17.7834 4.09034C17.9212 4.44174 18.0848 4.97034 18.1308 5.94554C18.181 7.00014 18.1924 7.31634 18.1972 9.98554C18.202 12.6547 18.1926 12.9717 18.1464 14.0255C18.1038 15.0005 17.9422 15.5301 17.8064 15.8833C17.6264 16.3503 17.4094 16.6833 17.0602 17.0345C16.711 17.3857 16.3784 17.6021 15.9116 17.7845C15.5596 17.9219 15.0302 18.0859 14.0564 18.1323C13.0018 18.1819 12.6858 18.1923 10.0154 18.1981C7.34502 18.2039 7.03002 18.1931 5.97542 18.1475M14.1274 4.65534C14.1278 4.89269 14.1986 5.1246 14.3308 5.32172C14.463 5.51885 14.6507 5.67235 14.8701 5.76279C15.0896 5.85324 15.3309 5.87658 15.5636 5.82986C15.7963 5.78313 16.01 5.66845 16.1775 5.50031C16.345 5.33216 16.4589 5.11812 16.5048 4.88524C16.5507 4.65236 16.5264 4.4111 16.4352 4.19199C16.3439 3.97288 16.1898 3.78575 15.9921 3.65427C15.7945 3.52279 15.5624 3.45286 15.325 3.45334C15.0068 3.45397 14.7019 3.58096 14.4773 3.80636C14.2527 4.03177 14.1269 4.33715 14.1274 4.65534ZM4.86542 10.0099C4.87102 12.8459 7.17422 15.1397 10.0096 15.1343C12.845 15.1289 15.1404 12.8259 15.135 9.98994C15.1296 7.15394 12.8258 4.85954 9.99002 4.86514C7.15422 4.87074 4.86002 7.17434 4.86542 10.0099ZM6.66662 10.0063C6.66531 9.34706 6.85954 8.70219 7.22473 8.15329C7.58992 7.6044 8.10968 7.17612 8.71828 6.92261C9.32688 6.66911 9.99698 6.60177 10.6438 6.72911C11.2907 6.85645 11.8853 7.17275 12.3524 7.63801C12.8195 8.10327 13.1382 8.6966 13.2681 9.34296C13.398 9.98932 13.3333 10.6597 13.0822 11.2693C12.8311 11.8789 12.4049 12.4003 11.8574 12.7677C11.31 13.1351 10.6659 13.3318 10.0066 13.3331C9.56885 13.3341 9.1352 13.2487 8.73041 13.082C8.32563 12.9153 7.95765 12.6705 7.64749 12.3616C7.33734 12.0527 7.09107 11.6857 6.92277 11.2815C6.75447 10.8774 6.66743 10.4441 6.66662 10.0063Z" />
  </mask>
  <path d="M5.85842 0.0699376C4.79442 0.120138 4.06782 0.289938 3.43262 0.539538C2.77522 0.795738 2.21802 1.13954 1.66362 1.69594C1.10922 2.25234 0.767816 2.80994 0.513416 3.46834C0.267216 4.10494 0.100416 4.83214 0.0534162 5.89674C0.00641622 6.96134 -0.00398378 7.30354 0.00121621 10.0191C0.00641621 12.7347 0.0184162 13.0751 0.0700162 14.1419C0.120816 15.2057 0.290016 15.9321 0.539616 16.5675C0.796216 17.2249 1.13962 17.7819 1.69622 18.3365C2.25282 18.8911 2.81002 19.2317 3.47002 19.4865C4.10602 19.7323 4.83342 19.8999 5.89782 19.9465C6.96222 19.9931 7.30482 20.0039 10.0196 19.9987C12.7344 19.9935 13.0762 19.9815 14.1428 19.9309C15.2094 19.8803 15.932 19.7099 16.5676 19.4615C17.225 19.2043 17.7824 18.8615 18.3366 18.3047C18.8908 17.7479 19.232 17.1899 19.4862 16.5311C19.7326 15.8951 19.9 15.1677 19.9462 14.1041C19.9928 13.0367 20.0038 12.6959 19.9986 9.98074C19.9934 7.26554 19.9812 6.92514 19.9306 5.85874C19.88 4.79234 19.7106 4.06814 19.4612 3.43234C19.2042 2.77494 18.8612 2.21834 18.3048 1.66334C17.7484 1.10834 17.19 0.767338 16.5314 0.513738C15.895 0.267538 15.168 0.0997376 14.1036 0.0537376C13.0392 0.00773761 12.6966 -0.00406239 9.98082 0.00113761C7.26502 0.00633761 6.92502 0.0179376 5.85842 0.0699376ZM5.97522 18.1475C5.00022 18.1051 4.47082 17.9431 4.11802 17.8075C3.65082 17.6275 3.31802 17.4099 2.96642 17.0617C2.61482 16.7135 2.39882 16.3795 2.21642 15.9133C2.07942 15.5605 1.91442 15.0317 1.86882 14.0567C1.81922 13.0029 1.80882 12.6865 1.80302 10.0167C1.79722 7.34694 1.80742 7.03094 1.85362 5.97674C1.89522 5.00254 2.05822 4.47254 2.19362 4.11994C2.37362 3.65214 2.59042 3.31994 2.93942 2.96854C3.28842 2.61714 3.62142 2.40074 4.08802 2.21834C4.44042 2.08074 4.96922 1.91714 5.94382 1.87074C6.99842 1.82074 7.31442 1.81074 9.98382 1.80494C12.6532 1.79914 12.97 1.80914 14.025 1.85554C14.9992 1.89794 15.5294 2.05934 15.8816 2.19554C16.349 2.37554 16.6816 2.59174 17.033 2.94134C17.3844 3.29094 17.601 3.62274 17.7834 4.09034C17.9212 4.44174 18.0848 4.97034 18.1308 5.94554C18.181 7.00014 18.1924 7.31634 18.1972 9.98554C18.202 12.6547 18.1926 12.9717 18.1464 14.0255C18.1038 15.0005 17.9422 15.5301 17.8064 15.8833C17.6264 16.3503 17.4094 16.6833 17.0602 17.0345C16.711 17.3857 16.3784 17.6021 15.9116 17.7845C15.5596 17.9219 15.0302 18.0859 14.0564 18.1323C13.0018 18.1819 12.6858 18.1923 10.0154 18.1981C7.34502 18.2039 7.03002 18.1931 5.97542 18.1475M14.1274 4.65534C14.1278 4.89269 14.1986 5.1246 14.3308 5.32172C14.463 5.51885 14.6507 5.67235 14.8701 5.76279C15.0896 5.85324 15.3309 5.87658 15.5636 5.82986C15.7963 5.78313 16.01 5.66845 16.1775 5.50031C16.345 5.33216 16.4589 5.11812 16.5048 4.88524C16.5507 4.65236 16.5264 4.4111 16.4352 4.19199C16.3439 3.97288 16.1898 3.78575 15.9921 3.65427C15.7945 3.52279 15.5624 3.45286 15.325 3.45334C15.0068 3.45397 14.7019 3.58096 14.4773 3.80636C14.2527 4.03177 14.1269 4.33715 14.1274 4.65534ZM4.86542 10.0099C4.87102 12.8459 7.17422 15.1397 10.0096 15.1343C12.845 15.1289 15.1404 12.8259 15.135 9.98994C15.1296 7.15394 12.8258 4.85954 9.99002 4.86514C7.15422 4.87074 4.86002 7.17434 4.86542 10.0099ZM6.66662 10.0063C6.66531 9.34706 6.85954 8.70219 7.22473 8.15329C7.58992 7.6044 8.10968 7.17612 8.71828 6.92261C9.32688 6.66911 9.99698 6.60177 10.6438 6.72911C11.2907 6.85645 11.8853 7.17275 12.3524 7.63801C12.8195 8.10327 13.1382 8.6966 13.2681 9.34296C13.398 9.98932 13.3333 10.6597 13.0822 11.2693C12.8311 11.8789 12.4049 12.4003 11.8574 12.7677C11.31 13.1351 10.6659 13.3318 10.0066 13.3331C9.56885 13.3341 9.1352 13.2487 8.73041 13.082C8.32563 12.9153 7.95765 12.6705 7.64749 12.3616C7.33734 12.0527 7.09107 11.6857 6.92277 11.2815C6.75447 10.8774 6.66743 10.4441 6.66662 10.0063Z" fill="#9294A5" />
  <path d="M5.85842 0.0699376L5.90554 1.06883L5.90711 1.06875L5.85842 0.0699376ZM3.43262 0.539538L3.79573 1.47129L3.79834 1.47026L3.43262 0.539538ZM0.513416 3.46834L1.4461 3.82904L1.44621 3.82876L0.513416 3.46834ZM0.0700162 14.1419L1.06888 14.0942L1.06885 14.0936L0.0700162 14.1419ZM0.539616 16.5675L1.47117 16.2039L1.47038 16.2019L0.539616 16.5675ZM3.47002 19.4865L3.83051 18.5538L3.83017 18.5536L3.47002 19.4865ZM16.5676 19.4615L16.9316 20.3929L16.932 20.3928L16.5676 19.4615ZM19.4862 16.5311L18.5537 16.1699L18.5533 16.1712L19.4862 16.5311ZM19.9462 14.1041L18.9472 14.0605L18.9472 14.0607L19.9462 14.1041ZM19.4612 3.43234L18.5299 3.79644L18.5303 3.79751L19.4612 3.43234ZM16.5314 0.513738L16.1706 1.44638L16.1721 1.44694L16.5314 0.513738ZM4.11802 17.8075L3.7585 18.7407L3.75925 18.741L4.11802 17.8075ZM2.21642 15.9133L1.28423 16.2753L1.28516 16.2777L2.21642 15.9133ZM1.86882 14.0567L2.86772 14.01L2.86771 14.0097L1.86882 14.0567ZM1.85362 5.97674L2.85266 6.02052L2.85271 6.0194L1.85362 5.97674ZM2.19362 4.11994L1.26032 3.76082L1.26008 3.76146L2.19362 4.11994ZM4.08802 2.21834L3.72429 1.28683L3.72393 1.28697L4.08802 2.21834ZM5.94382 1.87074L5.89646 0.87186L5.89626 0.871869L5.94382 1.87074ZM14.025 1.85554L13.9811 2.85457L13.9815 2.85459L14.025 1.85554ZM15.8816 2.19554L15.5209 3.12823L15.5222 3.12873L15.8816 2.19554ZM17.7834 4.09034L16.8518 4.45375L16.8524 4.45542L17.7834 4.09034ZM18.1308 5.94554L17.1319 5.99266L17.1319 5.99308L18.1308 5.94554ZM18.1464 14.0255L17.1474 13.9817L17.1474 13.9819L18.1464 14.0255ZM17.8064 15.8833L18.7395 16.243L18.7398 16.2422L17.8064 15.8833ZM15.9116 17.7845L16.2752 18.7161L16.2756 18.716L15.9116 17.7845ZM14.0564 18.1323L14.1034 19.1312L14.104 19.1312L14.0564 18.1323ZM14.1274 4.65534L15.1274 4.65367L14.1274 4.65534ZM15.325 3.45334L15.323 2.45334L15.325 3.45334ZM4.86542 10.0099L3.86542 10.0118L3.86542 10.0119L4.86542 10.0099ZM6.66662 10.0063L7.66661 10.0045L7.66661 10.0044L6.66662 10.0063ZM10.0066 13.3331L10.0046 12.3331L10.0045 12.3331L10.0066 13.3331ZM5.81129 -0.928951C4.65294 -0.8743 3.81683 -0.685871 3.06689 -0.391185L3.79834 1.47026C4.3188 1.26575 4.9359 1.11457 5.90554 1.06883L5.81129 -0.928951ZM3.0695 -0.392206C2.29109 -0.0888453 1.61403 0.328936 0.955237 0.990105L2.37199 2.40177C2.822 1.95014 3.25935 1.68032 3.79573 1.47128L3.0695 -0.392206ZM0.955237 0.990105C0.296511 1.65121 -0.118305 2.32874 -0.419373 3.10792L1.44621 3.82876C1.65394 3.29114 1.92192 2.85347 2.37199 2.40177L0.955237 0.990105ZM-0.419263 3.10763C-0.709565 3.85826 -0.894469 4.69421 -0.945611 5.85263L1.05244 5.94084C1.0953 4.97006 1.244 4.35161 1.4461 3.82904L-0.419263 3.10763ZM-0.945611 5.85263C-0.99364 6.94055 -1.00399 7.301 -0.998782 10.0211L1.00121 10.0172C0.996023 7.30607 1.00647 6.98213 1.05244 5.94084L-0.945611 5.85263ZM-0.998782 10.0211C-0.993573 12.7413 -0.981548 13.1001 -0.928816 14.1902L1.06885 14.0936C1.01838 13.0502 1.00641 12.7281 1.00121 10.0172L-0.998782 10.0211ZM-0.928846 14.1896C-0.873578 15.347 -0.685916 16.1828 -0.391146 16.9332L1.47038 16.2019C1.26595 15.6815 1.11521 15.0645 1.06888 14.0942L-0.928846 14.1896ZM-0.391936 16.9311C-0.0883216 17.709 0.328874 18.3858 0.990383 19.0449L2.40205 17.6282C1.95036 17.1781 1.68075 16.7409 1.47117 16.2039L-0.391936 16.9311ZM0.990383 19.0449C1.65209 19.7042 2.32945 20.1181 3.10986 20.4194L3.83017 18.5536C3.29059 18.3453 2.85355 18.078 2.40205 17.6282L0.990383 19.0449ZM3.10952 20.4193C3.85894 20.7089 4.695 20.8948 5.85408 20.9456L5.94156 18.9475C4.97183 18.905 4.35309 18.7557 3.83051 18.5538L3.10952 20.4193ZM5.85408 20.9456C6.94141 20.9932 7.30194 21.0039 10.0215 20.9987L10.0177 18.9987C7.30769 19.0039 6.98303 18.9931 5.94156 18.9475L5.85408 20.9456ZM10.0215 20.9987C12.7411 20.9935 13.1008 20.9815 14.1902 20.9298L14.0954 18.9321C13.0517 18.9816 12.7277 18.9935 10.0177 18.9987L10.0215 20.9987ZM14.1902 20.9298C15.3522 20.8747 16.1833 20.6854 16.9316 20.3929L16.2036 18.5301C15.6807 18.7345 15.0666 18.886 14.0954 18.9321L14.1902 20.9298ZM16.932 20.3928C17.7086 20.089 18.386 19.6727 19.0454 19.0102L17.6279 17.5993C17.1789 18.0504 16.7415 18.3197 16.2033 18.5303L16.932 20.3928ZM19.0454 19.0102C19.7039 18.3486 20.1184 17.6706 20.4192 16.8911L18.5533 16.1712C18.3456 16.7092 18.0778 17.1473 17.6279 17.5993L19.0454 19.0102ZM20.4187 16.8924C20.7093 16.1423 20.895 15.3058 20.9453 14.1475L18.9472 14.0607C18.9051 15.0296 18.756 15.6479 18.5537 16.1699L20.4187 16.8924ZM20.9453 14.1478C20.9929 13.0576 21.0038 12.699 20.9986 9.97882L18.9986 9.98265C19.0038 12.6928 18.9928 13.0159 18.9472 14.0605L20.9453 14.1478ZM20.9986 9.97882C20.9934 7.2587 20.9812 6.9005 20.9295 5.81134L18.9317 5.90613C18.9813 6.94978 18.9934 7.27238 18.9986 9.98265L20.9986 9.97882ZM20.9295 5.81134C20.8744 4.65075 20.6864 3.81735 20.3922 3.06717L18.5303 3.79751C18.7348 4.31892 18.8856 4.93393 18.9317 5.90613L20.9295 5.81134ZM20.3926 3.06824C20.0887 2.29088 19.6721 1.61476 19.011 0.955341L17.5986 2.37133C18.0503 2.82191 18.3198 3.259 18.5299 3.79644L20.3926 3.06824ZM19.011 0.955341C18.3493 0.29523 17.6703 -0.11931 16.8908 -0.419469L16.1721 1.44694C16.7098 1.65399 17.1476 1.92145 17.5986 2.37133L19.011 0.955341ZM16.8922 -0.418904C16.1424 -0.708993 15.3065 -0.895213 14.1468 -0.94533L14.0604 1.05281C15.0296 1.09469 15.6477 1.24407 16.1706 1.44638L16.8922 -0.418904ZM14.1468 -0.94533C13.0602 -0.992288 12.7003 -1.00407 9.9789 -0.998861L9.98273 1.00114C12.6929 0.995947 13.0182 1.00776 14.0604 1.05281L14.1468 -0.94533ZM9.9789 -0.998861C7.25875 -0.993652 6.90011 -0.982036 5.80972 -0.928876L5.90711 1.06875C6.94992 1.01791 7.27128 1.00633 9.98273 1.00114L9.9789 -0.998861ZM6.01866 17.1485C5.15446 17.1109 4.7314 16.972 4.47678 16.8741L3.75925 18.741C4.21023 18.9143 4.84597 19.0994 5.93177 19.1466L6.01866 17.1485ZM4.47753 16.8744C4.14114 16.7448 3.92506 16.6037 3.67008 16.3512L2.26275 17.7723C2.71097 18.2162 3.1605 18.5103 3.7585 18.7407L4.47753 16.8744ZM3.67008 16.3512C3.42158 16.1051 3.28125 15.8904 3.14768 15.549L1.28516 16.2777C1.51639 16.8687 1.80805 17.322 2.26275 17.7723L3.67008 16.3512ZM3.1486 15.5513C3.04921 15.2954 2.90808 14.8729 2.86772 14.01L0.869908 14.1035C0.920754 15.1906 1.10963 15.8257 1.28423 16.2753L3.1486 15.5513ZM2.86771 14.0097C2.81919 12.9788 2.80881 12.6804 2.80301 10.0146L0.803019 10.0189C0.808827 12.6927 0.819244 13.027 0.869922 14.1038L2.86771 14.0097ZM2.80301 10.0146C2.79722 7.34958 2.80747 7.05164 2.85266 6.02052L0.854575 5.93295C0.807364 7.01024 0.797208 7.34429 0.803019 10.0189L2.80301 10.0146ZM2.85271 6.0194C2.88951 5.1574 3.02906 4.73386 3.12715 4.47842L1.26008 3.76146C1.08737 4.21121 0.900918 4.84768 0.854527 5.93407L2.85271 6.0194ZM3.12691 4.47905C3.25665 4.14186 3.39682 3.92707 3.64894 3.67322L2.22989 2.26386C1.78401 2.7128 1.49058 3.16241 1.26032 3.76082L3.12691 4.47905ZM3.64894 3.67322C3.89728 3.42317 4.11176 3.28275 4.4521 3.1497L3.72393 1.28697C3.13108 1.51873 2.67955 1.8111 2.22989 2.26386L3.64894 3.67322ZM4.45174 3.14985C4.70469 3.05107 5.12681 2.91077 5.99137 2.86961L5.89626 0.871869C4.81162 0.923508 4.17614 1.1104 3.72429 1.28683L4.45174 3.14985ZM5.99117 2.86962C7.0225 2.82072 7.32022 2.81073 9.98599 2.80494L9.98164 0.80494C7.30862 0.810748 6.97433 0.820756 5.89646 0.87186L5.99117 2.86962ZM9.98599 2.80494C12.6507 2.79915 12.9493 2.80919 13.9811 2.85457L14.069 0.856503C12.9907 0.80908 12.6557 0.79913 9.98164 0.80494L9.98599 2.80494ZM13.9815 2.85459C14.846 2.89222 15.2691 3.03085 15.5209 3.12823L16.2423 1.26285C15.7897 1.08783 15.1524 0.903659 14.0685 0.856483L13.9815 2.85459ZM15.5222 3.12873C15.8601 3.25884 16.0749 3.3987 16.3277 3.65026L17.7383 2.23242C17.2884 1.78478 16.8379 1.49223 16.241 1.26235L15.5222 3.12873ZM16.3277 3.65026C16.5791 3.90031 16.7192 4.11397 16.8518 4.45375L18.715 3.72693C18.4828 3.13151 18.1898 2.68157 17.7383 2.23242L16.3277 3.65026ZM16.8524 4.45542C16.9508 4.70618 17.0911 5.12744 17.1319 5.99266L19.1297 5.89842C19.0785 4.81324 18.8917 4.1773 18.7144 3.72526L16.8524 4.45542ZM17.1319 5.99308C17.1811 7.02471 17.1924 7.32293 17.1972 9.98734L19.1972 9.98374C19.1924 7.30974 19.181 6.97556 19.1297 5.89799L17.1319 5.99308ZM17.1972 9.98734C17.202 12.6524 17.1926 12.9512 17.1474 13.9817L19.1455 14.0693C19.1927 12.9923 19.202 12.657 19.1972 9.98374L17.1972 9.98734ZM17.1474 13.9819C17.1096 14.8466 16.9709 15.2699 16.873 15.5245L18.7398 16.2422C18.9135 15.7904 19.098 15.1544 19.1455 14.0692L17.1474 13.9819ZM16.8733 15.5237C16.7434 15.8607 16.6029 16.0762 16.3511 16.3295L17.7693 17.7396C18.2159 17.2905 18.5094 16.84 18.7395 16.243L16.8733 15.5237ZM16.3511 16.3295C16.1021 16.5798 15.8878 16.7202 15.5477 16.8531L16.2756 18.716C16.869 18.4841 17.3199 18.1916 17.7693 17.7396L16.3511 16.3295ZM15.548 16.853C15.295 16.9517 14.8723 17.0923 14.0088 17.1335L14.104 19.1312C15.1882 19.0795 15.8242 18.8921 16.2752 18.7161L15.548 16.853ZM14.0094 17.1334C12.9777 17.182 12.6797 17.1923 10.0132 17.1981L10.0176 19.1981C12.692 19.1923 13.0259 19.1819 14.1034 19.1312L14.0094 17.1334ZM10.0132 17.1981C7.3482 17.2039 7.05075 17.1931 6.01861 17.1485L5.93222 19.1466C7.00928 19.1932 7.34184 19.2039 10.0176 19.1981L10.0132 17.1981ZM13.1274 4.65701C13.1281 5.09216 13.2579 5.51732 13.5003 5.87872L15.1613 4.76473C15.1393 4.73188 15.1275 4.69323 15.1274 4.65367L13.1274 4.65701ZM13.5003 5.87872C13.7426 6.24012 14.0868 6.52152 14.4891 6.68734L15.2512 4.83824C15.2146 4.82317 15.1833 4.79759 15.1613 4.76473L13.5003 5.87872ZM14.4891 6.68734C14.8914 6.85316 15.3338 6.89595 15.7605 6.81029L15.3668 4.84942C15.328 4.85721 15.2878 4.85332 15.2512 4.83824L14.4891 6.68734ZM15.7605 6.81029C16.1871 6.72463 16.5788 6.51438 16.8859 6.20612L15.4691 4.7945C15.4412 4.82252 15.4056 4.84163 15.3668 4.84942L15.7605 6.81029ZM16.8859 6.20612C17.193 5.89786 17.4018 5.50544 17.4859 5.07849L15.5236 4.69199C15.516 4.7308 15.497 4.76647 15.4691 4.7945L16.8859 6.20612ZM17.4859 5.07849C17.57 4.65154 17.5256 4.20924 17.3583 3.80754L15.512 4.57644C15.5273 4.61296 15.5313 4.65317 15.5236 4.69199L17.4859 5.07849ZM17.3583 3.80754C17.191 3.40583 16.9084 3.06276 16.5461 2.82171L15.4382 4.48682C15.4711 4.50874 15.4968 4.53993 15.512 4.57644L17.3583 3.80754ZM16.5461 2.82171C16.1838 2.58067 15.7582 2.45247 15.323 2.45334L15.327 4.45334C15.3666 4.45326 15.4053 4.46491 15.4382 4.48682L16.5461 2.82171ZM15.323 2.45334C14.7397 2.45451 14.1807 2.68731 13.7689 3.10056L15.1857 4.51217C15.2232 4.47461 15.274 4.45344 15.327 4.45334L15.323 2.45334ZM13.7689 3.10056C13.3572 3.5138 13.1264 4.07366 13.1274 4.65701L15.1274 4.65367C15.1273 4.60064 15.1483 4.54974 15.1857 4.51217L13.7689 3.10056ZM3.86542 10.0119C3.87211 13.4002 6.62391 16.1408 10.0115 16.1343L10.0077 14.1343C7.72452 14.1387 5.86992 12.2917 5.86541 10.008L3.86542 10.0119ZM10.0115 16.1343C13.399 16.1279 16.1415 13.3765 16.135 9.98803L14.135 9.99184C14.1394 12.2753 12.291 14.13 10.0077 14.1343L10.0115 16.1343ZM16.135 9.98803C16.1286 6.59963 13.3761 3.85845 9.98804 3.86514L9.99199 5.86514C12.2756 5.86063 14.1307 7.70825 14.135 9.99184L16.135 9.98803ZM9.98804 3.86514C6.59989 3.87183 3.85897 6.62408 3.86542 10.0118L5.86541 10.008C5.86107 7.72459 7.70854 5.86964 9.99199 5.86514L9.98804 3.86514ZM7.66661 10.0044C7.6657 9.54286 7.80166 9.09145 8.0573 8.70722L6.39216 7.59937C5.91741 8.31293 5.66492 9.15125 5.66662 10.0083L7.66661 10.0044ZM8.0573 8.70722C8.31294 8.32299 8.67677 8.02319 9.10279 7.84573L8.33377 5.99949C7.5426 6.32905 6.86691 6.88581 6.39216 7.59937L8.0573 8.70722ZM9.10279 7.84573C9.52881 7.66828 9.99789 7.62114 10.4507 7.71028L10.837 5.74794C9.99607 5.5824 9.12494 5.66994 8.33377 5.99949L9.10279 7.84573ZM10.4507 7.71028C10.9035 7.79942 11.3197 8.02083 11.6467 8.34652L13.0581 6.92951C12.4509 6.32467 11.6779 5.91348 10.837 5.74794L10.4507 7.71028ZM11.6467 8.34652C11.9737 8.6722 12.1967 9.08753 12.2877 9.53999L14.2485 9.14592C14.0796 8.30566 13.6653 7.53434 13.0581 6.92951L11.6467 8.34652ZM12.2877 9.53999C12.3786 9.99244 12.3333 10.4617 12.1576 10.8884L14.0068 11.6501C14.3332 10.8577 14.4173 9.98619 14.2485 9.14592L12.2877 9.53999ZM12.1576 10.8884C11.9818 11.3151 11.6834 11.6802 11.3002 11.9373L12.4147 13.5981C13.1263 13.1205 13.6804 12.4426 14.0068 11.6501L12.1576 10.8884ZM11.3002 11.9373C10.917 12.1945 10.4661 12.3322 10.0046 12.3331L10.0086 14.3331C10.8657 14.3314 11.703 14.0756 12.4147 13.5981L11.3002 11.9373ZM10.0045 12.3331C9.69809 12.3338 9.39455 12.2741 9.11121 12.1574L8.34962 14.0067C8.87585 14.2234 9.43961 14.3343 10.0087 14.3331L10.0045 12.3331ZM9.11121 12.1574C8.82787 12.0407 8.5703 11.8693 8.3532 11.6531L6.94179 13.0701C7.345 13.4717 7.82339 13.79 8.34962 14.0067L9.11121 12.1574ZM8.3532 11.6531C8.1361 11.4368 7.96372 11.18 7.84592 10.8971L5.99963 11.666C6.21843 12.1914 6.53857 12.6685 6.94179 13.0701L8.3532 11.6531ZM7.84592 10.8971C7.72811 10.6142 7.66718 10.3109 7.66661 10.0045L5.66662 10.0082C5.66768 10.5773 5.78083 11.1406 5.99963 11.666L7.84592 10.8971Z" fill="#9294A5" mask="url(#path-1-inside-1_5788_22328)" />
</svg>