<svg width="26" height="26" viewBox="0 0 26 26" fill="none" xmlns="http://www.w3.org/2000/svg">
  <mask id="path-1-inside-1_5788_115822" fill="white">
    <path d="M7.82302 0.587422C6.49302 0.650172 5.58477 0.862422 4.79077 1.17442C3.96902 1.49467 3.27252 1.92442 2.57952 2.61992C1.88652 3.31542 1.45977 4.01242 1.14177 4.83542C0.83402 5.63117 0.62552 6.54017 0.56677 7.87092C0.50802 9.20167 0.49502 9.62942 0.50152 13.0239C0.50802 16.4184 0.52302 16.8439 0.58752 18.1774C0.65102 19.5072 0.86252 20.4152 1.17452 21.2094C1.49527 22.0312 1.92452 22.7274 2.62027 23.4207C3.31602 24.1139 4.01252 24.5397 4.83752 24.8582C5.63252 25.1654 6.54177 25.3749 7.87227 25.4332C9.20277 25.4914 9.63102 25.5049 13.0245 25.4984C16.418 25.4919 16.8453 25.4769 18.1785 25.4137C19.5118 25.3504 20.415 25.1374 21.2095 24.8269C22.0313 24.5054 22.728 24.0769 23.4208 23.3809C24.1135 22.6849 24.54 21.9874 24.8578 21.1639C25.1658 20.3689 25.375 19.4597 25.4328 18.1302C25.491 16.7959 25.5048 16.3699 25.4983 12.9759C25.4918 9.58192 25.4765 9.15642 25.4133 7.82342C25.35 6.49042 25.1383 5.58517 24.8265 4.79042C24.5053 3.96867 24.0765 3.27292 23.381 2.57917C22.6855 1.88542 21.9875 1.45917 21.1643 1.14217C20.3688 0.834422 19.46 0.624672 18.1295 0.567172C16.799 0.509672 16.3708 0.494922 12.976 0.501422C9.58127 0.507922 9.15627 0.522422 7.82302 0.587422ZM7.96902 23.1844C6.75027 23.1314 6.08852 22.9289 5.64752 22.7594C5.06352 22.5344 4.64752 22.2624 4.20802 21.8272C3.76852 21.3919 3.49852 20.9744 3.27052 20.3917C3.09927 19.9507 2.89302 19.2897 2.83602 18.0709C2.77402 16.7537 2.76102 16.3582 2.75377 13.0209C2.74652 9.68367 2.75927 9.28867 2.81702 7.97092C2.86902 6.75317 3.07277 6.09067 3.24202 5.64992C3.46702 5.06517 3.73802 4.64992 4.17427 4.21067C4.61052 3.77142 5.02677 3.50092 5.61002 3.27292C6.05052 3.10092 6.71152 2.89642 7.92977 2.83842C9.24802 2.77592 9.64302 2.76342 12.9798 2.75617C16.3165 2.74892 16.7125 2.76142 18.0313 2.81942C19.249 2.87242 19.9118 3.07417 20.352 3.24442C20.9363 3.46942 21.352 3.73967 21.7913 4.17667C22.2305 4.61367 22.5013 5.02842 22.7293 5.61292C22.9015 6.05217 23.106 6.71292 23.1635 7.93192C23.2263 9.25017 23.2405 9.64542 23.2465 12.9819C23.2525 16.3184 23.2408 16.7147 23.183 18.0319C23.1298 19.2507 22.9278 19.9127 22.758 20.3542C22.533 20.9379 22.2618 21.3542 21.8253 21.7932C21.3888 22.2322 20.973 22.5027 20.3895 22.7307C19.9495 22.9024 19.2878 23.1074 18.0705 23.1654C16.7523 23.2274 16.3573 23.2404 13.0193 23.2477C9.68127 23.2549 9.28752 23.2414 7.96927 23.1844M18.1593 6.31917C18.1598 6.61586 18.2482 6.90575 18.4135 7.15216C18.5787 7.39856 18.8134 7.59043 19.0877 7.70349C19.362 7.81655 19.6637 7.84572 19.9545 7.78732C20.2454 7.72892 20.5125 7.58556 20.7219 7.37538C20.9313 7.1652 21.0737 6.89765 21.131 6.60655C21.1883 6.31545 21.158 6.01388 21.044 5.73999C20.9299 5.4661 20.7372 5.23219 20.4902 5.06784C20.2432 4.90349 19.953 4.81608 19.6563 4.81667C19.2585 4.81747 18.8774 4.9762 18.5967 5.25796C18.3159 5.53971 18.1586 5.92143 18.1593 6.31917ZM6.58177 13.0124C6.58877 16.5574 9.46777 19.4247 13.012 19.4179C16.5563 19.4112 19.4255 16.5324 19.4188 12.9874C19.412 9.44242 16.5323 6.57442 12.9875 6.58142C9.44277 6.58842 6.57502 9.46792 6.58177 13.0124ZM8.83327 13.0079C8.83164 12.1838 9.07442 11.3777 9.53091 10.6916C9.98741 10.0055 10.6371 9.47015 11.3979 9.15327C12.1586 8.83639 12.9962 8.75222 13.8048 8.91139C14.6134 9.07057 15.3566 9.46594 15.9405 10.0475C16.5244 10.6291 16.9227 11.3707 17.0851 12.1787C17.2475 12.9866 17.1666 13.8246 16.8527 14.5866C16.5389 15.3486 16.0061 16.0004 15.3218 16.4596C14.6375 16.9188 13.8324 17.1648 13.0083 17.1664C12.4611 17.1676 11.919 17.0609 11.413 16.8525C10.907 16.6442 10.4471 16.3382 10.0594 15.952C9.67167 15.5658 9.36384 15.1071 9.15347 14.6019C8.94309 14.0968 8.83429 13.5551 8.83327 13.0079Z" />
  </mask>
  <path d="M7.82302 0.587422C6.49302 0.650172 5.58477 0.862422 4.79077 1.17442C3.96902 1.49467 3.27252 1.92442 2.57952 2.61992C1.88652 3.31542 1.45977 4.01242 1.14177 4.83542C0.83402 5.63117 0.62552 6.54017 0.56677 7.87092C0.50802 9.20167 0.49502 9.62942 0.50152 13.0239C0.50802 16.4184 0.52302 16.8439 0.58752 18.1774C0.65102 19.5072 0.86252 20.4152 1.17452 21.2094C1.49527 22.0312 1.92452 22.7274 2.62027 23.4207C3.31602 24.1139 4.01252 24.5397 4.83752 24.8582C5.63252 25.1654 6.54177 25.3749 7.87227 25.4332C9.20277 25.4914 9.63102 25.5049 13.0245 25.4984C16.418 25.4919 16.8453 25.4769 18.1785 25.4137C19.5118 25.3504 20.415 25.1374 21.2095 24.8269C22.0313 24.5054 22.728 24.0769 23.4208 23.3809C24.1135 22.6849 24.54 21.9874 24.8578 21.1639C25.1658 20.3689 25.375 19.4597 25.4328 18.1302C25.491 16.7959 25.5048 16.3699 25.4983 12.9759C25.4918 9.58192 25.4765 9.15642 25.4133 7.82342C25.35 6.49042 25.1383 5.58517 24.8265 4.79042C24.5053 3.96867 24.0765 3.27292 23.381 2.57917C22.6855 1.88542 21.9875 1.45917 21.1643 1.14217C20.3688 0.834422 19.46 0.624672 18.1295 0.567172C16.799 0.509672 16.3708 0.494922 12.976 0.501422C9.58127 0.507922 9.15627 0.522422 7.82302 0.587422ZM7.96902 23.1844C6.75027 23.1314 6.08852 22.9289 5.64752 22.7594C5.06352 22.5344 4.64752 22.2624 4.20802 21.8272C3.76852 21.3919 3.49852 20.9744 3.27052 20.3917C3.09927 19.9507 2.89302 19.2897 2.83602 18.0709C2.77402 16.7537 2.76102 16.3582 2.75377 13.0209C2.74652 9.68367 2.75927 9.28867 2.81702 7.97092C2.86902 6.75317 3.07277 6.09067 3.24202 5.64992C3.46702 5.06517 3.73802 4.64992 4.17427 4.21067C4.61052 3.77142 5.02677 3.50092 5.61002 3.27292C6.05052 3.10092 6.71152 2.89642 7.92977 2.83842C9.24802 2.77592 9.64302 2.76342 12.9798 2.75617C16.3165 2.74892 16.7125 2.76142 18.0313 2.81942C19.249 2.87242 19.9118 3.07417 20.352 3.24442C20.9363 3.46942 21.352 3.73967 21.7913 4.17667C22.2305 4.61367 22.5013 5.02842 22.7293 5.61292C22.9015 6.05217 23.106 6.71292 23.1635 7.93192C23.2263 9.25017 23.2405 9.64542 23.2465 12.9819C23.2525 16.3184 23.2408 16.7147 23.183 18.0319C23.1298 19.2507 22.9278 19.9127 22.758 20.3542C22.533 20.9379 22.2618 21.3542 21.8253 21.7932C21.3888 22.2322 20.973 22.5027 20.3895 22.7307C19.9495 22.9024 19.2878 23.1074 18.0705 23.1654C16.7523 23.2274 16.3573 23.2404 13.0193 23.2477C9.68127 23.2549 9.28752 23.2414 7.96927 23.1844M18.1593 6.31917C18.1598 6.61586 18.2482 6.90575 18.4135 7.15216C18.5787 7.39856 18.8134 7.59043 19.0877 7.70349C19.362 7.81655 19.6637 7.84572 19.9545 7.78732C20.2454 7.72892 20.5125 7.58556 20.7219 7.37538C20.9313 7.1652 21.0737 6.89765 21.131 6.60655C21.1883 6.31545 21.158 6.01388 21.044 5.73999C20.9299 5.4661 20.7372 5.23219 20.4902 5.06784C20.2432 4.90349 19.953 4.81608 19.6563 4.81667C19.2585 4.81747 18.8774 4.9762 18.5967 5.25796C18.3159 5.53971 18.1586 5.92143 18.1593 6.31917ZM6.58177 13.0124C6.58877 16.5574 9.46777 19.4247 13.012 19.4179C16.5563 19.4112 19.4255 16.5324 19.4188 12.9874C19.412 9.44242 16.5323 6.57442 12.9875 6.58142C9.44277 6.58842 6.57502 9.46792 6.58177 13.0124ZM8.83327 13.0079C8.83164 12.1838 9.07442 11.3777 9.53091 10.6916C9.98741 10.0055 10.6371 9.47015 11.3979 9.15327C12.1586 8.83639 12.9962 8.75222 13.8048 8.91139C14.6134 9.07057 15.3566 9.46594 15.9405 10.0475C16.5244 10.6291 16.9227 11.3707 17.0851 12.1787C17.2475 12.9866 17.1666 13.8246 16.8527 14.5866C16.5389 15.3486 16.0061 16.0004 15.3218 16.4596C14.6375 16.9188 13.8324 17.1648 13.0083 17.1664C12.4611 17.1676 11.919 17.0609 11.413 16.8525C10.907 16.6442 10.4471 16.3382 10.0594 15.952C9.67167 15.5658 9.36384 15.1071 9.15347 14.6019C8.94309 14.0968 8.83429 13.5551 8.83327 13.0079Z" fill="white" />
  <path d="M7.82302 0.587422L7.87015 1.58631L7.87172 1.58624L7.82302 0.587422ZM4.79077 1.17442L5.15389 2.10617L5.1565 2.10514L4.79077 1.17442ZM1.14177 4.83542L2.07445 5.19613L2.07456 5.19584L1.14177 4.83542ZM0.58752 18.1774L1.58638 18.1297L1.58635 18.1291L0.58752 18.1774ZM1.17452 21.2094L2.10607 20.8458L2.10528 20.8438L1.17452 21.2094ZM4.83752 24.8582L5.19801 23.9254L5.19767 23.9253L4.83752 24.8582ZM21.2095 24.8269L21.5735 25.7583L21.5739 25.7582L21.2095 24.8269ZM24.8578 21.1639L23.9253 20.8027L23.9248 20.8039L24.8578 21.1639ZM25.4328 18.1302L24.4337 18.0866L24.4337 18.0868L25.4328 18.1302ZM24.8265 4.79042L23.8952 5.15452L23.8956 5.15559L24.8265 4.79042ZM21.1643 1.14217L20.8035 2.07481L20.8049 2.07538L21.1643 1.14217ZM5.64752 22.7594L5.28801 23.6926L5.28875 23.6928L5.64752 22.7594ZM3.27052 20.3917L2.33833 20.7537L2.33926 20.756L3.27052 20.3917ZM2.83602 18.0709L3.83493 18.0242L3.83491 18.0239L2.83602 18.0709ZM2.81702 7.97092L3.81606 8.0147L3.81611 8.01358L2.81702 7.97092ZM3.24202 5.64992L2.30873 5.29081L2.30848 5.29144L3.24202 5.64992ZM5.61002 3.27292L5.2463 2.34141L5.24594 2.34156L5.61002 3.27292ZM7.92977 2.83842L7.88241 1.83954L7.88222 1.83955L7.92977 2.83842ZM18.0313 2.81942L17.9873 3.81846L17.9878 3.81848L18.0313 2.81942ZM20.352 3.24442L19.9913 4.17711L19.9926 4.17761L20.352 3.24442ZM22.7293 5.61292L21.7976 5.97633L21.7983 5.978L22.7293 5.61292ZM23.1635 7.93192L22.1646 7.97904L22.1647 7.97947L23.1635 7.93192ZM23.183 18.0319L22.184 17.9881L22.184 17.9883L23.183 18.0319ZM22.758 20.3542L23.6911 20.7138L23.6914 20.713L22.758 20.3542ZM20.3895 22.7307L20.7531 23.6622L20.7535 23.6621L20.3895 22.7307ZM18.0705 23.1654L18.1175 24.1643L18.1181 24.1643L18.0705 23.1654ZM18.1593 6.31917L19.1593 6.3175L18.1593 6.31917ZM19.6563 4.81667L19.6543 3.81667L19.6563 4.81667ZM6.58177 13.0124L5.58177 13.0143L5.58177 13.0144L6.58177 13.0124ZM8.83327 13.0079L9.83327 13.0061L9.83327 13.0059L8.83327 13.0079ZM13.0083 17.1664L13.0063 16.1664L13.0062 16.1664L13.0083 17.1664ZM7.77589 -0.411467C6.35154 -0.344265 5.33378 -0.113387 4.42505 0.243699L5.1565 2.10514C5.83576 1.83823 6.6345 1.64461 7.87015 1.58631L7.77589 -0.411467ZM4.42765 0.242678C3.48489 0.610089 2.66853 1.11382 1.87114 1.91409L3.2879 3.32575C3.87651 2.73502 4.45315 2.37925 5.15389 2.10617L4.42765 0.242678ZM1.87114 1.91409C1.07382 2.71429 0.573649 3.53122 0.208981 4.475L2.07456 5.19584C2.34589 4.49362 2.69923 3.91655 3.2879 3.32575L1.87114 1.91409ZM0.209091 4.47472C-0.142761 5.3845 -0.369365 6.40225 -0.432257 7.82682L1.5658 7.91503C1.62041 6.67809 1.8108 5.87784 2.07445 5.19613L0.209091 4.47472ZM-0.432257 7.82682C-0.492036 9.18088 -0.504986 9.62689 -0.498478 13.0258L1.50152 13.022C1.49503 9.63195 1.50808 9.22246 1.5658 7.91503L-0.432257 7.82682ZM-0.498478 13.0258C-0.491969 16.425 -0.476944 16.8688 -0.411312 18.2257L1.58635 18.1291C1.52298 16.819 1.50801 16.4118 1.50152 13.022L-0.498478 13.0258ZM-0.411341 18.2251C-0.343374 19.6484 -0.113412 20.6658 0.243758 21.575L2.10528 20.8438C1.83845 20.1645 1.64541 19.3659 1.58638 18.1297L-0.411341 18.2251ZM0.242968 21.573C0.610733 22.5152 1.11378 23.3313 1.91444 24.129L3.3261 22.7123C2.73526 22.1236 2.37981 21.5471 2.10607 20.8458L0.242968 21.573ZM1.91444 24.129C2.71529 24.927 3.53195 25.4261 4.47737 25.7911L5.19767 23.9253C4.49309 23.6533 3.91675 23.3008 3.3261 22.7123L1.91444 24.129ZM4.47703 25.7909C5.38545 26.142 6.40336 26.3698 7.82853 26.4322L7.91601 24.4341C6.68019 24.38 5.87959 24.1888 5.19801 23.9254L4.47703 25.7909ZM7.82853 26.4322C9.18196 26.4915 9.62815 26.5049 13.0264 26.4984L13.0226 24.4984C9.6339 24.5049 9.22358 24.4914 7.91601 24.4341L7.82853 26.4322ZM13.0264 26.4984C16.4247 26.4919 16.8698 26.4769 18.2259 26.4125L18.1311 24.4148C16.8207 24.477 16.4113 24.4919 13.0226 24.4984L13.0264 26.4984ZM18.2259 26.4125C19.6546 26.3448 20.6663 26.1129 21.5735 25.7583L20.8455 23.8955C20.1637 24.162 19.369 24.3561 18.1311 24.4148L18.2259 26.4125ZM21.5739 25.7582C22.5148 25.3901 23.3316 24.8881 24.1295 24.0864L22.712 22.6755C22.1245 23.2658 21.5477 23.6208 20.8452 23.8957L21.5739 25.7582ZM24.1295 24.0864C24.9266 23.2856 25.4264 22.4681 25.7907 21.5239L23.9248 20.8039C23.6536 21.5067 23.3005 22.0843 22.712 22.6755L24.1295 24.0864ZM25.7902 21.5252C26.1424 20.6161 26.37 19.5978 26.4318 18.1736L24.4337 18.0868C24.3801 19.3216 24.1891 20.1217 23.9253 20.8027L25.7902 21.5252ZM26.4318 18.1738C26.4911 16.8168 26.5048 16.373 26.4983 12.974L24.4983 12.9778C24.5048 16.3668 24.491 16.775 24.4337 18.0866L26.4318 18.1738ZM26.4983 12.974C26.4918 9.57508 26.4765 9.13178 26.4121 7.77603L24.4144 7.87082C24.4766 9.18106 24.4918 9.58876 24.4983 12.9778L26.4983 12.974ZM26.4121 7.77603C26.3444 6.34883 26.1141 5.33438 25.7575 4.42525L23.8956 5.15559C24.1625 5.83596 24.3556 6.63201 24.4144 7.87082L26.4121 7.77603ZM25.7579 4.42632C25.3897 3.48461 24.8874 2.66935 24.0872 1.87117L22.6748 3.28717C23.2656 3.87649 23.6208 4.45273 23.8952 5.15452L25.7579 4.42632ZM24.0872 1.87117C23.2864 1.07231 22.4678 0.572524 21.5236 0.208965L20.8049 2.07538C21.5073 2.34582 22.0847 2.69853 22.6748 3.28717L24.0872 1.87117ZM21.5251 0.209531C20.6161 -0.142109 19.5985 -0.370278 18.1727 -0.431895L18.0863 1.56624C19.3216 1.61962 20.1214 1.81095 20.8035 2.07481L21.5251 0.209531ZM18.1727 -0.431895C16.82 -0.490353 16.3745 -0.505087 12.9741 -0.498576L12.9779 1.50142C16.3671 1.49493 16.778 1.5097 18.0863 1.56624L18.1727 -0.431895ZM12.9741 -0.498576C9.57501 -0.492068 9.13137 -0.477551 7.77433 -0.411392L7.87172 1.58624C9.18118 1.5224 9.58753 1.50791 12.9779 1.50142L12.9741 -0.498576ZM8.01247 22.1854C6.90452 22.1372 6.3491 21.9578 6.00629 21.826L5.28875 23.6928C5.82794 23.9001 6.59603 24.1257 7.92557 24.1835L8.01247 22.1854ZM6.00703 21.8263C5.55384 21.6517 5.25456 21.4562 4.91168 21.1166L3.50436 22.5377C4.04048 23.0686 4.5732 23.4172 5.28801 23.6926L6.00703 21.8263ZM4.91168 21.1166C4.57528 20.7835 4.38095 20.4853 4.20178 20.0273L2.33926 20.756C2.61609 21.4636 2.96176 22.0004 3.50436 22.5377L4.91168 21.1166ZM4.2027 20.0297C4.06906 19.6855 3.88668 19.1308 3.83493 18.0242L1.83711 18.1176C1.89936 19.4485 2.12948 20.2158 2.33834 20.7537L4.2027 20.0297ZM3.83491 18.0239C3.77399 16.7296 3.76101 16.352 3.75377 13.0187L1.75377 13.0231C1.76103 16.3643 1.77405 16.7778 1.83713 18.1179L3.83491 18.0239ZM3.75377 13.0187C3.74653 9.68632 3.75932 9.30937 3.81606 8.0147L1.81798 7.92714C1.75922 9.26797 1.74651 9.68103 1.75377 13.0231L3.75377 13.0187ZM3.81611 8.01358C3.86332 6.90803 4.04362 6.352 4.17556 6.0084L2.30848 5.29144C2.10193 5.82935 1.87472 6.59831 1.81793 7.92826L3.81611 8.01358ZM4.17531 6.00903C4.35006 5.5549 4.54442 5.25706 4.8838 4.91535L3.46474 3.50599C2.93162 4.04279 2.58398 4.57545 2.30873 5.29081L4.17531 6.00903ZM4.8838 4.91535C5.21938 4.57746 5.51711 4.38293 5.9741 4.20429L5.24594 2.34156C4.53643 2.61891 4.00166 2.96539 3.46474 3.50599L4.8838 4.91535ZM5.97374 4.20443C6.3148 4.07126 6.86912 3.89005 7.97733 3.83729L7.88222 1.83955C6.55392 1.90279 5.78624 2.13058 5.2463 2.34141L5.97374 4.20443ZM7.97713 3.8373C9.27211 3.7759 9.64882 3.76341 12.9819 3.75617L12.9776 1.75617C9.63722 1.76343 9.22394 1.77594 7.88241 1.83954L7.97713 3.8373ZM12.9819 3.75617C16.314 3.74893 16.6918 3.76148 17.9873 3.81846L18.0752 1.82039C16.7332 1.76136 16.319 1.74891 12.9776 1.75617L12.9819 3.75617ZM17.9878 3.81848C19.0958 3.8667 19.6515 4.04568 19.9913 4.17711L20.7127 2.31173C20.1721 2.10266 19.4022 1.87814 18.0748 1.82037L17.9878 3.81848ZM19.9926 4.17761C20.4474 4.35273 20.7453 4.54663 21.086 4.88559L22.4966 3.46775C21.9588 2.93271 21.4252 2.58612 20.7114 2.31123L19.9926 4.17761ZM21.086 4.88559C21.4252 5.22304 21.6195 5.51965 21.7976 5.97633L23.6609 5.24951C23.383 4.53719 23.0359 4.0043 22.4966 3.46775L21.086 4.88559ZM21.7983 5.978C21.9311 6.31661 22.1123 6.87002 22.1646 7.97904L24.1624 7.8848C24.0997 6.55582 23.872 5.78773 23.6602 5.24784L21.7983 5.978ZM22.1647 7.97947C22.2263 9.27474 22.2405 9.65202 22.2465 12.9837L24.2465 12.9801C24.2405 9.63882 24.2262 9.2256 24.1624 7.88437L22.1647 7.97947ZM22.2465 12.9837C22.2525 16.3161 22.2407 16.6941 22.184 17.9881L24.1821 18.0757C24.2408 16.7352 24.2525 16.3207 24.2465 12.9801L22.2465 12.9837ZM22.184 17.9883C22.1355 19.0968 21.9565 19.6524 21.8246 19.9953L23.6914 20.713C23.8991 20.1729 24.124 19.4046 24.1821 18.0756L22.184 17.9883ZM21.8249 19.9945C21.65 20.4483 21.4553 20.747 21.1161 21.0881L22.5344 22.4983C23.0683 21.9613 23.416 21.4276 23.6911 20.7138L21.8249 19.9945ZM21.1161 21.0881C20.7799 21.4263 20.4824 21.6207 20.0256 21.7993L20.7535 23.6621C21.4636 23.3846 21.9976 23.0381 22.5344 22.4983L21.1161 21.0881ZM20.0259 21.7991C19.685 21.9322 19.1298 22.1138 18.0229 22.1666L18.1181 24.1643C19.4457 24.101 20.2141 23.8726 20.7531 23.6622L20.0259 21.7991ZM18.0235 22.1665C16.7282 22.2274 16.3511 22.2404 13.0171 22.2477L13.0214 24.2477C16.3634 24.2404 16.7764 24.2274 18.1175 24.1643L18.0235 22.1665ZM13.0171 22.2477C9.68445 22.2549 9.30826 22.2414 8.01247 22.1854L7.92607 24.1835C9.26678 24.2415 9.67809 24.2549 13.0214 24.2477L13.0171 22.2477ZM17.1593 6.32084C17.1601 6.81533 17.3075 7.29847 17.583 7.70915L19.244 6.59516C19.1889 6.51303 19.1594 6.4164 19.1593 6.3175L17.1593 6.32084ZM17.583 7.70915C17.8584 8.11983 18.2494 8.43961 18.7066 8.62804L19.4687 6.77894C19.3773 6.74126 19.2991 6.6773 19.244 6.59516L17.583 7.70915ZM18.7066 8.62804C19.1638 8.81647 19.6666 8.86509 20.1514 8.76775L19.7577 6.80689C19.6607 6.82635 19.5602 6.81663 19.4687 6.77894L18.7066 8.62804ZM20.1514 8.76775C20.6362 8.67041 21.0813 8.43149 21.4303 8.08119L20.0135 6.66957C19.9437 6.73963 19.8547 6.78742 19.7577 6.80689L20.1514 8.76775ZM21.4303 8.08119C21.7793 7.7309 22.0166 7.28497 22.1121 6.7998L20.1498 6.41329C20.1307 6.51033 20.0833 6.59951 20.0135 6.66957L21.4303 8.08119ZM22.1121 6.7998C22.2077 6.31463 22.1572 5.81202 21.9671 5.35554L20.1208 6.12444C20.1589 6.21574 20.169 6.31626 20.1498 6.41329L22.1121 6.7998ZM21.9671 5.35554C21.777 4.89905 21.4558 4.5092 21.0441 4.23528L19.9362 5.90039C20.0186 5.95517 20.0828 6.03314 20.1208 6.12444L21.9671 5.35554ZM21.0441 4.23528C20.6324 3.96136 20.1488 3.81569 19.6543 3.81667L19.6583 5.81667C19.7572 5.81647 19.8539 5.84561 19.9362 5.90039L21.0441 4.23528ZM19.6543 3.81667C18.9914 3.818 18.3561 4.08255 17.8883 4.55215L19.3051 5.96376C19.3986 5.86984 19.5257 5.81693 19.6583 5.81667L19.6543 3.81667ZM17.8883 4.55215C17.4204 5.02174 17.1582 5.65794 17.1593 6.32084L19.1593 6.3175C19.159 6.18492 19.2115 6.05768 19.3051 5.96376L17.8883 4.55215ZM5.58177 13.0144C5.58986 17.1117 8.91747 20.4257 13.0139 20.4179L13.0101 18.4179C10.0181 18.4236 7.58768 16.0031 7.58177 13.0104L5.58177 13.0144ZM13.0139 20.4179C17.1102 20.4101 20.4266 17.083 20.4188 12.9855L18.4188 12.9893C18.4245 15.9818 16.0023 18.4122 13.0101 18.4179L13.0139 20.4179ZM20.4188 12.9855C20.411 8.88811 17.0825 5.57333 12.9855 5.58142L12.9895 7.58142C15.982 7.57551 18.4131 9.99673 18.4188 12.9893L20.4188 12.9855ZM12.9855 5.58142C8.88844 5.58951 5.57397 8.91767 5.58177 13.0143L7.58177 13.0105C7.57607 10.0182 9.9971 7.58733 12.9895 7.58142L12.9855 5.58142ZM9.83327 13.0059C9.83203 12.3796 10.0165 11.767 10.3635 11.2455L8.69835 10.1377C8.1323 10.9885 7.83125 11.988 7.83327 13.0099L9.83327 13.0059ZM10.3635 11.2455C10.7104 10.7241 11.2042 10.3172 11.7824 10.0764L11.0133 8.23015C10.07 8.62307 9.26439 9.2869 8.69835 10.1377L10.3635 11.2455ZM11.7824 10.0764C12.3605 9.83556 12.9971 9.77159 13.6117 9.89256L13.998 7.93022C12.9953 7.73285 11.9567 7.83722 11.0133 8.23015L11.7824 10.0764ZM13.6117 9.89256C14.2262 10.0135 14.7911 10.314 15.2348 10.756L16.6462 9.33901C15.9222 8.61786 15.0006 8.1276 13.998 7.93022L13.6117 9.89256ZM15.2348 10.756C15.6786 11.198 15.9813 11.7617 16.1047 12.3757L18.0655 11.9817C17.8641 10.9798 17.3702 10.0602 16.6462 9.33901L15.2348 10.756ZM16.1047 12.3757C16.2281 12.9898 16.1666 13.6266 15.9281 14.2057L17.7774 14.9674C18.1666 14.0226 18.2668 12.9835 18.0655 11.9817L16.1047 12.3757ZM15.9281 14.2057C15.6896 14.7849 15.2847 15.2802 14.7646 15.6292L15.879 17.29C16.7276 16.7206 17.3882 15.9123 17.7774 14.9674L15.9281 14.2057ZM14.7646 15.6292C14.2445 15.9782 13.6326 16.1652 13.0063 16.1664L13.0103 18.1664C14.0321 18.1644 15.0305 17.8594 15.879 17.29L14.7646 15.6292ZM13.0062 16.1664C12.5903 16.1673 12.1783 16.0862 11.7938 15.9279L11.0322 17.7772C11.6596 18.0356 12.3318 18.1678 13.0104 18.1664L13.0062 16.1664ZM11.7938 15.9279C11.4093 15.7695 11.0597 15.537 10.7651 15.2435L9.35366 16.6605C9.83442 17.1394 10.4048 17.5188 11.0322 17.7772L11.7938 15.9279ZM10.7651 15.2435C10.4704 14.95 10.2365 14.6014 10.0766 14.2175L8.23032 14.9864C8.49119 15.6128 8.87291 16.1816 9.35366 16.6605L10.7651 15.2435ZM10.0766 14.2175C9.91673 13.8336 9.83404 13.4219 9.83327 13.0061L7.83327 13.0098C7.83453 13.6883 7.96945 14.36 8.23032 14.9864L10.0766 14.2175Z" fill="white" mask="url(#path-1-inside-1_5788_115822)" />
</svg>