<svg width="18" height="13" viewBox="0 0 18 13" fill="none" xmlns="http://www.w3.org/2000/svg">
  <path d="M16.0757 0.895766C16.2548 0.775373 16.4877 0.731417 16.7009 0.777972C16.9198 0.821712 17.1138 0.962242 17.2216 1.14933C17.358 1.38297 17.3519 1.68698 17.2046 1.91477C17.1475 2.00832 17.0608 2.07934 16.9828 2.15577C13.6094 5.38949 10.236 8.6232 6.86265 11.8569C6.77117 11.9422 6.68714 12.0384 6.57397 12.0986C6.28145 12.2651 5.87982 12.2229 5.63473 11.9959C4.12446 10.549 2.61508 9.10152 1.10525 7.65443C0.996603 7.54313 0.866492 7.44785 0.786302 7.31382C0.659128 7.10703 0.645349 6.84156 0.746998 6.62286C0.837805 6.42452 1.02145 6.26796 1.23808 6.20603C1.52021 6.12029 1.84458 6.2043 2.04743 6.40979C3.42601 7.72805 4.80121 9.04977 6.17912 10.3687C9.41133 7.26965 12.644 4.17127 15.8764 1.07267C15.9415 1.01226 16.0007 0.945135 16.0757 0.895766Z" fill="#9294A5" />
</svg>