<svg width="20" height="15" viewBox="0 0 20 15" fill="none" xmlns="http://www.w3.org/2000/svg">
  <path d="M17.9611 0.880942C18.1626 0.73866 18.4246 0.686712 18.6645 0.741731C18.9108 0.793424 19.1291 0.959505 19.2503 1.18061C19.4038 1.45672 19.3969 1.81601 19.2312 2.08522C19.1669 2.19577 19.0693 2.27971 18.9817 2.37004C15.1866 6.1917 11.3915 10.0134 7.59646 13.835C7.49354 13.9358 7.39901 14.0495 7.27169 14.1206C6.94261 14.3174 6.49078 14.2675 6.21505 13.9993C4.51599 12.2894 2.81794 10.5787 1.11939 8.86845C0.997155 8.73692 0.85078 8.62432 0.760567 8.46591C0.617496 8.22153 0.601994 7.90779 0.71635 7.64933C0.818507 7.41492 1.02511 7.2299 1.26881 7.15671C1.58621 7.05538 1.95113 7.15467 2.17933 7.39752C3.73024 8.95546 5.27734 10.5175 6.82749 12.0762C10.4637 8.41371 14.1005 4.75199 17.737 1.09002C17.8102 1.01862 17.8767 0.939288 17.9611 0.880942Z" fill="#1D1D1F" />
</svg>