<svg width="20" height="15" viewBox="0 0 20 15" fill="none" xmlns="http://www.w3.org/2000/svg">
  <path d="M17.9611 0.880454C18.1626 0.738172 18.4246 0.686224 18.6645 0.741243C18.9108 0.792935 19.1291 0.959016 19.2503 1.18012C19.4038 1.45624 19.3969 1.81552 19.2312 2.08474C19.1669 2.19529 19.0693 2.27922 18.9817 2.36956C15.1866 6.19121 11.3915 10.0129 7.59646 13.8345C7.49354 13.9354 7.39901 14.049 7.27169 14.1201C6.94261 14.3169 6.49078 14.267 6.21505 13.9988C4.51599 12.2889 2.81794 10.5782 1.11939 8.86796C0.997155 8.73643 0.85078 8.62383 0.760567 8.46543C0.617496 8.22104 0.601994 7.9073 0.71635 7.64884C0.818507 7.41443 1.02511 7.22941 1.26881 7.15623C1.58621 7.05489 1.95113 7.15418 2.17933 7.39703C3.73024 8.95497 5.27734 10.517 6.82749 12.0757C10.4637 8.41322 14.1005 4.7515 17.737 1.08953C17.8102 1.01813 17.8767 0.9388 17.9611 0.880454Z" fill="#424C70" />
</svg>