<svg width="16" height="11" viewBox="0 0 16 11" fill="none" xmlns="http://www.w3.org/2000/svg">
  <path d="M14.2644 0.424444C14.423 0.313244 14.6292 0.272644 14.818 0.315644C15.0118 0.356044 15.1836 0.485844 15.279 0.658644C15.3998 0.874444 15.3944 1.15524 15.264 1.36564C15.2134 1.45204 15.1366 1.51764 15.0676 1.58824C12.0808 4.57504 9.09401 7.56184 6.10721 10.5486C6.02621 10.6274 5.95181 10.7162 5.85161 10.7718C5.59261 10.9256 5.23701 10.8866 5.02001 10.677C3.68281 9.34064 2.34641 8.00364 1.00961 6.66704C0.913409 6.56424 0.798209 6.47624 0.727209 6.35244C0.614609 6.16144 0.602409 5.91624 0.692409 5.71424C0.772809 5.53104 0.935409 5.38644 1.12721 5.32924C1.37701 5.25004 1.66421 5.32764 1.84381 5.51744C3.06441 6.73504 4.28201 7.95584 5.50201 9.17404C8.36381 6.31164 11.226 3.44984 14.088 0.587844C14.1456 0.532044 14.198 0.470044 14.2644 0.424444Z" fill="#1D1D1F" />
</svg>