<svg width="20" height="20" viewBox="0 0 20 20" fill="none" xmlns="http://www.w3.org/2000/svg">
<g clip-path="url(#clip0_7840_8753)">
<path d="M0.922 1.7429C1.4476 1.2921 2.1296 1.0351 2.819 1.0003C7.6062 0.9999 12.3936 0.9999 17.1808 1.0003C17.9074 1.0369 18.6268 1.3205 19.1616 1.8179C19.6308 2.2501 19.9414 2.8543 20 3.4913V12.2291C19.8698 12.0869 19.7654 11.9243 19.6488 11.7713C18.8672 10.7065 18.0824 9.6443 17.2998 8.5803C16.977 8.1423 16.4592 7.8595 15.92 7.8033C15.7052 7.7925 15.4862 7.7863 15.2754 7.8361C14.9508 7.9063 14.6492 8.0643 14.3912 8.2713C13.4786 8.9457 12.5636 9.6165 11.6508 10.2907C11.576 10.3479 11.4994 10.4033 11.415 10.4459C11.415 9.2057 11.416 7.9657 11.4146 6.7255C10.8892 6.7237 10.3638 6.7259 9.8384 6.7245C9.8004 6.7217 9.7634 6.7317 9.7324 6.7535C9.1658 7.1071 8.5982 7.4591 8.0312 7.8117C8.0056 7.8261 7.9822 7.8485 7.9892 7.8809C7.9902 8.3747 7.9884 8.8687 7.99 9.3627C8.2958 9.1879 8.5922 8.9963 8.8944 8.8151C9.1462 8.6659 9.39 8.5025 9.6468 8.3619C9.6598 8.4607 9.6522 8.5605 9.6538 8.6599C9.6548 9.6929 9.6516 10.7259 9.6554 11.7587C6.7312 13.9143 3.8056 16.0681 0.8802 18.2221C0.3896 17.7849 0.0594 17.1659 0 16.5089V3.4913C0.0612 2.8163 0.4076 2.1801 0.922 1.7429ZM4.2478 3.5089C4.0252 3.5385 3.806 3.6019 3.6062 3.7055C3.4148 3.7955 3.238 3.9185 3.0942 4.0743C2.9758 4.1843 2.8716 4.3093 2.7888 4.4483C2.6806 4.6411 2.5834 4.8431 2.5408 5.0617C2.4494 5.4971 2.4906 5.9673 2.6922 6.3673C2.7816 6.5593 2.8994 6.7401 3.0542 6.8859C3.2026 7.0497 3.3814 7.1833 3.5796 7.2809C4.2048 7.6131 5.0088 7.5717 5.5966 7.1771C6.054 6.8815 6.3808 6.3905 6.4716 5.8527C6.5502 5.4177 6.4794 4.9575 6.274 4.5665C6.0306 4.1013 5.5972 3.7405 5.0962 3.5845C4.8226 3.4997 4.532 3.4783 4.2478 3.5089Z" fill="#9294A5"/>
<path d="M4.24536 3.50932C4.52956 3.47872 4.82016 3.50012 5.09376 3.58492C5.59476 3.74092 6.02816 4.10172 6.27156 4.56692C6.47696 4.95792 6.54776 5.41812 6.46916 5.85312C6.37836 6.39092 6.05156 6.88192 5.59416 7.17752C5.00636 7.57212 4.20236 7.61352 3.57716 7.28132C3.37896 7.18372 3.20016 7.05012 3.05176 6.88632C2.89696 6.74052 2.77916 6.55972 2.68976 6.36772C2.48816 5.96772 2.44696 5.49752 2.53836 5.06212C2.58096 4.84352 2.67816 4.64152 2.78636 4.44872C2.86916 4.30972 2.97336 4.18472 3.09176 4.07472C3.23556 3.91892 3.41236 3.79592 3.60376 3.70592C3.80356 3.60232 4.02276 3.53892 4.24536 3.50932Z" fill="#848595"/>
<path d="M15.2741 7.83522C15.4849 7.78542 15.7039 7.79162 15.9187 7.80242C16.4579 7.85862 16.9757 8.14142 17.2985 8.57942C18.0811 9.64342 18.8659 10.7056 19.6475 11.7704C19.7641 11.9234 19.8685 12.086 19.9987 12.2282V16.5672C19.9471 16.8904 19.8571 17.2112 19.6965 17.4982C19.3875 18.0664 18.8667 18.506 18.2723 18.7528C17.8767 18.9168 17.4481 19.012 17.0187 18.9992C12.4321 18.9992 7.84531 18.999 3.25871 18.9994C3.03211 19.007 2.80451 19.0086 2.57911 18.9828C1.95591 18.8994 1.34571 18.6478 0.878906 18.2212C3.80431 16.0672 6.72991 13.9134 9.65411 11.7578C9.65991 12.5046 9.65311 13.2514 9.65751 13.9982C10.2425 13.9994 10.8277 14.001 11.4127 13.9972C11.4129 12.8132 11.4111 11.629 11.4137 10.445C11.4981 10.4024 11.5747 10.347 11.6495 10.2898C12.5623 9.61562 13.4773 8.94482 14.3899 8.27042C14.6479 8.06342 14.9495 7.90542 15.2741 7.83522Z" fill="#848595"/>
</g>
<defs>
<clipPath id="clip0_7840_8753">
<rect width="20" height="20" fill="white"/>
</clipPath>
</defs>
</svg>
