<svg width="610" height="200" viewBox="0 0 610 200" fill="none" xmlns="http://www.w3.org/2000/svg">
<g clip-path="url(#clip0_7530_142068)">
<path d="M175.314 20H211.241C211.164 21.1776 210.93 22.3392 210.738 23.5008C205.043 57.7984 199.325 92.0928 193.652 126.394C200.498 126.41 207.34 126.384 214.185 126.403C212.888 134.365 211.536 142.314 210.2 150.269C203.361 150.288 196.519 150.266 189.677 150.278C188.018 160.186 186.407 170.099 184.722 180H157.072C158.654 170.086 160.349 160.189 161.969 150.282C136.574 150.269 111.176 150.282 85.7812 150.275C86.9024 143.107 88.1132 135.952 89.2535 128.787C89.3816 128.035 89.4201 127.206 89.9742 126.621C114.405 96.0992 138.804 65.5552 163.231 35.0304C167.264 30.0256 171.204 24.944 175.314 20ZM177.348 52.8768C158.17 76.8512 139.022 100.851 119.844 124.829C119.428 125.238 119.498 125.862 119.376 126.39C135.04 126.387 150.707 126.438 166.371 126.365C170.371 101.859 174.459 77.3664 178.508 52.8672C178.216 52.8704 177.639 52.8736 177.348 52.8768Z" fill="black" fill-opacity="0.1"/>
<path d="M319.404 20H326.669C330.41 20.32 334.145 20.768 337.803 21.6192C348.614 24.0416 358.8 29.1808 367.148 36.4576C375.726 43.872 382.424 53.4656 386.328 64.1152C390.393 75.1168 391.546 87.1776 389.599 98.7456C387.786 109.766 383.18 120.32 376.293 129.123C373.935 132.182 371.238 134.96 368.49 137.667C360.735 145.389 353.044 153.174 345.215 160.826C336.948 168.534 326.688 174.093 315.707 176.81C304.608 179.581 292.804 179.514 281.747 176.576C271.429 173.853 261.785 168.634 253.876 161.472C245.054 153.558 238.353 143.293 234.74 132.003C231.745 122.842 230.88 113.046 231.908 103.482C233.452 89.504 239.542 76.0832 249.039 65.7024C252.223 62.2752 255.622 59.056 258.902 55.7216C264.238 50.3872 269.584 45.0624 274.918 39.7248C278.922 35.7408 283.413 32.2368 288.275 29.36C297.686 23.7632 308.478 20.5888 319.404 20ZM264.274 72.2496C264.299 90.8864 264.216 109.523 264.238 128.16C269.886 131.472 275.562 134.739 281.25 137.987C292.1 144.304 302.965 150.602 313.843 156.874C318.372 154.275 322.883 151.638 327.405 149.03C327.495 141.962 327.345 134.893 327.482 127.824C328.379 128.451 329.151 129.293 330.215 129.658C332.736 130.634 335.526 130.067 338.002 129.229C341.461 127.984 344.632 126.035 347.573 123.85C352.269 120.301 356.25 115.776 359.011 110.573C361.853 105.277 363.336 99.2768 363.342 93.2704C363.185 89.968 362.836 86.4704 360.937 83.6576C359.614 81.6096 357.263 80.256 354.818 80.192C350.456 79.9296 346.381 81.9328 342.698 84.0448C339.392 85.9456 336.115 87.9008 332.752 89.6992C334.398 88.3904 336.262 87.3472 337.771 85.8656C339.683 83.7856 341.461 81.184 341.256 78.224C340.997 74.848 338.655 72.0832 336.144 70.0096C328.575 63.9232 318.568 60.9344 308.894 62.0288C309.246 61.7792 309.608 61.5424 309.98 61.3152C315.826 57.9488 321.653 54.5568 327.498 51.1904C323.072 48.5568 318.577 46.0416 314.128 43.4464C297.491 53.0144 280.927 62.7136 264.274 72.2496Z" fill="black" fill-opacity="0.1"/>
<path d="M485.395 20H521.328C520.444 26.4256 519.23 32.8064 518.218 39.2128C513.391 68.272 508.547 97.328 503.736 126.387C510.575 126.413 517.417 126.39 524.259 126.4V126.678C522.904 134.528 521.616 142.39 520.303 150.25C513.455 150.32 506.606 150.246 499.758 150.285C498.108 160.189 496.474 170.096 494.818 180H467.357C467.159 179.04 467.463 178.083 467.607 177.139C469.084 168.186 470.58 159.235 472.05 150.278C446.652 150.272 421.254 150.282 395.855 150.275C397.118 142.602 398.287 134.906 399.645 127.254C403.418 122.291 407.429 117.491 411.292 112.592C428.551 91.0016 445.813 69.4176 463.075 47.8368C470.525 38.5664 477.877 29.216 485.395 20ZM487.429 52.8736C468.267 76.8512 449.115 100.835 429.95 124.81C429.508 125.222 429.576 125.85 429.479 126.394C445.118 126.416 460.752 126.374 476.387 126.416C480.513 101.91 484.527 77.3856 488.585 52.8672C488.297 52.8704 487.717 52.8736 487.429 52.8736Z" fill="black" fill-opacity="0.1"/>
<path d="M304.346 66.2648C309.859 65.4232 315.756 66.5176 320.369 69.7272C322.05 70.9272 323.716 72.5752 323.921 74.7448C324.113 76.9112 322.662 78.8024 321.038 80.0664C313.751 85.7848 302.7 85.9224 295.24 80.4472C293.699 79.276 292.245 77.7048 291.995 75.7048C291.751 73.6504 293.026 71.7784 294.532 70.5112C297.312 68.1976 300.794 66.8248 304.346 66.2648Z" fill="black" fill-opacity="0.1"/>
<path d="M277.852 79.9941C289.345 86.6213 300.831 93.2581 312.318 99.8949C312.827 100.221 313.443 100.433 313.843 100.906C313.715 104.33 313.708 107.767 313.846 111.194C313.827 117.485 313.865 123.777 313.859 130.065C313.814 131.223 313.939 132.391 313.747 133.54C313.324 129.908 312.754 126.26 311.408 122.836C307.789 113.111 300.053 105.159 290.748 100.679C287.737 99.3029 284.268 98.1637 280.968 99.1461C279.719 99.4661 278.832 100.426 277.839 101.175C277.746 94.1125 277.874 87.0533 277.852 79.9941Z" fill="black" fill-opacity="0.1"/>
<path d="M341.807 94.1345C343.646 93.5553 345.93 93.5137 347.419 94.9217C349.043 96.4673 349.431 98.8417 349.521 100.979C349.892 109.51 344.565 117.888 336.794 121.366C334.792 122.237 332.307 122.749 330.324 121.555C328.434 120.4 327.71 118.086 327.534 115.994C326.736 106.646 332.941 97.1873 341.807 94.1345Z" fill="black" fill-opacity="0.1"/>
<path d="M282.154 106.793C284.547 106.323 286.918 107.343 288.958 108.502C294.765 111.849 298.888 117.977 299.714 124.633C299.961 126.991 299.996 129.452 299.211 131.721C298.68 133.295 297.434 134.726 295.742 135.049C293.212 135.523 290.739 134.415 288.599 133.177C282.853 129.747 278.756 123.625 277.942 116.969C277.689 114.467 277.654 111.791 278.785 109.478C279.425 108.134 280.675 107.075 282.154 106.793Z" fill="black" fill-opacity="0.1"/>
</g>
<defs>
<clipPath id="clip0_7530_142068">
<rect width="438.518" height="160" fill="white" transform="translate(85.7402 20)"/>
</clipPath>
</defs>
</svg>
