<svg width="440" height="160" viewBox="0 0 440 160" fill="none" xmlns="http://www.w3.org/2000/svg">
<g clip-path="url(#clip0_7533_142404)">
<path d="M90.314 0H126.241C126.164 1.1776 125.93 2.3392 125.738 3.5008C120.043 37.7984 114.325 72.0928 108.652 106.394C115.498 106.41 122.34 106.384 129.185 106.403C127.888 114.365 126.536 122.314 125.2 130.269C118.361 130.288 111.519 130.266 104.677 130.278C103.018 140.186 101.407 150.099 99.7218 160H72.0717C73.6541 150.086 75.3486 140.189 76.9694 130.282C51.5744 130.269 26.1762 130.282 0.78125 130.275C1.90237 123.107 3.11318 115.952 4.25352 108.787C4.38165 108.035 4.42009 107.206 4.97424 106.621C29.4051 76.0992 53.8039 45.5552 78.2315 15.0304C82.2643 10.0256 86.2043 4.944 90.314 0ZM92.348 32.8768C73.1704 56.8512 54.0217 80.8512 34.8441 104.829C34.4277 105.238 34.4982 105.862 34.3764 106.39C50.0401 106.387 65.707 106.438 81.3706 106.365C85.3714 81.8592 89.4587 57.3664 93.5076 32.8672C93.2161 32.8704 92.6395 32.8736 92.348 32.8768Z" fill="black" fill-opacity="0.1"/>
<path d="M234.404 0H241.669C245.41 0.32 249.145 0.768 252.803 1.6192C263.614 4.0416 273.8 9.1808 282.148 16.4576C290.726 23.872 297.424 33.4656 301.328 44.1152C305.393 55.1168 306.546 67.1776 304.599 78.7456C302.786 89.7664 298.18 100.32 291.293 109.123C288.935 112.182 286.238 114.96 283.49 117.667C275.735 125.389 268.044 133.174 260.215 140.826C251.948 148.534 241.688 154.093 230.707 156.81C219.608 159.581 207.804 159.514 196.747 156.576C186.429 153.853 176.785 148.634 168.876 141.472C160.054 133.558 153.353 123.293 149.74 112.003C146.745 102.842 145.88 93.0464 146.908 83.4816C148.452 69.504 154.542 56.0832 164.039 45.7024C167.223 42.2752 170.622 39.056 173.902 35.7216C179.238 30.3872 184.584 25.0624 189.918 19.7248C193.922 15.7408 198.413 12.2368 203.275 9.36C212.686 3.7632 223.478 0.5888 234.404 0ZM179.274 52.2496C179.299 70.8864 179.216 89.5232 179.238 108.16C184.886 111.472 190.562 114.739 196.25 117.987C207.1 124.304 217.965 130.602 228.843 136.874C233.372 134.275 237.883 131.638 242.405 129.03C242.495 121.962 242.345 114.893 242.482 107.824C243.379 108.451 244.151 109.293 245.215 109.658C247.736 110.634 250.526 110.067 253.002 109.229C256.461 107.984 259.632 106.035 262.573 103.85C267.269 100.301 271.25 95.776 274.011 90.5728C276.853 85.2768 278.336 79.2768 278.342 73.2704C278.185 69.968 277.836 66.4704 275.937 63.6576C274.614 61.6096 272.263 60.256 269.818 60.192C265.456 59.9296 261.381 61.9328 257.698 64.0448C254.392 65.9456 251.115 67.9008 247.752 69.6992C249.398 68.3904 251.262 67.3472 252.771 65.8656C254.683 63.7856 256.461 61.184 256.256 58.224C255.997 54.848 253.655 52.0832 251.144 50.0096C243.575 43.9232 233.568 40.9344 223.894 42.0288C224.246 41.7792 224.608 41.5424 224.98 41.3152C230.826 37.9488 236.653 34.5568 242.498 31.1904C238.072 28.5568 233.577 26.0416 229.128 23.4464C212.491 33.0144 195.927 42.7136 179.274 52.2496Z" fill="black" fill-opacity="0.1"/>
<path d="M400.395 0H436.328C435.444 6.4256 434.23 12.8064 433.218 19.2128C428.391 48.272 423.547 77.328 418.736 106.387C425.575 106.413 432.417 106.39 439.259 106.4V106.678C437.904 114.528 436.616 122.39 435.303 130.25C428.455 130.32 421.606 130.246 414.758 130.285C413.108 140.189 411.474 150.096 409.818 160H382.357C382.159 159.04 382.463 158.083 382.607 157.139C384.084 148.186 385.58 139.235 387.05 130.278C361.652 130.272 336.254 130.282 310.855 130.275C312.118 122.602 313.287 114.906 314.645 107.254C318.418 102.291 322.429 97.4912 326.292 92.592C343.551 71.0016 360.813 49.4176 378.075 27.8368C385.525 18.5664 392.877 9.216 400.395 0ZM402.429 32.8736C383.267 56.8512 364.115 80.8352 344.95 104.81C344.508 105.222 344.576 105.85 344.479 106.394C360.118 106.416 375.752 106.374 391.387 106.416C395.513 81.9104 399.527 57.3856 403.585 32.8672C403.297 32.8704 402.717 32.8736 402.429 32.8736Z" fill="black" fill-opacity="0.1"/>
<path d="M219.346 46.2648C224.859 45.4232 230.756 46.5176 235.369 49.7272C237.05 50.9272 238.716 52.5752 238.921 54.7448C239.113 56.9112 237.662 58.8024 236.038 60.0664C228.751 65.7848 217.7 65.9224 210.24 60.4472C208.699 59.276 207.245 57.7048 206.995 55.7048C206.751 53.6504 208.026 51.7784 209.532 50.5112C212.312 48.1976 215.794 46.8248 219.346 46.2648Z" fill="black" fill-opacity="0.1"/>
<path d="M192.852 59.9941C204.345 66.6213 215.831 73.2581 227.318 79.8949C227.827 80.2213 228.443 80.4325 228.843 80.9061C228.715 84.3301 228.708 87.7669 228.846 91.1941C228.827 97.4853 228.865 103.777 228.859 110.065C228.814 111.223 228.939 112.391 228.747 113.54C228.324 109.908 227.754 106.26 226.408 102.836C222.789 93.1109 215.053 85.1589 205.748 80.6789C202.737 79.3029 199.268 78.1637 195.968 79.1461C194.719 79.4661 193.832 80.4261 192.839 81.1749C192.746 74.1125 192.874 67.0533 192.852 59.9941Z" fill="black" fill-opacity="0.1"/>
<path d="M256.807 74.1345C258.646 73.5553 260.93 73.5137 262.419 74.9217C264.043 76.4673 264.431 78.8417 264.521 80.9793C264.892 89.5105 259.565 97.8881 251.794 101.366C249.792 102.237 247.307 102.749 245.324 101.555C243.434 100.4 242.71 98.0865 242.534 95.9937C241.736 86.6465 247.941 77.1873 256.807 74.1345Z" fill="black" fill-opacity="0.1"/>
<path d="M197.154 86.7931C199.547 86.3227 201.918 87.3435 203.958 88.5019C209.765 91.8491 213.888 97.9771 214.714 104.633C214.961 106.991 214.996 109.452 214.211 111.721C213.68 113.295 212.434 114.726 210.742 115.049C208.212 115.523 205.739 114.415 203.599 113.177C197.853 109.747 193.756 103.625 192.942 96.969C192.689 94.4666 192.654 91.7914 193.785 89.4778C194.425 88.1338 195.675 87.0747 197.154 86.7931Z" fill="black" fill-opacity="0.1"/>
</g>
<defs>
<clipPath id="clip0_7533_142404">
<rect width="438.518" height="160" fill="white" transform="translate(0.740234)"/>
</clipPath>
</defs>
</svg>
