<svg width="20" height="20" viewBox="0 0 20 20" fill="none" xmlns="http://www.w3.org/2000/svg">
<path d="M2.8428 1H17.1554C17.8278 1.03222 18.4862 1.27144 18.9894 1.675C19.5894 2.14732 19.9588 2.84284 20 3.5587V16.4393C19.964 17.0533 19.6908 17.6538 19.2314 18.1094C18.707 18.6384 17.943 18.9633 17.157 19H2.8452C2.1728 18.968 1.5142 18.7287 1.011 18.3252C0.4108 17.8529 0.041 17.1572 0 16.4413V3.56068C0.041 2.82286 0.4328 2.107 1.0638 1.6336C1.5592 1.25488 2.1946 1.03186 2.8428 1Z" fill="#76788E"/>
<path d="M4.28634 3.50662C4.70254 3.46422 5.13294 3.55002 5.49494 3.76162C5.91194 3.99822 6.23774 4.39162 6.39134 4.84582C6.51554 5.19862 6.53194 5.58642 6.45014 5.95062C6.36714 6.30382 6.18934 6.63582 5.93394 6.89422C5.62494 7.21642 5.20314 7.42722 4.76054 7.48402C4.32914 7.54062 3.87834 7.45522 3.50174 7.23562C3.08474 6.99882 2.75894 6.60562 2.60514 6.15122C2.48114 5.79842 2.46474 5.41062 2.54654 5.04662C2.63354 4.67502 2.82634 4.32722 3.10274 4.06302C3.41814 3.74882 3.84494 3.55422 4.28634 3.50662Z" fill="black" fill-opacity="0.1"/>
<path d="M14.7513 8.03321C15.0415 7.88001 15.3691 7.78901 15.6985 7.79741C16.3349 7.78321 16.9649 8.10861 17.3303 8.62821C18.1265 9.70581 18.9195 10.7856 19.7143 11.8642C19.8055 11.989 19.8933 12.1172 19.9985 12.2312V16.5472C19.9505 16.882 19.8559 17.2124 19.6887 17.508C19.3893 18.0538 18.8937 18.4792 18.3257 18.7274C17.9647 18.8874 17.5731 18.981 17.1787 18.9996C12.6053 19.0004 8.03192 18.9998 3.45852 19C3.11432 18.9922 2.76572 19.0256 2.42572 18.956C1.86032 18.8556 1.31492 18.6108 0.886719 18.2246C1.30392 17.9084 1.72952 17.6036 2.14972 17.2914C6.15012 14.345 10.1505 11.3988 14.1509 8.45261C14.3517 8.31361 14.5355 8.14921 14.7513 8.03321Z" fill="black" fill-opacity="0.1"/>
<path d="M7 9.5L10 6.5L13 9.5" stroke="white" stroke-width="2" stroke-linecap="round" stroke-linejoin="round"/>
<path d="M10 6.5V13.5" stroke="white" stroke-width="2" stroke-linecap="round" stroke-linejoin="round"/>
</svg>
