<svg width="20" height="21" viewBox="0 0 20 21" fill="none" xmlns="http://www.w3.org/2000/svg">
<path d="M2.8428 1.5H17.1554C17.8278 1.53222 18.4862 1.77144 18.9894 2.175C19.5894 2.64732 19.9588 3.34284 20 4.0587V16.9393C19.964 17.5533 19.6908 18.1538 19.2314 18.6094C18.707 19.1384 17.943 19.4633 17.157 19.5H2.8452C2.1728 19.468 1.5142 19.2287 1.011 18.8252C0.4108 18.3529 0.041 17.6572 0 16.9413V4.06068C0.041 3.32286 0.4328 2.607 1.0638 2.1336C1.5592 1.75488 2.1946 1.53186 2.8428 1.5Z" fill="#DDDDDD"/>
<path d="M4.28634 4.00662C4.70254 3.96422 5.13294 4.05002 5.49494 4.26162C5.91194 4.49822 6.23774 4.89162 6.39134 5.34582C6.51554 5.69862 6.53194 6.08642 6.45014 6.45062C6.36714 6.80382 6.18934 7.13582 5.93394 7.39422C5.62494 7.71642 5.20314 7.92722 4.76054 7.98402C4.32914 8.04062 3.87834 7.95522 3.50174 7.73562C3.08474 7.49882 2.75894 7.10562 2.60514 6.65122C2.48114 6.29842 2.46474 5.91062 2.54654 5.54662C2.63354 5.17502 2.82634 4.82722 3.10274 4.56302C3.41814 4.24882 3.84494 4.05422 4.28634 4.00662Z" fill="black" fill-opacity="0.1"/>
<path d="M14.7513 8.53321C15.0415 8.38001 15.3691 8.28901 15.6985 8.29741C16.3349 8.28321 16.9649 8.60861 17.3303 9.12821C18.1265 10.2058 18.9195 11.2856 19.7143 12.3642C19.8055 12.489 19.8933 12.6172 19.9985 12.7312V17.0472C19.9505 17.382 19.8559 17.7124 19.6887 18.008C19.3893 18.5538 18.8937 18.9792 18.3257 19.2274C17.9647 19.3874 17.5731 19.481 17.1787 19.4996C12.6053 19.5004 8.03192 19.4998 3.45852 19.5C3.11432 19.4922 2.76572 19.5256 2.42572 19.456C1.86032 19.3556 1.31492 19.1108 0.886719 18.7246C1.30392 18.4084 1.72952 18.1036 2.14972 17.7914C6.15012 14.845 10.1505 11.8988 14.1509 8.95261C14.3517 8.81361 14.5355 8.64921 14.7513 8.53321Z" fill="black" fill-opacity="0.1"/>
<path d="M13.5 10.5H6.5" stroke="white" stroke-width="2" stroke-linecap="round" stroke-linejoin="round"/>
<path d="M10 7V14" stroke="white" stroke-width="2" stroke-linecap="round" stroke-linejoin="round"/>
</svg>
