<svg width="18" height="13" viewBox="0 0 18 13" fill="none" xmlns="http://www.w3.org/2000/svg">
  <path d="M16.6543 0.154546C16.8481 0.0177357 17.1 -0.0322143 17.3307 0.0206888C17.5674 0.0703931 17.7773 0.230086 17.8939 0.442683C18.0415 0.708183 18.0349 1.05365 17.8756 1.31251C17.8137 1.41881 17.7199 1.49951 17.6356 1.58637C13.9865 5.26105 10.3374 8.93572 6.6883 12.6104C6.58934 12.7073 6.49845 12.8166 6.37603 12.885C6.0596 13.0742 5.62514 13.0262 5.36003 12.7684C3.72631 11.1242 2.09357 9.47927 0.460349 7.83484C0.342817 7.70837 0.202072 7.6001 0.115329 7.44779C-0.0222397 7.2128 -0.0371448 6.91113 0.0728121 6.66261C0.17104 6.43722 0.369695 6.25931 0.604026 6.18894C0.909217 6.0915 1.2601 6.18697 1.47953 6.42048C2.97079 7.9185 4.45838 9.42046 5.94891 10.9192C9.44529 7.39759 12.9422 3.87671 16.4388 0.355577C16.5092 0.286926 16.5732 0.210647 16.6543 0.154546Z" fill="#9294A5" />
</svg>