<svg width="14" height="14" viewBox="0 0 14 14" fill="none" xmlns="http://www.w3.org/2000/svg">
  <path d="M6.91465 0.225841C8.07685 0.208441 9.2425 0.496891 10.2607 1.05834C11.2377 1.59444 12.0787 2.37519 12.6852 3.31014C13.2312 4.14729 13.587 5.10744 13.7173 6.09834C13.8424 7.03749 13.7707 8.00304 13.5034 8.91234C13.1577 10.0981 12.4758 11.1821 11.5617 12.0119C10.6462 12.8479 9.49705 13.4255 8.27845 13.6553C7.27975 13.8455 6.23845 13.81 5.25595 13.5485C4.2838 13.2911 3.37225 12.811 2.6077 12.158C1.7758 11.4502 1.11835 10.5385 0.712004 9.52449C0.216254 8.29524 0.0983538 6.91929 0.366854 5.62209C0.593054 4.51704 1.10545 3.47334 1.8364 2.61474C2.4523 1.88934 3.22225 1.29489 4.08115 0.884791C4.96255 0.462091 5.93725 0.236491 6.91465 0.225841ZM6.9307 1.27554C5.79595 1.28679 4.6675 1.64634 3.7378 2.29734C2.833 2.92479 2.1145 3.81789 1.69975 4.83804C1.40245 5.56374 1.2589 6.35199 1.279 7.13574C1.30165 8.31324 1.7044 9.47934 2.4118 10.4209C3.0649 11.2987 3.97435 11.9836 5.00005 12.365C5.9725 12.7297 7.045 12.8189 8.065 12.6263C8.8384 12.4819 9.5803 12.1732 10.2292 11.7284C10.8582 11.2985 11.4003 10.742 11.8135 10.1021C12.2602 9.41229 12.5553 8.62494 12.6694 7.81104C12.8205 6.75729 12.6726 5.66139 12.2401 4.68819C11.8003 3.69039 11.0676 2.82444 10.1574 2.22399C9.2101 1.59189 8.06875 1.25904 6.9307 1.27554Z" fill="#424C70" />
  <path d="M5.21368 4.54926C5.29633 4.37916 5.47708 4.25886 5.66743 4.25781C6.86293 4.25826 8.05829 4.25766 9.25379 4.25811C9.51059 4.26531 9.73498 4.49151 9.74458 4.74741C9.74503 5.94306 9.74443 7.13871 9.74488 8.33436C9.74398 8.49876 9.65473 8.65791 9.51928 8.74986C9.39403 8.83866 9.22859 8.86281 9.08129 8.82351C8.93189 8.78391 8.80363 8.67351 8.74153 8.53206C8.69953 8.44251 8.69278 8.34186 8.69458 8.24451C8.69488 7.51386 8.69458 6.78321 8.69473 6.05256C7.83973 6.90696 6.98518 7.76196 6.13033 8.61666C6.06073 8.68821 5.98783 8.76111 5.89378 8.79921C5.68813 8.88996 5.42759 8.83191 5.28434 8.65731C5.14814 8.50086 5.12144 8.26161 5.21684 8.07786C5.24969 8.00961 5.30188 7.95366 5.35618 7.90206C6.22093 7.03746 7.08568 6.17286 7.95013 5.30796C7.19923 5.30781 6.44848 5.30826 5.69758 5.30781C5.55103 5.30931 5.40464 5.25081 5.30399 5.14356C5.15414 4.98951 5.11858 4.74111 5.21368 4.54926Z" fill="#424C70" />
</svg>