<svg width="16" height="16" viewBox="0 0 16 16" fill="none" xmlns="http://www.w3.org/2000/svg">
  <path d="M7.5025 0.157801C7.76113 -0.0305336 8.12604 -0.0511058 8.4067 0.100493C8.67855 0.244009 8.85881 0.541084 8.85856 0.848689C8.86101 1.06837 8.77701 1.28879 8.62418 1.44725C6.72541 3.34553 4.82712 5.24431 2.92834 7.1426C7.00313 7.14358 11.0777 7.14309 15.1522 7.14284C15.4422 7.14186 15.7238 7.30228 15.8745 7.54939C16.0733 7.86337 16.0346 8.3069 15.7785 8.57777C15.621 8.75385 15.3876 8.85721 15.1517 8.8577C11.0772 8.85745 7.00289 8.85721 2.92859 8.8577C4.82614 10.756 6.72467 12.6535 8.62222 14.5518C8.93791 14.8668 8.93497 15.4318 8.61439 15.7423C8.31168 16.0715 7.7457 16.0872 7.42315 15.7786C7.13612 15.5023 6.85888 15.2158 6.57552 14.9356C4.50653 12.8666 2.43754 10.7976 0.368554 8.72863C0.261039 8.62209 0.14887 8.51409 0.0847043 8.37425C-0.0661595 8.0686 -0.0125247 7.67332 0.221853 7.42424C2.53722 5.10986 4.85185 2.79449 7.16698 0.479611C7.27963 0.373566 7.37931 0.252336 7.5025 0.157801Z" fill="#000" />
</svg>