<svg width="20" height="20" viewBox="0 0 20 20" fill="none" xmlns="http://www.w3.org/2000/svg">
<path d="M9.5025 2.1578C9.76113 1.96947 10.126 1.94889 10.4067 2.10049C10.6786 2.24401 10.8588 2.54108 10.8586 2.84869C10.861 3.06837 10.777 3.28879 10.6242 3.44725C8.72541 5.34553 6.82712 7.24431 4.92834 9.1426C9.00313 9.14358 13.0777 9.14309 17.1522 9.14284C17.4422 9.14186 17.7238 9.30228 17.8745 9.54939C18.0733 9.86337 18.0346 10.3069 17.7785 10.5778C17.621 10.7539 17.3876 10.8572 17.1517 10.8577C13.0772 10.8575 9.00289 10.8572 4.92859 10.8577C6.82614 12.756 8.72467 14.6535 10.6222 16.5518C10.9379 16.8668 10.935 17.4318 10.6144 17.7423C10.3117 18.0715 9.7457 18.0872 9.42315 17.7786C9.13612 17.5023 8.85888 17.2158 8.57552 16.9356C6.50653 14.8666 4.43754 12.7976 2.36855 10.7286C2.26104 10.6221 2.14887 10.5141 2.0847 10.3742C1.93384 10.0686 1.98748 9.67332 2.22185 9.42425C4.53722 7.10986 6.85185 4.79449 9.16698 2.47961C9.27964 2.37357 9.37931 2.25234 9.5025 2.1578Z" fill="white"/>
</svg>
