<svg width="20" height="21" viewBox="0 0 20 21" fill="none" xmlns="http://www.w3.org/2000/svg">
<path d="M17.8422 10.0025C18.0305 10.2611 18.0511 10.626 17.8995 10.9067C17.756 11.1786 17.4589 11.3588 17.1513 11.3586C16.9316 11.361 16.7112 11.277 16.5528 11.1242C14.6545 9.22541 12.7557 7.32712 10.8574 5.42834C10.8564 9.50313 10.8569 13.5777 10.8572 17.6522C10.8581 17.9422 10.6977 18.2238 10.4506 18.3745C10.1366 18.5733 9.6931 18.5346 9.42223 18.2785C9.24614 18.121 9.14279 17.8876 9.1423 17.6517C9.14255 13.5772 9.14279 9.50289 9.1423 5.42859C7.24402 7.32614 5.34646 9.22467 3.44817 11.1222C3.13322 11.4379 2.56822 11.435 2.25767 11.1144C1.92852 10.8117 1.91284 10.2457 2.22143 9.92315C2.49768 9.63612 2.78423 9.35888 3.0644 9.07552C5.13339 7.00653 7.20238 4.93754 9.27137 2.86855C9.37791 2.76104 9.48591 2.64887 9.62575 2.5847C9.9314 2.43384 10.3267 2.48747 10.5758 2.72185C12.8901 5.03722 15.2055 7.35185 17.5204 9.66698C17.6264 9.77964 17.7477 9.87931 17.8422 10.0025Z" fill="#424C70"/>
</svg>
