<svg width="17" height="16" viewBox="0 0 17 16" fill="none" xmlns="http://www.w3.org/2000/svg">
  <path d="M8.0025 0.157801C8.26113 -0.0305336 8.62604 -0.0511058 8.9067 0.100493C9.17855 0.244009 9.35881 0.541084 9.35856 0.848689C9.36101 1.06837 9.27701 1.28879 9.12418 1.44725C7.22541 3.34553 5.32712 5.24431 3.42834 7.1426C7.50313 7.14358 11.5777 7.14309 15.6522 7.14284C15.9422 7.14186 16.2238 7.30228 16.3745 7.54939C16.5733 7.86337 16.5346 8.3069 16.2785 8.57777C16.121 8.75385 15.8876 8.85721 15.6517 8.8577C11.5772 8.85745 7.50289 8.85721 3.42859 8.8577C5.32614 10.756 7.22467 12.6535 9.12222 14.5518C9.43791 14.8668 9.43497 15.4318 9.11439 15.7423C8.81168 16.0715 8.2457 16.0872 7.92315 15.7786C7.63612 15.5023 7.35888 15.2158 7.07552 14.9356C5.00653 12.8666 2.93754 10.7976 0.868554 8.72863C0.761039 8.62209 0.64887 8.51409 0.584704 8.37425C0.433841 8.0686 0.487475 7.67332 0.721853 7.42424C3.03722 5.10986 5.35185 2.79449 7.66698 0.479611C7.77963 0.373566 7.87931 0.252336 8.0025 0.157801Z" fill="black" fill-opacity="0.1" />
</svg>