<svg width="16" height="9" viewBox="0 0 16 9" fill="none" xmlns="http://www.w3.org/2000/svg">
  <path d="M0.182571 0.401127C0.373449 0.135807 0.709169 -0.0200854 1.03984 0.00218499C1.27872 0.0140076 1.50973 0.116836 1.679 0.282077C3.78623 2.34498 5.89206 4.40925 7.99958 6.47187C10.1026 4.41365 12.2045 2.35377 14.3067 0.294724C14.4563 0.145705 14.6539 0.041777 14.8658 0.0118082C15.1771 -0.0376816 15.5084 0.070646 15.7262 0.29445C16.0049 0.571868 16.0799 1.01947 15.9092 1.37058C15.8508 1.49705 15.7593 1.60538 15.6577 1.70078C13.3318 3.97731 11.0082 6.25604 8.68197 8.53202C8.44562 8.75445 8.09193 8.85123 7.77305 8.77342C7.58975 8.73136 7.42077 8.63705 7.28912 8.50563C4.95087 6.21425 2.61093 3.9248 0.273519 1.6326C-0.0523771 1.31256 -0.0925173 0.763777 0.182571 0.401127Z" fill="#9294A5" />
</svg>