<svg width="13" height="8" viewBox="0 0 13 8" fill="none" xmlns="http://www.w3.org/2000/svg">
  <path d="M1.42269 0.821447C1.63362 0.774769 1.86448 0.806656 2.04765 0.922295C2.14363 0.979154 2.21635 1.06425 2.29591 1.14013C3.41974 2.24446 4.54357 3.34879 5.6674 4.45312C5.94537 4.72358 6.21827 4.99962 6.49918 5.26663C6.63543 5.1458 6.75995 5.01172 6.8919 4.88609C8.20515 3.59563 9.51821 2.30516 10.8315 1.01488C10.9787 0.876577 11.1823 0.798012 11.3858 0.801662C11.6183 0.796283 11.8484 0.900204 12.0001 1.0727C12.2731 1.36583 12.2655 1.86277 11.9815 2.14649C10.3785 3.72164 8.77537 5.29678 7.17242 6.87212C7.09344 6.94857 7.01935 7.0329 6.92122 7.08688C6.60415 7.28147 6.15591 7.22115 5.90471 6.94858C4.27634 5.3473 2.647 3.74699 1.01824 2.1463C0.866738 1.99186 0.787959 1.77364 0.801251 1.56004C0.808875 1.2135 1.07981 0.896362 1.42269 0.821447Z" fill="#E64348" />
</svg>