<svg width="16" height="9" viewBox="0 0 16 9" fill="none" xmlns="http://www.w3.org/2000/svg">
  <path d="M0.182571 0.601322C0.373449 0.336002 0.709169 0.18011 1.03984 0.20238C1.27872 0.214203 1.50973 0.317031 1.679 0.482272C3.78623 2.54517 5.89206 4.60944 7.99958 6.67207C10.1026 4.61384 12.2045 2.55397 14.3067 0.494919C14.4563 0.3459 14.6539 0.241972 14.8658 0.212003C15.1771 0.162514 15.5084 0.270841 15.7262 0.494645C16.0049 0.772063 16.0799 1.21967 15.9092 1.57077C15.8508 1.69725 15.7593 1.80557 15.6577 1.90098C13.3318 4.17751 11.0082 6.45624 8.68197 8.73222C8.44562 8.95465 8.09193 9.05143 7.77305 8.97362C7.58975 8.93155 7.42077 8.83725 7.28912 8.70582C4.95087 6.41445 2.61093 4.125 0.273519 1.83279C-0.0523771 1.51276 -0.0925173 0.963973 0.182571 0.601322Z" fill="#9294A5" />
</svg>