<svg width="21" height="20" viewBox="0 0 21 20" fill="none" xmlns="http://www.w3.org/2000/svg">
<path d="M10.0025 2.1578C10.2611 1.96947 10.626 1.94889 10.9067 2.10049C11.1786 2.24401 11.3588 2.54108 11.3586 2.84869C11.361 3.06837 11.277 3.28879 11.1242 3.44725C9.22541 5.34553 7.32712 7.24431 5.42834 9.1426C9.50313 9.14358 13.5777 9.14309 17.6522 9.14284C17.9422 9.14186 18.2238 9.30228 18.3745 9.54939C18.5733 9.86337 18.5346 10.3069 18.2785 10.5778C18.121 10.7539 17.8876 10.8572 17.6517 10.8577C13.5772 10.8575 9.50289 10.8572 5.42859 10.8577C7.32614 12.756 9.22467 14.6535 11.1222 16.5518C11.4379 16.8668 11.435 17.4318 11.1144 17.7423C10.8117 18.0715 10.2457 18.0872 9.92315 17.7786C9.63612 17.5023 9.35888 17.2158 9.07552 16.9356C7.00653 14.8666 4.93754 12.7976 2.86855 10.7286C2.76104 10.6221 2.64887 10.5141 2.5847 10.3742C2.43384 10.0686 2.48748 9.67332 2.72185 9.42425C5.03722 7.10986 7.35185 4.79449 9.66698 2.47961C9.77964 2.37357 9.87931 2.25234 10.0025 2.1578Z" fill="#76788E"/>
</svg>
