<svg width="20" height="20" viewBox="0 0 20 20" fill="none" xmlns="http://www.w3.org/2000/svg">
<path d="M17.8422 9.5025C18.0305 9.76113 18.0511 10.126 17.8995 10.4067C17.756 10.6786 17.4589 10.8588 17.1513 10.8586C16.9316 10.861 16.7112 10.777 16.5528 10.6242C14.6545 8.72541 12.7557 6.82712 10.8574 4.92834C10.8564 9.00313 10.8569 13.0777 10.8572 17.1522C10.8581 17.4422 10.6977 17.7238 10.4506 17.8745C10.1366 18.0733 9.6931 18.0346 9.42223 17.7785C9.24614 17.621 9.14279 17.3876 9.1423 17.1517C9.14255 13.0772 9.14279 9.00289 9.1423 4.92859C7.24402 6.82614 5.34646 8.72467 3.44817 10.6222C3.13322 10.9379 2.56822 10.935 2.25767 10.6144C1.92852 10.3117 1.91284 9.7457 2.22143 9.42315C2.49768 9.13612 2.78423 8.85888 3.0644 8.57552C5.13339 6.50653 7.20238 4.43754 9.27137 2.36855C9.37791 2.26104 9.48591 2.14887 9.62575 2.0847C9.9314 1.93384 10.3267 1.98747 10.5758 2.22185C12.8901 4.53722 15.2055 6.85185 17.5204 9.16698C17.6264 9.27964 17.7477 9.37931 17.8422 9.5025Z" fill="#556290"/>
</svg>
