<svg width="200" height="200" viewBox="0 0 200 200" fill="none" xmlns="http://www.w3.org/2000/svg">
<g clip-path="url(#clip0_6533_129825)">
<path d="M146.304 76.8539C146.304 89.1325 141.426 100.908 132.744 109.59C124.061 118.273 112.286 123.15 100.007 123.15C87.7287 123.15 75.953 118.273 67.2708 109.59C58.5886 100.908 53.7109 89.1325 53.7109 76.8539C53.7109 64.5754 58.5886 52.7997 67.2708 44.1175C75.953 35.4352 87.7287 30.5576 100.007 30.5576C112.286 30.5576 124.061 35.4352 132.744 44.1175C141.426 52.7997 146.304 64.5754 146.304 76.8539Z" fill="#556290"/>
<path fill-rule="evenodd" clip-rule="evenodd" d="M95.2802 215.65C33.5499 213.173 -15.7383 162.339 -15.7383 100.001C-15.7383 36.0779 36.0789 -15.7393 100.002 -15.7393C163.926 -15.7393 215.743 36.0779 215.743 100.001C215.743 163.925 163.926 215.742 100.002 215.742H98.4168C97.3674 215.742 96.3219 215.711 95.2802 215.65ZM25.7316 173.034C24.8663 170.549 24.5717 167.901 24.8698 165.286C25.168 162.672 26.0511 160.158 27.4537 157.931C28.8563 155.705 30.7424 153.823 32.9719 152.425C35.2014 151.027 37.7172 150.149 40.3323 149.857C85.4481 144.863 114.835 145.314 159.73 149.961C162.349 150.234 164.871 151.1 167.104 152.495C169.337 153.89 171.223 155.776 172.617 158.009C174.011 160.242 174.877 162.765 175.149 165.383C175.421 168.002 175.092 170.648 174.186 173.121C193.429 153.653 204.205 127.374 204.169 100.001C204.169 42.4726 157.531 -4.16518 100.002 -4.16518C42.4735 -4.16518 -4.16421 42.4726 -4.16421 100.001C-4.16421 128.451 7.24205 154.238 25.7316 173.034Z" fill="#556290"/>
</g>
<defs>
<clipPath id="clip0_6533_129825">
<rect width="200" height="200" rx="100" fill="white"/>
</clipPath>
</defs>
</svg>
