<svg width="14" height="2" viewBox="0 0 14 2" fill="none" xmlns="http://www.w3.org/2000/svg">
  <path d="M1.02689 0.312771C1.07049 0.303971 1.11489 0.29957 1.15929 0.29917C5.00609 0.29957 8.85269 0.29917 12.6995 0.29937C12.7985 0.29957 12.8995 0.293371 12.9967 0.318371C13.1925 0.364771 13.3653 0.499771 13.4561 0.67957C13.5527 0.86717 13.5579 1.09877 13.4697 1.29057C13.3621 1.53377 13.1049 1.70077 12.8389 1.69937C9.01229 1.69917 5.18569 1.69937 1.35909 1.69937C1.23869 1.69657 1.11589 1.71017 0.997889 1.67957C0.768489 1.62597 0.573689 1.44637 0.501089 1.22237C0.425089 0.99997 0.470289 0.73937 0.620889 0.55797C0.722289 0.43237 0.868089 0.343171 1.02689 0.312771Z" fill="#B4B8BB" />
</svg>