<svg width="25" height="26" viewBox="0 0 25 26" fill="none" xmlns="http://www.w3.org/2000/svg">
  <path d="M12.7002 5.52192C13.0247 5.51542 13.3495 5.50967 13.6745 5.51242C14.7392 5.51242 15.804 5.51242 16.8687 5.51242C16.869 10.5124 16.869 15.5124 16.8685 20.5124C16 20.5122 15.1312 20.5127 14.2625 20.5122C14.2622 16.1874 14.2627 11.8624 14.2625 7.53767C13.8997 7.53742 13.5372 7.53742 13.1747 7.53742C12.5955 7.53167 12.007 7.59767 11.4635 7.80742C11.035 7.97317 10.6357 8.23542 10.3512 8.60042C9.9955 9.04942 9.82925 9.62992 9.8375 10.1984C9.82825 10.7584 9.90625 11.3287 10.1327 11.8444C10.2995 12.2322 10.5557 12.5749 10.8485 12.8764C11.2197 13.2507 11.6442 13.5669 12.0775 13.8649C12.5572 14.1909 13.041 14.5114 13.5208 14.8374C12.4095 16.5029 11.2927 18.1649 10.1817 19.8304C10.0247 20.0559 9.879 20.2889 9.721 20.5137C8.78275 20.5112 7.8445 20.5127 6.90625 20.5129C8.0435 18.8222 9.18175 17.1322 10.3168 15.4399C9.6205 14.9369 8.9435 14.3919 8.398 13.7234C8.07925 13.3312 7.81 12.8964 7.621 12.4269C7.39575 11.8709 7.2825 11.2739 7.257 10.6759C7.21975 9.90767 7.32025 9.12417 7.616 8.41067C7.87575 7.77767 8.296 7.21217 8.82625 6.77942C9.3245 6.36967 9.91 6.07417 10.5232 5.87867C11.2257 5.65117 11.9637 5.54917 12.7002 5.52192Z" fill="white" />
  <path d="M12.1158 0.5H12.8848C13.9123 0.5365 14.9368 0.688 15.9255 0.9715C17.6983 1.47225 19.3533 2.378 20.7378 3.59225C22.0925 4.7775 23.1872 6.2585 23.9212 7.902C24.5857 9.38275 24.947 10.9945 25 12.6155V13.3848C24.9608 14.508 24.7813 15.6275 24.4468 16.7012C23.895 18.493 22.9278 20.1538 21.649 21.524C20.4193 22.8453 18.9005 23.8968 17.229 24.5788C15.8517 25.1445 14.3718 25.4505 12.8845 25.5H12.1155C10.4755 25.4465 8.84475 25.0773 7.35 24.3975C5.72125 23.662 4.25475 22.5703 3.08 21.2238C1.872 19.8423 0.97075 18.1928 0.47175 16.4262C0.188 15.437 0.0365 14.412 0 13.384V12.6152C0.0265 11.9307 0.09725 11.2473 0.2315 10.575C0.58025 8.78625 1.3325 7.0785 2.41175 5.6105C3.62225 3.95675 5.245 2.60725 7.0935 1.72225C8.657 0.96675 10.3813 0.55625 12.1158 0.5ZM12.7003 5.522C11.9638 5.54925 11.2257 5.65125 10.5232 5.87875C9.91 6.07425 9.3245 6.36975 8.82625 6.7795C8.296 7.21225 7.87575 7.77775 7.616 8.41075C7.32025 9.12425 7.21975 9.90775 7.257 10.676C7.2825 11.274 7.39575 11.871 7.621 12.427C7.81 12.8965 8.07925 13.3313 8.398 13.7235C8.9435 14.392 9.6205 14.937 10.3168 15.44C9.18175 17.1322 8.0435 18.8223 6.90625 20.513C7.8445 20.5128 8.78275 20.5112 9.721 20.5137C9.879 20.289 10.0247 20.056 10.1817 19.8305C11.2927 18.165 12.4095 16.503 13.5208 14.8375C13.041 14.5115 12.5573 14.191 12.0775 13.865C11.6443 13.567 11.2198 13.2508 10.8485 12.8765C10.5558 12.575 10.2995 12.2323 10.1328 11.8445C9.90625 11.3288 9.82825 10.7585 9.8375 10.1985C9.82925 9.63 9.9955 9.0495 10.3512 8.6005C10.6357 8.2355 11.035 7.97325 11.4635 7.8075C12.007 7.59775 12.5955 7.53175 13.1747 7.5375C13.5372 7.5375 13.8998 7.5375 14.2625 7.53775C14.2628 11.8625 14.2623 16.1875 14.2625 20.5123C15.1313 20.5128 16 20.5123 16.8685 20.5125C16.869 15.5125 16.869 10.5125 16.8688 5.5125C15.804 5.5125 14.7392 5.5125 13.6745 5.5125C13.3495 5.50975 13.0248 5.5155 12.7003 5.522Z" fill="#F8604A" />
</svg>