<svg width="21" height="20" viewBox="0 0 21 20" fill="none" xmlns="http://www.w3.org/2000/svg">
  <path d="M10.1926 0H10.8078C11.6298 0.0292 12.4494 0.1504 13.2404 0.3772C14.6586 0.7778 15.9826 1.5024 17.0902 2.4738C18.174 3.422 19.0498 4.6068 19.637 5.9216C20.1686 7.1062 20.4576 8.3956 20.5 9.6924V10.3078C20.4686 11.2064 20.325 12.102 20.0574 12.961C19.616 14.3944 18.8422 15.723 17.8192 16.8192C16.8354 17.8762 15.6204 18.7174 14.2832 19.263C13.1814 19.7156 11.9974 19.9604 10.8076 20H10.1924C8.8804 19.9572 7.5758 19.6618 6.38 19.118C5.077 18.5296 3.9038 17.6562 2.964 16.579C1.9976 15.4738 1.2766 14.1542 0.8774 12.741C0.6504 11.9496 0.5292 11.1296 0.5 10.3072V9.6922C0.5212 9.1446 0.5778 8.5978 0.6852 8.06C0.9642 6.629 1.566 5.2628 2.4294 4.0884C3.3978 2.7654 4.696 1.6858 6.1748 0.9778C7.4256 0.3734 8.805 0.045 10.1926 0ZM10.6602 4.0176C10.071 4.0394 9.4806 4.121 8.9186 4.303C8.428 4.4594 7.9596 4.6958 7.561 5.0236C7.1368 5.3698 6.8006 5.8222 6.5928 6.3286C6.3562 6.8994 6.2758 7.5262 6.3056 8.1408C6.326 8.6192 6.4166 9.0968 6.5968 9.5416C6.748 9.9172 6.9634 10.265 7.2184 10.5788C7.6548 11.1136 8.1964 11.5496 8.7534 11.952C7.8454 13.3058 6.9348 14.6578 6.025 16.0104C6.7756 16.0102 7.5262 16.009 8.2768 16.011C8.4032 15.8312 8.5198 15.6448 8.6454 15.4644C9.5342 14.132 10.4276 12.8024 11.3166 11.47C10.9328 11.2092 10.5458 10.9528 10.162 10.692C9.8154 10.4536 9.4758 10.2006 9.1788 9.9012C8.9446 9.66 8.7396 9.3858 8.6062 9.0756C8.425 8.663 8.3626 8.2068 8.37 7.7588C8.3634 7.304 8.4964 6.8396 8.781 6.4804C9.0086 6.1884 9.328 5.9786 9.6708 5.846C10.1056 5.6782 10.5764 5.6254 11.0398 5.63C11.3298 5.63 11.6198 5.63 11.91 5.6302C11.9102 9.09 11.9098 12.55 11.91 16.0098C12.605 16.0102 13.3 16.0098 13.9948 16.01C13.9952 12.01 13.9952 8.01 13.995 4.01C13.1432 4.01 12.2914 4.01 11.4396 4.01C11.1796 4.0078 10.9198 4.0124 10.6602 4.0176Z" fill="#556290" />
</svg>