<svg width="16" height="16" viewBox="0 0 16 16" fill="none" xmlns="http://www.w3.org/2000/svg">
    <path d="M12.0001 1.07181C13.2068 1.7685 14.2105 2.76825 14.912 3.97208C15.6135 5.17592 15.9885 6.54209 15.9997 7.93536C16.011 9.32863 15.6582 10.7007 14.9762 11.9157C14.2942 13.1307 13.3068 14.1465 12.1115 14.8626C10.9163 15.5787 9.55481 15.9702 8.16178 15.9984C6.76875 16.0266 5.39251 15.6905 4.16929 15.0234C2.94608 14.3562 1.91832 13.3812 1.18775 12.1948C0.457175 11.0083 0.049128 9.65168 0.00400014 8.25909L0 7.99989L0.00400014 7.74069C0.0488032 6.35906 0.450844 5.01262 1.17093 3.83263C1.89101 2.65264 2.90456 1.67937 4.11276 1.00771C5.32097 0.336046 6.6826 -0.0110908 8.0649 0.00014213C9.44721 0.0113751 10.803 0.380595 12.0001 1.07181ZM10.9657 5.83426C10.828 5.69652 10.6447 5.61378 10.4503 5.60155C10.2559 5.58932 10.0636 5.64846 9.90972 5.76786L9.83452 5.83426L7.20009 8.4679L6.16568 7.43428L6.09048 7.36788C5.93654 7.24857 5.74437 7.1895 5.54999 7.20176C5.35562 7.21403 5.17239 7.29678 5.03467 7.43449C4.89695 7.57221 4.81421 7.75544 4.80194 7.94981C4.78968 8.14419 4.84874 8.33636 4.96806 8.4903L5.03446 8.5655L6.63448 10.1655L6.70968 10.2319C6.84998 10.3408 7.02251 10.3999 7.20009 10.3999C7.37767 10.3999 7.55019 10.3408 7.69049 10.2319L7.7657 10.1655L10.9657 6.96548L11.0321 6.89028C11.1515 6.73635 11.2107 6.54415 11.1984 6.34973C11.1862 6.1553 11.1035 5.97202 10.9657 5.83426Z" fill="#28252E"/>
</svg>
